<?xml version="1.0" standalone="no"?>
<!DOCTYPE svg PUBLIC "-//W3C//DTD SVG 1.1//EN" "http://www.w3.org/Graphics/SVG/1.1/DTD/svg11.dtd" >
<svg xmlns="http://www.w3.org/2000/svg" xmlns:xlink="http://www.w3.org/1999/xlink" version="1.1">
<metadata>
Created by FontForge 20161003 at Sun Feb 12 10:34:11 2017
 By www-data
Copyright (c) 1990, 2001 Adobe Systems Incorporated.  All Rights Reserved.
</metadata>
<defs>
<font id="ITCSymbolStdMediumItalic" horiz-adv-x="648" >
  <font-face 
    font-family="ITCSymbolStdMediumItalic"
    font-weight="500"
    font-style="italic"
    font-stretch="normal"
    units-per-em="1000"
    panose-1="2 14 6 3 3 5 6 9 4 4"
    ascent="730"
    descent="-270"
    x-height="530"
    cap-height="730"
    bbox="-98 -212 1224 995"
    underline-thickness="50"
    underline-position="-140"
    slope="-13"
    unicode-range="U+0020-FB02"
  />
<missing-glyph horiz-adv-x="600" 
d="M100 0v700h500v-700h-500zM350 395l170 255h-340zM380 350l170 -255v510zM180 50h340l-170 255zM150 605v-510l170 255z" />
    <glyph glyph-name="fi" unicode="fi" horiz-adv-x="574" 
d="M511 632q-21 0 -34.5 13.5t-13.5 34.5q0 28 17.5 43.5t41.5 15.5q20 0 34 -14t14 -34q0 -23 -17.5 -41t-41.5 -18zM44 78l88 392h-69l12 60h69l13 59q19 81 60 118.5t120 37.5q38 0 81 -25l-20 -92q-2 3 -7.5 14.5t-10.5 19.5t-18 15.5t-31 7.5q-68 0 -87 -84l-15 -71
h297l-97 -452q-8 -34 -8 -50q0 -20 17 -28h-130q1 1 5.5 5t6 6t5.5 8t6.5 12.5t6 18.5t6.5 28l74 348q4 11 4 27q0 12 -19.5 14.5t-72.5 2.5h-113l-88 -392q-8 -34 -8 -50q0 -20 17 -28h-130q1 1 5.5 5t6 6t5.5 8t6.5 12.5t6 18.5t6.5 28z" />
    <glyph glyph-name="fl" unicode="fl" horiz-adv-x="574" 
d="M347 78l119 548q16 72 16 74q0 8 -1.5 12.5t-7.5 10.5t-6 7h106l-141 -652q-8 -34 -8 -50q0 -20 17 -28h-130q1 1 5.5 5t6 6t5.5 8t6.5 12.5t6 18.5t6.5 28zM44 78l88 392h-69l12 60h69l13 59q19 81 60 118.5t120 37.5q33 0 81 -25l-20 -92q-2 3 -7.5 14.5t-10.5 19.5
t-18 15.5t-31 7.5q-68 0 -87 -84l-15 -71h112l-11 -60h-113l-88 -392q-8 -34 -8 -50q0 -20 17 -28h-130q1 1 5.5 5t6 6t5.5 8t6.5 12.5t6 18.5t6.5 28z" />
    <glyph glyph-name=".notdef" horiz-adv-x="600" 
d="M100 0v700h500v-700h-500zM350 395l170 255h-340zM380 350l170 -255v510zM180 50h340l-170 255zM150 605v-510l170 255z" />
    <glyph glyph-name=".null" horiz-adv-x="0" 
 />
    <glyph glyph-name="nonmarkingreturn" horiz-adv-x="333" 
 />
    <glyph glyph-name="space" unicode=" " horiz-adv-x="296" 
 />
    <glyph glyph-name="exclam" unicode="!" horiz-adv-x="296" 
d="M93 -15q-22 0 -37 15t-15 36q0 28 20 46t42 18t37.5 -14.5t15.5 -36.5q0 -28 -20 -46t-43 -18zM101 197l95 472q5 25 5 30q0 14 -3 19.5t-13 11.5h139q-8 -7 -12 -11t-9.5 -17t-11.5 -34l-126 -471h-64z" />
    <glyph glyph-name="quotedbl" unicode="&#x22;" horiz-adv-x="389" 
d="M169 490l-32 240h113l-31 -240h-50zM331 490l-32 240h113l-31 -240h-50z" />
    <glyph glyph-name="numbersign" unicode="#" 
d="M59 0l77 210h-139l20 55h139l73 199h-140l20 55h140l77 211h60l-78 -211h187l78 211h61l-78 -211h138l-20 -55h-138l-73 -199h139l-20 -55h-139l-76 -210h-61l76 210h-187l-76 -210h-60zM215 265h187l73 199h-187z" />
    <glyph glyph-name="dollar" unicode="$" 
d="M49 51l39 175q18 -57 65 -104t122 -56l58 265q-4 2 -32 14.5t-37 17.5t-32 18.5t-32.5 24.5t-23 28t-18.5 37t-5 43q0 57 30.5 99t76.5 62t85.5 28.5t72.5 8.5l12 52h32l-12 -53q30 0 87 -24t62 -24q4 0 9 3t9.5 7t5.5 5l-34 -155q-18 56 -51 85.5t-101 43.5l-55 -248
q8 -4 40 -21.5t43.5 -24.5t35.5 -25t33.5 -33t18.5 -38.5t9 -49.5q0 -55 -25.5 -97.5t-66.5 -65.5t-86 -34.5t-91 -11.5l-17 -77h-32l17 80q-33 0 -103 33.5t-76 33.5q-7 0 -17.5 -10t-15.5 -12zM352 416l53 236q-19 0 -44.5 -6t-54.5 -18.5t-48.5 -38t-19.5 -58.5
q0 -10 1.5 -19t6 -17t8.5 -14t12.5 -13t13.5 -11.5t16.5 -11t17 -9.5t19.5 -10t19 -10zM362 315l-56 -254q38 0 75 11.5t66.5 43t29.5 78.5q0 25 -10 44.5t-33 35.5t-33.5 22t-38.5 19z" />
    <glyph glyph-name="percent" unicode="%" horiz-adv-x="1000" 
d="M234 455q0 -31 18 -51.5t51 -20.5q37 0 67 40t43.5 88t13.5 86q0 30 -14 56.5t-50 26.5q-58 0 -93.5 -72t-35.5 -153zM266 -5l485 740h42l-485 -740h-42zM617 122q0 -31 18 -51.5t51 -20.5q37 0 67 40t43.5 88t13.5 86q0 30 -14 56.5t-50 26.5q-58 0 -93.5 -72
t-35.5 -153zM287 328q-55 0 -89 41.5t-34 105.5q0 103 60.5 181.5t148.5 78.5q61 0 92.5 -40t31.5 -100q0 -61 -22 -120t-72 -103t-116 -44zM670 -5q-55 0 -89 41.5t-34 105.5q0 103 60.5 181.5t148.5 78.5q61 0 92.5 -40t31.5 -100q0 -61 -22 -120t-72 -103t-116 -44z" />
    <glyph glyph-name="ampersand" unicode="&#x26;" horiz-adv-x="852" 
d="M692 0l-113 93q-67 -53 -100 -71q-73 -37 -163 -37q-107 0 -178 65.5t-71 166.5q0 38 9.5 70t22.5 54.5t35 42t40.5 30.5t45.5 21.5t42 15t38 10.5q-16 44 -16 79q0 85 60 145t164 60q33 0 61 -8.5t42 -19t27.5 -19t22.5 -8.5q7 0 14 8.5t10 10.5l-29 -138q-5 6 -14 27.5
t-18.5 37.5t-36 30t-64.5 14q-59 0 -104 -36t-45 -90q0 -34 15 -75t44 -85.5t50.5 -74.5t55.5 -71.5t38 -46.5q38 71 51 108.5t24 103.5h-124l13 60h284l-13 -60h-80q-16 -91 -34 -138t-68 -123l83 -72q28 -24 70.5 -49.5t49.5 -30.5h-141zM152 216q0 -72 49.5 -119
t127.5 -47q92 0 196 91q-68 67 -106 116.5t-94 146.5q-22 -5 -39.5 -11t-44.5 -20.5t-44.5 -33t-31 -51t-13.5 -72.5z" />
    <glyph glyph-name="quotesingle" unicode="'" horiz-adv-x="241" 
d="M166 490l-32 240h113l-31 -240h-50z" />
    <glyph glyph-name="parenleft" unicode="(" horiz-adv-x="296" 
d="M207 -127l-12 -54q-21 6 -35.5 11.5t-35 20.5t-33.5 35.5t-22.5 55.5t-9.5 80q0 104 52.5 344t97.5 294q32 39 75.5 62t82.5 23h15l-10 -50q-36 -4 -58.5 -21t-45.5 -54q-35 -54 -84.5 -302.5t-49.5 -315.5q0 -18 2 -33t3.5 -25t7 -19.5t7.5 -14.5t11.5 -12t12 -8.5
t15 -8.5t14.5 -8z" />
    <glyph glyph-name="parenright" unicode=")" horiz-adv-x="296" 
d="M-72 -181l10 50q36 4 58.5 21t45.5 54q35 54 84.5 302.5t49.5 315.5q0 18 -2 33t-3.5 25t-7 19.5t-7.5 14.5t-11.5 12t-12 8.5t-15 8.5t-14.5 8l12 54q21 -6 35.5 -11.5t35 -20.5t33.5 -35.5t22.5 -55.5t9.5 -80q0 -104 -52.5 -344t-97.5 -294q-32 -39 -75.5 -62
t-82.5 -23h-15z" />
    <glyph glyph-name="asterisk" unicode="*" 
d="M337 435v93l-86 -52q-20 -13 -20 -32q-3 4 -8.5 11.5t-7 9.5t-5 7t-4.5 7t-3 5t-2.5 6t-2 6t-2.5 7.5t-2 8l-3 10.5q14 -6 21 -6q13 0 21 9l78 43l-75 41q-18 11 -33 11q-2 0 -5.5 -2t-5.5 -2q10 38 38 70q1 -10 1 -12t3.5 -6.5t7.5 -6.5l16 -8l79 -46v90q0 22 -4 29
t-14 10q29 9 40 9q9 0 16 -1.5t13.5 -4t11.5 -3.5q-6 -2 -9.5 -4.5t-6 -11t-2.5 -23.5v-90l79 46q21 10 23.5 14t4.5 19q28 -32 38 -70q-1 0 -5 2t-6 2q-15 0 -33 -11l-75 -41l78 -43q7 -9 21 -9q7 0 21 6q-7 -28 -11.5 -36t-28.5 -42q0 19 -20 32l-86 52v-93
q0 -19 3.5 -26.5t14.5 -14.5q-26 -7 -41 -7q-17 0 -40 7q11 7 14.5 14.5t3.5 26.5z" />
    <glyph glyph-name="plus" unicode="+" horiz-adv-x="1000" 
d="M480 0v239h-223v60h223v238h60v-238h223v-60h-223v-239h-60z" />
    <glyph glyph-name="comma" unicode="," horiz-adv-x="296" 
d="M21 -132l-18 39q71 31 95 91q-50 0 -50 47q0 20 17.5 37.5t41.5 17.5q23 0 38.5 -17.5t15.5 -48.5q0 -62 -50 -109.5t-90 -56.5z" />
    <glyph glyph-name="hyphen" unicode="-" horiz-adv-x="296" 
d="M50 260l25 111q2 -1 12 -13.5t24 -12.5h107q14 0 22.5 3.5t16 9t14.5 7.5l-25 -111q-6 4 -12.5 11.5t-13.5 11t-20 3.5h-99q-9 0 -16.5 -3t-17 -8.5t-17.5 -8.5z" />
    <glyph glyph-name="period" unicode="." horiz-adv-x="296" 
d="M97 -15q-22 0 -37 15t-15 36q0 28 20 46t42 18t37.5 -14.5t15.5 -36.5q0 -28 -20 -46t-43 -18z" />
    <glyph glyph-name="slash" unicode="/" horiz-adv-x="296" 
d="M-53 -15l386 745h55l-386 -745h-55z" />
    <glyph glyph-name="zero" unicode="0" 
d="M280 -15q-72 0 -126 41.5t-78.5 100.5t-24.5 123q0 66 16.5 135.5t49.5 133.5t78 114.5t106 81t129 30.5q93 0 152.5 -68.5t59.5 -195.5q0 -116 -44.5 -229t-129.5 -190t-188 -77zM141 244q0 -74 36 -134t99 -60q76 0 141 71t100 176t35 210q0 67 -32.5 120t-88.5 53
q-65 0 -121.5 -46t-92 -114.5t-56 -142t-20.5 -133.5z" />
    <glyph glyph-name="one" unicode="1" 
d="M261 78l122 555q-53 -27 -103 -36l13 67q16 3 29 6.5t22.5 6t19.5 7.5t14.5 6.5t14.5 8t12.5 8.5t14.5 11t15 12h55l-144 -652q-8 -34 -8 -50q0 -20 17 -28h-130q1 1 5.5 5t6 6t5.5 8t6.5 12.5t6 18.5t6.5 28z" />
    <glyph glyph-name="two" unicode="2" 
d="M31 0l14 62q43 23 94 55.5t120 85.5t123 107t92.5 120.5t38.5 125.5t-34 94t-90 35q-39 0 -79 -19.5t-65 -42t-47.5 -45.5t-26.5 -25l34 156q2 -1 8 -10t11 -9q7 0 29.5 14t62.5 27.5t90 13.5q85 0 141 -52.5t56 -137.5q0 -66 -34 -134t-82.5 -120.5t-113 -103t-113 -81
t-95.5 -54.5v-2h267q30 0 45 4.5t29 17t18 15.5l-21 -97h-472z" />
    <glyph glyph-name="three" unicode="3" 
d="M47 88l28 130q2 -5 9 -30t12 -39t19 -36.5t31 -35t45.5 -22.5t65.5 -10q93 0 153.5 63t60.5 138q0 59 -43 91.5t-110 32.5q-24 0 -101 -21l-25 65l330 254v2h-260q-22 0 -35 -5t-27 -18.5t-16 -15.5l20 99h438l-15 -69l-325 -238l2 -2q45 9 79 9q69 0 123.5 -49
t54.5 -129q0 -113 -84.5 -190t-208.5 -77q-39 0 -73 8.5t-55.5 18t-42.5 27t-29 26t-21 23.5z" />
    <glyph glyph-name="four" unicode="4" 
d="M386 78l27 126h-353l11 54q66 107 316 397q42 49 42 56q0 9 -10 19h148q-219 -235 -392 -466h252l31 147l93 35l-39 -182h89l-14 -60h-89l-27 -126q-8 -34 -8 -50q0 -20 17 -28h-130q1 1 5.5 5t6 6t5.5 8t6.5 12.5t6 18.5t6.5 28z" />
    <glyph glyph-name="five" unicode="5" 
d="M47 76l24 118q1 -2 5.5 -14.5t7 -18t9 -18.5t11 -20t14 -19t18.5 -19t22 -15.5t27 -13t32.5 -8t38.5 -3.5q99 0 160.5 63.5t61.5 139.5q0 72 -43.5 110t-112.5 38q-27 0 -50 -3t-46 -11t-34 -12t-36.5 -17t-30.5 -15l86 392h424l-23 -97q-1 2 -5 12t-8 13.5t-18 7.5
t-37 4h-259l-52 -237q74 23 130 23q93 0 149 -55t56 -141q0 -115 -84 -195t-220 -80q-134 0 -217 91z" />
    <glyph glyph-name="six" unicode="6" 
d="M660 708l-34 -154q-1 3 -10 21.5t-14.5 28t-19 26.5t-27.5 26t-37 16.5t-50 7.5q-53 0 -99.5 -25.5t-75.5 -60.5t-53 -81t-34 -76t-17 -57l2 -2l10 10t12 11t13 10.5t15 11.5t16 10t19.5 10.5t21.5 8t25 7t27.5 4t31.5 1.5q98 0 155.5 -59.5t57.5 -143.5
q0 -45 -17.5 -91.5t-50 -88t-86.5 -68t-119 -26.5q-104 0 -172 71t-68 200q0 127 50.5 239.5t139.5 181t193 68.5q39 0 70 -8.5t46.5 -19t31 -19t26.5 -8.5q5 0 12 8.5t9 9.5zM172 209q0 -67 40 -113t104 -46q79 0 134 61.5t55 146.5q0 61 -42.5 100t-108.5 39
q-79 0 -130.5 -54.5t-51.5 -133.5z" />
    <glyph glyph-name="seven" unicode="7" 
d="M289 0h-123q82 181 165 333t202 337h-240q-32 0 -51 -1.5t-34 -9.5t-17.5 -10t-18.5 -16l19 97h465l-12 -53q-50 -59 -209 -336t-159 -321q0 -7 13 -20z" />
    <glyph glyph-name="eight" unicode="8" 
d="M282 -15q-105 0 -168.5 52.5t-63.5 140.5q0 57 22.5 100.5t58.5 66.5t71.5 34.5t71.5 13.5v2q-22 8 -37.5 15.5t-36 23t-32 40t-11.5 56.5q0 99 83.5 157t190.5 58q99 0 153.5 -44.5t54.5 -115.5q0 -48 -19 -86t-49 -60t-60 -34t-59 -15v-2q54 -9 99 -48t45 -114
q0 -97 -82.5 -169t-231.5 -72zM140 183q0 -66 45.5 -99.5t120.5 -33.5q84 0 142 52t58 126q0 58 -41 94t-122 36q-88 0 -145.5 -43.5t-57.5 -131.5zM247 532q0 -51 35.5 -80t95.5 -29q71 0 121 44.5t50 109.5q0 48 -32.5 75.5t-84.5 27.5q-88 0 -136.5 -43.5t-48.5 -104.5z
" />
    <glyph glyph-name="nine" unicode="9" 
d="M41 61l26 121q7 -22 12.5 -35.5t19 -34t29.5 -32.5t43.5 -21t62.5 -9q52 0 97.5 25t74 58t52 78t33.5 73t17 54l-2 2q-1 -1 -13 -11t-17.5 -13.5t-19.5 -12.5t-26.5 -13.5t-29.5 -10.5t-37.5 -8.5t-42.5 -2.5q-98 0 -155.5 59.5t-57.5 143.5q0 45 17.5 91.5t50 88
t86.5 68t119 26.5q104 0 172 -71t68 -200q0 -127 -50.5 -239.5t-139.5 -181t-193 -68.5q-48 0 -86.5 11t-57 24t-34 26.5t-18.5 14.5zM197 472q0 -61 42.5 -100t108.5 -39q79 0 130.5 54.5t51.5 133.5q0 67 -40 113t-104 46q-79 0 -134 -61.5t-55 -146.5z" />
    <glyph glyph-name="colon" unicode=":" horiz-adv-x="296" 
d="M98 -15q-22 0 -37 15t-15 36q0 28 20 46t42 18t37.5 -14.5t15.5 -36.5q0 -28 -20 -46t-43 -18zM171 310q-22 0 -37 15t-15 36q0 28 20 46t42 18t37.5 -14.5t15.5 -36.5q0 -28 -20 -46t-43 -18z" />
    <glyph glyph-name="semicolon" unicode=";" horiz-adv-x="296" 
d="M21 -132l-18 39q71 31 95 91q-50 0 -50 47q0 20 17.5 37.5t41.5 17.5q23 0 38.5 -17.5t15.5 -48.5q0 -62 -50 -109.5t-90 -56.5zM171 310q-22 0 -37 15t-15 36q0 28 20 46t42 18t37.5 -14.5t15.5 -36.5q0 -28 -20 -46t-43 -18z" />
    <glyph glyph-name="less" unicode="&#x3c;" horiz-adv-x="1000" 
d="M743 27l-486 215v54l486 216v-77l-387 -166l387 -165v-77z" />
    <glyph glyph-name="equal" unicode="=" horiz-adv-x="1000" 
d="M257 308v60h506v-60h-506zM257 171v60h506v-60h-506z" />
    <glyph glyph-name="greater" unicode="&#x3e;" horiz-adv-x="1000" 
d="M257 27v77l387 165l-387 166v77l486 -216v-54z" />
    <glyph glyph-name="question" unicode="?" horiz-adv-x="500" 
d="M221 193h-75q10 58 34 103t53 70t61 49t58 42.5t43 48.5t17 68q0 48 -35 77t-93 29q-45 0 -87 -22.5t-75.5 -53t-35.5 -31.5l32 142q10 -18 16 -18q9 0 30.5 12t57.5 24t79 12q91 0 146 -50t55 -121q0 -44 -19 -82t-49.5 -65.5t-62 -49.5t-62.5 -45t-45 -40
q-23 -29 -43 -99zM146 -15q-22 0 -37 15t-15 36q0 28 20 46t42 18t37.5 -14.5t15.5 -36.5q0 -28 -20 -46t-43 -18z" />
    <glyph glyph-name="at" unicode="@" horiz-adv-x="1000" 
d="M823 88l26 -23q-32 -36 -122 -80t-201 -44q-179 0 -295.5 92.5t-116.5 238.5q0 178 134 312t314 134q154 0 258 -91t104 -233q0 -131 -86.5 -225.5t-194.5 -94.5q-70 0 -73 71q-56 -65 -130 -65q-57 0 -94.5 37.5t-37.5 105.5q0 72 37 148t97.5 127.5t123.5 51.5
q29 0 50.5 -8t35.5 -23t19 -22t12 -21l22 54h86l-83 -207q-61 -149 -61 -170q0 -27 30 -27q65 0 132.5 76t67.5 192q0 125 -90.5 199t-220.5 74q-95 0 -184.5 -57t-144.5 -149t-55 -188q0 -125 95 -206t253 -81q171 0 289 99q2 1 2.5 2t1.5 1zM387 188q0 -67 70 -67
q10 0 19.5 2t18 6t15 8t13.5 11l11.5 11.5t10.5 13t8 12t7 12t6 9.5q38 61 61 136.5t23 104.5q0 25 -16.5 44.5t-45.5 19.5q-45 0 -93.5 -61.5t-78 -137t-29.5 -124.5z" />
    <glyph glyph-name="A" unicode="A" horiz-adv-x="667" 
d="M60 141l299 510q26 44 26 54q0 6 -2 10t-7.5 9t-6.5 6h131l99 -657q5 -29 11 -43t16 -22l10 -8h-154q1 1 10 7.5t13.5 13.5t4.5 19q0 3 -1 9l-2.5 15t-2.5 14l-27 165h-280l-105 -180q-16 -24 -16 -41q0 -7 2.5 -10.5t7 -6.5t6.5 -5h-140q21 14 42 40.5t66 100.5z
M231 303h239l-47 329h-2z" />
    <glyph glyph-name="B" unicode="B" horiz-adv-x="667" 
d="M153 70h63q297 0 297 167q0 26 -6 44.5t-20 30.5t-29 19t-42.5 10t-49.5 4t-60 1h-94zM227 416h61q130 0 187.5 41t57.5 98q0 32 -7.5 51.5t-18 30.5t-39 16t-50.5 6t-74 1h-64zM58 73l126 584q6 30 6 43q0 16 -18 30h159h56t50.5 -1.5t48.5 -4t40.5 -8t37 -13
t28.5 -19.5t23 -27t12.5 -36t5.5 -46q0 -151 -192 -190v-2q28 0 54.5 -6t55 -20t45.5 -43.5t17 -71.5q0 -82 -47.5 -137.5t-124.5 -80t-180 -24.5h-251q3 2 9.5 7.5t9.5 8t8 8.5t8 12t6.5 15.5t6.5 21.5z" />
    <glyph glyph-name="C" unicode="C" horiz-adv-x="611" 
d="M550 178l-34 -154q-8 16 -16 16q-6 0 -31 -14t-64 -27.5t-81 -13.5q-115 0 -187.5 88.5t-72.5 212.5q0 96 33.5 182.5t87.5 146.5t123.5 95t140.5 35q43 0 78.5 -14t57.5 -28t31 -14q5 0 9.5 2.5t9.5 7.5t8 7l-36 -162q-1 2 -7 18t-10 24t-12.5 24t-19 25.5t-25 19.5
t-34.5 15t-44 5q-108 0 -199.5 -117.5t-91.5 -272.5q0 -110 49.5 -170t127.5 -60q51 0 93.5 24t77.5 60.5t38 38.5z" />
    <glyph glyph-name="D" unicode="D" horiz-adv-x="722" 
d="M155 70h46q81 0 151 21t128 63.5t91 115.5t33 169q0 55 -14 95.5t-37 64t-57.5 38t-69 19t-78.5 4.5h-65zM60 73l126 584q6 30 6 43q0 16 -18 30h162q47 0 81.5 -2t75 -9t69.5 -19t57.5 -33.5t45.5 -51.5t28 -74t11 -100q0 -99 -33.5 -178t-84 -127t-115.5 -80
t-123.5 -44t-112.5 -12h-223q2 2 11 9t11.5 10.5t8.5 11.5t10 18t7 24z" />
    <glyph glyph-name="E" unicode="E" horiz-adv-x="574" 
d="M60 73l126 584q6 30 6 43q0 17 -21 30h448l-22 -105q-1 2 -4 9t-3 8t-3 5.5t-4.5 5t-6 3t-8.5 2.5t-11.5 1t-15.5 1h-20h-239l-53 -243h221q33 0 47 6t32 23l-28 -129q-7 13 -11 17.5t-15.5 8.5t-32.5 4h-228l-59 -277h248q26 0 44 6t27.5 14t26.5 26l-25 -116h-464
q3 2 9.5 7.5t9.5 8t8 8.5t8 12t6.5 15.5t6.5 21.5z" />
    <glyph glyph-name="F" unicode="F" horiz-adv-x="556" 
d="M60 73l126 584q6 30 6 43q0 16 -18 30h445l-22 -105q-1 2 -4 9t-3 8t-3 5.5t-4.5 5t-6 3t-8.5 2.5t-11.5 1t-15.5 1h-20h-240l-54 -253h221q33 0 47 6t32 23l-28 -129q-7 13 -11 17.5t-15.5 8.5t-32.5 4h-228l-57 -264q-6 -30 -6 -43t23 -30h-160q2 2 11 9t11.5 10.5
t8.5 11.5t10 18t7 24z" />
    <glyph glyph-name="G" unicode="G" horiz-adv-x="704" 
d="M629 258l-44 -198q-27 -23 -92 -49t-140 -26q-124 0 -205 81.5t-81 221.5q0 77 28 157t78 147t127.5 110t167.5 43q40 0 77.5 -11.5t59.5 -26t42.5 -26t30.5 -11.5q7 0 23 16l-40 -178q-1 1 -6.5 17.5t-8.5 25t-12.5 26.5t-18 29t-23.5 25.5t-31.5 23t-40 14.5t-50.5 6
q-116 0 -209.5 -114t-93.5 -273q0 -110 53.5 -171.5t145.5 -61.5q60 0 131 41l37 169q4 18 4 29q0 10 -23 33h155q-10 -7 -15 -12t-12 -19t-14 -38z" />
    <glyph glyph-name="H" unicode="H" horiz-adv-x="722" 
d="M60 73l126 584q6 30 6 43t-23 30h160q-3 -2 -11 -9t-11.5 -10.5t-9.5 -11.5t-9.5 -18t-6.5 -24l-52 -240h329l52 240q6 23 6 43q0 13 -23 30h160q-2 -2 -11 -9t-11.5 -10.5t-8.5 -11.5t-10 -18t-7 -24l-126 -584q-6 -30 -6 -43t23 -30h-160q3 2 11 9t11.5 10.5t9.5 11.5
t9.5 18t6.5 24l59 274h-329l-59 -274q-6 -22 -6 -43q0 -13 23 -30h-160q2 2 11 9t11.5 10.5t8.5 11.5t10 18t7 24z" />
    <glyph glyph-name="I" unicode="I" horiz-adv-x="296" 
d="M60 73l126 584q6 30 6 43t-23 30h160q-3 -2 -11 -9t-11.5 -10.5t-9.5 -11.5t-9.5 -18t-6.5 -24l-126 -584q-6 -22 -6 -43q0 -13 23 -30h-160q2 2 11 9t11.5 10.5t8.5 11.5t10 18t7 24z" />
    <glyph glyph-name="J" unicode="J" horiz-adv-x="481" 
d="M467 657l-88 -407q-21 -91 -37 -128q-60 -137 -204 -137q-36 0 -65.5 7t-51.5 21t-33 23t-25 24l27 125q28 -130 130 -130q30 0 53.5 7.5t40 24.5t27.5 32t20 43t12.5 42.5t10.5 45.5l88 407q6 23 6 43q0 13 -23 30h160q-2 -2 -11 -9t-11.5 -10.5t-8.5 -11.5t-10 -18
t-7 -24z" />
    <glyph glyph-name="K" unicode="K" 
d="M60 73l126 584q6 30 6 43t-23 30h160q-3 -2 -11 -9t-11.5 -10.5t-9.5 -11.5t-9.5 -18t-6.5 -24l-56 -253l2 -2l325 274q22 20 22 31q0 10 -13 23h170q-9 -4 -15.5 -7t-13 -7t-10 -6t-10 -7.5t-9.5 -8t-11.5 -10t-13.5 -11.5l-250 -216l143 -351q26 -63 33.5 -75t36.5 -31
h-126l-160 400l-122 -101l-48 -226q-6 -22 -6 -43q0 -13 23 -30h-160q2 2 11 9t11.5 10.5t8.5 11.5t10 18t7 24z" />
    <glyph glyph-name="L" unicode="L" horiz-adv-x="519" 
d="M60 73l126 584q6 30 6 43t-23 30h160q-3 -2 -11 -9t-11.5 -10.5t-9.5 -11.5t-9.5 -18t-6.5 -24l-126 -587h234q27 0 44 6t25 12.5t29 27.5l-25 -116h-450q2 2 11 9t11.5 10.5t8.5 11.5t10 18t7 24z" />
    <glyph glyph-name="M" unicode="M" horiz-adv-x="963" 
d="M63 73l126 584q6 30 6 43t-23 30h155l121 -591l386 591h153q-3 -2 -11 -9t-11.5 -10.5t-9.5 -11.5t-9.5 -18t-6.5 -24l-126 -584q-6 -22 -6 -43q0 -13 23 -30h-160q2 2 11 9t11.5 10.5t8.5 11.5t10 18t7 24l121 559l-2 2l-409 -634h-45l-128 636h-2l-120 -563
q-6 -22 -6 -43q0 -13 23 -30h-135q2 2 11 9t11.5 10.5t8.5 11.5t10 18t7 24z" />
    <glyph glyph-name="N" unicode="N" horiz-adv-x="759" 
d="M63 73l126 584q6 30 6 43t-23 30h132l253 -596h2l112 523q6 23 6 43q0 13 -23 30h135q-2 -2 -11 -9t-11.5 -10.5t-8.5 -11.5t-10 -18t-7 -24l-142 -657h-85l-262 620h-2l-117 -547q-6 -22 -6 -43q0 -13 23 -30h-135q2 2 11 9t11.5 10.5t8.5 11.5t10 18t7 24z" />
    <glyph glyph-name="O" unicode="O" horiz-adv-x="796" 
d="M365 -15q-77 0 -136 26t-93.5 70.5t-52 100t-17.5 119.5q0 190 124.5 317t294.5 127q138 0 213 -83t75 -216q0 -116 -48 -220t-143 -172.5t-217 -68.5zM166 302q0 -247 199 -247q127 0 217.5 115t90.5 281q0 111 -51.5 167.5t-141.5 56.5q-89 0 -162.5 -56t-112.5 -141.5
t-39 -175.5z" />
    <glyph glyph-name="P" unicode="P" horiz-adv-x="630" 
d="M218 367h104q111 0 172.5 44t61.5 130q0 25 -8 44t-19 31.5t-30.5 21t-34.5 13t-40 6.5t-38 2.5t-37 0.5h-67zM61 73l126 584q6 30 6 43t-23 30h149q42 0 64.5 -0.5t64 -4t65.5 -10t54.5 -19.5t47.5 -32t29 -48.5t12 -67.5q0 -65 -25 -112.5t-62 -73.5t-91 -41.5
t-99 -19.5t-99 -4h-77l-48 -224q-5 -25 -5 -43q0 -13 23 -30h-160q2 2 11 9t11.5 10.5t8.5 11.5t10 18t7 24z" />
    <glyph glyph-name="Q" unicode="Q" horiz-adv-x="796" 
d="M696 0h-231q-21 -7 -47 -12q-26 -3 -53 -3q-83 0 -143.5 25.5t-93 71t-47.5 99.5t-15 120q0 190 124.5 317t294.5 127q138 0 213 -83t75 -216q0 -118 -57 -226.5t-152 -157.5v-2h86q16 0 27.5 3t15.5 6t12 11l11 11zM166 302q0 -247 199 -247q127 0 217.5 115t90.5 281
q0 111 -51.5 167.5t-141.5 56.5q-89 0 -162.5 -56t-112.5 -141.5t-39 -175.5z" />
    <glyph glyph-name="R" unicode="R" horiz-adv-x="667" 
d="M225 393h104q111 0 170.5 37t59.5 111q0 25 -8 44t-19.5 31.5t-31 21t-35 13t-41 6.5t-38.5 2.5t-37 0.5h-67zM209 323l-53 -250q-6 -22 -6 -43q0 -13 23 -30h-160q2 2 11 9t11.5 10.5t8.5 11.5t10 18t7 24l126 584q6 30 6 43t-23 30h149q37 0 56.5 -0.5t56 -2.5t58.5 -7
t52 -13t48 -21.5t35.5 -32t25.5 -45.5t8 -60q0 -197 -238 -215l110 -241q20 -43 32.5 -60t35.5 -32h-130l-142 323h-118z" />
    <glyph glyph-name="S" unicode="S" horiz-adv-x="574" 
d="M11 32l39 178q10 -28 17 -43.5t23.5 -40t36 -37.5t53.5 -23.5t77 -10.5q79 0 127.5 42.5t48.5 89.5q0 34 -24 62t-59.5 46.5t-77.5 41.5t-77.5 45.5t-59.5 61t-24 86.5q0 87 72 151t181 64q52 0 93.5 -12.5t65.5 -24.5t31 -12q6 0 11 3t10.5 7.5t8.5 6.5l-32 -151
q-1 2 -8.5 16t-14 23.5t-21 24.5t-30.5 25t-42 17t-56 7q-78 0 -126 -32t-48 -92q0 -33 26.5 -63.5t59.5 -49.5t83 -47.5t78 -49.5q23 -17 36 -30t26 -40t13 -61q0 -103 -80 -164t-176 -61q-47 0 -88.5 11t-64.5 23.5t-45.5 23.5t-35.5 11q-7 0 -14.5 -9.5t-12.5 -12.5z" />
    <glyph glyph-name="T" unicode="T" horiz-adv-x="556" 
d="M188 73l129 587h-113q-25 0 -41.5 -1.5t-28 -6t-15.5 -6.5t-12.5 -10.5t-10.5 -9.5l23 104h528l-24 -111q-3 4 -8 14.5t-8 12.5t-12 7t-24 6t-40 1h-119l-129 -587q-6 -30 -6 -43t23 -30h-160q2 2 11 9t11.5 10.5t8.5 11.5t10 18t7 24z" />
    <glyph glyph-name="U" unicode="U" horiz-adv-x="722" 
d="M90 248l90 409q6 30 6 43t-23 30h160q-2 -2 -11 -9t-11.5 -10.5t-8.5 -11.5t-10 -18t-7 -24l-82 -382q-2 -9 -6.5 -27t-7 -29t-4.5 -27t-2 -29q0 -53 48.5 -80.5t110.5 -27.5q45 0 81 14t57 33t37.5 50.5t24 56.5t15.5 60l85 388q6 23 6 43q0 13 -23 30h135q-2 -2 -11 -9
t-11.5 -10.5t-8.5 -11.5t-10 -18t-7 -24l-60 -276q-4 -16 -10 -49q-8 -37 -12 -56t-13 -53.5t-17 -54t-22 -48t-29.5 -45t-37.5 -36.5t-48 -30t-60 -17t-73 -7q-119 0 -180.5 50t-61.5 134q0 27 12 79z" />
    <glyph glyph-name="V" unicode="V" horiz-adv-x="630" 
d="M203 0l-75 654q-1 14 -3.5 25t-4 17t-5.5 12t-6 8l-7 7l-7 7h147q-21 -21 -21 -32q0 -14 2 -44l59 -531h2l282 530q20 40 20 53q0 9 -17 24h148q-25 -13 -40 -29.5t-39 -60.5l-355 -640h-80z" />
    <glyph glyph-name="W" unicode="W" horiz-adv-x="981" 
d="M161 0l-22 657q0 22 -3.5 36.5t-6.5 19t-10.5 10t-9.5 7.5h151q-2 -2 -11 -9t-12 -14.5t-3 -23.5v-26l17 -548h2l309 621h62l56 -619h2l236 546q10 22 10 36q0 9 -3 15.5t-4.5 9t-8.5 7.5l-7 5h146q-40 -22 -63 -76l-289 -654h-100l-50 569h-2l-286 -569h-100z" />
    <glyph glyph-name="X" unicode="X" 
d="M86 134l201 244l-115 293q-5 12 -11 22t-9 13.5t-12.5 12.5t-11.5 11h160q-21 -21 -21 -33t14 -47l77 -210l190 231q20 22 20 36q0 7 -14 23h151q-18 -11 -26 -16.5t-25 -22.5t-38 -44l-223 -271l90 -227q31 -85 45 -110t34 -39h-168q4 3 9.5 7.5t9.5 7.5t7 6.5t3 6.5
q0 8 -12 44l-92 245l-199 -243q-26 -30 -26 -47q0 -6 14 -27h-155q30 18 51.5 39.5t81.5 94.5z" />
    <glyph glyph-name="Y" unicode="Y" horiz-adv-x="611" 
d="M215 73l39 175l-98 383q-10 39 -17.5 58t-11.5 23.5t-19 17.5h150q-2 -2 -6 -5t-5.5 -4.5t-3.5 -4.5t-3 -6.5t-1 -8.5q0 -12 4 -34l83 -343l225 338q24 34 24 47q0 5 -16 21h149q-23 -10 -40.5 -28t-46.5 -60l-272 -389l-39 -180q-6 -30 -6 -43t23 -30h-160q2 2 11 9
t11.5 10.5t8.5 11.5t10 18t7 24z" />
    <glyph glyph-name="Z" unicode="Z" horiz-adv-x="556" 
d="M-27 0l11 51l518 609h-249q-32 0 -52.5 -4.5t-30.5 -10t-29 -19.5l23 104h468l-10 -52l-518 -608h299q13 0 23.5 1t18 1.5t15 3.5t11 3.5t10.5 5.5t8.5 6t8.5 7.5t9 7.5l-24 -106h-510z" />
    <glyph glyph-name="bracketleft" unicode="[" horiz-adv-x="296" 
d="M2 -190l204 920h166l-13 -60h-85l-178 -800h81l-13 -60h-162z" />
    <glyph glyph-name="backslash" unicode="\" horiz-adv-x="296" 
d="M216 -15l-156 745h55l156 -745h-55z" />
    <glyph glyph-name="bracketright" unicode="]" horiz-adv-x="296" 
d="M-74 -190l13 60h85l178 800h-81l13 60h162l-204 -920h-166z" />
    <glyph glyph-name="asciicircum" unicode="^" 
d="M123 331l213 399h61l207 -399h-64l-175 334l-178 -334h-64z" />
    <glyph glyph-name="underscore" unicode="_" horiz-adv-x="500" 
d="M-40 -115v50h500v-50h-500z" />
    <glyph glyph-name="grave" unicode="`" horiz-adv-x="454" 
d="M169 675l15 70l233 -93l-9 -39z" />
    <glyph glyph-name="a" unicode="a" horiz-adv-x="593" 
d="M506 0h-90q-11 32 -11 73q0 21 6 57l-2 2q-10 -20 -23 -39.5t-38 -46.5t-61 -44t-77 -17q-68 0 -119 48.5t-51 146.5q0 83 38.5 166.5t108.5 141t150 57.5q36 0 67.5 -14t43.5 -24.5t31 -30.5l13 54h80l-36 -166q-3 -11 -11 -47t-12 -53t-10.5 -48.5t-9.5 -51t-5.5 -43
t-2.5 -40.5q0 -13 0.5 -22t3.5 -18.5t4 -12.5t6.5 -14.5t6.5 -13.5zM447 339l18 80q-51 66 -113 66q-92 0 -159.5 -97t-67.5 -210q0 -68 32.5 -100.5t75.5 -32.5q61 0 121 76.5t93 217.5z" />
    <glyph glyph-name="b" unicode="b" horiz-adv-x="593" 
d="M261 730l-67 -296l2 -2q19 26 28.5 37.5t33.5 33.5t54 32t68 10q69 0 114.5 -50.5t45.5 -131.5q0 -152 -107.5 -265t-261.5 -113q-73 0 -160 42q9 18 15 32.5t10.5 31t6.5 24t7 31t7 34.5l97 446q16 72 16 74q0 8 -1.5 12.5t-7.5 10.5t-6 7h106zM154 239l-43 -186
q34 -8 64 -8q80 0 145.5 47t100 117.5t34.5 145.5q0 59 -25.5 94.5t-78.5 35.5q-45 0 -82.5 -30t-60.5 -76t-35.5 -79.5t-18.5 -60.5z" />
    <glyph glyph-name="c" unicode="c" horiz-adv-x="500" 
d="M422 137l-21 -93q-21 -17 -34 -25.5t-48 -21t-75 -12.5q-85 0 -141.5 58t-56.5 150q0 136 91 244t207 108q36 0 61.5 -9t39.5 -18t22 -9q6 0 10 2.5t7.5 6t5.5 4.5l-31 -131q-2 4 -7.5 20.5t-10.5 26t-15 22.5t-27 19t-39 6q-85 0 -157 -87t-72 -204q0 -73 36 -111
t84 -38q30 0 60 12.5t48.5 27.5t37.5 31.5t25 20.5z" />
    <glyph glyph-name="d" unicode="d" horiz-adv-x="593" 
d="M429 291l28 128q-43 66 -107 66q-62 0 -116 -46.5t-84 -118t-30 -145.5q0 -55 26 -92.5t69 -37.5q76 0 132.5 67t81.5 179zM507 0h-90q-14 46 -14 72q0 28 5 56l-2 2q-16 -27 -29.5 -45.5t-39 -45t-60 -40.5t-75.5 -14q-79 0 -123 55.5t-44 140.5q0 145 95.5 254.5
t209.5 109.5q82 0 130 -61l31 142q16 72 16 74q0 8 -1.5 12.5t-7.5 10.5t-6 7h106l-117 -535q-13 -65 -13 -90q0 -43 5 -62t24 -43z" />
    <glyph glyph-name="e" unicode="e" horiz-adv-x="537" 
d="M451 149l-22 -105q-1 -1 -8.5 -6t-12.5 -8t-16 -9t-21 -10.5t-24.5 -9.5t-28.5 -8.5t-32 -5.5t-37 -2q-91 0 -149 59t-58 160q0 130 96 235.5t221 105.5q74 0 117 -37t43 -90q0 -79 -93.5 -144.5t-250.5 -65.5q-16 0 -48 2v-21q0 -68 40 -106t95 -38q34 0 68 14t53 29
t41.5 36.5t26.5 24.5zM132 260q6 0 18.5 -1t17.5 -1q113 0 189.5 50t76.5 110q0 27 -21.5 47t-59.5 20q-82 0 -148 -81t-73 -144z" />
    <glyph glyph-name="f" unicode="f" horiz-adv-x="315" 
d="M44 78l88 392h-69l12 60h69l13 59q19 81 60 118.5t120 37.5q33 0 81 -25l-20 -92q-2 3 -7.5 14.5t-10.5 19.5t-18 15.5t-31 7.5q-68 0 -87 -84l-15 -71h112l-11 -60h-113l-88 -392q-8 -34 -8 -50q0 -20 17 -28h-130q1 1 5.5 5t6 6t5.5 8t6.5 12.5t6 18.5t6.5 28z" />
    <glyph glyph-name="g" unicode="g" horiz-adv-x="574" 
d="M-6 -142l24 99q35 -102 150 -102q47 0 83.5 18t58.5 45t39 65.5t25.5 71t16.5 69.5q3 14 4 20l-2 2q-68 -161 -199 -161q-64 0 -109.5 49t-45.5 143q0 154 89 261t212 107q75 0 128 -65l13 50h107q-3 -3 -9.5 -8t-8 -6.5t-5.5 -5t-5 -6t-3 -6t-3 -9t-2.5 -11t-3.5 -15.5
l-82 -365q-27 -120 -60 -176q-75 -126 -228 -127q-20 0 -38.5 1.5t-33.5 5t-27.5 7t-23.5 9l-19 9.5t-16 9.5t-11.5 8.5t-8.5 8zM124 171q0 -63 28 -94.5t70 -31.5q34 0 64.5 18.5t53 50.5t40.5 67t31 77.5t21 72t14.5 60t7.5 33.5q-7 18 -36.5 39.5t-71.5 21.5
q-67 0 -120 -54.5t-77.5 -125t-24.5 -134.5z" />
    <glyph glyph-name="h" unicode="h" horiz-adv-x="556" 
d="M43 78l119 548q16 72 16 74q0 8 -1.5 12.5t-7.5 10.5t-6 7h106l-69 -316l2 -2q20 25 34 41t41 41t58 38t64 13q48 0 77.5 -30t29.5 -79q0 -26 -6 -54l-66 -304q-8 -34 -8 -50q0 -20 17 -28h-130q1 1 5.5 5t6 6t5.5 8t6.5 12.5t6 18.5t6.5 28l66 304q6 21 6 42
q0 26 -15.5 43.5t-37.5 17.5q-59 0 -123.5 -82t-79.5 -154l-37 -171q-8 -34 -8 -50q0 -20 17 -28h-130q1 1 5.5 5t6 6t5.5 8t6.5 12.5t6 18.5t6.5 28z" />
    <glyph glyph-name="i" unicode="i" horiz-adv-x="259" 
d="M46 78l75 348q16 72 16 74q0 8 -1.5 12.5t-7.5 10.5t-6 7h106l-97 -452q-8 -34 -8 -50q0 -20 17 -28h-130q1 1 5.5 5t6 6t5.5 8t6.5 12.5t6 18.5t6.5 28zM213 632q-21 0 -34.5 13.5t-13.5 34.5q0 28 17.5 43.5t41.5 15.5q20 0 34 -14t14 -34q0 -23 -17.5 -41t-41.5 -18z
" />
    <glyph glyph-name="j" unicode="j" horiz-adv-x="259" 
d="M-98 -171l14 66q7 -12 10 -17t12 -11.5t21 -6.5q7 0 14 2.5t12.5 8t10 10.5t8.5 15t6.5 15.5t6.5 18.5t5 17.5t4.5 18t3.5 15.5l98 445q16 72 16 74q0 8 -1.5 12.5t-7.5 10.5t-6 7h106l-97 -441q-4 -18 -11 -50.5t-10.5 -49.5t-10.5 -43.5t-13 -41.5t-15 -34.5t-19 -30
t-23.5 -20.5t-31 -14.5t-37.5 -4.5q-41 0 -65 29zM220 632q-21 0 -34.5 13.5t-13.5 34.5q0 28 17.5 43.5t41.5 15.5q20 0 34 -14t14 -34q0 -23 -17.5 -41t-41.5 -18z" />
    <glyph glyph-name="k" unicode="k" horiz-adv-x="537" 
d="M45 78l119 548q16 72 16 74q0 8 -1.5 12.5t-7.5 10.5t-6 7h106l-93 -426l2 -2l181 164q38 35 38 43q0 7 -4 14l-4 7h146q-2 -2 -16.5 -10t-31 -20.5t-35.5 -31.5l-178 -158l2 -2q20 5 52 5q55 0 93.5 -37.5t38.5 -88.5q0 -28 -14 -90.5t-14 -67.5q0 -13 16 -29h-109
q1 5 10.5 46.5t17.5 79t8 45.5q0 97 -113 97q-53 0 -97 -16l-37 -174q-8 -34 -8 -50q0 -20 17 -28h-130q1 1 5.5 5t6 6t5.5 8t6.5 12.5t6 18.5t6.5 28z" />
    <glyph glyph-name="l" unicode="l" horiz-adv-x="259" 
d="M47 78l119 548q16 72 16 74q0 8 -1.5 12.5t-7.5 10.5t-6 7h106l-141 -652q-8 -34 -8 -50q0 -20 17 -28h-130q1 1 5.5 5t6 6t5.5 8t6.5 12.5t6 18.5t6.5 28z" />
    <glyph glyph-name="m" unicode="m" horiz-adv-x="852" 
d="M44 78l75 348q16 72 16 74q0 8 -1.5 12.5t-7.5 10.5t-6 7h106l-26 -118l2 -2q11 20 27 40t40 43t58.5 37.5t71.5 14.5q42 0 67 -29.5t25 -73.5q0 -18 -5 -38l2 -2q20 29 32 44t40 43t63.5 42t76.5 14q39 0 69 -27.5t30 -80.5q0 -22 -10 -68l-62 -291q-8 -34 -8 -50
q0 -20 17 -28h-130q1 1 5.5 5t6 6t5.5 8t6.5 12.5t6 18.5t6.5 28l62 292q10 48 10 60q0 28 -14 41.5t-36 13.5q-43 0 -81 -29.5t-62.5 -73.5t-39.5 -82t-21 -68l-32 -154q-8 -34 -8 -50q0 -20 17 -28h-130q1 1 5.5 5t6 6t5.5 8t6.5 12.5t6 18.5t6.5 28l50 236q23 98 23 117
q0 54 -53 54q-37 0 -72 -25t-60 -63.5t-42.5 -79.5t-25.5 -78l-34 -161q-8 -34 -8 -50q0 -20 17 -28h-130q1 1 5.5 5t6 6t5.5 8t6.5 12.5t6 18.5t6.5 28z" />
    <glyph glyph-name="n" unicode="n" horiz-adv-x="556" 
d="M44 78l75 348q16 72 16 74q0 8 -1.5 12.5t-7.5 10.5t-6 7h106l-26 -118l2 -2q27 49 78 92t123 43q47 0 74.5 -29.5t27.5 -73.5q0 -17 -5 -40l-68 -324q-1 -7 -4.5 -25.5t-3.5 -24.5q0 -20 17 -28h-130q1 1 5.5 5t6 6t5.5 8t6.5 12.5t6 18.5t6.5 28l50 236q23 98 23 117
q0 54 -53 54q-50 0 -95.5 -43.5t-71.5 -97t-37 -105.5l-34 -161q-8 -34 -8 -50q0 -20 17 -28h-130q1 1 5.5 5t6 6t5.5 8t6.5 12.5t6 18.5t6.5 28z" />
    <glyph glyph-name="o" unicode="o" horiz-adv-x="574" 
d="M236 -15q-89 0 -142.5 55t-53.5 151q0 148 92.5 251t218.5 103q50 0 87 -18t57 -48t29.5 -63.5t9.5 -71.5q0 -150 -90.5 -254.5t-207.5 -104.5zM125 189q0 -69 31 -106.5t81 -37.5q64 0 115 56t74 126t23 132q0 52 -26 89t-81 37q-58 0 -109.5 -48t-79.5 -116t-28 -132z
" />
    <glyph glyph-name="p" unicode="p" horiz-adv-x="593" 
d="M3 -122l119 548q16 72 16 74q0 8 -1.5 12.5t-7.5 10.5t-6 7h106l-30 -106l2 -2q65 123 188 123q60 0 109.5 -50t49.5 -136q0 -149 -109 -261.5t-254 -112.5q-11 0 -73 5l-24 -112q-8 -34 -8 -50q0 -20 17 -28h-130q1 1 5.5 5t6 6t5.5 8t6.5 12.5t6 18.5t6.5 28zM161 218
l-37 -170l42 -3q63 0 115.5 22.5t85 56.5t55 77t32 82t9.5 73q0 57 -30.5 93t-67.5 36q-72 0 -127 -78t-77 -189z" />
    <glyph glyph-name="q" unicode="q" horiz-adv-x="593" 
d="M457 372l11 51q-58 62 -117 62q-65 0 -119.5 -52t-81 -119t-26.5 -125q0 -144 110 -144q41 0 77 27.5t59 65t43 88t28.5 82.5t15.5 64zM350 -122l53 241l-2 2q-20 -31 -32 -47t-37 -41t-55.5 -36.5t-68.5 -11.5q-72 0 -120.5 51.5t-48.5 146.5q0 144 92 253t208 109
q83 0 151 -69l4 -4l30 58h70q-37 -87 -54 -162l-105 -490q-8 -34 -8 -50q0 -20 17 -28h-130q1 1 5.5 5t6 6t5.5 8t6.5 12.5t6 18.5t6.5 28z" />
    <glyph glyph-name="r" unicode="r" horiz-adv-x="407" 
d="M46 78l75 348q16 72 16 74q0 8 -1.5 12.5t-7.5 10.5t-6 7h106l-33 -118l2 -2q75 135 179 135q10 0 19.5 -2t18 -6t13 -6.5t11.5 -8.5l7 -5l-20 -94q-21 52 -57 52q-41 0 -77.5 -24.5t-61.5 -64t-41.5 -80t-25.5 -80.5l-31 -148q-8 -36 -8 -50q0 -20 17 -28h-130
q1 1 5.5 5t6 6t5.5 8t6.5 12.5t6 18.5t6.5 28z" />
    <glyph glyph-name="s" unicode="s" horiz-adv-x="481" 
d="M8 18l31 136q55 -109 166 -109q63 0 96 28t33 73q0 29 -26.5 51t-65 38t-76.5 34t-64.5 48t-26.5 71q0 59 56.5 108t138.5 49q44 0 95 -17.5t64 -17.5q4 0 10.5 7t9.5 7l-30 -134q-54 95 -143 95q-56 0 -86 -26.5t-30 -55.5q0 -28 26.5 -49.5t65 -37.5t76.5 -34.5
t64.5 -51t26.5 -76.5q0 -66 -58 -117.5t-150 -51.5q-43 0 -79.5 12t-60.5 24.5t-36 12.5q-4 0 -13.5 -7.5t-13.5 -8.5z" />
    <glyph glyph-name="t" unicode="t" horiz-adv-x="352" 
d="M62 154l69 316h-61l12 60h61l31 130l88 26l-34 -156h157l-13 -60h-156l-75 -336q-5 -22 -5 -39q0 -50 47 -50q17 0 35.5 8.5t29.5 18t25.5 23t18.5 16.5l-21 -97q-49 -29 -106 -29q-55 0 -84.5 25.5t-29.5 73.5q0 19 11 70z" />
    <glyph glyph-name="u" unicode="u" horiz-adv-x="574" 
d="M56 155l66 299q9 54 9 55q0 10 -16 21h109l-83 -375q-7 -30 -7 -51q0 -30 16 -44.5t39 -14.5q73 0 132 77t83 190l31 142q9 41 9 55q0 10 -16 21h109l-66 -299q-18 -80 -18 -149q0 -46 19 -81h-85q-14 30 -14 60q0 23 9 77l-2 2q-24 -57 -80 -106t-131 -49q-54 0 -87 28
t-33 74q0 37 7 68z" />
    <glyph glyph-name="v" unicode="v" horiz-adv-x="519" 
d="M150 -15l-52 470q-1 10 -2.5 18t-2 13.5t-2.5 11t-3 8t-3.5 6.5t-3.5 5.5t-4.5 6.5t-4.5 6h130q0 -1 -6 -7t-8.5 -9t-5.5 -9.5t-3 -12.5v-21l40 -395h2l208 377q2 4 6.5 12t7 12.5t4.5 12t2 13.5q0 9 -7.5 16.5t-9.5 10.5h125q-2 -1 -7 -5.5t-7.5 -6.5t-7.5 -7.5
t-9 -10.5t-9 -13t-11 -18l-274 -484h-82z" />
    <glyph glyph-name="w" unicode="w" horiz-adv-x="722" 
d="M146 -15h-74q0 21 7 248t7 234q0 24 -2.5 35t-5 14t-15.5 14h132q-21 -22 -25 -35.5t-4 -63.5l-14 -328l2 -2l245 429h53l60 -425h2l125 303q29 75 29 95q0 10 -21 27h124q-13 -9 -19.5 -15t-13 -17t-9 -16.5t-11 -27t-14.5 -35.5l-179 -434h-75l-58 427h-2z" />
    <glyph glyph-name="x" unicode="x" horiz-adv-x="556" 
d="M66 98l161 180l-73 172q-17 41 -25.5 55.5t-22.5 24.5h131q-14 -14 -14 -27q0 -8 2.5 -16t7.5 -20t6 -15l54 -127l112 119q31 33 38.5 44t7.5 25q0 2 -9 17h128q-1 -1 -8.5 -6.5t-11 -8.5t-12 -11t-19.5 -20t-26 -30l-167 -180l74 -160q23 -52 35 -62q10 -7 21 -7
q6 0 17.5 6t15.5 7l-44 -70q-15 -3 -16 -3q-24 0 -42 9t-32.5 29.5t-25.5 42t-26 56.5q-3 8 -5 12l-41 96l-114 -131q-60 -68 -60 -79q0 -8 17 -20h-147q33 20 54.5 38.5t58.5 59.5z" />
    <glyph glyph-name="y" unicode="y" horiz-adv-x="556" 
d="M16 -135l22 95q1 -3 9.5 -18t13 -22.5t16 -21t23 -20t30.5 -12.5t41 -6q40 0 70 15t48.5 36.5t32.5 58t21.5 66.5t16.5 75q1 4 1 6l-2 2q-76 -134 -190 -134q-45 0 -80 27t-35 83q0 31 9 63l48 212q27 125 27 135q0 16 -16 25h107l-83 -375q-7 -35 -7 -45q0 -65 58 -65
q70 0 126 81.5t79 179.5l38 166q3 14 3 25q0 19 -16 33h109l-82 -367l-10.5 -49t-11 -51.5t-12 -48.5t-16 -49t-20 -43.5t-26 -41t-32.5 -32t-41.5 -26.5t-51.5 -15.5t-62 -6.5q-40 0 -72 11.5t-44.5 21t-38.5 32.5z" />
    <glyph glyph-name="z" unicode="z" horiz-adv-x="426" 
d="M-38 0l10 45l367 425h-203q-19 0 -28.5 -3.5t-19 -13.5t-14.5 -14l19 91h359l-9 -50l-361 -420h231q13 0 23 5t20.5 14t14.5 12l-21 -91h-388z" />
    <glyph glyph-name="braceleft" unicode="{" 
d="M470 -187v-25q-80 3 -145.5 52t-65.5 118q0 36 12 96q16 80 16 94q0 44 -32 78t-78 49v24q47 15 78.5 47.5t31.5 79.5q0 14 -16 94q-12 60 -12 96q0 69 65.5 118t145.5 52v-25q-52 -12 -79.5 -50.5t-27.5 -85.5q0 -29 7 -85t7 -79q0 -39 -15.5 -70t-45.5 -52t-47 -30
t-47 -22q23 -10 36 -16.5t39 -23t41 -33.5t27 -44t12 -57q0 -23 -7 -79t-7 -85q0 -47 27.5 -85.5t79.5 -50.5z" />
    <glyph glyph-name="bar" unicode="|" horiz-adv-x="333" 
d="M142 -184v1017h49v-1017h-49z" />
    <glyph glyph-name="braceright" unicode="}" 
d="M177 -212v25q52 12 79.5 50.5t27.5 85.5q0 29 -7 85t-7 79q0 30 12 57t27 44t41 33.5t39 23t36 16.5q-30 13 -47 22t-47 30t-45.5 52t-15.5 70q0 23 7 79t7 85q0 47 -27.5 85.5t-79.5 50.5v25q80 -3 145.5 -52t65.5 -118q0 -36 -12 -96q-16 -80 -16 -94q0 -47 31.5 -79.5
t78.5 -47.5v-24q-46 -15 -78 -49t-32 -78q0 -14 16 -94q12 -60 12 -96q0 -69 -65.5 -118t-145.5 -52z" />
    <glyph glyph-name="asciitilde" unicode="~" horiz-adv-x="1000" 
d="M332 160h-62q0 241 142 241q40 0 69.5 -21t46 -50.5t31 -59t33.5 -50.5t44 -21q20 0 34.5 13.5t21.5 30t10.5 46t4 46t0.5 44.5h62q0 -28 -1 -45.5t-4 -50.5t-12.5 -55t-24 -45t-40 -35t-58.5 -12q-40 0 -68.5 21t-44 51t-29 60t-32.5 51t-44 21q-19 0 -33 -8
t-22.5 -24.5t-13.5 -32t-7 -40t-2.5 -38.5t-0.5 -37z" />
    <glyph glyph-name="uni00A0" unicode="&#xa0;" horiz-adv-x="296" 
 />
    <glyph glyph-name="exclamdown" unicode="&#xa1;" horiz-adv-x="296" 
d="M191 430q-22 0 -37.5 14.5t-15.5 36.5q0 28 20 46t43 18q22 0 37 -15t15 -36q0 -28 -20 -46t-42 -18zM4 -138l126 471h64l-95 -472q-5 -25 -5 -30q0 -14 3 -19.5t13 -11.5h-139q8 7 12 11t9.5 17t11.5 34z" />
    <glyph glyph-name="cent" unicode="&#xa2;" 
d="M311 21l16 74q-21 0 -44 6t-49.5 21.5t-47.5 38.5t-34.5 60t-13.5 82q0 72 27.5 136t71 106.5t96 67t103.5 24.5h11l16 70h29l-17 -73q25 -6 46.5 -19t39.5 -13q4 0 8.5 6.5t7.5 6.5l-29 -140q-1 3 -5.5 16t-7 18.5t-8 17t-11 17.5t-13.5 13.5t-18.5 11.5t-22.5 5
l-93 -419q15 1 31 7t27.5 12t27.5 17.5t23.5 17.5t22 19t17.5 15l-20 -88q-66 -60 -142 -60l-16 -74h-29zM340 155l93 417q-71 0 -140.5 -82t-69.5 -190q0 -76 36.5 -110.5t80.5 -34.5z" />
    <glyph glyph-name="sterling" unicode="&#xa3;" 
d="M63 0l14 59q26 7 42 13t40.5 20t38.5 31.5t25 47.5t11 68t-16 112h-132l14 60h102q-10 52 -10 80q0 111 70 182.5t187 71.5q37 0 69 -9t49.5 -20.5t32 -20.5t19.5 -9q10 0 17.5 7.5t9.5 7.5l-30 -136q-3 4 -14 24.5t-21 33t-27 29t-41 25t-54 8.5q-79 0 -130.5 -52.5
t-51.5 -126.5q0 -29 15 -95h229l-14 -60h-199q2 -9 6.5 -30.5t7 -37t2.5 -30.5q0 -37 -10 -68.5t-19.5 -48t-33.5 -35t-30 -22t-31 -17.5v-2h251q61 0 98 40l-22 -100h-464z" />
    <glyph glyph-name="currency" unicode="&#xa4;" 
d="M148 130l-30 30l67 67q-47 51 -47 136q0 79 48 138l-70 70l32 31l69 -68q64 46 137 46q72 0 136 -46l69 68l32 -31l-70 -70q48 -49 48 -138q0 -83 -47 -136l67 -67l-30 -30l-66 66q-63 -47 -139 -47q-80 0 -140 47zM354 539q-72 0 -123.5 -52t-51.5 -124t51.5 -122.5
t123.5 -50.5q71 0 122.5 51t51.5 122q0 72 -51 124t-123 52z" />
    <glyph glyph-name="yen" unicode="&#xa5;" 
d="M242 73l25 119h-205l9 45h205l2 9l-28 107h-155l10 45h134l-59 231q-16 63 -22 76t-30 25h157q-23 -17 -23 -31q0 -16 5 -34l82 -343l226 338q23 32 23 45q0 14 -18 25h157q-30 -13 -44.5 -27t-39.5 -51q-5 -8 -8 -12l-169 -242h128l-10 -45h-148l-73 -102l-3 -14h200
l-9 -45h-200l-25 -119q-6 -30 -6 -43t23 -30h-160q3 2 11 9t11.5 10.5t9.5 11.5t10 18t7 24z" />
    <glyph glyph-name="brokenbar" unicode="&#xa6;" horiz-adv-x="294" 
d="M127 358v372h60v-372h-60zM127 -199v371h60v-371h-60z" />
    <glyph glyph-name="section" unicode="&#xa7;" 
d="M131 -146v109q36 -49 59 -66q49 -37 127 -37q72 0 112.5 34t40.5 78q0 43 -44.5 70t-128 54t-117.5 44q-33 17 -55.5 33.5t-42.5 51t-20 79.5q0 36 14.5 63t43.5 44.5t42.5 23t42.5 15.5l-11 8q-11 8 -13.5 10.5t-12.5 11t-14 14t-11 16t-10 19.5t-5.5 21.5t-2.5 26.5
q0 70 60 119t149 49q48 0 96.5 -17t55.5 -17q9 0 20 15v-137q-59 91 -167 91q-56 0 -92.5 -24t-36.5 -64q0 -33 21.5 -57t56.5 -38.5t77 -27.5t84 -28t77 -35.5t56.5 -54.5t21.5 -80q0 -39 -14 -67t-40 -44t-47 -24t-51 -15q1 -1 13 -8.5t14.5 -9.5t13.5 -9.5t14 -11
t12 -12.5t12.5 -15t9.5 -16t8 -19t4 -20.5t2 -24.5q0 -74 -63 -127t-172 -53q-116 0 -189 59zM298 186l96 -36q130 34 130 106q0 23 -9.5 41t-30 30.5t-33.5 18.5t-40 16q-5 2 -8 3l-143 52q-118 -22 -118 -101q0 -15 4 -28.5t9 -23t16 -19t19.5 -15t24.5 -13t25.5 -11
t29 -10.5t28.5 -10z" />
    <glyph glyph-name="dieresis" unicode="&#xa8;" horiz-adv-x="454" 
d="M220 640q-19 0 -30.5 12.5t-11.5 26.5q0 27 16 41.5t36 14.5q18 0 30.5 -13t12.5 -30q0 -21 -16 -36.5t-37 -15.5zM397 640q-19 0 -30.5 12.5t-11.5 26.5q0 27 16 41.5t36 14.5q18 0 30.5 -13t12.5 -30q0 -21 -16 -36.5t-37 -15.5z" />
    <glyph glyph-name="copyright" unicode="&#xa9;" horiz-adv-x="500" 
d="M280 275q-98 0 -166.5 68.5t-68.5 166.5q0 97 69 166t166 69t166 -69t69 -166t-69 -166t-166 -69zM80 510q0 -82 59 -141t141 -59t141 59t59 141t-59 141t-141 59t-141 -59t-59 -141zM360 451l26 -32q-43 -39 -95 -39q-55 0 -95.5 38.5t-40.5 95.5q0 56 41 95t95 39
q52 0 95 -39l-26 -33q-34 31 -69 31t-64 -25.5t-29 -67.5q0 -43 28.5 -68t61.5 -25q39 0 72 30z" />
    <glyph glyph-name="ordfeminine" unicode="&#xaa;" 
d="M497 692l10 38h55l-39 -168q-17 -72 -17 -114q0 -56 10 -81h-60q-7 21 -7 48q0 16 2 40l-2 2q-12 -21 -20.5 -33.5t-25 -31t-38.5 -27.5t-49 -9q-53 0 -85 36.5t-32 99.5q0 90 61 168t142 78q23 0 43.5 -9t27.5 -15t24 -22zM474 590l13 64q-39 44 -75 44
q-58 0 -105.5 -62.5t-47.5 -146.5q0 -36 17 -64.5t48 -28.5q53 0 91.5 55.5t58.5 138.5z" />
    <glyph glyph-name="guillemotleft" unicode="&#xab;" horiz-adv-x="426" 
d="M101 91l-45 190l114 162h80l-119 -173l45 -179h-75zM281 91l-45 190l114 162h80l-119 -173l45 -179h-75z" />
    <glyph glyph-name="logicalnot" unicode="&#xac;" horiz-adv-x="1000" 
d="M702 170v137h-445v60h505v-197h-60z" />
    <glyph glyph-name="uni00AD" unicode="&#xad;" horiz-adv-x="296" 
d="M50 260l25 111q2 -1 12 -13.5t24 -12.5h107q14 0 22.5 3.5t16 9t14.5 7.5l-25 -111q-6 4 -12.5 11.5t-13.5 11t-20 3.5h-99q-9 0 -16.5 -3t-17 -8.5t-17.5 -8.5z" />
    <glyph glyph-name="registered" unicode="&#xae;" horiz-adv-x="500" 
d="M280 275q-97 0 -166 69t-69 166t69 166t166 69t166 -69t69 -166t-69 -166t-166 -69zM80 510q0 -82 59 -141t141 -59t141 59t59 141t-59 141t-141 59t-141 -59t-59 -141zM191 392v248h83q29 0 48.5 -4.5t36 -23t16.5 -52.5q0 -20 -9 -34t-14 -16.5t-20 -10.5l46 -107h-50
l-39 100h-53v-100h-45zM236 597v-65h54q38 0 38 32q0 33 -42 33h-50z" />
    <glyph glyph-name="macron" unicode="&#xaf;" horiz-adv-x="454" 
d="M177 660l11 55h245l-11 -55h-245z" />
    <glyph glyph-name="degree" unicode="&#xb0;" 
d="M232 599q0 60 42.5 103t102.5 43t102.5 -42.5t42.5 -103.5q0 -59 -42 -101.5t-103 -42.5q-60 0 -102.5 42t-42.5 102zM377 700q-41 0 -70.5 -29.5t-29.5 -71.5q0 -40 29.5 -69.5t70.5 -29.5t70.5 29t29.5 70t-29.5 71t-70.5 30z" />
    <glyph glyph-name="plusminus" unicode="&#xb1;" horiz-adv-x="1000" 
d="M480 0v239h-223v60h223v238h60v-238h223v-60h-223v-239h-60zM257 -126v60h506v-60h-506z" />
    <glyph glyph-name="twosuperior" unicode="&#xb2;" horiz-adv-x="463" 
d="M91 290l8 40q2 2 26.5 15t59 34.5t66.5 47.5q72 57 105.5 100t33.5 91q0 29 -21.5 50.5t-51.5 21.5q-21 0 -40.5 -5.5t-37 -17t-26.5 -19t-24.5 -22.5t-16.5 -16l23 108q10 -15 14 -15q2 0 38.5 16t81.5 16q52 0 89 -33.5t37 -81.5q0 -42 -23 -83.5t-49.5 -69t-73 -59
t-65 -42t-54.5 -29.5v-2h159q29 0 59 23l-14 -68h-303z" />
    <glyph glyph-name="threesuperior" unicode="&#xb3;" horiz-adv-x="463" 
d="M106 350l18 81q0 -1 3 -12t4 -13t5 -12.5t7 -14t8.5 -12.5t11 -12.5t14.5 -9.5t18 -8.5t22 -4.5t27 -2q56 0 93 35t37 78q0 33 -26 55.5t-60 22.5q-33 0 -74 -12l-20 35l201 139v2h-148h-14h-9.5t-8 -1.5t-5.5 -2t-5.5 -3.5t-5 -4t-7 -6.5l-8.5 -8.5l16 71h279l-8 -45
l-189 -128v-2q6 0 19 0.5t20 0.5q47 0 80 -31.5t33 -83.5q0 -65 -52.5 -110.5t-131.5 -45.5q-43 0 -75.5 13t-42.5 23t-26 29z" />
    <glyph glyph-name="acute" unicode="&#xb4;" horiz-adv-x="454" 
d="M219 613l9 41l246 91l-14 -70z" />
    <glyph glyph-name="mu" unicode="&#xb5;" horiz-adv-x="574" 
d="M-24 -200l146 654q9 40 9 55q0 10 -16 21h109l-83 -375q-7 -30 -7 -51q0 -30 16 -44.5t39 -14.5q73 0 132 77t83 190l31 142q9 41 9 55q0 10 -16 21h109l-66 -299q-18 -80 -18 -149q0 -46 19 -81h-85q-14 30 -14 60q0 23 9 77l-2 2q-24 -57 -80 -106t-131 -49
q-38 0 -66 14l-25 -123q-9 -41 -9 -55q0 -10 16 -21h-109z" />
    <glyph glyph-name="paragraph" unicode="&#xb6;" 
d="M367 -174v437q-36 4 -71 17.5t-70.5 38.5t-57.5 69.5t-22 101.5q0 62 26.5 110t71 75.5t95.5 41t106 13.5h115v-37h-58v-867h-37v867h-61v-867h-37z" />
    <glyph glyph-name="periodcentered" unicode="&#xb7;" 
d="M279 339q0 26 18.5 44t44.5 18q25 0 43 -18.5t18 -43.5q0 -26 -18 -44.5t-44 -18.5q-25 0 -43.5 18.5t-18.5 44.5z" />
    <glyph glyph-name="cedilla" unicode="&#xb8;" horiz-adv-x="454" 
d="M101 -184l8 28q33 -5 42 -5q8 0 18 1.5t25.5 5.5t25.5 15.5t10 28.5q0 21 -18 29t-34 8q-7 0 -20.5 -2.5t-18.5 -2.5l43 109h46l-31 -76q3 0 7.5 1t8.5 1.5t8 0.5q29 0 49 -19t20 -46q0 -39 -33.5 -66.5t-87.5 -27.5q-31 0 -68 17z" />
    <glyph glyph-name="onesuperior" unicode="&#xb9;" horiz-adv-x="463" 
d="M223 332l71 332q-39 -17 -63 -17l9 42q62 16 90 41h39l-86 -398q-3 -11 -3 -20q0 -12 10 -22h-90l4.5 4.5t4.5 5t3.5 6t5 10.5t5.5 16z" />
    <glyph glyph-name="ordmasculine" unicode="&#xba;" 
d="M344 356q-65 0 -100 39.5t-35 93.5q0 41 13 83t38 80t67 62t94 24q57 0 91 -37t34 -97q0 -101 -61.5 -174.5t-140.5 -73.5zM269 484q0 -41 20.5 -64.5t54.5 -23.5q51 0 96.5 61.5t45.5 158.5q0 37 -20 59.5t-47 22.5q-44 0 -80 -35.5t-53 -83.5t-17 -95z" />
    <glyph glyph-name="guillemotright" unicode="&#xbb;" horiz-adv-x="426" 
d="M186 91l119 173l-45 179h75l45 -190l-114 -162h-80zM6 91l119 173l-45 179h75l45 -190l-114 -162h-80z" />
    <glyph glyph-name="onequarter" unicode="&#xbc;" horiz-adv-x="1000" 
d="M719 44l17 77h-220l7 36q0 1 109.5 130t109.5 132q0 9 -7 18h103q-45 -46 -123.5 -133.5t-116.5 -137.5h147l19 82l65 23l-22 -105h55l-9 -45h-56l-19 -85q-1 -5 -1 -14q0 -13 11 -22h-95q15 11 18.5 16.5t7.5 27.5zM206 -5l485 740h42l-485 -740h-42zM199 332l71 332
q-39 -17 -63 -17l9 42q62 16 90 41h39l-86 -398q-3 -11 -3 -20q0 -12 10 -22h-90l4.5 4.5t4.5 5t3.5 6t5 10.5t5.5 16z" />
    <glyph glyph-name="onehalf" unicode="&#xbd;" horiz-adv-x="1000" 
d="M206 -5l485 740h42l-485 -740h-42zM197 332l71 332q-39 -17 -63 -17l9 42q62 16 90 41h39l-86 -398q-3 -11 -3 -20q0 -12 10 -22h-90l4.5 4.5t4.5 5t3.5 6t5 10.5t5.5 16zM501 0l8 40q2 2 26.5 15t59 34.5t66.5 47.5q72 57 105.5 100t33.5 91q0 29 -21.5 50.5t-51.5 21.5
q-21 0 -40.5 -5.5t-37 -17t-26.5 -19t-24.5 -22.5t-16.5 -16l23 108q10 -15 14 -15q2 0 38.5 16t81.5 16q52 0 89 -33.5t37 -81.5q0 -42 -23 -83.5t-49.5 -69t-73 -59t-65 -42t-54.5 -29.5v-2h159q29 0 59 23l-14 -68h-303z" />
    <glyph glyph-name="threequarters" unicode="&#xbe;" horiz-adv-x="1000" 
d="M106 350l18 81q0 -1 3 -12t4 -13t5 -12.5t7 -14t8.5 -12.5t11 -12.5t14.5 -9.5t18 -8.5t22 -4.5t27 -2q56 0 93 35t37 78q0 33 -26 55.5t-60 22.5q-33 0 -74 -12l-20 35l201 139v2h-148h-14h-9.5t-8 -1.5t-5.5 -2t-5.5 -3.5t-5 -4t-7 -6.5l-8.5 -8.5l16 71h279l-8 -45
l-189 -128v-2q6 0 19 0.5t20 0.5q47 0 80 -31.5t33 -83.5q0 -65 -52.5 -110.5t-131.5 -45.5q-43 0 -75.5 13t-42.5 23t-26 29zM576 121l7 36q0 1 109.5 130t109.5 132q0 9 -7 18h103q-45 -46 -123.5 -133.5t-116.5 -137.5h147l19 82l65 23l-22 -105h55l-9 -45h-56l-19 -85
q-1 -5 -1 -14q0 -13 11 -22h-95q15 11 18.5 16.5t7.5 27.5l17 77h-220zM271 -5l485 740h42l-485 -740h-42z" />
    <glyph glyph-name="questiondown" unicode="&#xbf;" horiz-adv-x="500" 
d="M283 347h75q-10 -58 -34 -103t-53 -70t-61 -49t-58 -42.5t-43 -48.5t-17 -68q0 -48 35 -77t93 -29q45 0 87 22.5t75.5 53t35.5 31.5l-32 -142q-10 18 -16 18q-9 0 -30.5 -12t-57.5 -24t-79 -12q-91 0 -146 50t-55 121q0 44 19 82t49.5 65.5t62 49.5t62.5 45t45 40
q23 29 43 99zM351 545q22 0 37 -15t15 -36q0 -28 -20 -46t-42 -18t-37.5 14.5t-15.5 36.5q0 28 20 46t43 18z" />
    <glyph glyph-name="Agrave" unicode="&#xc0;" horiz-adv-x="667" 
d="M60 141l299 510q26 44 26 54q0 6 -2 10t-7.5 9t-6.5 6h131l99 -657q5 -29 11 -43t16 -22l10 -8h-154q1 1 10 7.5t13.5 13.5t4.5 19q0 3 -1 9l-2.5 15t-2.5 14l-27 165h-280l-105 -180q-16 -24 -16 -41q0 -7 2.5 -10.5t7 -6.5t6.5 -5h-140q21 14 42 40.5t66 100.5z
M231 303h239l-47 329h-2zM306 875l15 70l233 -93l-9 -39z" />
    <glyph glyph-name="Aacute" unicode="&#xc1;" horiz-adv-x="667" 
d="M60 141l299 510q26 44 26 54q0 6 -2 10t-7.5 9t-6.5 6h131l99 -657q5 -29 11 -43t16 -22l10 -8h-154q1 1 10 7.5t13.5 13.5t4.5 19q0 3 -1 9l-2.5 15t-2.5 14l-27 165h-280l-105 -180q-16 -24 -16 -41q0 -7 2.5 -10.5t7 -6.5t6.5 -5h-140q21 14 42 40.5t66 100.5z
M231 303h239l-47 329h-2zM326 813l9 41l246 91l-14 -70z" />
    <glyph glyph-name="Acircumflex" unicode="&#xc2;" horiz-adv-x="667" 
d="M60 141l299 510q26 44 26 54q0 6 -2 10t-7.5 9t-6.5 6h131l99 -657q5 -29 11 -43t16 -22l10 -8h-154q1 1 10 7.5t13.5 13.5t4.5 19q0 3 -1 9l-2.5 15t-2.5 14l-27 165h-280l-105 -180q-16 -24 -16 -41q0 -7 2.5 -10.5t7 -6.5t6.5 -5h-140q21 14 42 40.5t66 100.5z
M231 303h239l-47 329h-2zM288 820v42l192 83l159 -87l-13 -35l-157 54z" />
    <glyph glyph-name="Atilde" unicode="&#xc3;" horiz-adv-x="667" 
d="M60 141l299 510q26 44 26 54q0 6 -2 10t-7.5 9t-6.5 6h131l99 -657q5 -29 11 -43t16 -22l10 -8h-154q1 1 10 7.5t13.5 13.5t4.5 19q0 3 -1 9l-2.5 15t-2.5 14l-27 165h-280l-105 -180q-16 -24 -16 -41q0 -7 2.5 -10.5t7 -6.5t6.5 -5h-140q21 14 42 40.5t66 100.5z
M231 303h239l-47 329h-2zM291 844l-25 30q69 67 118 67q31 0 69 -30t62 -30q10 0 23 6t20.5 12t20 16.5t13.5 11.5l26 -31q-64 -70 -112 -70q-42 0 -80 30q-3 2 -10.5 8.5t-11 9t-9.5 6t-10.5 5t-9.5 1.5t-10 -0.5t-10 -2t-8.5 -2.5t-9 -4.5t-8 -5t-9 -6t-9 -6t-10 -7.5
t-10.5 -8z" />
    <glyph glyph-name="Adieresis" unicode="&#xc4;" horiz-adv-x="667" 
d="M60 141l299 510q26 44 26 54q0 6 -2 10t-7.5 9t-6.5 6h131l99 -657q5 -29 11 -43t16 -22l10 -8h-154q1 1 10 7.5t13.5 13.5t4.5 19q0 3 -1 9l-2.5 15t-2.5 14l-27 165h-280l-105 -180q-16 -24 -16 -41q0 -7 2.5 -10.5t7 -6.5t6.5 -5h-140q21 14 42 40.5t66 100.5z
M231 303h239l-47 329h-2zM357 840q-19 0 -30.5 12.5t-11.5 26.5q0 27 16 41.5t36 14.5q18 0 30.5 -13t12.5 -30q0 -21 -16 -36.5t-37 -15.5zM534 840q-19 0 -30.5 12.5t-11.5 26.5q0 27 16 41.5t36 14.5q18 0 30.5 -13t12.5 -30q0 -21 -16 -36.5t-37 -15.5z" />
    <glyph glyph-name="Aring" unicode="&#xc5;" horiz-adv-x="667" 
d="M60 141l299 510q26 44 26 54q0 6 -2 10t-7.5 9t-6.5 6h131l99 -657q5 -29 11 -43t16 -22l10 -8h-154q1 1 10 7.5t13.5 13.5t4.5 19q0 3 -1 9l-2.5 15t-2.5 14l-27 165h-280l-105 -180q-16 -24 -16 -41q0 -7 2.5 -10.5t7 -6.5t6.5 -5h-140q21 14 42 40.5t66 100.5z
M231 303h239l-47 329h-2zM444 790q-44 0 -74 30t-30 73q0 42 30.5 72t73.5 30q42 0 71.5 -30t29.5 -72q0 -43 -30 -73t-71 -30zM380 893q0 -27 18.5 -45t45.5 -18q25 0 43 18t18 45q0 26 -18 44t-43 18q-27 0 -45.5 -18t-18.5 -44z" />
    <glyph glyph-name="AE" unicode="&#xc6;" horiz-adv-x="981" 
d="M85 136l414 515q26 34 26 54q0 6 -2 10t-7.5 9t-6.5 6h520l-22 -105q-1 2 -4 9t-3 8t-3 5.5t-4.5 5t-6 3t-8.5 2.5t-11.5 1t-15.5 1h-20h-239l-53 -243h221q33 0 47 6t32 23l-28 -129q-7 13 -11 17.5t-15.5 8.5t-32.5 4h-228l-59 -277h248q26 0 44 6t27.5 14t26.5 26
l-25 -116h-469q3 2 9.5 7.5t9.5 8t8 8.5t8 12t6.5 15.5t6.5 21.5l36 170h-247l-147 -180q-13 -16 -13 -35q0 -9 2.5 -14t8 -8.5t7.5 -5.5h-160q25 15 51 41t82 95zM303 303h211l77 352l-2 2z" />
    <glyph glyph-name="Ccedilla" unicode="&#xc7;" horiz-adv-x="611" 
d="M247 -78l27 69q-95 18 -152.5 102t-57.5 193q0 96 33.5 182.5t87.5 146.5t123.5 95t140.5 35q43 0 78.5 -14t57.5 -28t31 -14q5 0 9.5 2.5t9.5 7.5t8 7l-36 -162q-1 2 -7 18t-10 24t-12.5 24t-19 25.5t-25 19.5t-34.5 15t-44 5q-108 0 -199.5 -117.5t-91.5 -272.5
q0 -110 49.5 -170t127.5 -60q51 0 93.5 24t77.5 60.5t38 38.5l-34 -154q-8 16 -16 16q-6 0 -31 -14t-64 -27.5t-81 -13.5h-7l-12 -30q3 0 7.5 1t8.5 1.5t8 0.5q29 0 49 -19t20 -46q0 -39 -33.5 -66.5t-87.5 -27.5q-31 0 -68 17l8 28q33 -5 42 -5q8 0 18 1.5t25.5 5.5
t25.5 15.5t10 28.5q0 21 -18 29t-34 8q-7 0 -20.5 -2.5t-18.5 -2.5z" />
    <glyph glyph-name="Egrave" unicode="&#xc8;" horiz-adv-x="574" 
d="M60 73l126 584q6 30 6 43q0 17 -21 30h448l-22 -105q-1 2 -4 9t-3 8t-3 5.5t-4.5 5t-6 3t-8.5 2.5t-11.5 1t-15.5 1h-20h-239l-53 -243h221q33 0 47 6t32 23l-28 -129q-7 13 -11 17.5t-15.5 8.5t-32.5 4h-228l-59 -277h248q26 0 44 6t27.5 14t26.5 26l-25 -116h-464
q3 2 9.5 7.5t9.5 8t8 8.5t8 12t6.5 15.5t6.5 21.5zM259 875l15 70l233 -93l-9 -39z" />
    <glyph glyph-name="Eacute" unicode="&#xc9;" horiz-adv-x="574" 
d="M60 73l126 584q6 30 6 43q0 17 -21 30h448l-22 -105q-1 2 -4 9t-3 8t-3 5.5t-4.5 5t-6 3t-8.5 2.5t-11.5 1t-15.5 1h-20h-239l-53 -243h221q33 0 47 6t32 23l-28 -129q-7 13 -11 17.5t-15.5 8.5t-32.5 4h-228l-59 -277h248q26 0 44 6t27.5 14t26.5 26l-25 -116h-464
q3 2 9.5 7.5t9.5 8t8 8.5t8 12t6.5 15.5t6.5 21.5zM279 813l9 41l246 91l-14 -70z" />
    <glyph glyph-name="Ecircumflex" unicode="&#xca;" horiz-adv-x="574" 
d="M60 73l126 584q6 30 6 43q0 17 -21 30h448l-22 -105q-1 2 -4 9t-3 8t-3 5.5t-4.5 5t-6 3t-8.5 2.5t-11.5 1t-15.5 1h-20h-239l-53 -243h221q33 0 47 6t32 23l-28 -129q-7 13 -11 17.5t-15.5 8.5t-32.5 4h-228l-59 -277h248q26 0 44 6t27.5 14t26.5 26l-25 -116h-464
q3 2 9.5 7.5t9.5 8t8 8.5t8 12t6.5 15.5t6.5 21.5zM241 820v42l192 83l159 -87l-13 -35l-157 54z" />
    <glyph glyph-name="Edieresis" unicode="&#xcb;" horiz-adv-x="574" 
d="M60 73l126 584q6 30 6 43q0 17 -21 30h448l-22 -105q-1 2 -4 9t-3 8t-3 5.5t-4.5 5t-6 3t-8.5 2.5t-11.5 1t-15.5 1h-20h-239l-53 -243h221q33 0 47 6t32 23l-28 -129q-7 13 -11 17.5t-15.5 8.5t-32.5 4h-228l-59 -277h248q26 0 44 6t27.5 14t26.5 26l-25 -116h-464
q3 2 9.5 7.5t9.5 8t8 8.5t8 12t6.5 15.5t6.5 21.5zM310 840q-19 0 -30.5 12.5t-11.5 26.5q0 27 16 41.5t36 14.5q18 0 30.5 -13t12.5 -30q0 -21 -16 -36.5t-37 -15.5zM487 840q-19 0 -30.5 12.5t-11.5 26.5q0 27 16 41.5t36 14.5q18 0 30.5 -13t12.5 -30q0 -21 -16 -36.5
t-37 -15.5z" />
    <glyph glyph-name="Igrave" unicode="&#xcc;" horiz-adv-x="296" 
d="M60 73l126 584q6 30 6 43t-23 30h160q-3 -2 -11 -9t-11.5 -10.5t-9.5 -11.5t-9.5 -18t-6.5 -24l-126 -584q-6 -22 -6 -43q0 -13 23 -30h-160q2 2 11 9t11.5 10.5t8.5 11.5t10 18t7 24zM120 875l15 70l233 -93l-9 -39z" />
    <glyph glyph-name="Iacute" unicode="&#xcd;" horiz-adv-x="296" 
d="M60 73l126 584q6 30 6 43t-23 30h160q-3 -2 -11 -9t-11.5 -10.5t-9.5 -11.5t-9.5 -18t-6.5 -24l-126 -584q-6 -22 -6 -43q0 -13 23 -30h-160q2 2 11 9t11.5 10.5t8.5 11.5t10 18t7 24zM140 813l9 41l246 91l-14 -70z" />
    <glyph glyph-name="Icircumflex" unicode="&#xce;" horiz-adv-x="296" 
d="M60 73l126 584q6 30 6 43t-23 30h160q-3 -2 -11 -9t-11.5 -10.5t-9.5 -11.5t-9.5 -18t-6.5 -24l-126 -584q-6 -22 -6 -43q0 -13 23 -30h-160q2 2 11 9t11.5 10.5t8.5 11.5t10 18t7 24zM102 820v42l192 83l159 -87l-13 -35l-157 54z" />
    <glyph glyph-name="Idieresis" unicode="&#xcf;" horiz-adv-x="296" 
d="M60 73l126 584q6 30 6 43t-23 30h160q-3 -2 -11 -9t-11.5 -10.5t-9.5 -11.5t-9.5 -18t-6.5 -24l-126 -584q-6 -22 -6 -43q0 -13 23 -30h-160q2 2 11 9t11.5 10.5t8.5 11.5t10 18t7 24zM171 840q-19 0 -30.5 12.5t-11.5 26.5q0 27 16 41.5t36 14.5q18 0 30.5 -13t12.5 -30
q0 -21 -16 -36.5t-37 -15.5zM348 840q-19 0 -30.5 12.5t-11.5 26.5q0 27 16 41.5t36 14.5q18 0 30.5 -13t12.5 -30q0 -21 -16 -36.5t-37 -15.5z" />
    <glyph glyph-name="Eth" unicode="&#xd0;" horiz-adv-x="722" 
d="M60 73l59 271h-82l15 70h81l53 243q6 30 6 43q0 16 -18 30h162q47 0 81.5 -2t75 -9t69.5 -19t57.5 -33.5t45.5 -51.5t28 -74t11 -100q0 -99 -33.5 -178t-84 -127t-115.5 -80t-123.5 -44t-112.5 -12h-223q2 2 11 9t11.5 10.5t8.5 11.5t10 18t7 24zM214 344l-59 -274h46
q81 0 151 21t128 63.5t91 115.5t33 169q0 55 -14 95.5t-37 64t-57.5 38t-69 19t-78.5 4.5h-65l-55 -246h182l-15 -70h-181z" />
    <glyph glyph-name="Ntilde" unicode="&#xd1;" horiz-adv-x="759" 
d="M63 73l126 584q6 30 6 43t-23 30h132l253 -596h2l112 523q6 23 6 43q0 13 -23 30h135q-2 -2 -11 -9t-11.5 -10.5t-8.5 -11.5t-10 -18t-7 -24l-142 -657h-85l-262 620h-2l-117 -547q-6 -22 -6 -43q0 -13 23 -30h-135q2 2 11 9t11.5 10.5t8.5 11.5t10 18t7 24zM337 844
l-25 30q69 67 118 67q31 0 69 -30t62 -30q10 0 23 6t20.5 12t20 16.5t13.5 11.5l26 -31q-64 -70 -112 -70q-42 0 -80 30q-3 2 -10.5 8.5t-11 9t-9.5 6t-10.5 5t-9.5 1.5t-10 -0.5t-10 -2t-8.5 -2.5t-9 -4.5t-8 -5t-9 -6t-9 -6t-10 -7.5t-10.5 -8z" />
    <glyph glyph-name="Ograve" unicode="&#xd2;" horiz-adv-x="796" 
d="M365 -15q-77 0 -136 26t-93.5 70.5t-52 100t-17.5 119.5q0 190 124.5 317t294.5 127q138 0 213 -83t75 -216q0 -116 -48 -220t-143 -172.5t-217 -68.5zM166 302q0 -247 199 -247q127 0 217.5 115t90.5 281q0 111 -51.5 167.5t-141.5 56.5q-89 0 -162.5 -56t-112.5 -141.5
t-39 -175.5zM370 875l15 70l233 -93l-9 -39z" />
    <glyph glyph-name="Oacute" unicode="&#xd3;" horiz-adv-x="796" 
d="M365 -15q-77 0 -136 26t-93.5 70.5t-52 100t-17.5 119.5q0 190 124.5 317t294.5 127q138 0 213 -83t75 -216q0 -116 -48 -220t-143 -172.5t-217 -68.5zM166 302q0 -247 199 -247q127 0 217.5 115t90.5 281q0 111 -51.5 167.5t-141.5 56.5q-89 0 -162.5 -56t-112.5 -141.5
t-39 -175.5zM390 813l9 41l246 91l-14 -70z" />
    <glyph glyph-name="Ocircumflex" unicode="&#xd4;" horiz-adv-x="796" 
d="M365 -15q-77 0 -136 26t-93.5 70.5t-52 100t-17.5 119.5q0 190 124.5 317t294.5 127q138 0 213 -83t75 -216q0 -116 -48 -220t-143 -172.5t-217 -68.5zM166 302q0 -247 199 -247q127 0 217.5 115t90.5 281q0 111 -51.5 167.5t-141.5 56.5q-89 0 -162.5 -56t-112.5 -141.5
t-39 -175.5zM352 820v42l192 83l159 -87l-13 -35l-157 54z" />
    <glyph glyph-name="Otilde" unicode="&#xd5;" horiz-adv-x="796" 
d="M365 -15q-77 0 -136 26t-93.5 70.5t-52 100t-17.5 119.5q0 190 124.5 317t294.5 127q138 0 213 -83t75 -216q0 -116 -48 -220t-143 -172.5t-217 -68.5zM166 302q0 -247 199 -247q127 0 217.5 115t90.5 281q0 111 -51.5 167.5t-141.5 56.5q-89 0 -162.5 -56t-112.5 -141.5
t-39 -175.5zM355 844l-25 30q69 67 118 67q31 0 69 -30t62 -30q10 0 23 6t20.5 12t20 16.5t13.5 11.5l26 -31q-64 -70 -112 -70q-42 0 -80 30q-3 2 -10.5 8.5t-11 9t-9.5 6t-10.5 5t-9.5 1.5t-10 -0.5t-10 -2t-8.5 -2.5t-9 -4.5t-8 -5t-9 -6t-9 -6t-10 -7.5t-10.5 -8z" />
    <glyph glyph-name="Odieresis" unicode="&#xd6;" horiz-adv-x="796" 
d="M365 -15q-77 0 -136 26t-93.5 70.5t-52 100t-17.5 119.5q0 190 124.5 317t294.5 127q138 0 213 -83t75 -216q0 -116 -48 -220t-143 -172.5t-217 -68.5zM166 302q0 -247 199 -247q127 0 217.5 115t90.5 281q0 111 -51.5 167.5t-141.5 56.5q-89 0 -162.5 -56t-112.5 -141.5
t-39 -175.5zM421 840q-19 0 -30.5 12.5t-11.5 26.5q0 27 16 41.5t36 14.5q18 0 30.5 -13t12.5 -30q0 -21 -16 -36.5t-37 -15.5zM598 840q-19 0 -30.5 12.5t-11.5 26.5q0 27 16 41.5t36 14.5q18 0 30.5 -13t12.5 -30q0 -21 -16 -36.5t-37 -15.5z" />
    <glyph glyph-name="multiply" unicode="&#xd7;" horiz-adv-x="1000" 
d="M290 92l176 177l-176 178l43 43l177 -178l178 178l41 -43l-175 -178l175 -177l-41 -44l-178 178l-177 -178z" />
    <glyph glyph-name="Oslash" unicode="&#xd8;" horiz-adv-x="796" 
d="M97 -23l59 79q-90 89 -90 245q0 190 124.5 317t294.5 127q88 0 156 -40l53 71l27 -21l-53 -70q105 -80 105 -239q0 -116 -48 -220t-143 -172.5t-217 -68.5q-108 0 -182 51l-58 -78zM210 129l384 513q-49 33 -114 33q-89 0 -162.5 -56t-112.5 -141.5t-39 -175.5
q0 -118 44 -173zM621 622l-387 -518q46 -49 131 -49q127 0 217.5 115t90.5 281q0 113 -52 171z" />
    <glyph glyph-name="Ugrave" unicode="&#xd9;" horiz-adv-x="722" 
d="M90 248l90 409q6 30 6 43t-23 30h160q-2 -2 -11 -9t-11.5 -10.5t-8.5 -11.5t-10 -18t-7 -24l-82 -382q-2 -9 -6.5 -27t-7 -29t-4.5 -27t-2 -29q0 -53 48.5 -80.5t110.5 -27.5q45 0 81 14t57 33t37.5 50.5t24 56.5t15.5 60l85 388q6 23 6 43q0 13 -23 30h135q-2 -2 -11 -9
t-11.5 -10.5t-8.5 -11.5t-10 -18t-7 -24l-60 -276q-4 -16 -10 -49q-8 -37 -12 -56t-13 -53.5t-17 -54t-22 -48t-29.5 -45t-37.5 -36.5t-48 -30t-60 -17t-73 -7q-119 0 -180.5 50t-61.5 134q0 27 12 79zM333 875l15 70l233 -93l-9 -39z" />
    <glyph glyph-name="Uacute" unicode="&#xda;" horiz-adv-x="722" 
d="M90 248l90 409q6 30 6 43t-23 30h160q-2 -2 -11 -9t-11.5 -10.5t-8.5 -11.5t-10 -18t-7 -24l-82 -382q-2 -9 -6.5 -27t-7 -29t-4.5 -27t-2 -29q0 -53 48.5 -80.5t110.5 -27.5q45 0 81 14t57 33t37.5 50.5t24 56.5t15.5 60l85 388q6 23 6 43q0 13 -23 30h135q-2 -2 -11 -9
t-11.5 -10.5t-8.5 -11.5t-10 -18t-7 -24l-60 -276q-4 -16 -10 -49q-8 -37 -12 -56t-13 -53.5t-17 -54t-22 -48t-29.5 -45t-37.5 -36.5t-48 -30t-60 -17t-73 -7q-119 0 -180.5 50t-61.5 134q0 27 12 79zM353 813l9 41l246 91l-14 -70z" />
    <glyph glyph-name="Ucircumflex" unicode="&#xdb;" horiz-adv-x="722" 
d="M90 248l90 409q6 30 6 43t-23 30h160q-2 -2 -11 -9t-11.5 -10.5t-8.5 -11.5t-10 -18t-7 -24l-82 -382q-2 -9 -6.5 -27t-7 -29t-4.5 -27t-2 -29q0 -53 48.5 -80.5t110.5 -27.5q45 0 81 14t57 33t37.5 50.5t24 56.5t15.5 60l85 388q6 23 6 43q0 13 -23 30h135q-2 -2 -11 -9
t-11.5 -10.5t-8.5 -11.5t-10 -18t-7 -24l-60 -276q-4 -16 -10 -49q-8 -37 -12 -56t-13 -53.5t-17 -54t-22 -48t-29.5 -45t-37.5 -36.5t-48 -30t-60 -17t-73 -7q-119 0 -180.5 50t-61.5 134q0 27 12 79zM315 820v42l192 83l159 -87l-13 -35l-157 54z" />
    <glyph glyph-name="Udieresis" unicode="&#xdc;" horiz-adv-x="722" 
d="M90 248l90 409q6 30 6 43t-23 30h160q-2 -2 -11 -9t-11.5 -10.5t-8.5 -11.5t-10 -18t-7 -24l-82 -382q-2 -9 -6.5 -27t-7 -29t-4.5 -27t-2 -29q0 -53 48.5 -80.5t110.5 -27.5q45 0 81 14t57 33t37.5 50.5t24 56.5t15.5 60l85 388q6 23 6 43q0 13 -23 30h135q-2 -2 -11 -9
t-11.5 -10.5t-8.5 -11.5t-10 -18t-7 -24l-60 -276q-4 -16 -10 -49q-8 -37 -12 -56t-13 -53.5t-17 -54t-22 -48t-29.5 -45t-37.5 -36.5t-48 -30t-60 -17t-73 -7q-119 0 -180.5 50t-61.5 134q0 27 12 79zM384 840q-19 0 -30.5 12.5t-11.5 26.5q0 27 16 41.5t36 14.5
q18 0 30.5 -13t12.5 -30q0 -21 -16 -36.5t-37 -15.5zM561 840q-19 0 -30.5 12.5t-11.5 26.5q0 27 16 41.5t36 14.5q18 0 30.5 -13t12.5 -30q0 -21 -16 -36.5t-37 -15.5z" />
    <glyph glyph-name="Yacute" unicode="&#xdd;" horiz-adv-x="611" 
d="M215 73l39 175l-98 383q-10 39 -17.5 58t-11.5 23.5t-19 17.5h150q-2 -2 -6 -5t-5.5 -4.5t-3.5 -4.5t-3 -6.5t-1 -8.5q0 -12 4 -34l83 -343l225 338q24 34 24 47q0 5 -16 21h149q-23 -10 -40.5 -28t-46.5 -60l-272 -389l-39 -180q-6 -30 -6 -43t23 -30h-160q2 2 11 9
t11.5 10.5t8.5 11.5t10 18t7 24zM298 813l9 41l246 91l-14 -70z" />
    <glyph glyph-name="Thorn" unicode="&#xde;" horiz-adv-x="630" 
d="M195 257h102q111 0 172.5 44t61.5 130q0 24 -8 43.5t-19 31.5t-30.5 21t-34.5 13t-40 6t-38 2.5t-37 0.5h-66zM61 73l126 584q6 23 6 43q0 13 -23 30h160q-3 -2 -11 -9t-11.5 -10.5t-9.5 -11.5t-9.5 -18t-6.5 -24l-9 -38h64q142 0 218 -39.5t76 -141.5q0 -65 -25 -112.5
t-62 -73.5t-91 -41.5t-99 -19.5t-99 -4h-75l-24 -114q-6 -22 -6 -43q0 -13 23 -30h-160q2 2 11 9t11.5 10.5t8.5 11.5t10 18t7 24z" />
    <glyph glyph-name="germandbls" unicode="&#xdf;" horiz-adv-x="611" 
d="M-88 -179l11 54q13 -10 31 -10q34 0 50 71l128 586q42 223 235 223q73 0 117.5 -35.5t44.5 -90.5q0 -41 -18.5 -71t-47.5 -45t-52 -22t-44 -9v-2q24 -2 46 -9.5t50 -25.5t45 -56t17 -91q0 -131 -71.5 -217t-158.5 -86q-79 0 -114 48l20 91q2 -3 10 -18.5t12.5 -22.5
t13.5 -17.5t19.5 -15.5t22.5 -5q70 0 115.5 77.5t45.5 186.5q0 37 -12.5 63.5t-27.5 39t-39.5 19t-38 7.5t-33.5 1l11 60q28 3 46.5 7.5t44.5 15.5t39.5 33.5t13.5 54.5q0 31 -23.5 53t-55.5 22q-20 0 -37.5 -4t-31 -13t-24 -17.5t-19.5 -24.5t-14 -25t-11 -29t-8 -27.5
t-6 -28t-5 -23.5l-116 -534q-35 -159 -121 -159q-28 0 -60 21z" />
    <glyph glyph-name="agrave" unicode="&#xe0;" horiz-adv-x="593" 
d="M506 0h-90q-11 32 -11 73q0 21 6 57l-2 2q-10 -20 -23 -39.5t-38 -46.5t-61 -44t-77 -17q-68 0 -119 48.5t-51 146.5q0 83 38.5 166.5t108.5 141t150 57.5q36 0 67.5 -14t43.5 -24.5t31 -30.5l13 54h80l-36 -166q-3 -11 -11 -47t-12 -53t-10.5 -48.5t-9.5 -51t-5.5 -43
t-2.5 -40.5q0 -13 0.5 -22t3.5 -18.5t4 -12.5t6.5 -14.5t6.5 -13.5zM447 339l18 80q-51 66 -113 66q-92 0 -159.5 -97t-67.5 -210q0 -68 32.5 -100.5t75.5 -32.5q61 0 121 76.5t93 217.5zM239 675l15 70l233 -93l-9 -39z" />
    <glyph glyph-name="aacute" unicode="&#xe1;" horiz-adv-x="593" 
d="M506 0h-90q-11 32 -11 73q0 21 6 57l-2 2q-10 -20 -23 -39.5t-38 -46.5t-61 -44t-77 -17q-68 0 -119 48.5t-51 146.5q0 83 38.5 166.5t108.5 141t150 57.5q36 0 67.5 -14t43.5 -24.5t31 -30.5l13 54h80l-36 -166q-3 -11 -11 -47t-12 -53t-10.5 -48.5t-9.5 -51t-5.5 -43
t-2.5 -40.5q0 -13 0.5 -22t3.5 -18.5t4 -12.5t6.5 -14.5t6.5 -13.5zM447 339l18 80q-51 66 -113 66q-92 0 -159.5 -97t-67.5 -210q0 -68 32.5 -100.5t75.5 -32.5q61 0 121 76.5t93 217.5zM289 613l9 41l246 91l-14 -70z" />
    <glyph glyph-name="acircumflex" unicode="&#xe2;" horiz-adv-x="593" 
d="M506 0h-90q-11 32 -11 73q0 21 6 57l-2 2q-10 -20 -23 -39.5t-38 -46.5t-61 -44t-77 -17q-68 0 -119 48.5t-51 146.5q0 83 38.5 166.5t108.5 141t150 57.5q36 0 67.5 -14t43.5 -24.5t31 -30.5l13 54h80l-36 -166q-3 -11 -11 -47t-12 -53t-10.5 -48.5t-9.5 -51t-5.5 -43
t-2.5 -40.5q0 -13 0.5 -22t3.5 -18.5t4 -12.5t6.5 -14.5t6.5 -13.5zM447 339l18 80q-51 66 -113 66q-92 0 -159.5 -97t-67.5 -210q0 -68 32.5 -100.5t75.5 -32.5q61 0 121 76.5t93 217.5zM211 620v42l192 83l159 -87l-13 -35l-157 54z" />
    <glyph glyph-name="atilde" unicode="&#xe3;" horiz-adv-x="593" 
d="M506 0h-90q-11 32 -11 73q0 21 6 57l-2 2q-10 -20 -23 -39.5t-38 -46.5t-61 -44t-77 -17q-68 0 -119 48.5t-51 146.5q0 83 38.5 166.5t108.5 141t150 57.5q36 0 67.5 -14t43.5 -24.5t31 -30.5l13 54h80l-36 -166q-3 -11 -11 -47t-12 -53t-10.5 -48.5t-9.5 -51t-5.5 -43
t-2.5 -40.5q0 -13 0.5 -22t3.5 -18.5t4 -12.5t6.5 -14.5t6.5 -13.5zM447 339l18 80q-51 66 -113 66q-92 0 -159.5 -97t-67.5 -210q0 -68 32.5 -100.5t75.5 -32.5q61 0 121 76.5t93 217.5zM224 644l-25 30q69 67 118 67q31 0 69 -30t62 -30q10 0 23 6t20.5 12t20 16.5
t13.5 11.5l26 -31q-64 -70 -112 -70q-42 0 -80 30q-3 2 -10.5 8.5t-11 9t-9.5 6t-10.5 5t-9.5 1.5t-10 -0.5t-10 -2t-8.5 -2.5t-9 -4.5t-8 -5t-9 -6t-9 -6t-10 -7.5t-10.5 -8z" />
    <glyph glyph-name="adieresis" unicode="&#xe4;" horiz-adv-x="593" 
d="M506 0h-90q-11 32 -11 73q0 21 6 57l-2 2q-10 -20 -23 -39.5t-38 -46.5t-61 -44t-77 -17q-68 0 -119 48.5t-51 146.5q0 83 38.5 166.5t108.5 141t150 57.5q36 0 67.5 -14t43.5 -24.5t31 -30.5l13 54h80l-36 -166q-3 -11 -11 -47t-12 -53t-10.5 -48.5t-9.5 -51t-5.5 -43
t-2.5 -40.5q0 -13 0.5 -22t3.5 -18.5t4 -12.5t6.5 -14.5t6.5 -13.5zM447 339l18 80q-51 66 -113 66q-92 0 -159.5 -97t-67.5 -210q0 -68 32.5 -100.5t75.5 -32.5q61 0 121 76.5t93 217.5zM290 640q-19 0 -30.5 12.5t-11.5 26.5q0 27 16 41.5t36 14.5q18 0 30.5 -13t12.5 -30
q0 -21 -16 -36.5t-37 -15.5zM467 640q-19 0 -30.5 12.5t-11.5 26.5q0 27 16 41.5t36 14.5q18 0 30.5 -13t12.5 -30q0 -21 -16 -36.5t-37 -15.5z" />
    <glyph glyph-name="aring" unicode="&#xe5;" horiz-adv-x="593" 
d="M506 0h-90q-11 32 -11 73q0 21 6 57l-2 2q-10 -20 -23 -39.5t-38 -46.5t-61 -44t-77 -17q-68 0 -119 48.5t-51 146.5q0 83 38.5 166.5t108.5 141t150 57.5q36 0 67.5 -14t43.5 -24.5t31 -30.5l13 54h80l-36 -166q-3 -11 -11 -47t-12 -53t-10.5 -48.5t-9.5 -51t-5.5 -43
t-2.5 -40.5q0 -13 0.5 -22t3.5 -18.5t4 -12.5t6.5 -14.5t6.5 -13.5zM447 339l18 80q-51 66 -113 66q-92 0 -159.5 -97t-67.5 -210q0 -68 32.5 -100.5t75.5 -32.5q61 0 121 76.5t93 217.5zM377 590q-44 0 -74 30t-30 73q0 42 30.5 72t73.5 30q42 0 71.5 -30t29.5 -72
q0 -43 -30 -73t-71 -30zM313 693q0 -27 18.5 -45t45.5 -18q25 0 43 18t18 45q0 26 -18 44t-43 18q-27 0 -45.5 -18t-18.5 -44z" />
    <glyph glyph-name="ae" unicode="&#xe6;" horiz-adv-x="907" 
d="M821 149l-22 -105q-1 -1 -8.5 -6t-12.5 -8t-16 -9t-21 -10.5t-24.5 -9.5t-28.5 -8.5t-32 -5.5t-37 -2q-82 0 -133 42t-58 121h-2q-10 -21 -25 -42.5t-42 -52t-66 -49.5t-83 -19q-68 0 -119 48.5t-51 146.5q0 83 38.5 166.5t108.5 141t150 57.5q36 0 67.5 -14t43.5 -24.5
t31 -30.5l13 54h64l-20 -80l2 -2q90 97 191 97q74 0 117 -37t43 -90q0 -79 -93.5 -144.5t-250.5 -65.5q-16 0 -48 2v-21q0 -68 40 -106t95 -38q34 0 68 14.5t53 29t42.5 36.5t25.5 24zM447 339l18 80q-51 66 -113 66q-92 0 -159.5 -97t-67.5 -210q0 -68 32.5 -100.5
t75.5 -32.5q61 0 121 76.5t93 217.5zM502 260q6 0 18.5 -1t17.5 -1q113 0 189.5 50t76.5 110q0 27 -21.5 47t-59.5 20q-82 0 -148 -81t-73 -144z" />
    <glyph glyph-name="ccedilla" unicode="&#xe7;" horiz-adv-x="500" 
d="M162 -78l28 71q-64 17 -104 70.5t-40 129.5q0 136 91 244t207 108q36 0 61.5 -9t39.5 -18t22 -9q6 0 10 2.5t7.5 6t5.5 4.5l-31 -131q-2 4 -7.5 20.5t-10.5 26t-15 22.5t-27 19t-39 6q-85 0 -157 -87t-72 -204q0 -73 36 -111t84 -38q30 0 60 12.5t48.5 27.5t37.5 31.5
t25 20.5l-21 -93q-21 -17 -34 -25.5t-48 -21t-75 -12.5q-8 0 -11 1l-13 -31q3 0 7.5 1t8.5 1.5t8 0.5q29 0 49 -19t20 -46q0 -39 -33.5 -66.5t-87.5 -27.5q-31 0 -68 17l8 28q33 -5 42 -5q8 0 18 1.5t25.5 5.5t25.5 15.5t10 28.5q0 21 -18 29t-34 8q-7 0 -20.5 -2.5
t-18.5 -2.5z" />
    <glyph glyph-name="egrave" unicode="&#xe8;" horiz-adv-x="537" 
d="M451 149l-22 -105q-1 -1 -8.5 -6t-12.5 -8t-16 -9t-21 -10.5t-24.5 -9.5t-28.5 -8.5t-32 -5.5t-37 -2q-91 0 -149 59t-58 160q0 130 96 235.5t221 105.5q74 0 117 -37t43 -90q0 -79 -93.5 -144.5t-250.5 -65.5q-16 0 -48 2v-21q0 -68 40 -106t95 -38q34 0 68 14t53 29
t41.5 36.5t26.5 24.5zM132 260q6 0 18.5 -1t17.5 -1q113 0 189.5 50t76.5 110q0 27 -21.5 47t-59.5 20q-82 0 -148 -81t-73 -144zM211 675l15 70l233 -93l-9 -39z" />
    <glyph glyph-name="eacute" unicode="&#xe9;" horiz-adv-x="537" 
d="M451 149l-22 -105q-1 -1 -8.5 -6t-12.5 -8t-16 -9t-21 -10.5t-24.5 -9.5t-28.5 -8.5t-32 -5.5t-37 -2q-91 0 -149 59t-58 160q0 130 96 235.5t221 105.5q74 0 117 -37t43 -90q0 -79 -93.5 -144.5t-250.5 -65.5q-16 0 -48 2v-21q0 -68 40 -106t95 -38q34 0 68 14t53 29
t41.5 36.5t26.5 24.5zM132 260q6 0 18.5 -1t17.5 -1q113 0 189.5 50t76.5 110q0 27 -21.5 47t-59.5 20q-82 0 -148 -81t-73 -144zM231 613l9 41l246 91l-14 -70z" />
    <glyph glyph-name="ecircumflex" unicode="&#xea;" horiz-adv-x="537" 
d="M451 149l-22 -105q-1 -1 -8.5 -6t-12.5 -8t-16 -9t-21 -10.5t-24.5 -9.5t-28.5 -8.5t-32 -5.5t-37 -2q-91 0 -149 59t-58 160q0 130 96 235.5t221 105.5q74 0 117 -37t43 -90q0 -79 -93.5 -144.5t-250.5 -65.5q-16 0 -48 2v-21q0 -68 40 -106t95 -38q34 0 68 14t53 29
t41.5 36.5t26.5 24.5zM132 260q6 0 18.5 -1t17.5 -1q113 0 189.5 50t76.5 110q0 27 -21.5 47t-59.5 20q-82 0 -148 -81t-73 -144zM183 620v42l192 83l159 -87l-13 -35l-157 54z" />
    <glyph glyph-name="edieresis" unicode="&#xeb;" horiz-adv-x="537" 
d="M451 149l-22 -105q-1 -1 -8.5 -6t-12.5 -8t-16 -9t-21 -10.5t-24.5 -9.5t-28.5 -8.5t-32 -5.5t-37 -2q-91 0 -149 59t-58 160q0 130 96 235.5t221 105.5q74 0 117 -37t43 -90q0 -79 -93.5 -144.5t-250.5 -65.5q-16 0 -48 2v-21q0 -68 40 -106t95 -38q34 0 68 14t53 29
t41.5 36.5t26.5 24.5zM132 260q6 0 18.5 -1t17.5 -1q113 0 189.5 50t76.5 110q0 27 -21.5 47t-59.5 20q-82 0 -148 -81t-73 -144zM262 640q-19 0 -30.5 12.5t-11.5 26.5q0 27 16 41.5t36 14.5q18 0 30.5 -13t12.5 -30q0 -21 -16 -36.5t-37 -15.5zM439 640q-19 0 -30.5 12.5
t-11.5 26.5q0 27 16 41.5t36 14.5q18 0 30.5 -13t12.5 -30q0 -21 -16 -36.5t-37 -15.5z" />
    <glyph glyph-name="igrave" unicode="&#xec;" horiz-adv-x="259" 
d="M46 78l75 348q16 72 16 74q0 8 -1.5 12.5t-7.5 10.5t-6 7h106l-97 -452q-8 -34 -8 -50q0 -20 17 -28h-130q1 1 5.5 5t6 6t5.5 8t6.5 12.5t6 18.5t6.5 28zM72 675l15 70l233 -93l-9 -39z" />
    <glyph glyph-name="iacute" unicode="&#xed;" horiz-adv-x="259" 
d="M46 78l75 348q16 72 16 74q0 8 -1.5 12.5t-7.5 10.5t-6 7h106l-97 -452q-8 -34 -8 -50q0 -20 17 -28h-130q1 1 5.5 5t6 6t5.5 8t6.5 12.5t6 18.5t6.5 28zM91 613l9 41l246 91l-14 -70z" />
    <glyph glyph-name="icircumflex" unicode="&#xee;" horiz-adv-x="259" 
d="M46 78l75 348q16 72 16 74q0 8 -1.5 12.5t-7.5 10.5t-6 7h106l-97 -452q-8 -34 -8 -50q0 -20 17 -28h-130q1 1 5.5 5t6 6t5.5 8t6.5 12.5t6 18.5t6.5 28zM44 620v42l192 83l159 -87l-13 -35l-157 54z" />
    <glyph glyph-name="idieresis" unicode="&#xef;" horiz-adv-x="259" 
d="M46 78l75 348q16 72 16 74q0 8 -1.5 12.5t-7.5 10.5t-6 7h106l-97 -452q-8 -34 -8 -50q0 -20 17 -28h-130q1 1 5.5 5t6 6t5.5 8t6.5 12.5t6 18.5t6.5 28zM102 640q-19 0 -30.5 12.5t-11.5 26.5q0 27 16 41.5t36 14.5q18 0 30.5 -13t12.5 -30q0 -21 -16 -36.5t-37 -15.5z
M279 640q-19 0 -30.5 12.5t-11.5 26.5q0 27 16 41.5t36 14.5q18 0 30.5 -13t12.5 -30q0 -21 -16 -36.5t-37 -15.5z" />
    <glyph glyph-name="eth" unicode="&#xf0;" horiz-adv-x="593" 
d="M116 189q0 -69 31 -106.5t81 -37.5q54 0 100.5 33.5t74 83.5t43 102.5t15.5 95.5q0 62 -36 93.5t-87 31.5q-60 0 -113 -48t-81 -116t-28 -132zM386 634l-136 -52l-40 31l143 54q-48 42 -94 56l61 22q50 -16 94 -55l128 49l38 -32l-132 -50q98 -107 98 -261
q0 -67 -19.5 -136.5t-57 -132t-100.5 -102.5t-141 -40q-90 0 -143.5 55t-53.5 151q0 148 92.5 251t218.5 103q77 0 123 -73l2 2q-16 85 -81 160z" />
    <glyph glyph-name="ntilde" unicode="&#xf1;" horiz-adv-x="556" 
d="M44 78l75 348q16 72 16 74q0 8 -1.5 12.5t-7.5 10.5t-6 7h106l-26 -118l2 -2q27 49 78 92t123 43q47 0 74.5 -29.5t27.5 -73.5q0 -17 -5 -40l-68 -324q-1 -7 -4.5 -25.5t-3.5 -24.5q0 -20 17 -28h-130q1 1 5.5 5t6 6t5.5 8t6.5 12.5t6 18.5t6.5 28l50 236q23 98 23 117
q0 54 -53 54q-50 0 -95.5 -43.5t-71.5 -97t-37 -105.5l-34 -161q-8 -34 -8 -50q0 -20 17 -28h-130q1 1 5.5 5t6 6t5.5 8t6.5 12.5t6 18.5t6.5 28zM205 644l-25 30q69 67 118 67q31 0 69 -30t62 -30q10 0 23 6t20.5 12t20 16.5t13.5 11.5l26 -31q-64 -70 -112 -70
q-42 0 -80 30q-3 2 -10.5 8.5t-11 9t-9.5 6t-10.5 5t-9.5 1.5t-10 -0.5t-10 -2t-8.5 -2.5t-9 -4.5t-8 -5t-9 -6t-9 -6t-10 -7.5t-10.5 -8z" />
    <glyph glyph-name="ograve" unicode="&#xf2;" horiz-adv-x="574" 
d="M236 -15q-89 0 -142.5 55t-53.5 151q0 148 92.5 251t218.5 103q50 0 87 -18t57 -48t29.5 -63.5t9.5 -71.5q0 -150 -90.5 -254.5t-207.5 -104.5zM125 189q0 -69 31 -106.5t81 -37.5q64 0 115 56t74 126t23 132q0 52 -26 89t-81 37q-58 0 -109.5 -48t-79.5 -116t-28 -132z
M229 675l15 70l233 -93l-9 -39z" />
    <glyph glyph-name="oacute" unicode="&#xf3;" horiz-adv-x="574" 
d="M236 -15q-89 0 -142.5 55t-53.5 151q0 148 92.5 251t218.5 103q50 0 87 -18t57 -48t29.5 -63.5t9.5 -71.5q0 -150 -90.5 -254.5t-207.5 -104.5zM125 189q0 -69 31 -106.5t81 -37.5q64 0 115 56t74 126t23 132q0 52 -26 89t-81 37q-58 0 -109.5 -48t-79.5 -116t-28 -132z
M249 613l9 41l246 91l-14 -70z" />
    <glyph glyph-name="ocircumflex" unicode="&#xf4;" horiz-adv-x="574" 
d="M236 -15q-89 0 -142.5 55t-53.5 151q0 148 92.5 251t218.5 103q50 0 87 -18t57 -48t29.5 -63.5t9.5 -71.5q0 -150 -90.5 -254.5t-207.5 -104.5zM125 189q0 -69 31 -106.5t81 -37.5q64 0 115 56t74 126t23 132q0 52 -26 89t-81 37q-58 0 -109.5 -48t-79.5 -116t-28 -132z
M201 620v42l192 83l159 -87l-13 -35l-157 54z" />
    <glyph glyph-name="otilde" unicode="&#xf5;" horiz-adv-x="574" 
d="M236 -15q-89 0 -142.5 55t-53.5 151q0 148 92.5 251t218.5 103q50 0 87 -18t57 -48t29.5 -63.5t9.5 -71.5q0 -150 -90.5 -254.5t-207.5 -104.5zM125 189q0 -69 31 -106.5t81 -37.5q64 0 115 56t74 126t23 132q0 52 -26 89t-81 37q-58 0 -109.5 -48t-79.5 -116t-28 -132z
M214 644l-25 30q69 67 118 67q31 0 69 -30t62 -30q10 0 23 6t20.5 12t20 16.5t13.5 11.5l26 -31q-64 -70 -112 -70q-42 0 -80 30q-3 2 -10.5 8.5t-11 9t-9.5 6t-10.5 5t-9.5 1.5t-10 -0.5t-10 -2t-8.5 -2.5t-9 -4.5t-8 -5t-9 -6t-9 -6t-10 -7.5t-10.5 -8z" />
    <glyph glyph-name="odieresis" unicode="&#xf6;" horiz-adv-x="574" 
d="M236 -15q-89 0 -142.5 55t-53.5 151q0 148 92.5 251t218.5 103q50 0 87 -18t57 -48t29.5 -63.5t9.5 -71.5q0 -150 -90.5 -254.5t-207.5 -104.5zM125 189q0 -69 31 -106.5t81 -37.5q64 0 115 56t74 126t23 132q0 52 -26 89t-81 37q-58 0 -109.5 -48t-79.5 -116t-28 -132z
M280 640q-19 0 -30.5 12.5t-11.5 26.5q0 27 16 41.5t36 14.5q18 0 30.5 -13t12.5 -30q0 -21 -16 -36.5t-37 -15.5zM457 640q-19 0 -30.5 12.5t-11.5 26.5q0 27 16 41.5t36 14.5q18 0 30.5 -13t12.5 -30q0 -21 -16 -36.5t-37 -15.5z" />
    <glyph glyph-name="divide" unicode="&#xf7;" horiz-adv-x="1000" 
d="M257 239v60h506v-60h-506zM510 374q-21 0 -35.5 14.5t-14.5 35.5t14 35.5t35 14.5q22 0 36.5 -15t14.5 -36t-14.5 -35t-35.5 -14zM510 64q-21 0 -35.5 14.5t-14.5 35.5t14 35.5t35 14.5q22 0 36.5 -15t14.5 -36t-14.5 -35t-35.5 -14z" />
    <glyph glyph-name="oslash" unicode="&#xf8;" horiz-adv-x="574" 
d="M49 -36l49 72q-58 55 -58 155q0 148 92.5 251t218.5 103q54 0 87 -18l39 56l25 -16l-41 -58q73 -46 73 -165q0 -150 -90.5 -254.5t-207.5 -104.5q-67 0 -115 31l-47 -68zM143 100l255 369q-24 16 -56 16q-58 0 -109.5 -48t-79.5 -116t-28 -132t18 -89zM421 450l-260 -375
q29 -30 76 -30q64 0 115 56t74 126t23 132q0 57 -28 91z" />
    <glyph glyph-name="ugrave" unicode="&#xf9;" horiz-adv-x="574" 
d="M56 155l66 299q9 54 9 55q0 10 -16 21h109l-83 -375q-7 -30 -7 -51q0 -30 16 -44.5t39 -14.5q73 0 132 77t83 190l31 142q9 41 9 55q0 10 -16 21h109l-66 -299q-18 -80 -18 -149q0 -46 19 -81h-85q-14 30 -14 60q0 23 9 77l-2 2q-24 -57 -80 -106t-131 -49q-54 0 -87 28
t-33 74q0 37 7 68zM229 675l15 70l233 -93l-9 -39z" />
    <glyph glyph-name="uacute" unicode="&#xfa;" horiz-adv-x="574" 
d="M56 155l66 299q9 54 9 55q0 10 -16 21h109l-83 -375q-7 -30 -7 -51q0 -30 16 -44.5t39 -14.5q73 0 132 77t83 190l31 142q9 41 9 55q0 10 -16 21h109l-66 -299q-18 -80 -18 -149q0 -46 19 -81h-85q-14 30 -14 60q0 23 9 77l-2 2q-24 -57 -80 -106t-131 -49q-54 0 -87 28
t-33 74q0 37 7 68zM249 613l9 41l246 91l-14 -70z" />
    <glyph glyph-name="ucircumflex" unicode="&#xfb;" horiz-adv-x="574" 
d="M56 155l66 299q9 54 9 55q0 10 -16 21h109l-83 -375q-7 -30 -7 -51q0 -30 16 -44.5t39 -14.5q73 0 132 77t83 190l31 142q9 41 9 55q0 10 -16 21h109l-66 -299q-18 -80 -18 -149q0 -46 19 -81h-85q-14 30 -14 60q0 23 9 77l-2 2q-24 -57 -80 -106t-131 -49q-54 0 -87 28
t-33 74q0 37 7 68zM201 620v42l192 83l159 -87l-13 -35l-157 54z" />
    <glyph glyph-name="udieresis" unicode="&#xfc;" horiz-adv-x="574" 
d="M56 155l66 299q9 54 9 55q0 10 -16 21h109l-83 -375q-7 -30 -7 -51q0 -30 16 -44.5t39 -14.5q73 0 132 77t83 190l31 142q9 41 9 55q0 10 -16 21h109l-66 -299q-18 -80 -18 -149q0 -46 19 -81h-85q-14 30 -14 60q0 23 9 77l-2 2q-24 -57 -80 -106t-131 -49q-54 0 -87 28
t-33 74q0 37 7 68zM280 640q-19 0 -30.5 12.5t-11.5 26.5q0 27 16 41.5t36 14.5q18 0 30.5 -13t12.5 -30q0 -21 -16 -36.5t-37 -15.5zM457 640q-19 0 -30.5 12.5t-11.5 26.5q0 27 16 41.5t36 14.5q18 0 30.5 -13t12.5 -30q0 -21 -16 -36.5t-37 -15.5z" />
    <glyph glyph-name="yacute" unicode="&#xfd;" horiz-adv-x="556" 
d="M16 -135l22 95q1 -3 9.5 -18t13 -22.5t16 -21t23 -20t30.5 -12.5t41 -6q40 0 70 15t48.5 36.5t32.5 58t21.5 66.5t16.5 75q1 4 1 6l-2 2q-76 -134 -190 -134q-45 0 -80 27t-35 83q0 31 9 63l48 212q27 125 27 135q0 16 -16 25h107l-83 -375q-7 -35 -7 -45q0 -65 58 -65
q70 0 126 81.5t79 179.5l38 166q3 14 3 25q0 19 -16 33h109l-82 -367l-10.5 -49t-11 -51.5t-12 -48.5t-16 -49t-20 -43.5t-26 -41t-32.5 -32t-41.5 -26.5t-51.5 -15.5t-62 -6.5q-40 0 -72 11.5t-44.5 21t-38.5 32.5zM240 613l9 41l246 91l-14 -70z" />
    <glyph glyph-name="thorn" unicode="&#xfe;" horiz-adv-x="593" 
d="M3 -122l161 748q16 72 16 74q0 8 -1.5 12.5t-7.5 10.5t-6 7h106l-72 -306l2 -2q65 123 188 123q60 0 109.5 -50t49.5 -136q0 -149 -109 -261.5t-254 -112.5q-11 0 -73 5l-24 -112q-8 -34 -8 -50q0 -20 17 -28h-130q1 1 5.5 5t6 6t5.5 8t6.5 12.5t6 18.5t6.5 28zM161 218
l-37 -170l42 -3q63 0 115.5 22.5t85 56.5t55 77t32 82t9.5 73q0 57 -30.5 93t-67.5 36q-72 0 -127 -78t-77 -189z" />
    <glyph glyph-name="ydieresis" unicode="&#xff;" horiz-adv-x="556" 
d="M16 -135l22 95q1 -3 9.5 -18t13 -22.5t16 -21t23 -20t30.5 -12.5t41 -6q40 0 70 15t48.5 36.5t32.5 58t21.5 66.5t16.5 75q1 4 1 6l-2 2q-76 -134 -190 -134q-45 0 -80 27t-35 83q0 31 9 63l48 212q27 125 27 135q0 16 -16 25h107l-83 -375q-7 -35 -7 -45q0 -65 58 -65
q70 0 126 81.5t79 179.5l38 166q3 14 3 25q0 19 -16 33h109l-82 -367l-10.5 -49t-11 -51.5t-12 -48.5t-16 -49t-20 -43.5t-26 -41t-32.5 -32t-41.5 -26.5t-51.5 -15.5t-62 -6.5q-40 0 -72 11.5t-44.5 21t-38.5 32.5zM271 640q-19 0 -30.5 12.5t-11.5 26.5q0 27 16 41.5
t36 14.5q18 0 30.5 -13t12.5 -30q0 -21 -16 -36.5t-37 -15.5zM448 640q-19 0 -30.5 12.5t-11.5 26.5q0 27 16 41.5t36 14.5q18 0 30.5 -13t12.5 -30q0 -21 -16 -36.5t-37 -15.5z" />
    <glyph glyph-name="dotlessi" unicode="&#x131;" horiz-adv-x="259" 
d="M46 78l75 348q16 72 16 74q0 8 -1.5 12.5t-7.5 10.5t-6 7h106l-97 -452q-8 -34 -8 -50q0 -20 17 -28h-130q1 1 5.5 5t6 6t5.5 8t6.5 12.5t6 18.5t6.5 28z" />
    <glyph glyph-name="Lslash" unicode="&#x141;" horiz-adv-x="519" 
d="M59 73l46 210l-62 -35l-33 53l113 64l63 292q6 30 6 43t-23 30h160q-3 -2 -11 -9t-11.5 -10.5t-9.5 -11.5t-9.5 -18t-6.5 -24l-50 -229l116 68l32 -54l-165 -94l-60 -278h235q27 0 44 6t25 12.5t29 27.5l-25 -116h-450q2 2 9 7.5t9.5 8.5l7.5 9t8 11.5t6.5 15t6.5 21.5z
" />
    <glyph glyph-name="lslash" unicode="&#x142;" horiz-adv-x="259" 
d="M47 78l46 216l-54 -39l-34 46l106 77l54 248q2 10 6.5 27.5t7.5 29.5t3 17q0 8 -1.5 12.5t-7.5 10.5t-6 7h106l-61 -280l72 55l34 -46l-124 -92l-62 -289q-8 -34 -8 -50q0 -20 17 -28h-130q1 1 5.5 5t6 6t5.5 8t6.5 12.5t6 18.5t6.5 28z" />
    <glyph glyph-name="OE" unicode="&#x152;" horiz-adv-x="1037" 
d="M496 0l8 33l-2 2q-11 -17 -50 -33.5t-87 -16.5q-152 0 -225.5 90t-73.5 226q0 190 124.5 317t294.5 127q45 0 79.5 -11.5t47.5 -22t31 -28.5l11 47h415l-22 -105q-1 2 -4 9t-3 8t-3 5.5t-4.5 5t-6 3t-8.5 2.5t-11.5 1t-15.5 1h-20h-239l-53 -243h221q33 0 47 6t32 23
l-28 -129q-7 13 -11 17.5t-15.5 8.5t-32.5 4h-228l-59 -277h248q26 0 44 6t27.5 14t26.5 26l-25 -116h-430zM522 117l105 492q-23 31 -63.5 48.5t-83.5 17.5q-89 0 -162.5 -56t-112.5 -141.5t-39 -175.5q0 -247 199 -247q83 0 157 62z" />
    <glyph glyph-name="oe" unicode="&#x153;" horiz-adv-x="926" 
d="M513 210v-21q0 -68 40 -106t95 -38q34 0 68 14t53 29t41.5 36.5t26.5 24.5l-22 -105q-1 -1 -8.5 -6t-12.5 -8t-16 -9t-21 -10.5t-24.5 -9.5t-28.5 -8.5t-32 -5.5t-37 -2q-76 0 -116.5 30.5t-68.5 104.5q-80 -135 -214 -135q-89 0 -142.5 55t-53.5 151q0 148 92.5 251
t218.5 103q80 0 118.5 -44t41.5 -100h2q29 61 89 102.5t143 41.5q74 0 117 -37t43 -90q0 -79 -93.5 -144.5t-250.5 -65.5q-16 0 -48 2zM125 189q0 -69 31 -106.5t81 -37.5q64 0 115 56t74 126t23 132q0 52 -26 89t-81 37q-58 0 -109.5 -48t-79.5 -116t-28 -132zM518 260
q6 0 18.5 -1t17.5 -1q113 0 189.5 50t76.5 110q0 27 -21.5 47t-59.5 20q-82 0 -148 -81t-73 -144z" />
    <glyph glyph-name="Scaron" unicode="&#x160;" horiz-adv-x="574" 
d="M11 32l39 178q10 -28 17 -43.5t23.5 -40t36 -37.5t53.5 -23.5t77 -10.5q79 0 127.5 42.5t48.5 89.5q0 34 -24 62t-59.5 46.5t-77.5 41.5t-77.5 45.5t-59.5 61t-24 86.5q0 87 72 151t181 64q52 0 93.5 -12.5t65.5 -24.5t31 -12q6 0 11 3t10.5 7.5t8.5 6.5l-32 -151
q-1 2 -8.5 16t-14 23.5t-21 24.5t-30.5 25t-42 17t-56 7q-78 0 -126 -32t-48 -92q0 -33 26.5 -63.5t59.5 -49.5t83 -47.5t78 -49.5q23 -17 36 -30t26 -40t13 -61q0 -103 -80 -164t-176 -61q-47 0 -88.5 11t-64.5 23.5t-45.5 23.5t-35.5 11q-7 0 -14.5 -9.5t-12.5 -12.5z
M389 819l-159 87l13 35l157 -54l181 57v-42z" />
    <glyph glyph-name="scaron" unicode="&#x161;" horiz-adv-x="481" 
d="M8 18l31 136q55 -109 166 -109q63 0 96 28t33 73q0 29 -26.5 51t-65 38t-76.5 34t-64.5 48t-26.5 71q0 59 56.5 108t138.5 49q44 0 95 -17.5t64 -17.5q4 0 10.5 7t9.5 7l-30 -134q-54 95 -143 95q-56 0 -86 -26.5t-30 -55.5q0 -28 26.5 -49.5t65 -37.5t76.5 -34.5
t64.5 -51t26.5 -76.5q0 -66 -58 -117.5t-150 -51.5q-43 0 -79.5 12t-60.5 24.5t-36 12.5q-4 0 -13.5 -7.5t-13.5 -8.5zM313 619l-159 87l13 35l157 -54l181 57v-42z" />
    <glyph glyph-name="Ydieresis" unicode="&#x178;" horiz-adv-x="611" 
d="M215 73l39 175l-98 383q-10 39 -17.5 58t-11.5 23.5t-19 17.5h150q-2 -2 -6 -5t-5.5 -4.5t-3.5 -4.5t-3 -6.5t-1 -8.5q0 -12 4 -34l83 -343l225 338q24 34 24 47q0 5 -16 21h149q-23 -10 -40.5 -28t-46.5 -60l-272 -389l-39 -180q-6 -30 -6 -43t23 -30h-160q2 2 11 9
t11.5 10.5t8.5 11.5t10 18t7 24zM299 840q-19 0 -30.5 12.5t-11.5 26.5q0 27 16 41.5t36 14.5q18 0 30.5 -13t12.5 -30q0 -21 -16 -36.5t-37 -15.5zM476 840q-19 0 -30.5 12.5t-11.5 26.5q0 27 16 41.5t36 14.5q18 0 30.5 -13t12.5 -30q0 -21 -16 -36.5t-37 -15.5z" />
    <glyph glyph-name="Zcaron" unicode="&#x17d;" horiz-adv-x="556" 
d="M-27 0l11 51l518 609h-249q-32 0 -52.5 -4.5t-30.5 -10t-29 -19.5l23 104h468l-10 -52l-518 -608h299q13 0 23.5 1t18 1.5t15 3.5t11 3.5t10.5 5.5t8.5 6t8.5 7.5t9 7.5l-24 -106h-510zM380 819l-159 87l13 35l157 -54l181 57v-42z" />
    <glyph glyph-name="zcaron" unicode="&#x17e;" horiz-adv-x="426" 
d="M-38 0l10 45l367 425h-203q-19 0 -28.5 -3.5t-19 -13.5t-14.5 -14l19 91h359l-9 -50l-361 -420h231q13 0 23 5t20.5 14t14.5 12l-21 -91h-388zM285 619l-159 87l13 35l157 -54l181 57v-42z" />
    <glyph glyph-name="florin" unicode="&#x192;" 
d="M21 -165l24 68q18 -43 37 -43q28 0 41 17.5t25 53.5l184 539h-77l18 60h79q5 12 16.5 49.5t21.5 59.5t27.5 50t44.5 42t63 14q27 0 44 -4t23 -9t11.5 -9t11.5 -4q10 0 20 8l-28 -105q-16 63 -58 63q-20 0 -34 -7t-24 -22.5t-13 -23.5t-10 -27l-26 -75h107l-20 -60h-107
l-148 -437q-3 -10 -13.5 -43t-16 -47t-17 -42t-22.5 -41.5t-27 -29.5t-35.5 -23t-43.5 -7q-11 0 -20 1.5t-14.5 3t-13.5 6.5t-9.5 6t-10.5 9t-10 9z" />
    <glyph glyph-name="circumflex" unicode="&#x2c6;" horiz-adv-x="454" 
d="M141 620v42l192 83l159 -87l-13 -35l-157 54z" />
    <glyph glyph-name="caron" unicode="&#x2c7;" horiz-adv-x="454" 
d="M299 619l-159 87l13 35l157 -54l181 57v-42z" />
    <glyph glyph-name="uni02C9" unicode="&#x2c9;" horiz-adv-x="454" 
d="M177 660l11 55h245l-11 -55h-245z" />
    <glyph glyph-name="breve" unicode="&#x2d8;" horiz-adv-x="454" 
d="M426 754h39q-13 -48 -55 -94.5t-109 -46.5q-50 0 -81 28.5t-31 76.5q0 14 4 36h39q0 -86 75 -86q73 0 119 86z" />
    <glyph glyph-name="dotaccent" unicode="&#x2d9;" horiz-adv-x="454" 
d="M300 633q-23 0 -35.5 14.5t-12.5 33.5q0 25 18.5 42t39.5 17t35 -14.5t14 -35.5q0 -23 -18 -40t-41 -17z" />
    <glyph glyph-name="ring" unicode="&#x2da;" horiz-adv-x="454" 
d="M307 590q-44 0 -74 30t-30 73q0 42 30.5 72t73.5 30q42 0 71.5 -30t29.5 -72q0 -43 -30 -73t-71 -30zM243 693q0 -27 18.5 -45t45.5 -18q25 0 43 18t18 45q0 26 -18 44t-43 18q-27 0 -45.5 -18t-18.5 -44z" />
    <glyph glyph-name="ogonek" unicode="&#x2db;" horiz-adv-x="454" 
d="M269 -115l11 -38q-55 -31 -90 -31q-34 0 -58.5 19.5t-24.5 51.5q0 24 11.5 47t34 45t37.5 34t41 31l29 -10q-31 -26 -45.5 -40t-28.5 -37.5t-14 -47.5q0 -38 50 -38q12 0 47 14z" />
    <glyph glyph-name="tilde" unicode="&#x2dc;" horiz-adv-x="454" 
d="M154 644l-25 30q69 67 118 67q31 0 69 -30t62 -30q10 0 23 6t20.5 12t20 16.5t13.5 11.5l26 -31q-64 -70 -112 -70q-42 0 -80 30q-3 2 -10.5 8.5t-11 9t-9.5 6t-10.5 5t-9.5 1.5t-10 -0.5t-10 -2t-8.5 -2.5t-9 -4.5t-8 -5t-9 -6t-9 -6t-10 -7.5t-10.5 -8z" />
    <glyph glyph-name="hungarumlaut" unicode="&#x2dd;" horiz-adv-x="454" 
d="M126 616l9 42l241 102l-11 -71zM330 616l9 42l241 102l-11 -71z" />
    <glyph glyph-name="uni03A9" unicode="&#x3a9;" horiz-adv-x="845" 
d="M188 62v3q-57 52 -83 136t-2 189q36 153 159.5 253.5t273.5 100.5q101 0 169 -49.5t91.5 -129t2.5 -171.5q-25 -109 -92 -195t-146 -134l-1 -3h178l-14 -62h-278l11 46q88 44 160.5 130t99.5 206q8 43 8.5 85t-14 81t-37.5 68.5t-63 47.5t-90 18q-120 0 -216 -87.5
t-125 -215.5q-26 -114 7 -203t99 -130l-11 -46h-277l14 62h176z" />
    <glyph glyph-name="uni03BC" unicode="&#x3bc;" horiz-adv-x="574" 
d="M-24 -200l146 654q9 40 9 55q0 10 -16 21h109l-83 -375q-7 -30 -7 -51q0 -30 16 -44.5t39 -14.5q73 0 132 77t83 190l31 142q9 41 9 55q0 10 -16 21h109l-66 -299q-18 -80 -18 -149q0 -46 19 -81h-85q-14 30 -14 60q0 23 9 77l-2 2q-24 -57 -80 -106t-131 -49
q-38 0 -66 14l-25 -123q-9 -41 -9 -55q0 -10 16 -21h-109z" />
    <glyph glyph-name="pi" unicode="&#x3c0;" horiz-adv-x="655" 
d="M675 480h-96l-73 -319q-25 -106 -21 -161h-76q-12 28 16 152l76 328h-218q-32 -114 -92 -264t-105 -216h-77q50 79 107.5 223t88.5 257q-92 0 -137 -15l-1 50q56 29 170 29h461z" />
    <glyph glyph-name="endash" unicode="&#x2013;" 
d="M50 260l25 111q2 -1 12 -13.5t24 -12.5h457q14 0 22.5 3.5t16 9t14.5 7.5l-25 -111q-6 4 -12.5 11.5t-13.5 11t-20 3.5h-449q-9 0 -16.5 -3t-17 -8.5t-17.5 -8.5z" />
    <glyph glyph-name="emdash" unicode="&#x2014;" horiz-adv-x="1000" 
d="M50 260l25 111q2 -1 12 -13.5t24 -12.5h807q14 0 22.5 3.5t16 9t14.5 7.5l-25 -111q-6 4 -12.5 11.5t-13.5 11t-20 3.5h-799q-9 0 -16.5 -3t-17 -8.5t-17.5 -8.5z" />
    <glyph glyph-name="quoteleft" unicode="&#x2018;" horiz-adv-x="241" 
d="M181 745l18 -39q-71 -31 -95 -91q50 0 50 -47q0 -20 -17.5 -37.5t-41.5 -17.5q-23 0 -38.5 17.5t-15.5 48.5q0 62 50 109.5t90 56.5z" />
    <glyph glyph-name="quoteright" unicode="&#x2019;" horiz-adv-x="241" 
d="M129 513l-18 39q71 31 95 91q-50 0 -50 47q0 20 17.5 37.5t41.5 17.5q22 0 38 -17.5t16 -48.5q0 -62 -50 -109.5t-90 -56.5z" />
    <glyph glyph-name="quotesinglbase" unicode="&#x201a;" horiz-adv-x="296" 
d="M87 -132l-18 39q71 31 95 91q-50 0 -50 47q0 20 17.5 37.5t41.5 17.5q23 0 38.5 -17.5t15.5 -48.5q0 -62 -50 -109.5t-90 -56.5z" />
    <glyph glyph-name="quotedblleft" unicode="&#x201c;" horiz-adv-x="389" 
d="M271 745l18 -39q-71 -31 -95 -91q50 0 50 -47q0 -20 -17.5 -37.5t-41.5 -17.5q-23 0 -38.5 17.5t-15.5 48.5q0 62 50 109.5t90 56.5zM427 745l18 -39q-71 -31 -95 -91q50 0 50 -47q0 -20 -17.5 -37.5t-41.5 -17.5q-23 0 -38.5 17.5t-15.5 48.5q0 62 50 109.5t90 56.5z
" />
    <glyph glyph-name="quotedblright" unicode="&#x201d;" horiz-adv-x="389" 
d="M285 513l-18 39q71 31 95 91q-50 0 -50 47q0 20 17.5 37.5t41.5 17.5q23 0 38.5 -17.5t15.5 -48.5q0 -62 -50 -109.5t-90 -56.5zM129 513l-18 39q71 31 95 91q-50 0 -50 47q0 20 17.5 37.5t41.5 17.5q22 0 38 -17.5t16 -48.5q0 -62 -50 -109.5t-90 -56.5z" />
    <glyph glyph-name="quotedblbase" unicode="&#x201e;" horiz-adv-x="389" 
d="M141 -132l-18 39q71 31 95 91q-50 0 -50 47q0 20 17.5 37.5t41.5 17.5q23 0 38.5 -17.5t15.5 -48.5q0 -62 -50 -109.5t-90 -56.5zM-15 -132l-18 39q71 31 95 91q-50 0 -50 47q0 20 17.5 37.5t41.5 17.5q23 0 38.5 -17.5t15.5 -48.5q0 -62 -50 -109.5t-90 -56.5z" />
    <glyph glyph-name="dagger" unicode="&#x2020;" 
d="M304 70v393h-90q-22 0 -30.5 -2.5t-15.5 -15.5v108q7 -13 16 -16.5t30 -3.5h90v151q0 19 -3 26t-16 20h123q-13 -13 -16 -20t-3 -26v-151h90q21 0 30 3.5t16 16.5v-108q-7 13 -15 15.5t-31 2.5h-90v-393q0 -24 1 -34t6.5 -20t17.5 -16h-135q17 9 21 22.5t4 47.5z" />
    <glyph glyph-name="daggerdbl" unicode="&#x2021;" 
d="M304 70v133h-90q-22 0 -30.5 -2.5t-15.5 -15.5v108q7 -13 16 -16.5t30 -3.5h90v200h-90q-22 0 -30.5 -2.5t-15.5 -15.5v108q7 -13 16 -16.5t30 -3.5h90v141q0 19 -3 26t-16 20h123q-13 -13 -16 -20t-3 -26v-141h90q21 0 30 3.5t16 16.5v-108q-7 13 -15 15.5t-31 2.5h-90
v-200h90q21 0 30 3.5t16 16.5v-108q-7 13 -15 15.5t-31 2.5h-90v-133q0 -24 1 -34t6.5 -20t17.5 -16h-135q17 9 21 22.5t4 47.5z" />
    <glyph glyph-name="bullet" unicode="&#x2022;" horiz-adv-x="500" 
d="M280 180q-75 0 -128 53t-53 127q0 75 53 128.5t128 53.5q74 0 127.5 -53.5t53.5 -128.5q0 -74 -53.5 -127t-127.5 -53z" />
    <glyph glyph-name="ellipsis" unicode="&#x2026;" horiz-adv-x="1000" 
d="M121 0q-20 0 -35 15t-15 35q0 21 14.5 35.5t35.5 14.5q20 0 35 -14.5t15 -35.5t-14.5 -35.5t-35.5 -14.5zM451 0q-20 0 -35 15t-15 35q0 21 14.5 35.5t35.5 14.5q20 0 35 -14.5t15 -35.5t-14.5 -35.5t-35.5 -14.5zM781 0q-20 0 -35 15t-15 35q0 21 14.5 35.5t35.5 14.5
q20 0 35 -14.5t15 -35.5t-14.5 -35.5t-35.5 -14.5z" />
    <glyph glyph-name="perthousand" unicode="&#x2030;" horiz-adv-x="1296" 
d="M961 122q0 -31 18 -51.5t51 -20.5q37 0 67 40t43.5 88t13.5 86q0 30 -14 56.5t-50 26.5q-58 0 -93.5 -72t-35.5 -153zM216 -5l485 740h42l-485 -740h-42zM184 455q0 -31 18 -51.5t51 -20.5q37 0 67 40t43.5 88t13.5 86q0 30 -14 56.5t-50 26.5q-58 0 -93.5 -72
t-35.5 -153zM1014 -5q-55 0 -89 41.5t-34 105.5q0 103 60.5 181.5t148.5 78.5q61 0 92.5 -40t31.5 -100q0 -61 -22 -120t-72 -103t-116 -44zM237 328q-55 0 -89 41.5t-34 105.5q0 103 60.5 181.5t148.5 78.5q61 0 92.5 -40t31.5 -100q0 -61 -22 -120t-72 -103t-116 -44z
M620 -5q-55 0 -89 41.5t-34 105.5q0 103 60.5 181.5t148.5 78.5q61 0 92.5 -40t31.5 -100q0 -61 -22 -120t-72 -103t-116 -44zM567 122q0 -31 18 -51.5t51 -20.5q37 0 67 40t43.5 88t13.5 86q0 30 -14 56.5t-50 26.5q-58 0 -93.5 -72t-35.5 -153z" />
    <glyph glyph-name="guilsinglleft" unicode="&#x2039;" horiz-adv-x="259" 
d="M101 91l-45 190l114 162h80l-119 -173l45 -179h-75z" />
    <glyph glyph-name="guilsinglright" unicode="&#x203a;" horiz-adv-x="259" 
d="M16 91l119 173l-45 179h75l45 -190l-114 -162h-80z" />
    <glyph glyph-name="fraction" unicode="&#x2044;" horiz-adv-x="311" 
d="M-86 -15l495 754h43l-495 -754h-43z" />
    <glyph glyph-name="Euro" unicode="&#x20ac;" 
d="M484 331l-9 -45h-231q-1 -7 -1 -21q0 -104 40 -159.5t117 -55.5q24 0 48 8t41 17t38.5 27t30.5 27t26.5 28.5t18.5 20.5l-34 -155q-6 17 -16 17q-6 0 -27 -14t-57.5 -27.5t-79.5 -13.5q-115 0 -175.5 81t-60.5 203v17h-97l9 45h91q5 52 16 92h-87l10 45h92
q41 112 131.5 194.5t200.5 82.5q42 0 75 -14t52 -28t27 -14q4 0 8.5 2.5t10 7.5t7.5 7l-36 -162q-16 61 -38 89q-39 47 -105 47q-81 0 -143 -63t-95 -149h232l-10 -45h-237q-15 -51 -19 -92h236z" />
    <glyph glyph-name="afii61289" unicode="&#x2113;" horiz-adv-x="555" 
d="M465 161l30 -33q-107 -138 -246 -138q-89 0 -123 55t-20 138q0 1 0.5 3t1 3.5l1 3t0.5 2.5q-12 -8 -39 -25.5t-40 -25.5l-14 45q13 9 35.5 23.5t39.5 26.5t32 23l67 289q31 134 95.5 194.5t136.5 60.5q70 0 94.5 -49t7.5 -124q-22 -95 -106 -190t-226 -201l-6 -29
q-18 -80 10.5 -121t82.5 -41q51 0 100.5 32.5t85.5 77.5zM266 561l-56 -245q108 90 173.5 165.5t82.5 148.5q28 119 -58 119q-39 0 -79 -45.5t-63 -142.5z" />
    <glyph glyph-name="trademark" unicode="&#x2122;" horiz-adv-x="611" 
d="M143 440v248h-73v42h190v-42h-74v-248h-43zM293 440v290h78l60 -228h2l59 228h80v-290h-43v262h-2l-68 -262h-53l-68 262h-2v-262h-43z" />
    <glyph glyph-name="Omega" unicode="&#x2126;" horiz-adv-x="845" 
d="M188 62v3q-57 52 -83 136t-2 189q36 153 159.5 253.5t273.5 100.5q101 0 169 -49.5t91.5 -129t2.5 -171.5q-25 -109 -92 -195t-146 -134l-1 -3h178l-14 -62h-278l11 46q88 44 160.5 130t99.5 206q8 43 8.5 85t-14 81t-37.5 68.5t-63 47.5t-90 18q-120 0 -216 -87.5
t-125 -215.5q-26 -114 7 -203t99 -130l-11 -46h-277l14 62h176z" />
    <glyph glyph-name="estimated" unicode="&#x212e;" horiz-adv-x="1026" 
d="M990 354h-683q-6 0 -6 -4v-207q0 -13 9 -24q109 -112 259 -112q162 0 272 126h60q-57 -68 -145 -107.5t-188 -39.5q-175 0 -298.5 111t-123.5 268t123.5 268.5t298.5 111.5t298.5 -111.5t123.5 -268.5v-11zM835 381v208q0 15 -10 25q-110 108 -256 108q-147 0 -258 -111
q-10 -10 -10 -26v-204q0 -6 6 -6h524q4 0 4 6z" />
    <glyph glyph-name="partialdiff" unicode="&#x2202;" horiz-adv-x="625" 
d="M217 704l-16 53q94 61 205 61q77 0 131 -45t74.5 -133.5t-9.5 -220.5q-27 -118 -81.5 -213.5t-137.5 -156t-178 -60.5q-55 0 -94 22t-55.5 57.5t-22 79t6.5 85.5q27 117 115.5 190.5t188.5 73.5q73 0 116 -38t56 -75h1q8 29 13 51q33 142 -11 231t-135 89q-88 0 -167 -51
zM225 51h2q81 0 152.5 76t109.5 184q-6 44 -44.5 85t-102.5 41q-72 0 -138.5 -59.5t-85.5 -143.5q-18 -78 11.5 -130.5t95.5 -52.5z" />
    <glyph glyph-name="Delta" unicode="&#x2206;" horiz-adv-x="750" 
d="M-25 0l12 53l456 700h92l131 -699l-13 -54h-678zM68 62h514l-79 413q-3 20 -17.5 96t-16.5 103h-4q-8 -16 -28.5 -47.5t-46.5 -72t-38 -60.5z" />
    <glyph glyph-name="product" unicode="&#x220f;" horiz-adv-x="910" 
d="M882 664h-130v-765h-76v765h-334v-765h-76v765h-130v67h746v-67z" />
    <glyph glyph-name="summation" unicode="&#x2211;" horiz-adv-x="744" 
d="M719 -101h-587v49l313 365l-299 366v52h556v-66h-445v-3l279 -339l-300 -350v-3h483v-71z" />
    <glyph glyph-name="minus" unicode="&#x2212;" horiz-adv-x="1000" 
d="M257 239v60h506v-60h-506z" />
    <glyph glyph-name="uni2215" unicode="&#x2215;" horiz-adv-x="311" 
d="M-86 -15l495 754h43l-495 -754h-43z" />
    <glyph glyph-name="uni2219" unicode="&#x2219;" 
d="M279 339q0 26 18.5 44t44.5 18q25 0 43 -18.5t18 -43.5q0 -26 -18 -44.5t-44 -18.5q-25 0 -43.5 18.5t-18.5 44.5z" />
    <glyph glyph-name="radical" unicode="&#x221a;" horiz-adv-x="759" 
d="M762 867l-256 -1025h-70l-185 488l-85 -32l-17 46l149 59l153 -408q2 -9 9 -33.5t10 -36.5h1q2 11 7.5 36.5t7.5 34.5l217 871h59z" />
    <glyph glyph-name="infinity" unicode="&#x221e;" horiz-adv-x="916" 
d="M859 304v-1q0 -77 -50.5 -126t-119.5 -49q-50 0 -96 31.5t-110 102.5q-38 -43 -62 -66.5t-65.5 -45.5t-84.5 -22q-67 0 -116 50t-49 121q0 75 49.5 125t124.5 50q57 0 104.5 -35t103.5 -100q28 32 36.5 41t34.5 33.5t42.5 33.5t43 18t53.5 9q73 -1 117 -48t44 -122z
M279 177h1q21 0 40 6.5t41 24t32 25.5t35.5 35.5t27.5 29.5q-60 71 -89 94q-47 35 -95 35q-52 0 -83 -38t-31 -91q0 -51 33.5 -86t87.5 -35zM692 427h-1q-27 0 -56 -15.5t-45.5 -30t-44 -44t-32.5 -34.5q65 -70 102 -98t79 -28q51 0 82 37.5t31 85.5q0 59 -32.5 93t-82.5 34
z" />
    <glyph glyph-name="integral" unicode="&#x222b;" horiz-adv-x="503" 
d="M490 877l-14 -52q-15 12 -43 12q-37 0 -58 -24q-39 -43 -39 -188q0 -81 7.5 -262.5t7.5 -266.5q0 -142 -49 -211q-35 -53 -107 -53q-41 0 -74 19l14 54q28 -14 54 -14q34 0 52 23q42 49 42 184q0 86 -8 269.5t-8 264.5q0 87 13.5 138.5t46.5 82.5q39 40 101 40
q35 0 62 -16z" />
    <glyph glyph-name="approxequal" unicode="&#x2248;" horiz-adv-x="691" 
d="M605 458l31 -29q-56 -103 -145 -103q-23 0 -46 7t-38.5 14.5t-51.5 26.5q-66 37 -108 37q-37 0 -62.5 -21t-53.5 -61l-32 28q27 49 67.5 76t88.5 27q16 0 30.5 -3t29.5 -9t24 -10t24.5 -13t19.5 -11q5 -2 22 -11.5t23 -12t18.5 -7.5t23.5 -6.5t23 -1.5q34 0 60 20t52 63z
M605 269l31 -29q-56 -102 -145 -102q-23 0 -46 7t-38.5 14.5t-51.5 26.5q-68 37 -107 37q-37 0 -63 -21.5t-54 -61.5l-32 29q27 49 67 76t88 27q20 0 40.5 -5.5t32 -10.5t31.5 -15.5t25 -13.5q3 -2 15 -8.5t16 -8.5l14 -7t16 -7t15 -4.5t17.5 -3.5t17.5 -1q34 0 59 19.5
t52 62.5z" />
    <glyph glyph-name="notequal" unicode="&#x2260;" horiz-adv-x="715" 
d="M525 543l-52 -112h184v-50h-206l-78 -166h284v-50h-306l-63 -135l-41 19l55 116h-175v50h197l78 166h-275v50h296l62 132z" />
    <glyph glyph-name="lessequal" unicode="&#x2264;" horiz-adv-x="733" 
d="M672 93l-520 249v53l520 248v-59l-464 -214v-2l464 -215v-60zM675 -2h-530v50h530v-50z" />
    <glyph glyph-name="greaterequal" unicode="&#x2265;" horiz-adv-x="734" 
d="M152 643l521 -249v-52l-520 -249v60l463 214v2l-464 215v59zM674 -2h-528v50h528v-50z" />
    <glyph glyph-name="lozenge" unicode="&#x25ca;" horiz-adv-x="759" 
d="M697 365l-232 -417h-62l-230 417l232 418h61zM626 363l-169 307q-16 33 -22 51h-2q-14 -34 -23 -51l-167 -303l170 -308q17 -34 21 -50h3q9 30 21 49z" />
    </font>
</defs>
</svg>
