<?xml version="1.0" standalone="no"?>
<!DOCTYPE svg PUBLIC "-//W3C//DTD SVG 1.1//EN" "http://www.w3.org/Graphics/SVG/1.1/DTD/svg11.dtd" >
<svg xmlns="http://www.w3.org/2000/svg" xmlns:xlink="http://www.w3.org/1999/xlink" version="1.1">
<metadata>
Created by FontForge 20161003 at Sun Feb 12 10:35:58 2017
 By www-data
Font software Copyright 1993, 1994, 2001 Adobe Systems Incorporated. Typeface designs Copyright 2005 International Typeface Corporation. All rights reserved.
</metadata>
<defs>
<font id="ITCAvantGardeProBkObl" horiz-adv-x="891" >
  <font-face 
    font-family="ITCAvantGardeProBkObl"
    font-weight="300"
    font-style="italic"
    font-stretch="normal"
    units-per-em="1000"
    panose-1="2 0 5 3 5 0 0 9 0 4"
    ascent="740"
    descent="-260"
    x-height="547"
    cap-height="740"
    bbox="-113 -230 1330 987"
    underline-thickness="50"
    underline-position="-150"
    slope="-12"
    unicode-range="U+0020-FB04"
  />
<missing-glyph horiz-adv-x="500" 
d="M12 0v665h475v-665h-475zM88 618l162 -243l161 243h-323zM60 575v-484l40 61l80 120l41 61zM440 575l-162 -242l162 -243v485zM411 48l-161 242l-162 -242h323z" />
    <glyph glyph-name="f_t" unicode="ft" horiz-adv-x="562" 
d="M654 547l-11 -63h-131l-90 -484h-70l90 484h-178l-90 -484h-70l90 484h-85l11 63h85q7 31 12.5 51t23.5 52.5t42 52t68.5 34.5t102.5 16l-12 -65q-41 0 -71 -10.5t-46 -23.5t-27.5 -36.5t-14.5 -35.5t-8 -35h178l36 193h70l-36 -193h131z" />
    <glyph glyph-name="f_f_t" unicode="fft" horiz-adv-x="810" 
d="M902 547l-11 -63h-131l-90 -484h-70l90 484h-178l-90 -484h-70l90 484h-178l-90 -484h-70l90 484h-85l11 63h85q7 31 12.5 51t23.5 52.5t42 52t68.5 34.5t102.5 16l-12 -65q-41 0 -71 -10.5t-46 -23.5t-27.5 -36.5t-14.5 -35.5t-8 -35h178q7 31 12.5 51t23.5 52.5t42 52
t68.5 34.5t102.5 16l-12 -65q-41 0 -71 -10.5t-46 -23.5t-27.5 -36.5t-14.5 -35.5t-8 -35h178l36 193h70l-36 -193h131z" />
    <glyph glyph-name="f_f" unicode="ff" horiz-adv-x="562" 
d="M702 753l-12 -65q-41 0 -71 -10.5t-46 -23.5t-27.5 -36.5t-14.5 -35.5t-8 -35h140l-11 -63h-140l-90 -484h-70l90 484h-178l-90 -484h-70l90 484h-85l11 63h85q7 31 12.5 51t23.5 52.5t42 52t68.5 34.5t102.5 16l-12 -65q-41 0 -71 -10.5t-46 -23.5t-27.5 -36.5
t-14.5 -35.5t-8 -35h178q7 31 12.5 51t23.5 52.5t42 52t68.5 34.5t102.5 16z" />
    <glyph glyph-name="f_i" unicode="fi" horiz-adv-x="487" 
d="M559 740l-23 -126h-70l23 126h70zM523 547l-101 -547h-70l90 484h-178l-90 -484h-70l90 484h-85l11 63h85q22 107 79.5 156t169.5 50l-12 -65q-112 0 -148 -79q-7 -14 -18 -58l-1 -4h248z" />
    <glyph glyph-name="f_l" unicode="fl" horiz-adv-x="485" 
d="M557 740l-137 -740h-70l90 484h-176l-90 -484h-70l90 484h-85l11 63h85q22 107 79.5 156t169.5 50l-12 -65q-112 0 -148 -79q-7 -14 -18 -58l-1 -4h176l36 193h70z" />
    <glyph glyph-name="f_f_i" unicode="ffi" horiz-adv-x="742" 
d="M807 740l-23 -126h-70l23 126h70zM771 547l-101 -547h-70l90 484h-178l-90 -484h-70l90 484h-178l-90 -484h-70l90 484h-85l11 63h85q7 31 12.5 51t23.5 52.5t42 52t68.5 34.5t102.5 16l-12 -65q-41 0 -71 -10.5t-46 -23.5t-27.5 -36.5t-14.5 -35.5t-8 -35h178
q7 31 12.5 51t23.5 52.5t42 52t68.5 34.5t102.5 16l-12 -65q-41 0 -71 -10.5t-46 -23.5t-27.5 -36.5t-14.5 -35.5t-8 -35h248z" />
    <glyph glyph-name="f_f_l" unicode="ffl" horiz-adv-x="667" 
d="M732 740l-137 -740h-70l89 479h-152l-89 -479h-70l89 479h-152l-89 -479h-70l89 479h-66l12 64h66l7 38q13 70 67 116t148 49l-12 -65q-115 -2 -133 -98l-7 -40h152l7 38q13 70 67 116t148 49l-12 -65q-115 -2 -133 -98l-7 -40h152l36 197h70z" />
    <glyph glyph-name=".notdef" horiz-adv-x="500" 
d="M12 0v665h475v-665h-475zM88 618l162 -243l161 243h-323zM60 575v-484l40 61l80 120l41 61zM440 575l-162 -242l162 -243v485zM411 48l-161 242l-162 -242h323z" />
    <glyph glyph-name=".null" horiz-adv-x="0" 
 />
    <glyph glyph-name="nonmarkingreturn" horiz-adv-x="333" 
 />
    <glyph glyph-name="space" unicode=" " horiz-adv-x="277" 
 />
    <glyph glyph-name="exclam" unicode="!" horiz-adv-x="295" 
d="M322 740l-101 -547h-74l101 547h74zM208 126l-23 -126h-74l23 126h74z" />
    <glyph glyph-name="quotedbl" unicode="&#x22;" horiz-adv-x="309" 
d="M410 740l-67 -296h-57l43 296h81zM254 740l-67 -296h-57l43 296h81z" />
    <glyph glyph-name="numbersign" unicode="#" horiz-adv-x="554" 
d="M620 534l-12 -67h-93l-63 -194h92l-13 -67h-101l-67 -206h-69l67 206h-124l-67 -206h-69l67 206h-97l13 67h107l61 193h-107l13 68h117l67 206h69l-67 -206h124l67 206h69l-67 -206h83zM446 467h-123l-63 -194h123z" />
    <glyph glyph-name="dollar" unicode="$" 
d="M581 578q0 -23 -2 -34h-74q4 13 4 30q0 44 -31 67.5t-76 23.5q-59 0 -98.5 -40.5t-39.5 -99.5q0 -23 8.5 -40t28 -28t33 -16t40.5 -13q72 -20 114 -58t42 -106q0 -87 -61.5 -157t-148.5 -78l-18 -99h-74l18 99q-62 7 -100 51.5t-38 107.5q0 14 4 40h74q-3 -17 -3 -35
q0 -50 32 -76.5t83 -26.5q68 0 112.5 47t44.5 115q0 49 -31 72.5t-86 38.5q-70 19 -109.5 52t-39.5 97q0 80 53.5 140.5t133.5 74.5l15 84h74l-15 -81q64 -9 97.5 -48.5t33.5 -103.5z" />
    <glyph glyph-name="percent" unicode="%" horiz-adv-x="775" 
d="M492 604q0 -83 -67 -147t-150 -64q-64 0 -107.5 41.5t-43.5 105.5q0 83 67 147t150 64q64 0 107.5 -41.5t43.5 -105.5zM767 740l-561 -740h-68l561 740h68zM787 198q0 -83 -67 -147t-150 -64q-65 0 -108 41t-43 106q0 83 67 147t150 64q65 0 108 -41t43 -106zM431 596
q0 43 -28 71t-72 28q-58 0 -102 -44.5t-44 -102.5q0 -43 28 -71t72 -28q58 0 102 44.5t44 102.5zM726 189q0 44 -28 72t-72 28q-58 0 -102 -44.5t-44 -101.5q0 -44 28 -72t72 -28q58 0 102 44.5t44 101.5z" />
    <glyph glyph-name="ampersand" unicode="&#x26;" horiz-adv-x="757" 
d="M775 482l-185 -261l153 -182l-62 -51l-139 165q-54 -77 -114.5 -121t-140.5 -44q-84 0 -139.5 52t-55.5 136q0 90 60.5 154.5t154.5 103.5q-28 35 -42.5 63t-14.5 63q0 79 66 136t146 57q62 0 104.5 -40.5t42.5 -101.5q0 -70 -52.5 -123t-125.5 -76l115 -138l146 208h83z
M535 605q0 36 -25.5 57t-61.5 21q-46 0 -84 -31.5t-38 -76.5q0 -47 62 -111q31 11 52 21t45.5 26.5t37 40.5t12.5 53zM496 206l-145 175q-74 -24 -129.5 -76.5t-55.5 -122.5q0 -53 37.5 -88.5t90.5 -35.5q62 0 108.5 40t93.5 108z" />
    <glyph glyph-name="quotesingle" unicode="'" horiz-adv-x="198" 
d="M277 740l-67 -296h-57l43 296h81z" />
    <glyph glyph-name="parenleft" unicode="(" horiz-adv-x="369" 
d="M495 757l-14 -75q-132 -71 -224 -205.5t-92 -277.5q0 -103 41.5 -189.5t123.5 -142.5l-13 -72q-49 17 -99 62q-63 61 -96 145.5t-33 175.5q0 50 9 98q22 119 92.5 227t169.5 182q71 52 135 72z" />
    <glyph glyph-name="parenright" unicode=")" horiz-adv-x="369" 
d="M382 374q0 -50 -9 -98q-22 -119 -92.5 -227t-169.5 -182q-71 -52 -135 -72l13 72q131 72 223.5 206t92.5 276q0 102 -42 190t-123 143l14 75q49 -17 99 -62q63 -61 96 -145.5t33 -175.5z" />
    <glyph glyph-name="asterisk" unicode="*" horiz-adv-x="425" 
d="M479 606l-116 -34l51 -92l-53 -34l-50 94l-83 -93l-41 34l86 92l-102 34l28 56l102 -38l20 115h58l-23 -116l116 37z" />
    <glyph glyph-name="plus" unicode="+" horiz-adv-x="606" 
d="M608 287l-12 -68h-218l-41 -219h-68l41 219h-218l12 68h218l41 219h68l-41 -219h218z" />
    <glyph glyph-name="comma" unicode="," horiz-adv-x="277" 
d="M199 126l-123 -193h-74l123 193h74z" />
    <glyph glyph-name="hyphen" unicode="-" horiz-adv-x="332" 
d="M360 315l-12 -67h-272l12 67h272z" />
    <glyph glyph-name="period" unicode="." horiz-adv-x="277" 
d="M199 126l-23 -126h-74l23 126h74z" />
    <glyph glyph-name="slash" unicode="/" horiz-adv-x="437" 
d="M540 740l-439 -840h-76l436 840h79z" />
    <glyph glyph-name="zero" unicode="0" horiz-adv-x="554" 
d="M622 553q0 -29 -7 -67l-40 -216q-20 -106 -68 -168q-42 -55 -102.5 -85t-129.5 -30q-95 0 -149.5 53.5t-54.5 148.5q0 38 8 81l40 216q15 82 53 136q42 60 108 95.5t137 35.5q91 0 148 -54.5t57 -145.5zM544 538q0 46 -12 72q-16 35 -52 55.5t-76 20.5q-42 0 -85 -21.5
t-71 -54.5q-42 -51 -58 -141l-35 -188q-9 -50 -9 -87t10 -61q34 -79 131 -79q96 0 161 79q35 43 55 148l35 188q6 35 6 69z" />
    <glyph glyph-name="one" unicode="1" horiz-adv-x="554" 
d="M473 740l-137 -740h-74l125 673h-127l12 67h201z" />
    <glyph glyph-name="two" unicode="2" horiz-adv-x="554" 
d="M615 564q0 -42 -15 -81t-46.5 -74.5t-55.5 -58t-66 -56.5l-280 -227h370l-12 -67h-470l12 67l307 250q4 3 27.5 22t31.5 25.5t29 25.5t30 30t24 30t21.5 33.5t12 33.5t5.5 38q0 57 -38 94t-95 37q-76 0 -127.5 -53t-66.5 -132h-74v2q0 12 15 57q32 87 105 140t165 53
q84 0 137.5 -52.5t53.5 -136.5z" />
    <glyph glyph-name="three" unicode="3" horiz-adv-x="554" 
d="M565 601q0 -105 -105 -177q91 -54 91 -159q0 -109 -85.5 -193.5t-194.5 -84.5q-88 0 -143 53t-55 142q0 16 4 50h74q-3 -21 -3 -42q0 -60 37.5 -98t97.5 -38q72 0 124.5 48.5t66.5 121.5q3 13 3 28q0 47 -27 82.5t-73 47.5q-18 5 -85 7l12 65q4 0 12.5 -0.5t12.5 -0.5
q66 0 113.5 37.5t47.5 101.5q0 44 -25.5 69t-69.5 25q-52 0 -88.5 -38.5t-46.5 -92.5h-74q17 84 78.5 141t145.5 57q69 0 112 -42t43 -110z" />
    <glyph glyph-name="four" unicode="4" horiz-adv-x="554" 
d="M598 740l-100 -538h67l-12 -67h-67l-25 -135h-74l25 135h-373l12 67l459 538h88zM505 638h-2l-367 -436h288z" />
    <glyph glyph-name="five" unicode="5" horiz-adv-x="554" 
d="M605 740l-12 -67h-274l-75 -204q70 35 132 35q90 0 147 -58.5t57 -149.5q0 -121 -91.5 -215t-211.5 -94q-37 0 -76 13q-133 46 -133 210q0 4 0.5 11.5t0.5 11.5h74q-1 -7 -1 -20q0 -69 39.5 -114t107.5 -45q87 0 151.5 72t64.5 160q0 65 -39.5 108.5t-104.5 43.5
q-89 0 -169 -84l-54 21l134 365h333z" />
    <glyph glyph-name="six" unicode="6" horiz-adv-x="554" 
d="M581 297q0 -123 -92 -216.5t-214 -93.5q-95 0 -152.5 56.5t-57.5 151.5q0 42 9.5 78t33 73t40 58t52.5 63l234 272h84l-218 -251l2 -1q37 16 72 16q92 0 149.5 -57.5t57.5 -148.5zM505 283q0 67 -40 110t-107 43q-87 0 -152.5 -70t-65.5 -158q0 -68 39.5 -111t107.5 -43
q89 0 153.5 70t64.5 159z" />
    <glyph glyph-name="seven" unicode="7" horiz-adv-x="554" 
d="M628 740l-12 -67l-428 -673h-78l430 673h-352l12 67h428z" />
    <glyph glyph-name="eight" unicode="8" horiz-adv-x="554" 
d="M580 596q0 -57 -33 -107t-85 -76q95 -49 95 -159q0 -105 -87.5 -186t-193.5 -81q-85 0 -142 52.5t-57 136.5q0 74 49 142.5t119 94.5q-63 47 -63 119q0 88 73 154.5t162 66.5q71 0 117 -43.5t46 -113.5zM506 585q0 44 -28 72.5t-72 28.5q-56 0 -102 -42.5t-46 -98.5
q0 -44 29 -72.5t73 -28.5q56 0 101 42.5t45 98.5zM482 247q0 56 -39.5 92t-96.5 36q-76 0 -135.5 -58.5t-59.5 -133.5q0 -58 39.5 -93.5t98.5 -35.5q76 0 134.5 58.5t58.5 134.5z" />
    <glyph glyph-name="nine" unicode="9" horiz-adv-x="554" 
d="M626 544q0 -42 -9.5 -78t-33 -73t-40 -58t-52.5 -63l-234 -272h-84l218 251l-2 1q-32 -16 -72 -16q-92 0 -149.5 57.5t-57.5 148.5q0 123 92 216.5t214 93.5q95 0 152.5 -56.5t57.5 -151.5zM551 531q0 68 -39.5 111t-107.5 43q-89 0 -153.5 -70t-64.5 -160
q0 -67 40.5 -109.5t106.5 -42.5q87 0 152.5 70t65.5 158z" />
    <glyph glyph-name="colon" unicode=":" horiz-adv-x="277" 
d="M278 548l-24 -126h-74l24 126h74zM199 126l-23 -126h-74l23 126h74z" />
    <glyph glyph-name="semicolon" unicode=";" horiz-adv-x="277" 
d="M278 548l-24 -126h-74l24 126h74zM199 126l-123 -193h-74l123 193h74z" />
    <glyph glyph-name="less" unicode="&#x3c;" horiz-adv-x="606" 
d="M649 514l-12 -68l-461 -193l389 -193l-12 -68l-466 230l12 62z" />
    <glyph glyph-name="equal" unicode="=" horiz-adv-x="606" 
d="M627 388l-13 -68h-504l13 68h504zM589 186l-12 -68h-504l12 68h504z" />
    <glyph glyph-name="greater" unicode="&#x3e;" horiz-adv-x="606" 
d="M613 284l-12 -62l-550 -230l12 68l461 193l-389 193l12 68z" />
    <glyph glyph-name="question" unicode="?" horiz-adv-x="591" 
d="M628 573q0 -54 -22.5 -97.5t-56.5 -73t-69 -57.5t-65.5 -67t-41.5 -85h-74q25 109 142 203q24 18 33.5 26t28.5 26t27 32t15.5 34t7.5 42q0 55 -37.5 90.5t-93.5 35.5q-85 0 -148 -73q-30 -35 -42 -101h-74l4 19q20 93 100 159t176 66q83 0 136.5 -49t53.5 -130zM360 126
l-23 -126h-74l23 126h74z" />
    <glyph glyph-name="at" unicode="@" horiz-adv-x="867" 
d="M889 494q0 -30 -7 -70q-11 -57 -37 -110q-31 -62 -83 -110t-111 -48q-30 0 -48 17t-18 47q0 11 1 16h-2q-62 -80 -153 -80q-59 0 -93 38.5t-34 98.5q0 98 72.5 183.5t168.5 85.5q95 0 108 -89h2l28 75h60l-86 -237q-21 -55 -21 -69q0 -30 27 -30q40 0 75.5 39t56.5 86
q16 36 26 86q6 30 6 60q0 104 -69.5 159t-176.5 55q-162 0 -278 -117.5t-116 -279.5q0 -126 77 -191.5t207 -65.5q127 0 247 50l6 -51q-127 -55 -263 -55q-151 0 -243.5 76.5t-92.5 223.5q0 43 9 83q35 170 164.5 276.5t301.5 106.5q126 0 207.5 -68t81.5 -191zM621 421
q0 38 -21.5 61.5t-59.5 23.5q-72 0 -123.5 -65t-51.5 -138q0 -43 23 -67t65 -24q67 0 117.5 69.5t50.5 139.5z" />
    <glyph glyph-name="A" unicode="A" horiz-adv-x="740" 
d="M729 0h-81l-61 249h-344l-154 -249h-77l453 740h83zM571 316l-79 340l-208 -340h287z" />
    <glyph glyph-name="B" unicode="B" horiz-adv-x="574" 
d="M606 578q0 -60 -28.5 -103t-83.5 -81q44 -19 68.5 -57t24.5 -87q0 -12 -4 -38q-9 -52 -40 -99t-76 -72t-87 -33t-102 -8h-204l137 740h186q91 0 150 -38.5t59 -123.5zM531 569q0 31 -18 58q-30 46 -141 46h-99l-47 -252h93q87 0 131 21q29 14 51 43t28 61q2 16 2 23z
M511 235q0 73 -66 102q-38 17 -140 17h-91l-54 -287h104q95 0 144 19q38 15 65.5 50t35.5 76q2 16 2 23z" />
    <glyph glyph-name="C" unicode="C" horiz-adv-x="813" 
d="M870 550h-83q-31 65 -94 100t-138 35q-92 0 -179 -53t-141.5 -139.5t-54.5 -178.5q0 -109 75 -184.5t184 -75.5q154 0 285 140h83q-68 -92 -169 -149.5t-210 -57.5q-138 0 -231 87.5t-93 224.5q0 118 65.5 223.5t173 167.5t225.5 62q81 0 151 -33t116 -97q27 -38 35 -72z
" />
    <glyph glyph-name="D" unicode="D" horiz-adv-x="744" 
d="M773 434q0 -126 -64.5 -226t-174.5 -154t-244 -54h-216l137 740h216q154 0 250 -77.5t96 -228.5zM699 426q0 120 -86 190q-44 36 -100 46.5t-133 10.5h-107l-113 -606h138q161 0 281 99.5t120 259.5z" />
    <glyph glyph-name="E" unicode="E" horiz-adv-x="536" 
d="M612 740l-12 -67h-331l-50 -266h320l-12 -67h-320l-51 -273h331l-12 -67h-405l137 740h405z" />
    <glyph glyph-name="F" unicode="F" horiz-adv-x="485" 
d="M581 740l-12 -67h-300l-50 -268h289l-12 -67h-289l-63 -338h-74l137 740h374z" />
    <glyph glyph-name="G" unicode="G" horiz-adv-x="872" 
d="M891 340q-39 -149 -170.5 -251t-285.5 -102q-140 0 -236 89.5t-96 228.5q0 33 6 65q30 160 167 271.5t300 111.5q82 0 153 -32.5t119 -95.5q31 -44 39 -82h-86q-27 68 -93.5 105.5t-143.5 37.5q-96 0 -185.5 -51t-145.5 -138t-56 -183q0 -116 78 -188t195 -72
q102 0 200.5 63t139.5 156h-413l12 67h502z" />
    <glyph glyph-name="H" unicode="H" horiz-adv-x="683" 
d="M744 740l-137 -740h-74l64 347h-383l-64 -347h-74l137 740h74l-60 -326h383l60 326h74z" />
    <glyph glyph-name="I" unicode="I" horiz-adv-x="226" 
d="M287 740l-137 -740h-74l137 740h74z" />
    <glyph glyph-name="J" unicode="J" horiz-adv-x="482" 
d="M539 740l-93 -505q-18 -97 -46 -141q-31 -51 -83 -79t-112 -28q-73 0 -120.5 42.5t-47.5 114.5q0 12 2 32h73q-1 -6 -1 -18q0 -48 29.5 -76t77.5 -28q39 0 67 14.5t44.5 42t25.5 55t16 66.5l94 508h74z" />
    <glyph glyph-name="K" unicode="K" horiz-adv-x="591" 
d="M728 740l-360 -361l223 -379h-93l-188 321l-117 -118l-38 -203h-74l137 740h74l-79 -425h2l418 425h95z" />
    <glyph glyph-name="L" unicode="L" horiz-adv-x="462" 
d="M474 67l-12 -67h-380l137 740h74l-125 -673h306z" />
    <glyph glyph-name="M" unicode="M" horiz-adv-x="919" 
d="M980 740l-137 -740h-74l122 659h-2l-399 -659h-63l-153 659h-2l-122 -659h-74l137 740h114l152 -630l387 630h114z" />
    <glyph glyph-name="N" unicode="N" horiz-adv-x="740" 
d="M801 740l-137 -740h-74l-318 651h-2l-121 -651h-74l137 740h100l299 -614h2l114 614h74z" />
    <glyph glyph-name="O" unicode="O" horiz-adv-x="869" 
d="M902 439q0 -117 -68 -222.5t-177 -167.5t-225 -62q-137 0 -232 89t-95 225q0 117 67.5 222.5t176.5 167.5t225 62q139 0 233.5 -88.5t94.5 -225.5zM825 426q0 113 -75 186.5t-189 73.5q-146 0 -263.5 -114.5t-117.5 -259.5q0 -111 76 -184.5t188 -73.5q147 0 264 113
t117 259z" />
    <glyph glyph-name="P" unicode="P" horiz-adv-x="592" 
d="M664 562q0 -24 -4 -43q-22 -116 -125 -178q-72 -43 -199 -43h-132l-55 -298h-74l137 740h206q127 0 183 -43q63 -48 63 -135zM589 549q0 71 -64 105q-7 3 -13.5 6t-14 5t-13 3.5t-15 2t-13.5 1.5t-15 1h-13.5h-15h-14.5h-124l-57 -308h123q91 0 135 19q51 22 82.5 66.5
t31.5 98.5z" />
    <glyph glyph-name="Q" unicode="Q" horiz-adv-x="871" 
d="M911 439q0 -202 -179 -345q41 -41 103 -40l-12 -67q-53 0 -86 13.5t-68 50.5q-108 -64 -233 -64q-141 0 -237.5 87t-96.5 226q0 34 6 67q13 72 56 147q67 110 177.5 174.5t237.5 64.5q144 0 238 -85.5t94 -228.5zM837 426q0 114 -77.5 187t-192.5 73q-137 0 -249 -94
t-137 -229q-5 -27 -5 -47q0 -19 3 -37q83 25 160 25q111 0 188 -38.5t160 -123.5q150 124 150 284zM622 102q-66 61 -87 75q-89 60 -219 60q-64 0 -119 -21q10 -31 34 -62q78 -100 219 -100q96 0 172 48z" />
    <glyph glyph-name="R" unicode="R" horiz-adv-x="607" 
d="M669 546q0 -107 -79 -185t-187 -85l158 -276h-93l-189 335q121 0 161 11q57 16 99 58.5t52 98.5q3 15 3 30q0 43 -16.5 72t-46 43t-61 19.5t-72.5 5.5h-129l-125 -673h-74l137 740h188q123 0 177 -28q97 -52 97 -166z" />
    <glyph glyph-name="S" unicode="S" horiz-adv-x="498" 
d="M561 590q0 -14 -4 -38h-74q2 8 2 25q0 47 -31 78t-77 31q-63 0 -111.5 -45t-48.5 -108q0 -14 4.5 -26.5t10.5 -21.5t18.5 -18t20 -14t25 -11.5t24.5 -9t26 -8t23 -6.5q146 -44 146 -174q0 -103 -81.5 -180t-185.5 -77q-83 0 -137.5 46.5t-54.5 128.5q0 15 4 45h74
q-2 -20 -2 -29q0 -59 34.5 -91.5t93.5 -32.5q70 0 124.5 52.5t54.5 122.5q0 41 -22 68t-55 39t-72 26.5t-72 28t-55 45t-22 77.5q0 99 74.5 169.5t174.5 70.5q75 0 123 -44.5t48 -118.5z" />
    <glyph glyph-name="T" unicode="T" horiz-adv-x="426" 
d="M556 740l-12 -67h-169l-125 -673h-74l125 673h-170l12 67h413z" />
    <glyph glyph-name="U" unicode="U" horiz-adv-x="655" 
d="M716 740l-85 -461q-18 -93 -57 -154q-42 -65 -107 -101.5t-142 -36.5q-94 0 -150.5 54.5t-56.5 149.5q0 36 9 88l85 461h74l-85 -461q-8 -42 -8 -78q0 -67 38.5 -107t105.5 -40q103 0 170 91q33 45 50 134l85 461h74z" />
    <glyph glyph-name="V" unicode="V" horiz-adv-x="702" 
d="M830 740l-444 -740h-73l-168 740h82l141 -648l382 648h80z" />
    <glyph glyph-name="W" unicode="W" horiz-adv-x="960" 
d="M1087 740l-349 -740h-94l-50 607h-2l-275 -607h-95l-74 740h76l62 -645h2l295 645h69l58 -644h2l300 644h75z" />
    <glyph glyph-name="X" unicode="X" horiz-adv-x="609" 
d="M724 740l-305 -362l183 -378h-88l-149 316l-270 -316h-87l321 378l-170 362h87l142 -296l250 296h86z" />
    <glyph glyph-name="Y" unicode="Y" horiz-adv-x="592" 
d="M729 740l-351 -493l-46 -247h-74l46 247l-166 493h82l134 -415l294 415h81z" />
    <glyph glyph-name="Z" unicode="Z" horiz-adv-x="480" 
d="M596 740l-12 -67l-476 -606h374l-12 -67h-458l12 67l477 606h-353l12 67h436z" />
    <glyph glyph-name="bracketleft" unicode="[" horiz-adv-x="351" 
d="M477 753l-14 -75q-140 -56 -168 -203q-11 -61 -33.5 -182.5t-34.5 -182.5q-8 -44 -8 -68q0 -99 99 -146l-14 -75q-75 22 -117 77.5t-42 134.5q0 33 6 64q11 63 35 189t35 189q31 167 177 246q41 24 79 32z" />
    <glyph glyph-name="backslash" unicode="\" horiz-adv-x="605" 
d="M458 -100h-76l-127 840h79z" />
    <glyph glyph-name="bracketright" unicode="]" horiz-adv-x="351" 
d="M312 539q0 -33 -6 -64q-11 -63 -34.5 -189t-35.5 -189q-20 -104 -87 -176.5t-168 -99.5l14 75q78 32 116 81.5t53 132.5l68 365q5 30 5 54q0 104 -97 149l14 75q73 -18 115.5 -77.5t42.5 -136.5z" />
    <glyph glyph-name="asciicircum" unicode="^" horiz-adv-x="606" 
d="M610 307h-70l-114 360l-245 -360h-71l298 433h64z" />
    <glyph glyph-name="underscore" unicode="_" horiz-adv-x="500" 
d="M486 -75l-9 -50h-500l9 50h500z" />
    <glyph glyph-name="grave" unicode="`" horiz-adv-x="378" 
d="M425 657l-43 -58l-178 107l43 60z" />
    <glyph glyph-name="a" unicode="a" horiz-adv-x="683" 
d="M722 547l-101 -547h-70l18 96h-2q-44 -51 -105 -80t-128 -29q-107 0 -176.5 64t-69.5 170q0 137 107 238.5t245 101.5q64 0 115.5 -27.5t77.5 -82.5h2l17 96h70zM610 315q0 80 -51 131.5t-131 51.5q-109 0 -189.5 -80t-80.5 -189q0 -82 52.5 -130.5t134.5 -48.5
q104 0 184.5 80.5t80.5 184.5z" />
    <glyph glyph-name="b" unicode="b" horiz-adv-x="682" 
d="M703 326q0 -137 -107 -238t-245 -101q-63 0 -114.5 27.5t-78.5 81.5h-2l-18 -96h-70l137 740h70l-53 -289h2q97 110 233 110q107 0 176.5 -64.5t69.5 -170.5zM631 319q0 81 -52 130t-134 49q-104 0 -184 -82t-80 -186q0 -79 51 -129.5t130 -50.5q110 0 189.5 79.5
t79.5 189.5z" />
    <glyph glyph-name="c" unicode="c" horiz-adv-x="647" 
d="M678 382h-77q-19 56 -65.5 86t-106.5 30q-107 0 -189 -80t-82 -186q0 -82 53 -132t135 -50q64 0 120 29t94 82h77q-123 -174 -304 -174q-106 0 -176 64.5t-70 169.5q0 135 108.5 237.5t243.5 102.5q89 0 154.5 -47t84.5 -132z" />
    <glyph glyph-name="d" unicode="d" horiz-adv-x="685" 
d="M755 740l-137 -740h-70l18 96h-2q-43 -51 -105 -80t-128 -29q-107 0 -176.5 64t-69.5 170q0 137 107 238.5t245 101.5q62 0 114 -27.5t79 -80.5h2l53 287h70zM607 315q0 80 -51 131.5t-131 51.5q-109 0 -189.5 -80t-80.5 -189q0 -82 52.5 -130.5t134.5 -48.5
q104 0 184.5 80.5t80.5 184.5z" />
    <glyph glyph-name="e" unicode="e" horiz-adv-x="650" 
d="M664 319q0 -23 -5 -51q-1 -4 -3 -10.5t-2 -9.5h-498q-2 -16 -2 -25q0 -73 52 -123t125 -50q67 0 128 35.5t92 93.5h74q-45 -84 -128 -138t-176 -54q-102 0 -169.5 66t-67.5 167q0 132 105 236.5t237 104.5q105 0 171.5 -68.5t66.5 -173.5zM595 315q1 80 -49.5 131.5
t-130.5 51.5q-82 0 -151 -53.5t-96 -133.5h427v4z" />
    <glyph glyph-name="f" unicode="f" horiz-adv-x="314" 
d="M454 753l-12 -65q-112 0 -148 -79q-7 -14 -18 -58l-1 -4h140l-11 -63h-140l-90 -484h-70l90 484h-85l11 63h85q22 107 79.5 156t169.5 50z" />
    <glyph glyph-name="g" unicode="g" horiz-adv-x="673" 
d="M707 547l-85 -461q-12 -66 -30.5 -112.5t-56.5 -87.5q-43 -46 -107 -73.5t-129 -27.5q-100 0 -166 52t-77 149h74q15 -67 62.5 -102.5t117.5 -35.5q93 0 155.5 56t80.5 148l9 48h-2q-38 -53 -101.5 -83t-130.5 -30q-101 0 -170 64.5t-69 165.5q0 134 105.5 239t239.5 105
q63 0 114 -28.5t76 -83.5h2l18 98h70zM595 315q0 79 -50.5 131t-129.5 52q-103 0 -182 -82t-79 -185q0 -78 50 -129.5t128 -51.5q102 0 182.5 81.5t80.5 183.5z" />
    <glyph glyph-name="h" unicode="h" horiz-adv-x="610" 
d="M606 370q0 -29 -7 -69l-56 -301h-70l56 301q5 30 5 54q0 66 -37 104.5t-103 38.5q-68 0 -127 -47q-60 -49 -78 -145l-57 -306h-70l137 740h70l-49 -263h2q34 40 82.5 62t101.5 22q92 0 146 -50t54 -141z" />
    <glyph glyph-name="i" unicode="i" horiz-adv-x="200" 
d="M272 740l-23 -126h-70l23 126h70zM236 547l-101 -547h-70l101 547h70z" />
    <glyph glyph-name="j" unicode="j" horiz-adv-x="203" 
d="M274 740l-23 -126h-70l23 126h70zM238 547l-94 -509q-13 -69 -31.5 -111t-62.5 -75q-56 -43 -130 -44l13 69q67 2 97 44t44 117l94 509h70z" />
    <glyph glyph-name="k" unicode="k" horiz-adv-x="502" 
d="M588 547l-267 -276l177 -271h-90l-140 216l-109 -112l-19 -104h-70l137 740h70l-98 -527h2l317 334h90z" />
    <glyph glyph-name="l" unicode="l" horiz-adv-x="200" 
d="M272 740l-137 -740h-70l137 740h70z" />
    <glyph glyph-name="m" unicode="m" horiz-adv-x="938" 
d="M938 383q0 -29 -6 -58l-60 -325h-70l59 317q5 30 5 54q0 60 -30.5 93.5t-90.5 33.5q-76 0 -121.5 -50.5t-60.5 -130.5l-59 -317h-70l59 317q5 30 5 54q0 60 -30.5 93.5t-90.5 33.5q-76 0 -121.5 -50.5t-60.5 -130.5l-59 -317h-70l101 547h70l-11 -63q63 77 163 77
q57 0 101 -26.5t64 -78.5q84 105 203 105q84 0 132.5 -47.5t48.5 -130.5z" />
    <glyph glyph-name="n" unicode="n" horiz-adv-x="610" 
d="M609 370q0 -29 -7 -69l-56 -301h-70l56 301q5 30 5 54q0 66 -37 104.5t-103 38.5q-68 0 -127 -47q-60 -49 -78 -145l-57 -306h-70l101 547h70l-13 -70h2q34 40 82.5 62t101.5 22q92 0 146 -50t54 -141z" />
    <glyph glyph-name="o" unicode="o" horiz-adv-x="655" 
d="M670 324q0 -131 -106.5 -234t-238.5 -103q-102 0 -169.5 66.5t-67.5 168.5q0 131 105.5 235t237.5 104q102 0 170.5 -67.5t68.5 -169.5zM599 320q0 75 -52 126.5t-127 51.5q-103 0 -182.5 -82.5t-79.5 -185.5q0 -77 51 -128.5t128 -51.5q105 0 183.5 82.5t78.5 187.5z
" />
    <glyph glyph-name="p" unicode="p" horiz-adv-x="682" 
d="M699 326q0 -137 -107 -238t-245 -101q-63 0 -114.5 27.5t-78.5 81.5h-2l-54 -288h-70l137 739h70l-17 -96h2q97 110 233 110q107 0 176.5 -64.5t69.5 -170.5zM627 319q0 81 -52 130t-134 49q-104 0 -184 -82t-80 -186q0 -79 51 -129.5t130 -50.5q110 0 189.5 79.5
t79.5 189.5z" />
    <glyph glyph-name="q" unicode="q" horiz-adv-x="682" 
d="M717 547l-137 -739h-70l54 288h-2q-44 -51 -105 -80t-128 -29q-107 0 -176.5 64t-69.5 170q0 137 107 238.5t245 101.5q64 0 115.5 -27.5t77.5 -82.5h2l17 96h70zM605 315q0 80 -51 131.5t-131 51.5q-109 0 -189.5 -80t-80.5 -189q0 -82 52.5 -130.5t134.5 -48.5
q104 0 184.5 80.5t80.5 184.5z" />
    <glyph glyph-name="r" unicode="r" horiz-adv-x="301" 
d="M395 561l-14 -74q-74 -6 -124 -50.5t-63 -116.5l-59 -320h-70l101 547h70l-14 -79h2q29 48 69.5 68.5t101.5 24.5z" />
    <glyph glyph-name="s" unicode="s" horiz-adv-x="388" 
d="M424 441q0 -26 -3 -29h-70q1 5 1 16q0 31 -18 50.5t-49 19.5q-39 0 -69 -28.5t-30 -67.5q0 -27 21.5 -45t52.5 -29.5t62 -25t52.5 -42t21.5 -71.5q0 -19 -3 -35q-13 -77 -69 -122t-134 -45q-61 0 -100.5 36.5t-39.5 97.5q0 15 4 41h70q-3 -15 -3 -30q0 -39 21 -60.5
t59 -21.5q52 0 87 33t35 85q0 31 -21.5 51t-52.5 32t-62 25t-52.5 39.5t-21.5 65.5q0 74 56 127t131 53q54 0 89 -33.5t35 -86.5z" />
    <glyph glyph-name="t" unicode="t" horiz-adv-x="339" 
d="M431 547l-11 -63h-131l-90 -484h-70l90 484h-115l11 63h115l36 193h70l-36 -193h131z" />
    <glyph glyph-name="u" unicode="u" horiz-adv-x="608" 
d="M642 547l-101 -547h-66l16 85h-2q-32 -47 -83.5 -72.5t-109.5 -25.5q-91 0 -144 46.5t-53 135.5q0 36 8 76l56 302h70l-55 -301q-7 -39 -7 -67q0 -64 35.5 -96.5t100.5 -32.5q71 0 124 44q68 55 88 164l53 289h70z" />
    <glyph glyph-name="v" unicode="v" horiz-adv-x="554" 
d="M647 547l-332 -547h-77l-130 547h75l108 -460l281 460h75z" />
    <glyph glyph-name="w" unicode="w" horiz-adv-x="831" 
d="M921 547l-310 -547h-79l-49 364h-2l-181 -364h-79l-107 547h73l87 -458h2l198 392h61l53 -392h2l259 458h72z" />
    <glyph glyph-name="x" unicode="x" horiz-adv-x="480" 
d="M569 547l-236 -269l135 -278h-83l-104 219l-186 -219h-83l239 278l-138 269h84l105 -211l182 211h85z" />
    <glyph glyph-name="y" unicode="y" horiz-adv-x="536" 
d="M624 547l-454 -739h-73l134 210l-115 529h74l94 -436l266 436h74z" />
    <glyph glyph-name="z" unicode="z" horiz-adv-x="425" 
d="M498 547l-11 -63l-378 -421h318l-12 -63h-405l11 61l382 423h-293l11 63h377z" />
    <glyph glyph-name="braceleft" unicode="{" horiz-adv-x="351" 
d="M468 740l-11 -60h-50q-49 0 -64 -86l-34 -183q-9 -46 -39 -84.5t-73 -49.5v-3q31 -4 48.5 -33.5t17.5 -63.5q0 -13 -4 -37l-34 -183q-4 -24 -4 -37q0 -15 3.5 -25t7.5 -15t14.5 -7.5t16.5 -2.5t21.5 0.5t22.5 0.5l-11 -60h-66q-41 0 -63.5 26.5t-22.5 68.5q0 12 4 36
l34 182q3 15 3 31q0 35 -18 61t-52 27l12 64q41 2 72 39t39 81l34 182q10 54 44.5 92.5t85.5 38.5h66z" />
    <glyph glyph-name="bar" unicode="|" horiz-adv-x="672" 
d="M517 778l-185 -1000h-74l185 1000h74z" />
    <glyph glyph-name="braceright" unicode="}" horiz-adv-x="351" 
d="M338 307l-12 -64q-42 -2 -72.5 -38t-38.5 -81l-34 -182q-10 -54 -44.5 -92.5t-85.5 -38.5h-66l11 60h50q48 0 64 86l34 183q9 47 39 87.5t73 46.5v3q-31 9 -48 38t-17 63q0 16 3 33l34 183q4 24 4 37q0 15 -3.5 25t-7.5 15t-14.5 7.5t-16.5 2.5t-21.5 -0.5t-22.5 -0.5
l11 60h66q41 0 63.5 -26.5t22.5 -68.5q0 -12 -4 -36l-34 -182q-3 -15 -3 -29q0 -36 18 -63t52 -28z" />
    <glyph glyph-name="asciitilde" unicode="~" horiz-adv-x="606" 
d="M584 269q-24 -27 -40.5 -42t-44.5 -29.5t-56 -14.5q-41 0 -101 36t-103 36q-49 0 -98 -76l-27 50q61 86 141 86q42 0 111.5 -36t88.5 -36t41.5 15.5t31.5 25.5t29 35z" />
    <glyph glyph-name="uni00A0" unicode="&#xa0;" horiz-adv-x="277" 
 />
    <glyph glyph-name="exclamdown" unicode="&#xa1;" horiz-adv-x="295" 
d="M286 548l-24 -126h-74l24 126h74zM250 355l-102 -547h-74l102 547h74z" />
    <glyph glyph-name="cent" unicode="&#xa2;" horiz-adv-x="554" 
d="M596 463h-81q-33 84 -129 84q-74 0 -134.5 -58.5t-60.5 -132.5q0 -59 38 -98t97 -39q92 0 149 72h83q-33 -55 -89 -91.5t-120 -44.5l-18 -93h-74l18 94q-72 11 -116 61.5t-44 123.5q0 99 72.5 176.5t171.5 92.5l18 97h74l-18 -96q63 -8 106.5 -47t56.5 -101z" />
    <glyph glyph-name="sterling" unicode="&#xa3;" horiz-adv-x="554" 
d="M614 560q0 -3 -0.5 -9.5t-0.5 -9.5h-72v5q1 63 -36.5 103.5t-100.5 40.5q-83 0 -140.5 -67.5t-57.5 -151.5q0 -28 14 -59h285l-11 -63h-225l-1 -2q55 -58 55 -132q0 -28 -9 -57t-17.5 -44.5t-28.5 -50.5h43q81 0 136.5 38t70.5 115q2 8 2 25q0 18 -1 27h74q2 -14 2 -22
q0 -12 -4 -34q-7 -40 -29 -78q-77 -134 -260 -134h-273l12 63h148q59 72 59 145q0 28 -9.5 49.5t-33.5 52t-30 39.5h-106l11 63h59q-7 31 -7 55q0 113 86 199.5t198 86.5q86 0 142 -53.5t56 -139.5z" />
    <glyph glyph-name="currency" unicode="&#xa4;" horiz-adv-x="576" 
d="M652 562l-94 -80q28 -47 28 -99q0 -100 -80 -180l65 -79l-49 -41l-63 78q-74 -49 -150 -49q-79 0 -132 49l-94 -78l-33 41l95 79q-29 46 -29 101q0 100 80 178l-66 80l49 41l66 -81q73 50 149 50q78 0 130 -49l95 80zM513 372q0 56 -37.5 92.5t-94.5 36.5q-73 0 -133 -57
t-60 -130q0 -56 39 -93t95 -37q73 0 132 57.5t59 130.5z" />
    <glyph glyph-name="yen" unicode="&#xa5;" horiz-adv-x="554" 
d="M687 740l-237 -303h152l-12 -63h-190l-22 -26l-10 -58h207l-12 -64h-207l-42 -226h-74l42 227h-207l12 63h207l10 58l-12 26h-190l12 63h152l-125 303h80l134 -325l252 325h80z" />
    <glyph glyph-name="brokenbar" unicode="&#xa6;" horiz-adv-x="672" 
d="M503 703l-65 -350h-74l65 350h74zM411 203l-65 -350h-74l65 350h74z" />
    <glyph glyph-name="section" unicode="&#xa7;" horiz-adv-x="615" 
d="M597 637q0 -16 -3 -31h-74q2 10 2 16q0 33 -24 48.5t-59 15.5q-51 0 -87.5 -32.5t-36.5 -83.5q0 -41 44 -65l133 -73q46 -26 69 -52t23 -69q0 -49 -31.5 -94t-77.5 -71q34 -34 34 -82q0 -86 -68 -145.5t-155 -59.5q-77 0 -122.5 45t-45.5 121q0 19 3 39h74q-2 -18 -2 -28
q0 -52 27 -81t78 -29q53 0 94.5 36t41.5 89q0 28 -19.5 47.5t-53.5 38.5l-140 80q-74 43 -74 105q0 91 118 169q-24 28 -24 72q0 80 65 135t146 55q62 0 103.5 -28.5t41.5 -87.5zM509 296q0 43 -48 70l-159 87q-32 -17 -56 -50t-24 -68q0 -37 40 -60l171 -94q31 16 53.5 49
t22.5 66z" />
    <glyph glyph-name="dieresis" unicode="&#xa8;" horiz-adv-x="369" 
d="M437 755l-24 -126h-74l24 126h74zM289 755l-24 -126h-74l24 126h74z" />
    <glyph glyph-name="copyright" unicode="&#xa9;" horiz-adv-x="747" 
d="M831 439q0 -115 -65.5 -220t-172 -168t-221.5 -63q-138 0 -228.5 87.5t-90.5 224.5q0 117 65.5 222t172 167.5t222.5 62.5q137 0 227.5 -88.5t90.5 -224.5zM775 431q0 118 -77 194t-195 76q-100 0 -191.5 -55t-147 -146.5t-55.5 -191.5q0 -118 76.5 -193.5t194.5 -75.5
q100 0 191.5 55t147.5 146t56 191zM654 457v-10h-55q-4 101 -118 101q-89 0 -143.5 -66t-54.5 -157q0 -62 35 -96.5t97 -34.5q114 0 156 101h55q-20 -67 -84 -109.5t-136 -42.5q-81 0 -129.5 48t-48.5 129q0 112 75.5 195.5t186.5 83.5q67 0 115.5 -38t48.5 -104z" />
    <glyph glyph-name="ordfeminine" unicode="&#xaa;" horiz-adv-x="434" 
d="M519 745l-61 -330h-60l10 52h-2q-47 -60 -132 -60q-63 0 -105 40.5t-42 102.5q0 80 65.5 141.5t146.5 61.5q84 0 108 -60h2l10 52h60zM434 602q0 42 -30 68.5t-73 26.5q-55 0 -99.5 -41t-44.5 -96q0 -43 29 -70t72 -27q57 0 101.5 41t44.5 98z" />
    <glyph glyph-name="guillemotleft" unicode="&#xab;" horiz-adv-x="425" 
d="M469 450l-126 -168l64 -168l-65 -33l-76 201l150 199zM295 450l-125 -168l63 -168l-65 -33l-76 201l150 199z" />
    <glyph glyph-name="logicalnot" unicode="&#xac;" horiz-adv-x="606" 
d="M627 388l-52 -279h-68l39 211h-436l13 68h504z" />
    <glyph glyph-name="uni00AD" unicode="&#xad;" horiz-adv-x="332" 
d="M360 315l-12 -67h-272l12 67h272z" />
    <glyph glyph-name="registered" unicode="&#xae;" horiz-adv-x="747" 
d="M831 439q0 -115 -65.5 -220t-172 -168t-221.5 -63q-138 0 -228.5 87.5t-90.5 224.5q0 117 65.5 222t172 167.5t222.5 62.5q137 0 227.5 -88.5t90.5 -224.5zM775 431q0 118 -77 194t-195 76q-100 0 -191.5 -55t-147 -146.5t-55.5 -191.5q0 -118 76.5 -193.5t194.5 -75.5
q100 0 191.5 55t147.5 146t56 191zM637 492q0 -48 -28 -84.5t-75 -47.5l-1 -2q56 -16 56 -73q0 -19 -6 -57t-6 -57q0 -14 4 -23h-55q-4 11 -4 25q0 16 5.5 49t5.5 50q0 21 -8 34t-24 18.5t-29.5 7t-35.5 1.5h-109l-35 -185h-55l81 437h187q55 0 93.5 -21t38.5 -72zM580 478
q0 56 -91 56h-125l-28 -151h114q53 0 91.5 22t38.5 73z" />
    <glyph glyph-name="macron" unicode="&#xaf;" horiz-adv-x="485" 
d="M547 706l-12 -67h-338l12 67h338z" />
    <glyph glyph-name="degree" unicode="&#xb0;" horiz-adv-x="400" 
d="M452 592q0 -68 -53.5 -119.5t-120.5 -51.5q-51 0 -85.5 33t-34.5 84q0 67 52.5 119t120.5 52q52 0 86.5 -33t34.5 -84zM401 582q0 35 -22 56t-57 21q-45 0 -79 -33.5t-34 -78.5q0 -34 21.5 -55t56.5 -21q45 0 79.5 33t34.5 78z" />
    <glyph glyph-name="plusminus" unicode="&#xb1;" horiz-adv-x="606" 
d="M618 340l-13 -68h-218l-33 -178h-68l33 178h-218l13 68h218l33 178h68l-33 -178h218zM563 44l-12 -68h-504l12 68h504z" />
    <glyph glyph-name="two.superior" unicode="&#xb2;" horiz-adv-x="352" 
d="M456 760q0 -36 -18 -68t-37.5 -50.5t-55.5 -47.5l-151 -118h210l-10 -54h-298l9 49l186 147q3 2 16.5 12.5t18 14.5t16.5 14t17 16t13.5 16.5t12.5 18.5t7 19t3 21q0 30 -21 49.5t-52 19.5q-88 0 -108 -107h-60l1 5q13 70 61.5 113t117.5 43q53 0 87.5 -32t34.5 -81z" />
    <glyph glyph-name="three.superior" unicode="&#xb3;" horiz-adv-x="348" 
d="M427 586q0 -69 -55 -120t-123 -51q-60 0 -93 33.5t-33 89.5q0 15 3 33h60q-2 -18 -2 -25q0 -35 20 -56t55 -21q42 0 74 30.5t32 73.5q0 73 -112 73l10 54h24q34 0 60.5 18.5t26.5 53.5q0 23 -15.5 35t-37.5 12q-29 0 -48 -22.5t-25 -52.5h-60q12 56 51 92.5t94 36.5
q46 0 73.5 -26t27.5 -67q0 -64 -59 -104q52 -36 52 -90z" />
    <glyph glyph-name="acute" unicode="&#xb4;" horiz-adv-x="375" 
d="M444 706l-218 -107l-23 58l220 109z" />
    <glyph glyph-name="mu" unicode="&#xb5;" horiz-adv-x="608" 
d="M646 547l-101 -547h-66l16 85h-2q-32 -47 -83.5 -72.5t-109.5 -25.5q-114 0 -154 69l-46 -248h-70l137 739h70l-55 -301q-7 -39 -7 -67q0 -129 136 -129q71 0 124 44q68 55 88 164l53 289h70z" />
    <glyph glyph-name="paragraph" unicode="&#xb6;" horiz-adv-x="564" 
d="M688 740l-10 -56h-64l-147 -794h-62l147 794h-120l-147 -794h-62l84 458h-17q-75 0 -123.5 40.5t-48.5 113.5q0 63 34 119.5t89 86.5q57 32 161 32h286z" />
    <glyph glyph-name="periodcentered" unicode="&#xb7;" horiz-adv-x="277" 
d="M235 316l-24 -126h-74l24 126h74z" />
    <glyph glyph-name="cedilla" unicode="&#xb8;" horiz-adv-x="324" 
d="M231 -118q0 -45 -32.5 -74.5t-77.5 -29.5q-33 0 -51 20.5t-18 54.5v2l42 2q0 -18 10.5 -30t28.5 -12q25 0 40.5 19.5t15.5 44.5q0 35 -40 35q-24 0 -43 -19l-33 21l63 87l41 -3l-38 -56q15 4 33 4q28 0 43.5 -19t15.5 -47z" />
    <glyph glyph-name="one.superior" unicode="&#xb9;" horiz-adv-x="214" 
d="M213 422h-60l73 390h-75l10 54h135z" />
    <glyph glyph-name="ordmasculine" unicode="&#xba;" horiz-adv-x="404" 
d="M478 611q0 -79 -64 -141.5t-144 -62.5q-61 0 -102 39.5t-41 100.5q0 80 64 143t144 63q62 0 102.5 -40t40.5 -102zM417 605q0 39 -26 65.5t-66 26.5q-55 0 -96 -43t-41 -98q0 -41 26.5 -67t67.5 -26q55 0 95 43t40 99z" />
    <glyph glyph-name="guillemotright" unicode="&#xbb;" horiz-adv-x="425" 
d="M437 282l-151 -201l-52 33l125 168l-63 168l64 31zM263 282l-151 -201l-52 33l125 168l-63 168l64 31z" />
    <glyph glyph-name="onequarter" unicode="&#xbc;" horiz-adv-x="641" 
d="M200 296h-60l73 390h-75l10 54h135zM598 739l-470 -740h-60l470 740h60zM629 78h-41l-15 -78h-59l15 78h-225l9 49l278 317h65l-58 -312h41zM539 132l41 222l-192 -222h151z" />
    <glyph glyph-name="onehalf" unicode="&#xbd;" horiz-adv-x="684" 
d="M199 296h-60l73 390h-75l10 54h135zM598 740l-470 -740h-60l470 740h60zM716 338q0 -36 -18 -68t-37.5 -50.5t-55.5 -47.5l-151 -118h210l-10 -54h-298l9 49l186 147q3 2 16.5 12.5t18 14.5t16.5 14t17 16t13.5 16.5t12.5 18.5t7 19t3 21q0 30 -21 49.5t-52 19.5
q-88 0 -108 -107h-60l1 5q13 70 61.5 113t117.5 43q53 0 87.5 -32t34.5 -81z" />
    <glyph glyph-name="threequarters" unicode="&#xbe;" horiz-adv-x="794" 
d="M413 460q0 -69 -55 -120t-123 -51q-60 0 -93 33.5t-33 89.5q0 15 3 33h60q-2 -18 -2 -25q0 -35 20 -56t55 -21q42 0 74 30.5t32 73.5q0 73 -112 73l10 54h24q34 0 60.5 18.5t26.5 53.5q0 23 -15.5 35t-37.5 12q-29 0 -48 -22.5t-25 -52.5h-60q12 56 51 92.5t94 36.5
q46 0 73.5 -26t27.5 -67q0 -64 -59 -104q52 -36 52 -90zM767 741l-470 -740h-60l470 740h60zM782 78h-41l-15 -78h-59l15 78h-225l9 49l278 317h65l-58 -312h41zM692 132l41 222l-192 -222h151z" />
    <glyph glyph-name="questiondown" unicode="&#xbf;" horiz-adv-x="591" 
d="M430 548l-24 -126h-74l24 126h74zM534 39l-3 -19q-15 -94 -98 -159.5t-179 -65.5q-83 0 -136.5 49t-53.5 131q0 54 22.5 97t56 73t69 57.5t66.5 66.5t42 86h74q-24 -108 -143 -203q-30 -24 -41.5 -34t-32.5 -32.5t-29 -45.5t-8 -50q0 -55 37 -90t93 -35q86 0 149 73
q31 37 41 101h74z" />
    <glyph glyph-name="Agrave" unicode="&#xc0;" horiz-adv-x="740" 
d="M729 0h-81l-61 249h-344l-154 -249h-77l453 740h83zM571 316l-79 340l-208 -340h287zM617 840l-43 -58l-178 107l43 60z" />
    <glyph glyph-name="Aacute" unicode="&#xc1;" horiz-adv-x="740" 
d="M729 0h-81l-61 249h-344l-154 -249h-77l453 740h83zM571 316l-79 340l-208 -340h287zM658 889l-218 -107l-23 58l220 109z" />
    <glyph glyph-name="Acircumflex" unicode="&#xc2;" horiz-adv-x="740" 
d="M729 0h-81l-61 249h-344l-154 -249h-77l453 740h83zM571 316l-79 340l-208 -340h287zM696 802h-89l-72 73l-102 -73h-91l169 125h66z" />
    <glyph glyph-name="Atilde" unicode="&#xc3;" horiz-adv-x="740" 
d="M729 0h-81l-61 249h-344l-154 -249h-77l453 740h83zM571 316l-79 340l-208 -340h287zM701 853q-60 -39 -105 -39q-32 0 -74.5 20.5t-63.5 20.5q-34 0 -72 -30l-26 50q52 42 112 42q32 0 72.5 -20.5t61.5 -20.5q9 0 19.5 3t15 5t18.5 10t15 8z" />
    <glyph glyph-name="Adieresis" unicode="&#xc4;" horiz-adv-x="740" 
d="M729 0h-81l-61 249h-344l-154 -249h-77l453 740h83zM571 316l-79 340l-208 -340h287zM653 928l-24 -126h-74l24 126h74zM505 928l-24 -126h-74l24 126h74z" />
    <glyph glyph-name="Aring" unicode="&#xc5;" horiz-adv-x="740" 
d="M729 0h-81l-61 249h-344l-154 -249h-77l453 740h83zM571 316l-79 340l-208 -340h287zM633 871q0 -48 -38.5 -85.5t-86.5 -37.5q-37 0 -61.5 23.5t-24.5 60.5q0 48 38.5 85.5t86.5 37.5q38 0 62 -23.5t24 -60.5zM580 861q0 19 -12 30.5t-31 11.5q-23 0 -42.5 -19
t-19.5 -42q0 -18 12.5 -30t30.5 -12q24 0 43 18.5t19 42.5z" />
    <glyph glyph-name="AE" unicode="&#xc6;" horiz-adv-x="992" 
d="M1044 740l-12 -67h-317l-50 -266h306l-12 -67h-306l-51 -273h317l-12 -67h-391l46 250h-273l-220 -250h-89l652 740h412zM636 645h-2l-285 -328h226z" />
    <glyph glyph-name="Ccedilla" unicode="&#xc7;" horiz-adv-x="813" 
d="M475 -118q0 -45 -32.5 -74.5t-77.5 -29.5q-33 0 -51 20.5t-18 54.5v2l42 2q0 -18 10.5 -30t28.5 -12q25 0 40.5 19.5t15.5 44.5q0 35 -40 35q-24 0 -43 -19l-33 21l54 75q-117 18 -192 102t-75 206q0 118 65.5 223.5t173 167.5t225.5 62q81 0 151 -33t116 -97
q27 -38 35 -72h-83q-31 65 -94 100t-138 35q-92 0 -179 -53t-141.5 -139.5t-54.5 -178.5q0 -109 75 -184.5t184 -75.5q154 0 285 140h83q-68 -92 -169 -149.5t-210 -57.5h-16l-29 -43q15 4 33 4q27 0 43 -19t16 -47z" />
    <glyph glyph-name="Egrave" unicode="&#xc8;" horiz-adv-x="536" 
d="M612 740l-12 -67h-331l-50 -266h320l-12 -67h-320l-51 -273h331l-12 -67h-405l137 740h405zM535 840l-43 -58l-178 107l43 60z" />
    <glyph glyph-name="Eacute" unicode="&#xc9;" horiz-adv-x="536" 
d="M612 740l-12 -67h-331l-50 -266h320l-12 -67h-320l-51 -273h331l-12 -67h-405l137 740h405zM556 889l-218 -107l-23 58l220 109z" />
    <glyph glyph-name="Ecircumflex" unicode="&#xca;" horiz-adv-x="536" 
d="M612 740l-12 -67h-331l-50 -266h320l-12 -67h-320l-51 -273h331l-12 -67h-405l137 740h405zM594 802h-89l-72 73l-102 -73h-91l169 125h66z" />
    <glyph glyph-name="Edieresis" unicode="&#xcb;" horiz-adv-x="536" 
d="M612 740l-12 -67h-331l-50 -266h320l-12 -67h-320l-51 -273h331l-12 -67h-405l137 740h405zM561 928l-24 -126h-74l24 126h74zM413 928l-24 -126h-74l24 126h74z" />
    <glyph glyph-name="Igrave" unicode="&#xcc;" horiz-adv-x="226" 
d="M287 740l-137 -740h-74l137 740h74zM340 840l-43 -58l-178 107l43 60z" />
    <glyph glyph-name="Iacute" unicode="&#xcd;" horiz-adv-x="226" 
d="M287 740l-137 -740h-74l137 740h74zM440 889l-218 -107l-23 58l220 109z" />
    <glyph glyph-name="Icircumflex" unicode="&#xce;" horiz-adv-x="226" 
d="M287 740l-137 -740h-74l137 740h74zM439 802h-89l-72 73l-102 -73h-91l169 125h66z" />
    <glyph glyph-name="Idieresis" unicode="&#xcf;" horiz-adv-x="226" 
d="M287 740l-137 -740h-74l137 740h74zM396 928l-24 -126h-74l24 126h74zM248 928l-24 -126h-74l24 126h74z" />
    <glyph glyph-name="Eth" unicode="&#xd0;" horiz-adv-x="790" 
d="M813 434q0 -197 -136 -315.5t-347 -118.5h-216l64 347h-74l13 67h74l60 326h212q157 0 253.5 -77t96.5 -229zM739 426q0 120 -86 190q-44 36 -100 46.5t-133 10.5h-107l-48 -259h210l-13 -67h-210l-52 -280h138q161 0 281 99.5t120 259.5z" />
    <glyph glyph-name="Ntilde" unicode="&#xd1;" horiz-adv-x="740" 
d="M801 740l-137 -740h-74l-318 651h-2l-121 -651h-74l137 740h100l299 -614h2l114 614h74zM701 853q-60 -39 -105 -39q-32 0 -74.5 20.5t-63.5 20.5q-34 0 -72 -30l-26 50q52 42 112 42q32 0 72.5 -20.5t61.5 -20.5q9 0 19.5 3t15 5t18.5 10t15 8z" />
    <glyph glyph-name="Ograve" unicode="&#xd2;" horiz-adv-x="869" 
d="M902 439q0 -117 -68 -222.5t-177 -167.5t-225 -62q-137 0 -232 89t-95 225q0 117 67.5 222.5t176.5 167.5t225 62q139 0 233.5 -88.5t94.5 -225.5zM825 426q0 113 -75 186.5t-189 73.5q-146 0 -263.5 -114.5t-117.5 -259.5q0 -111 76 -184.5t188 -73.5q147 0 264 113
t117 259zM702 840l-43 -58l-178 107l43 60z" />
    <glyph glyph-name="Oacute" unicode="&#xd3;" horiz-adv-x="869" 
d="M902 439q0 -117 -68 -222.5t-177 -167.5t-225 -62q-137 0 -232 89t-95 225q0 117 67.5 222.5t176.5 167.5t225 62q139 0 233.5 -88.5t94.5 -225.5zM825 426q0 113 -75 186.5t-189 73.5q-146 0 -263.5 -114.5t-117.5 -259.5q0 -111 76 -184.5t188 -73.5q147 0 264 113
t117 259zM762 889l-218 -107l-23 58l220 109z" />
    <glyph glyph-name="Ocircumflex" unicode="&#xd4;" horiz-adv-x="869" 
d="M902 439q0 -117 -68 -222.5t-177 -167.5t-225 -62q-137 0 -232 89t-95 225q0 117 67.5 222.5t176.5 167.5t225 62q139 0 233.5 -88.5t94.5 -225.5zM825 426q0 113 -75 186.5t-189 73.5q-146 0 -263.5 -114.5t-117.5 -259.5q0 -111 76 -184.5t188 -73.5q147 0 264 113
t117 259zM761 802h-89l-72 73l-102 -73h-91l169 125h66z" />
    <glyph glyph-name="Otilde" unicode="&#xd5;" horiz-adv-x="869" 
d="M902 439q0 -117 -68 -222.5t-177 -167.5t-225 -62q-137 0 -232 89t-95 225q0 117 67.5 222.5t176.5 167.5t225 62q139 0 233.5 -88.5t94.5 -225.5zM825 426q0 113 -75 186.5t-189 73.5q-146 0 -263.5 -114.5t-117.5 -259.5q0 -111 76 -184.5t188 -73.5q147 0 264 113
t117 259zM765 853q-60 -39 -105 -39q-32 0 -74.5 20.5t-63.5 20.5q-34 0 -72 -30l-26 50q52 42 112 42q32 0 72.5 -20.5t61.5 -20.5q9 0 19.5 3t15 5t18.5 10t15 8z" />
    <glyph glyph-name="Odieresis" unicode="&#xd6;" horiz-adv-x="869" 
d="M902 439q0 -117 -68 -222.5t-177 -167.5t-225 -62q-137 0 -232 89t-95 225q0 117 67.5 222.5t176.5 167.5t225 62q139 0 233.5 -88.5t94.5 -225.5zM825 426q0 113 -75 186.5t-189 73.5q-146 0 -263.5 -114.5t-117.5 -259.5q0 -111 76 -184.5t188 -73.5q147 0 264 113
t117 259zM717 928l-24 -126h-74l24 126h74zM569 928l-24 -126h-74l24 126h74z" />
    <glyph glyph-name="multiply" unicode="&#xd7;" horiz-adv-x="606" 
d="M612 434l-213 -180l147 -182l-57 -48l-147 182l-216 -182l-39 48l216 182l-148 180l57 48l148 -180l213 180z" />
    <glyph glyph-name="Oslash" unicode="&#xd8;" horiz-adv-x="868" 
d="M929 779l-114 -123q86 -91 86 -219q0 -117 -68 -222t-176.5 -166.5t-224.5 -61.5q-106 0 -191 56l-117 -126l-48 40l116 126q-86 91 -86 220q0 117 68 222t176 166.5t224 61.5q105 0 193 -57l115 123zM826 428q0 97 -64 172l-470 -502q67 -44 153 -44q147 0 264 114
t117 260zM715 641q-70 45 -154 45q-95 0 -183.5 -52t-143 -138.5t-54.5 -182.5q0 -103 65 -174z" />
    <glyph glyph-name="Ugrave" unicode="&#xd9;" horiz-adv-x="655" 
d="M716 740l-85 -461q-18 -93 -57 -154q-42 -65 -107 -101.5t-142 -36.5q-94 0 -150.5 54.5t-56.5 149.5q0 36 9 88l85 461h74l-85 -461q-8 -42 -8 -78q0 -67 38.5 -107t105.5 -40q103 0 170 91q33 45 50 134l85 461h74zM575 840l-43 -58l-178 107l43 60z" />
    <glyph glyph-name="Uacute" unicode="&#xda;" horiz-adv-x="655" 
d="M716 740l-85 -461q-18 -93 -57 -154q-42 -65 -107 -101.5t-142 -36.5q-94 0 -150.5 54.5t-56.5 149.5q0 36 9 88l85 461h74l-85 -461q-8 -42 -8 -78q0 -67 38.5 -107t105.5 -40q103 0 170 91q33 45 50 134l85 461h74zM635 889l-218 -107l-23 58l220 109z" />
    <glyph glyph-name="Ucircumflex" unicode="&#xdb;" horiz-adv-x="655" 
d="M716 740l-85 -461q-18 -93 -57 -154q-42 -65 -107 -101.5t-142 -36.5q-94 0 -150.5 54.5t-56.5 149.5q0 36 9 88l85 461h74l-85 -461q-8 -42 -8 -78q0 -67 38.5 -107t105.5 -40q103 0 170 91q33 45 50 134l85 461h74zM654 802h-89l-72 73l-102 -73h-91l169 125h66z" />
    <glyph glyph-name="Udieresis" unicode="&#xdc;" horiz-adv-x="655" 
d="M716 740l-85 -461q-18 -93 -57 -154q-42 -65 -107 -101.5t-142 -36.5q-94 0 -150.5 54.5t-56.5 149.5q0 36 9 88l85 461h74l-85 -461q-8 -42 -8 -78q0 -67 38.5 -107t105.5 -40q103 0 170 91q33 45 50 134l85 461h74zM610 928l-24 -126h-74l24 126h74zM462 928l-24 -126
h-74l24 126h74z" />
    <glyph glyph-name="Yacute" unicode="&#xdd;" horiz-adv-x="592" 
d="M729 740l-351 -493l-46 -247h-74l46 247l-166 493h82l134 -415l294 415h81zM604 889l-218 -107l-23 58l220 109z" />
    <glyph glyph-name="Thorn" unicode="&#xde;" horiz-adv-x="592" 
d="M622 413q0 -24 -4 -43q-22 -116 -125 -178q-72 -43 -199 -43h-132l-28 -149h-74l137 740h74l-27 -149h132q128 0 183 -43q63 -48 63 -135zM547 400q0 73 -64 105q-37 19 -124 19h-128l-57 -308h127q87 0 132 19q51 21 82.5 66t31.5 99z" />
    <glyph glyph-name="germandbls" unicode="&#xdf;" horiz-adv-x="554" 
d="M578 590q0 -141 -121 -200q109 -41 109 -148q0 -103 -74 -179t-177 -76q-62 0 -106.5 31.5t-55.5 90.5h-2l-20 -109h-70l89 481q24 128 69 180q35 41 86.5 66.5t102.5 25.5q75 0 122.5 -44t47.5 -119zM508 581q0 50 -31 79.5t-81 29.5q-75 0 -124 -66q-33 -44 -52 -143
l-51 -278h51q-3 -17 -3 -32q0 -51 29 -86t79 -35q68 0 118.5 53t50.5 121q0 47 -29 77q-8 8 -18.5 15t-19 11t-23.5 7t-22 4.5t-25 2.5t-23 1h-25h-22l13 67q80 0 135.5 34t69.5 108q3 15 3 30z" />
    <glyph glyph-name="agrave" unicode="&#xe0;" horiz-adv-x="683" 
d="M722 547l-101 -547h-70l18 96h-2q-44 -51 -105 -80t-128 -29q-107 0 -176.5 64t-69.5 170q0 137 107 238.5t245 101.5q64 0 115.5 -27.5t77.5 -82.5h2l17 96h70zM610 315q0 80 -51 131.5t-131 51.5q-109 0 -189.5 -80t-80.5 -189q0 -82 52.5 -130.5t134.5 -48.5
q104 0 184.5 80.5t80.5 184.5zM578 677l-43 -58l-178 107l43 60z" />
    <glyph glyph-name="aacute" unicode="&#xe1;" horiz-adv-x="683" 
d="M722 547l-101 -547h-70l18 96h-2q-44 -51 -105 -80t-128 -29q-107 0 -176.5 64t-69.5 170q0 137 107 238.5t245 101.5q64 0 115.5 -27.5t77.5 -82.5h2l17 96h70zM610 315q0 80 -51 131.5t-131 51.5q-109 0 -189.5 -80t-80.5 -189q0 -82 52.5 -130.5t134.5 -48.5
q104 0 184.5 80.5t80.5 184.5zM598 726l-218 -107l-23 58l220 109z" />
    <glyph glyph-name="acircumflex" unicode="&#xe2;" horiz-adv-x="683" 
d="M722 547l-101 -547h-70l18 96h-2q-44 -51 -105 -80t-128 -29q-107 0 -176.5 64t-69.5 170q0 137 107 238.5t245 101.5q64 0 115.5 -27.5t77.5 -82.5h2l17 96h70zM610 315q0 80 -51 131.5t-131 51.5q-109 0 -189.5 -80t-80.5 -189q0 -82 52.5 -130.5t134.5 -48.5
q104 0 184.5 80.5t80.5 184.5zM637 639h-89l-72 73l-102 -73h-91l169 125h66z" />
    <glyph glyph-name="atilde" unicode="&#xe3;" horiz-adv-x="683" 
d="M722 547l-101 -547h-70l18 96h-2q-44 -51 -105 -80t-128 -29q-107 0 -176.5 64t-69.5 170q0 137 107 238.5t245 101.5q64 0 115.5 -27.5t77.5 -82.5h2l17 96h70zM610 315q0 80 -51 131.5t-131 51.5q-109 0 -189.5 -80t-80.5 -189q0 -82 52.5 -130.5t134.5 -48.5
q104 0 184.5 80.5t80.5 184.5zM642 690q-60 -39 -105 -39q-32 0 -74.5 20.5t-63.5 20.5q-35 0 -72 -30l-26 50q52 42 112 42q32 0 72.5 -20.5t61.5 -20.5q9 0 19.5 3t15 5t18.5 10t15 8z" />
    <glyph glyph-name="adieresis" unicode="&#xe4;" horiz-adv-x="683" 
d="M722 547l-101 -547h-70l18 96h-2q-44 -51 -105 -80t-128 -29q-107 0 -176.5 64t-69.5 170q0 137 107 238.5t245 101.5q64 0 115.5 -27.5t77.5 -82.5h2l17 96h70zM610 315q0 80 -51 131.5t-131 51.5q-109 0 -189.5 -80t-80.5 -189q0 -82 52.5 -130.5t134.5 -48.5
q104 0 184.5 80.5t80.5 184.5zM594 765l-24 -126h-74l24 126h74zM446 765l-24 -126h-74l24 126h74z" />
    <glyph glyph-name="aring" unicode="&#xe5;" horiz-adv-x="683" 
d="M722 547l-101 -547h-70l18 96h-2q-44 -51 -105 -80t-128 -29q-107 0 -176.5 64t-69.5 170q0 137 107 238.5t245 101.5q64 0 115.5 -27.5t77.5 -82.5h2l17 96h70zM610 315q0 80 -51 131.5t-131 51.5q-109 0 -189.5 -80t-80.5 -189q0 -82 52.5 -130.5t134.5 -48.5
q104 0 184.5 80.5t80.5 184.5zM577 723q0 -48 -38.5 -85.5t-86.5 -37.5q-37 0 -61.5 23.5t-24.5 60.5q0 48 38.5 85.5t86.5 37.5q38 0 62 -23.5t24 -60.5zM524 713q0 19 -12 30.5t-31 11.5q-23 0 -42.5 -19t-19.5 -42q0 -18 12.5 -30t30.5 -12q24 0 43 18.5t19 42.5z" />
    <glyph glyph-name="ae" unicode="&#xe6;" horiz-adv-x="1157" 
d="M1169 325q0 -13 -10 -78h-495q-1 -8 -1 -23q0 -75 51 -124.5t126 -49.5q65 0 126.5 36t91.5 92h70q-39 -82 -124 -136.5t-175 -54.5q-62 0 -116 29t-78 83h-2l-18 -99h-70l18 99h-2q-95 -112 -237 -112q-107 0 -175.5 66t-68.5 172q0 27 4 47q10 54 46 113
q50 81 129.5 128.5t171.5 47.5q68 0 120.5 -28t74.5 -87h2l18 101h70l-18 -101h2q37 51 103 83t131 32q101 0 168 -67.5t67 -168.5zM1100 318q2 79 -48 129.5t-129 50.5q-82 0 -150.5 -54t-97.5 -134h425v8zM602 317q0 81 -51 131t-132 50q-104 0 -186.5 -82t-82.5 -186
q0 -79 53 -129.5t132 -50.5q107 0 187 80t80 187z" />
    <glyph glyph-name="ccedilla" unicode="&#xe7;" horiz-adv-x="647" 
d="M678 382h-77q-19 56 -65.5 86t-106.5 30q-107 0 -189 -80t-82 -186q0 -82 53 -132t135 -50q64 0 120 29t94 82h77q-121 -170 -298 -173l-30 -44q11 4 33 4q28 0 43.5 -19t15.5 -47q0 -45 -32.5 -74.5t-77.5 -29.5q-33 0 -51 20.5t-18 54.5v2l42 2q0 -18 10.5 -30
t28.5 -12q25 0 40.5 19.5t15.5 44.5q0 35 -40 35q-26 0 -43 -19l-33 21l53 74q-93 10 -151 73.5t-58 157.5q0 134 108.5 237t243.5 103q89 0 154.5 -47t84.5 -132z" />
    <glyph glyph-name="egrave" unicode="&#xe8;" horiz-adv-x="650" 
d="M664 319q0 -23 -5 -51q-1 -4 -3 -10.5t-2 -9.5h-498q-2 -16 -2 -25q0 -73 52 -123t125 -50q67 0 128 35.5t92 93.5h74q-45 -84 -128 -138t-176 -54q-102 0 -169.5 66t-67.5 167q0 132 105 236.5t237 104.5q105 0 171.5 -68.5t66.5 -173.5zM595 315q1 80 -49.5 131.5
t-130.5 51.5q-82 0 -151 -53.5t-96 -133.5h427v4zM561 677l-43 -58l-178 107l43 60z" />
    <glyph glyph-name="eacute" unicode="&#xe9;" horiz-adv-x="650" 
d="M664 319q0 -23 -5 -51q-1 -4 -3 -10.5t-2 -9.5h-498q-2 -16 -2 -25q0 -73 52 -123t125 -50q67 0 128 35.5t92 93.5h74q-45 -84 -128 -138t-176 -54q-102 0 -169.5 66t-67.5 167q0 132 105 236.5t237 104.5q105 0 171.5 -68.5t66.5 -173.5zM595 315q1 80 -49.5 131.5
t-130.5 51.5q-82 0 -151 -53.5t-96 -133.5h427v4zM582 726l-218 -107l-23 58l220 109z" />
    <glyph glyph-name="ecircumflex" unicode="&#xea;" horiz-adv-x="650" 
d="M664 319q0 -23 -5 -51q-1 -4 -3 -10.5t-2 -9.5h-498q-2 -16 -2 -25q0 -73 52 -123t125 -50q67 0 128 35.5t92 93.5h74q-45 -84 -128 -138t-176 -54q-102 0 -169.5 66t-67.5 167q0 132 105 236.5t237 104.5q105 0 171.5 -68.5t66.5 -173.5zM595 315q1 80 -49.5 131.5
t-130.5 51.5q-82 0 -151 -53.5t-96 -133.5h427v4zM620 639h-89l-72 73l-102 -73h-91l169 125h66z" />
    <glyph glyph-name="edieresis" unicode="&#xeb;" horiz-adv-x="650" 
d="M664 319q0 -23 -5 -51q-1 -4 -3 -10.5t-2 -9.5h-498q-2 -16 -2 -25q0 -73 52 -123t125 -50q67 0 128 35.5t92 93.5h74q-45 -84 -128 -138t-176 -54q-102 0 -169.5 66t-67.5 167q0 132 105 236.5t237 104.5q105 0 171.5 -68.5t66.5 -173.5zM595 315q1 80 -49.5 131.5
t-130.5 51.5q-82 0 -151 -53.5t-96 -133.5h427v4zM578 765l-24 -126h-74l24 126h74zM430 765l-24 -126h-74l24 126h74z" />
    <glyph glyph-name="igrave" unicode="&#xec;" horiz-adv-x="200" 
d="M236 547l-101 -547h-70l101 547h70zM296 677l-43 -58l-178 107l43 60z" />
    <glyph glyph-name="iacute" unicode="&#xed;" horiz-adv-x="200" 
d="M236 547l-101 -547h-70l101 547h70zM396 726l-218 -107l-23 58l220 109z" />
    <glyph glyph-name="icircumflex" unicode="&#xee;" horiz-adv-x="200" 
d="M236 547l-101 -547h-70l101 547h70zM395 639h-89l-72 73l-102 -73h-91l169 125h66z" />
    <glyph glyph-name="idieresis" unicode="&#xef;" horiz-adv-x="200" 
d="M236 547l-101 -547h-70l101 547h70zM353 765l-24 -126h-74l24 126h74zM205 765l-24 -126h-74l24 126h74z" />
    <glyph glyph-name="eth" unicode="&#xf0;" horiz-adv-x="655" 
d="M675 369q0 -40 -8 -83q-24 -124 -121 -211t-221 -87q-104 0 -170.5 65.5t-66.5 169.5q0 131 103 233t234 102q81 0 138 -46l2 2q-36 66 -123 124l-166 -61l-43 39l155 55q-55 32 -108 49l85 33q48 -15 109 -51l143 51l41 -37l-134 -49q151 -124 151 -298zM600 323
q0 77 -53 124.5t-131 47.5q-105 0 -181.5 -80.5t-76.5 -186.5q0 -76 50 -126.5t127 -50.5q106 0 185.5 83t79.5 189z" />
    <glyph glyph-name="ntilde" unicode="&#xf1;" horiz-adv-x="610" 
d="M609 370q0 -29 -7 -69l-56 -301h-70l56 301q5 30 5 54q0 66 -37 104.5t-103 38.5q-68 0 -127 -47q-60 -49 -78 -145l-57 -306h-70l101 547h70l-13 -70h2q34 40 82.5 62t101.5 22q92 0 146 -50t54 -141zM606 690q-60 -39 -105 -39q-32 0 -74.5 20.5t-63.5 20.5
q-35 0 -72 -30l-26 50q52 42 112 42q32 0 72.5 -20.5t61.5 -20.5q9 0 19.5 3t15 5t18.5 10t15 8z" />
    <glyph glyph-name="ograve" unicode="&#xf2;" horiz-adv-x="655" 
d="M670 324q0 -131 -106.5 -234t-238.5 -103q-102 0 -169.5 66.5t-67.5 168.5q0 131 105.5 235t237.5 104q102 0 170.5 -67.5t68.5 -169.5zM599 320q0 75 -52 126.5t-127 51.5q-103 0 -182.5 -82.5t-79.5 -185.5q0 -77 51 -128.5t128 -51.5q105 0 183.5 82.5t78.5 187.5z
M564 677l-43 -58l-178 107l43 60z" />
    <glyph glyph-name="oacute" unicode="&#xf3;" horiz-adv-x="655" 
d="M670 324q0 -131 -106.5 -234t-238.5 -103q-102 0 -169.5 66.5t-67.5 168.5q0 131 105.5 235t237.5 104q102 0 170.5 -67.5t68.5 -169.5zM599 320q0 75 -52 126.5t-127 51.5q-103 0 -182.5 -82.5t-79.5 -185.5q0 -77 51 -128.5t128 -51.5q105 0 183.5 82.5t78.5 187.5z
M614 726l-218 -107l-23 58l220 109z" />
    <glyph glyph-name="ocircumflex" unicode="&#xf4;" horiz-adv-x="655" 
d="M670 324q0 -131 -106.5 -234t-238.5 -103q-102 0 -169.5 66.5t-67.5 168.5q0 131 105.5 235t237.5 104q102 0 170.5 -67.5t68.5 -169.5zM599 320q0 75 -52 126.5t-127 51.5q-103 0 -182.5 -82.5t-79.5 -185.5q0 -77 51 -128.5t128 -51.5q105 0 183.5 82.5t78.5 187.5z
M623 639h-89l-72 73l-102 -73h-91l169 125h66z" />
    <glyph glyph-name="otilde" unicode="&#xf5;" horiz-adv-x="655" 
d="M670 324q0 -131 -106.5 -234t-238.5 -103q-102 0 -169.5 66.5t-67.5 168.5q0 131 105.5 235t237.5 104q102 0 170.5 -67.5t68.5 -169.5zM599 320q0 75 -52 126.5t-127 51.5q-103 0 -182.5 -82.5t-79.5 -185.5q0 -77 51 -128.5t128 -51.5q105 0 183.5 82.5t78.5 187.5z
M628 690q-60 -39 -105 -39q-32 0 -74.5 20.5t-63.5 20.5q-35 0 -72 -30l-26 50q52 42 112 42q32 0 72.5 -20.5t61.5 -20.5q9 0 19.5 3t15 5t18.5 10t15 8z" />
    <glyph glyph-name="odieresis" unicode="&#xf6;" horiz-adv-x="655" 
d="M670 324q0 -131 -106.5 -234t-238.5 -103q-102 0 -169.5 66.5t-67.5 168.5q0 131 105.5 235t237.5 104q102 0 170.5 -67.5t68.5 -169.5zM599 320q0 75 -52 126.5t-127 51.5q-103 0 -182.5 -82.5t-79.5 -185.5q0 -77 51 -128.5t128 -51.5q105 0 183.5 82.5t78.5 187.5z
M580 765l-24 -126h-74l24 126h74zM432 765l-24 -126h-74l24 126h74z" />
    <glyph glyph-name="divide" unicode="&#xf7;" horiz-adv-x="606" 
d="M436 519l-23 -126h-74l23 126h74zM608 287l-12 -68h-504l12 68h504zM361 113l-23 -126h-74l23 126h74z" />
    <glyph glyph-name="oslash" unicode="&#xf8;" horiz-adv-x="653" 
d="M703 573l-89 -94q55 -66 55 -156q0 -130 -107 -233t-238 -103q-83 0 -138 42l-88 -93l-47 38l90 95q-54 65 -54 153q0 131 106 235t237 104q79 0 136 -41l90 94zM598 321q0 61 -34 105l-328 -345q43 -31 100 -31q105 0 183.5 83t78.5 188zM518 468q-43 30 -99 30
q-103 0 -182.5 -82.5t-79.5 -185.5q0 -62 35 -107z" />
    <glyph glyph-name="ugrave" unicode="&#xf9;" horiz-adv-x="608" 
d="M642 547l-101 -547h-66l16 85h-2q-32 -47 -83.5 -72.5t-109.5 -25.5q-91 0 -144 46.5t-53 135.5q0 36 8 76l56 302h70l-55 -301q-7 -39 -7 -67q0 -64 35.5 -96.5t100.5 -32.5q71 0 124 44q68 55 88 164l53 289h70zM520 677l-43 -58l-178 107l43 60z" />
    <glyph glyph-name="uacute" unicode="&#xfa;" horiz-adv-x="608" 
d="M642 547l-101 -547h-66l16 85h-2q-32 -47 -83.5 -72.5t-109.5 -25.5q-91 0 -144 46.5t-53 135.5q0 36 8 76l56 302h70l-55 -301q-7 -39 -7 -67q0 -64 35.5 -96.5t100.5 -32.5q71 0 124 44q68 55 88 164l53 289h70zM581 726l-218 -107l-23 58l220 109z" />
    <glyph glyph-name="ucircumflex" unicode="&#xfb;" horiz-adv-x="608" 
d="M642 547l-101 -547h-66l16 85h-2q-32 -47 -83.5 -72.5t-109.5 -25.5q-91 0 -144 46.5t-53 135.5q0 36 8 76l56 302h70l-55 -301q-7 -39 -7 -67q0 -64 35.5 -96.5t100.5 -32.5q71 0 124 44q68 55 88 164l53 289h70zM599 639h-89l-72 73l-102 -73h-91l169 125h66z" />
    <glyph glyph-name="udieresis" unicode="&#xfc;" horiz-adv-x="608" 
d="M642 547l-101 -547h-66l16 85h-2q-32 -47 -83.5 -72.5t-109.5 -25.5q-91 0 -144 46.5t-53 135.5q0 36 8 76l56 302h70l-55 -301q-7 -39 -7 -67q0 -64 35.5 -96.5t100.5 -32.5q71 0 124 44q68 55 88 164l53 289h70zM557 765l-24 -126h-74l24 126h74zM409 765l-24 -126h-74
l24 126h74z" />
    <glyph glyph-name="yacute" unicode="&#xfd;" horiz-adv-x="536" 
d="M624 547l-454 -739h-73l134 210l-115 529h74l94 -436l266 436h74zM545 726l-218 -107l-23 58l220 109z" />
    <glyph glyph-name="thorn" unicode="&#xfe;" horiz-adv-x="682" 
d="M699 326q0 -137 -107 -238t-245 -101q-63 0 -114.5 27.5t-78.5 81.5h-2l-54 -288h-70l173 932h70l-53 -289h2q45 52 105.5 81t127.5 29q107 0 176.5 -64.5t69.5 -170.5zM627 319q0 81 -52 130t-134 49q-104 0 -184 -82t-80 -186q0 -79 51 -129.5t130 -50.5
q110 0 189.5 79.5t79.5 189.5z" />
    <glyph glyph-name="ydieresis" unicode="&#xff;" horiz-adv-x="536" 
d="M624 547l-454 -739h-73l134 210l-115 529h74l94 -436l266 436h74zM521 765l-24 -126h-74l24 126h74zM373 765l-24 -126h-74l24 126h74z" />
    <glyph glyph-name="Amacron" unicode="&#x100;" horiz-adv-x="740" 
d="M729 0h-81l-61 249h-344l-154 -249h-77l453 740h83zM571 316l-79 340l-208 -340h287zM691 898l-12 -67h-338l12 67h338z" />
    <glyph glyph-name="amacron" unicode="&#x101;" horiz-adv-x="683" 
d="M722 547l-101 -547h-70l18 96h-2q-44 -51 -105 -80t-128 -29q-107 0 -176.5 64t-69.5 170q0 137 107 238.5t245 101.5q64 0 115.5 -27.5t77.5 -82.5h2l17 96h70zM610 315q0 80 -51 131.5t-131 51.5q-109 0 -189.5 -80t-80.5 -189q0 -82 52.5 -130.5t134.5 -48.5
q104 0 184.5 80.5t80.5 184.5zM636 706l-12 -67h-338l12 67h338z" />
    <glyph glyph-name="Abreve" unicode="&#x102;" horiz-adv-x="740" 
d="M729 0h-81l-61 249h-344l-154 -249h-77l453 740h83zM571 316l-79 340l-208 -340h287zM691 906q-57 -103 -194 -103t-155 103h65q25 -46 100 -46q77 0 119 46h65z" />
    <glyph glyph-name="abreve" unicode="&#x103;" horiz-adv-x="683" 
d="M722 547l-101 -547h-70l18 96h-2q-44 -51 -105 -80t-128 -29q-107 0 -176.5 64t-69.5 170q0 137 107 238.5t245 101.5q64 0 115.5 -27.5t77.5 -82.5h2l17 96h70zM610 315q0 80 -51 131.5t-131 51.5q-109 0 -189.5 -80t-80.5 -189q0 -82 52.5 -130.5t134.5 -48.5
q104 0 184.5 80.5t80.5 184.5zM646 724q-57 -103 -194 -103t-155 103h65q25 -46 100 -46q77 0 119 46h65z" />
    <glyph glyph-name="Aogonek" unicode="&#x104;" horiz-adv-x="740" 
d="M711 -138l-8 -44q-25 -9 -52 -9q-38 0 -64 19t-26 55q0 38 25 65t68 52h-6l-61 249h-344l-154 -249h-77l453 740h83l181 -740h-23q-26 -17 -41 -28.5t-34 -34.5t-19 -44q0 -19 15 -30t35 -11q22 0 49 10zM571 316l-79 340l-208 -340h287z" />
    <glyph glyph-name="aogonek" unicode="&#x105;" horiz-adv-x="683" 
d="M622 -138l-8 -44q-25 -9 -52 -9q-38 0 -64 19t-26 55q0 38 25 65t68 52h-14l18 96h-2q-44 -51 -105 -80t-128 -29q-107 0 -176.5 64t-69.5 170q0 137 107 238.5t245 101.5q64 0 115.5 -27.5t77.5 -82.5h2l17 96h70l-101 -547h-4q-26 -17 -41 -28.5t-34 -34.5t-19 -44
q0 -19 15 -30t35 -11q22 0 49 10zM610 315q0 80 -51 131.5t-131 51.5q-109 0 -189.5 -80t-80.5 -189q0 -82 52.5 -130.5t134.5 -48.5q104 0 184.5 80.5t80.5 184.5z" />
    <glyph glyph-name="Cacute" unicode="&#x106;" horiz-adv-x="813" 
d="M870 550h-83q-31 65 -94 100t-138 35q-92 0 -179 -53t-141.5 -139.5t-54.5 -178.5q0 -109 75 -184.5t184 -75.5q154 0 285 140h83q-68 -92 -169 -149.5t-210 -57.5q-138 0 -231 87.5t-93 224.5q0 118 65.5 223.5t173 167.5t225.5 62q81 0 151 -33t116 -97q27 -38 35 -72z
M739 898l-218 -107l-23 58l220 109z" />
    <glyph glyph-name="cacute" unicode="&#x107;" horiz-adv-x="647" 
d="M678 382h-77q-19 56 -65.5 86t-106.5 30q-107 0 -189 -80t-82 -186q0 -82 53 -132t135 -50q64 0 120 29t94 82h77q-123 -174 -304 -174q-106 0 -176 64.5t-70 169.5q0 135 108.5 237.5t243.5 102.5q89 0 154.5 -47t84.5 -132zM610 706l-218 -107l-23 58l220 109z" />
    <glyph glyph-name="Ccircumflex" unicode="&#x108;" horiz-adv-x="813" 
d="M870 550h-83q-31 65 -94 100t-138 35q-92 0 -179 -53t-141.5 -139.5t-54.5 -178.5q0 -109 75 -184.5t184 -75.5q154 0 285 140h83q-68 -92 -169 -149.5t-210 -57.5q-138 0 -231 87.5t-93 224.5q0 118 65.5 223.5t173 167.5t225.5 62q81 0 151 -33t116 -97q27 -38 35 -72z
M757 811h-89l-72 73l-102 -73h-91l169 125h66z" />
    <glyph glyph-name="ccircumflex" unicode="&#x109;" horiz-adv-x="647" 
d="M678 382h-77q-19 56 -65.5 86t-106.5 30q-107 0 -189 -80t-82 -186q0 -82 53 -132t135 -50q64 0 120 29t94 82h77q-123 -174 -304 -174q-106 0 -176 64.5t-70 169.5q0 135 108.5 237.5t243.5 102.5q89 0 154.5 -47t84.5 -132zM630 619h-89l-72 73l-102 -73h-91l169 125
h66z" />
    <glyph glyph-name="Cdotaccent" unicode="&#x10a;" horiz-adv-x="813" 
d="M870 550h-83q-31 65 -94 100t-138 35q-92 0 -179 -53t-141.5 -139.5t-54.5 -178.5q0 -109 75 -184.5t184 -75.5q154 0 285 140h83q-68 -92 -169 -149.5t-210 -57.5q-138 0 -231 87.5t-93 224.5q0 118 65.5 223.5t173 167.5t225.5 62q81 0 151 -33t116 -97q27 -38 35 -72z
M641 947l-24 -126h-74l24 126h74z" />
    <glyph glyph-name="cdotaccent" unicode="&#x10b;" horiz-adv-x="647" 
d="M678 382h-77q-19 56 -65.5 86t-106.5 30q-107 0 -189 -80t-82 -186q0 -82 53 -132t135 -50q64 0 120 29t94 82h77q-123 -174 -304 -174q-106 0 -176 64.5t-70 169.5q0 135 108.5 237.5t243.5 102.5q89 0 154.5 -47t84.5 -132zM512 755l-24 -126h-74l24 126h74z" />
    <glyph glyph-name="Ccaron" unicode="&#x10c;" horiz-adv-x="813" 
d="M870 550h-83q-31 65 -94 100t-138 35q-92 0 -179 -53t-141.5 -139.5t-54.5 -178.5q0 -109 75 -184.5t184 -75.5q154 0 285 140h83q-68 -92 -169 -149.5t-210 -57.5q-138 0 -231 87.5t-93 224.5q0 118 65.5 223.5t173 167.5t225.5 62q81 0 151 -33t116 -97q27 -38 35 -72z
M786 926l-167 -125h-67l-121 125h92l72 -73l102 73h89z" />
    <glyph glyph-name="ccaron" unicode="&#x10d;" horiz-adv-x="647" 
d="M678 382h-77q-19 56 -65.5 86t-106.5 30q-107 0 -189 -80t-82 -186q0 -82 53 -132t135 -50q64 0 120 29t94 82h77q-123 -174 -304 -174q-106 0 -176 64.5t-70 169.5q0 135 108.5 237.5t243.5 102.5q89 0 154.5 -47t84.5 -132zM657 734l-167 -125h-67l-121 125h92l72 -73
l102 73h89z" />
    <glyph glyph-name="Dcaron" unicode="&#x10e;" horiz-adv-x="744" 
d="M773 434q0 -126 -64.5 -226t-174.5 -154t-244 -54h-216l137 740h216q154 0 250 -77.5t96 -228.5zM699 426q0 120 -86 190q-44 36 -100 46.5t-133 10.5h-107l-113 -606h138q161 0 281 99.5t120 259.5zM682 926l-167 -125h-67l-121 125h92l72 -73l102 73h89z" />
    <glyph glyph-name="dcaron" unicode="&#x10f;" horiz-adv-x="775" 
d="M755 740l-137 -740h-70l18 96h-2q-43 -51 -105 -80t-128 -29q-107 0 -176.5 64t-69.5 170q0 137 107 238.5t245 101.5q62 0 114 -27.5t79 -80.5h2l53 287h70zM607 315q0 80 -51 131.5t-131 51.5q-109 0 -189.5 -80t-80.5 -189q0 -82 52.5 -130.5t134.5 -48.5
q104 0 184.5 80.5t80.5 184.5zM938 740l-108 -169h-74l108 169h74z" />
    <glyph glyph-name="Dcroat" unicode="&#x110;" horiz-adv-x="790" 
d="M813 434q0 -197 -136 -315.5t-347 -118.5h-216l64 347h-74l13 67h74l60 326h212q157 0 253.5 -77t96.5 -229zM739 426q0 120 -86 190q-44 36 -100 46.5t-133 10.5h-107l-48 -259h210l-13 -67h-210l-52 -280h138q161 0 281 99.5t120 259.5z" />
    <glyph glyph-name="dcroat" unicode="&#x111;" horiz-adv-x="685" 
d="M607 315q0 80 -51 131.5t-131 51.5q-109 0 -189.5 -80t-80.5 -189q0 -82 52.5 -130.5t134.5 -48.5q104 0 184.5 80.5t80.5 184.5zM729 604l-111 -604h-70l18 96h-2q-43 -51 -105 -80t-128 -29q-107 0 -176.5 64t-69.5 170q0 137 107 238.5t245 101.5q62 0 114 -27.5
t79 -80.5h2l27 151h-206l12 63h206l14 73h70l-14 -73h62l-12 -63h-62z" />
    <glyph glyph-name="Emacron" unicode="&#x112;" horiz-adv-x="536" 
d="M612 740l-12 -67h-331l-50 -266h320l-12 -67h-320l-51 -273h331l-12 -67h-405l137 740h405zM599 898l-12 -67h-338l12 67h338z" />
    <glyph glyph-name="emacron" unicode="&#x113;" horiz-adv-x="650" 
d="M664 319q0 -23 -5 -51q-1 -4 -3 -10.5t-2 -9.5h-498q-2 -16 -2 -25q0 -73 52 -123t125 -50q67 0 128 35.5t92 93.5h74q-45 -84 -128 -138t-176 -54q-102 0 -169.5 66t-67.5 167q0 132 105 236.5t237 104.5q105 0 171.5 -68.5t66.5 -173.5zM595 315q1 80 -49.5 131.5
t-130.5 51.5q-82 0 -151 -53.5t-96 -133.5h427v4zM630 706l-12 -67h-338l12 67h338z" />
    <glyph glyph-name="Ebreve" unicode="&#x114;" horiz-adv-x="536" 
d="M612 740l-12 -67h-331l-50 -266h320l-12 -67h-320l-51 -273h331l-12 -67h-405l137 740h405zM619 906q-57 -103 -194 -103t-155 103h65q25 -46 100 -46q77 0 119 46h65z" />
    <glyph glyph-name="ebreve" unicode="&#x115;" horiz-adv-x="650" 
d="M664 319q0 -23 -5 -51q-1 -4 -3 -10.5t-2 -9.5h-498q-2 -16 -2 -25q0 -73 52 -123t125 -50q67 0 128 35.5t92 93.5h74q-45 -84 -128 -138t-176 -54q-102 0 -169.5 66t-67.5 167q0 132 105 236.5t237 104.5q105 0 171.5 -68.5t66.5 -173.5zM595 315q1 80 -49.5 131.5
t-130.5 51.5q-82 0 -151 -53.5t-96 -133.5h427v4zM640 714q-57 -103 -194 -103t-155 103h65q25 -46 100 -46q77 0 119 46h65z" />
    <glyph glyph-name="Edotaccent" unicode="&#x116;" horiz-adv-x="536" 
d="M612 740l-12 -67h-331l-50 -266h320l-12 -67h-320l-51 -273h331l-12 -67h-405l137 740h405zM483 947l-24 -126h-74l24 126h74z" />
    <glyph glyph-name="edotaccent" unicode="&#x117;" horiz-adv-x="650" 
d="M664 319q0 -23 -5 -51q-1 -4 -3 -10.5t-2 -9.5h-498q-2 -16 -2 -25q0 -73 52 -123t125 -50q67 0 128 35.5t92 93.5h74q-45 -84 -128 -138t-176 -54q-102 0 -169.5 66t-67.5 167q0 132 105 236.5t237 104.5q105 0 171.5 -68.5t66.5 -173.5zM595 315q1 80 -49.5 131.5
t-130.5 51.5q-82 0 -151 -53.5t-96 -133.5h427v4zM504 755l-24 -126h-74l24 126h74z" />
    <glyph glyph-name="Eogonek" unicode="&#x118;" horiz-adv-x="536" 
d="M445 -138l-8 -44q-25 -9 -52 -9q-38 0 -64 19t-26 55q0 38 25 65t68 52h-318l137 740h405l-12 -67h-331l-50 -266h320l-12 -67h-320l-51 -273h331l-12 -67h-35q-26 -17 -41 -28.5t-34 -34.5t-19 -44q0 -19 15 -30t35 -11q22 0 49 10z" />
    <glyph glyph-name="eogonek" unicode="&#x119;" horiz-adv-x="650" 
d="M406 -138l-8 -44q-25 -9 -52 -9q-38 0 -64 19t-26 55q0 59 72 104h-7q-102 0 -169.5 66t-67.5 167q0 132 105 236.5t237 104.5q105 0 171.5 -68.5t66.5 -173.5q0 -23 -5 -51q-1 -4 -3 -10.5t-2 -9.5h-498q-2 -16 -2 -25q0 -73 52 -123t125 -50q67 0 128 35.5t92 93.5h74
q-36 -66 -97 -115t-133 -67q-88 -60 -88 -104q0 -19 15 -30t35 -11q22 0 49 10zM595 315q1 80 -49.5 131.5t-130.5 51.5q-82 0 -151 -53.5t-96 -133.5h427v4z" />
    <glyph glyph-name="Ecaron" unicode="&#x11a;" horiz-adv-x="536" 
d="M612 740l-12 -67h-331l-50 -266h320l-12 -67h-320l-51 -273h331l-12 -67h-405l137 740h405zM619 926l-167 -125h-67l-121 125h92l72 -73l102 73h89z" />
    <glyph glyph-name="ecaron" unicode="&#x11b;" horiz-adv-x="650" 
d="M664 319q0 -23 -5 -51q-1 -4 -3 -10.5t-2 -9.5h-498q-2 -16 -2 -25q0 -73 52 -123t125 -50q67 0 128 35.5t92 93.5h74q-45 -84 -128 -138t-176 -54q-102 0 -169.5 66t-67.5 167q0 132 105 236.5t237 104.5q105 0 171.5 -68.5t66.5 -173.5zM595 315q1 80 -49.5 131.5
t-130.5 51.5q-82 0 -151 -53.5t-96 -133.5h427v4zM639 734l-167 -125h-67l-121 125h92l72 -73l102 73h89z" />
    <glyph glyph-name="Gcircumflex" unicode="&#x11c;" horiz-adv-x="872" 
d="M891 340q-39 -149 -170.5 -251t-285.5 -102q-140 0 -236 89.5t-96 228.5q0 33 6 65q30 160 167 271.5t300 111.5q82 0 153 -32.5t119 -95.5q31 -44 39 -82h-86q-27 68 -93.5 105.5t-143.5 37.5q-96 0 -185.5 -51t-145.5 -138t-56 -183q0 -116 78 -188t195 -72
q102 0 200.5 63t139.5 156h-413l12 67h502zM767 811h-89l-72 73l-102 -73h-91l169 125h66z" />
    <glyph glyph-name="gcircumflex" unicode="&#x11d;" horiz-adv-x="673" 
d="M707 547l-85 -461q-12 -66 -30.5 -112.5t-56.5 -87.5q-43 -46 -107 -73.5t-129 -27.5q-100 0 -166 52t-77 149h74q15 -67 62.5 -102.5t117.5 -35.5q93 0 155.5 56t80.5 148l9 48h-2q-38 -53 -101.5 -83t-130.5 -30q-101 0 -170 64.5t-69 165.5q0 134 105.5 239t239.5 105
q63 0 114 -28.5t76 -83.5h2l18 98h70zM595 315q0 79 -50.5 131t-129.5 52q-103 0 -182 -82t-79 -185q0 -78 50 -129.5t128 -51.5q102 0 182.5 81.5t80.5 183.5zM621 619h-89l-72 73l-102 -73h-91l169 125h66z" />
    <glyph glyph-name="Gbreve" unicode="&#x11e;" horiz-adv-x="872" 
d="M891 340q-39 -149 -170.5 -251t-285.5 -102q-140 0 -236 89.5t-96 228.5q0 33 6 65q30 160 167 271.5t300 111.5q82 0 153 -32.5t119 -95.5q31 -44 39 -82h-86q-27 68 -93.5 105.5t-143.5 37.5q-96 0 -185.5 -51t-145.5 -138t-56 -183q0 -116 78 -188t195 -72
q102 0 200.5 63t139.5 156h-413l12 67h502zM787 906q-57 -103 -194 -103t-155 103h65q25 -46 100 -46q77 0 119 46h65z" />
    <glyph glyph-name="gbreve" unicode="&#x11f;" horiz-adv-x="673" 
d="M707 547l-85 -461q-12 -66 -30.5 -112.5t-56.5 -87.5q-43 -46 -107 -73.5t-129 -27.5q-100 0 -166 52t-77 149h74q15 -67 62.5 -102.5t117.5 -35.5q93 0 155.5 56t80.5 148l9 48h-2q-38 -53 -101.5 -83t-130.5 -30q-101 0 -170 64.5t-69 165.5q0 134 105.5 239t239.5 105
q63 0 114 -28.5t76 -83.5h2l18 98h70zM595 315q0 79 -50.5 131t-129.5 52q-103 0 -182 -82t-79 -185q0 -78 50 -129.5t128 -51.5q102 0 182.5 81.5t80.5 183.5zM641 714q-57 -103 -194 -103t-155 103h65q25 -46 100 -46q77 0 119 46h65z" />
    <glyph glyph-name="Gdotaccent" unicode="&#x120;" horiz-adv-x="872" 
d="M891 340q-39 -149 -170.5 -251t-285.5 -102q-140 0 -236 89.5t-96 228.5q0 33 6 65q30 160 167 271.5t300 111.5q82 0 153 -32.5t119 -95.5q31 -44 39 -82h-86q-27 68 -93.5 105.5t-143.5 37.5q-96 0 -185.5 -51t-145.5 -138t-56 -183q0 -116 78 -188t195 -72
q102 0 200.5 63t139.5 156h-413l12 67h502zM651 947l-24 -126h-74l24 126h74z" />
    <glyph glyph-name="gdotaccent" unicode="&#x121;" horiz-adv-x="673" 
d="M707 547l-85 -461q-12 -66 -30.5 -112.5t-56.5 -87.5q-43 -46 -107 -73.5t-129 -27.5q-100 0 -166 52t-77 149h74q15 -67 62.5 -102.5t117.5 -35.5q93 0 155.5 56t80.5 148l9 48h-2q-38 -53 -101.5 -83t-130.5 -30q-101 0 -170 64.5t-69 165.5q0 134 105.5 239t239.5 105
q63 0 114 -28.5t76 -83.5h2l18 98h70zM595 315q0 79 -50.5 131t-129.5 52q-103 0 -182 -82t-79 -185q0 -78 50 -129.5t128 -51.5q102 0 182.5 81.5t80.5 183.5zM505 755l-24 -126h-74l24 126h74z" />
    <glyph glyph-name="Gcommaaccent" unicode="&#x122;" horiz-adv-x="872" 
d="M891 340q-39 -149 -170.5 -251t-285.5 -102q-140 0 -236 89.5t-96 228.5q0 33 6 65q30 160 167 271.5t300 111.5q82 0 153 -32.5t119 -95.5q31 -44 39 -82h-86q-27 68 -93.5 105.5t-143.5 37.5q-96 0 -185.5 -51t-145.5 -138t-56 -183q0 -116 78 -188t195 -72
q102 0 200.5 63t139.5 156h-413l12 67h502zM471 -53l-108 -169h-74l108 169h74z" />
    <glyph glyph-name="gcommaaccent" unicode="&#x123;" horiz-adv-x="673" 
d="M707 547l-85 -461q-12 -66 -30.5 -112.5t-56.5 -87.5q-43 -46 -107 -73.5t-129 -27.5q-100 0 -166 52t-77 149h74q15 -67 62.5 -102.5t117.5 -35.5q93 0 155.5 56t80.5 148l9 48h-2q-38 -53 -101.5 -83t-130.5 -30q-101 0 -170 64.5t-69 165.5q0 134 105.5 239t239.5 105
q63 0 114 -28.5t76 -83.5h2l18 98h70zM595 315q0 79 -50.5 131t-129.5 52q-103 0 -182 -82t-79 -185q0 -78 50 -129.5t128 -51.5q102 0 182.5 81.5t80.5 183.5zM560 765l-108 -169h-74l108 169h74z" />
    <glyph glyph-name="Hcircumflex" unicode="&#x124;" horiz-adv-x="683" 
d="M744 740l-137 -740h-74l64 347h-383l-64 -347h-74l137 740h74l-60 -326h383l60 326h74zM662 811h-89l-72 73l-102 -73h-91l169 125h66z" />
    <glyph glyph-name="hcircumflex" unicode="&#x125;" horiz-adv-x="610" 
d="M606 370q0 -29 -7 -69l-56 -301h-70l56 301q5 30 5 54q0 66 -37 104.5t-103 38.5q-68 0 -127 -47q-60 -49 -78 -145l-57 -306h-70l137 740h70l-49 -263h2q34 40 82.5 62t101.5 22q92 0 146 -50t54 -141zM471 811h-89l-72 73l-102 -73h-91l169 125h66z" />
    <glyph glyph-name="Hbar" unicode="&#x126;" horiz-adv-x="683" 
d="M744 740l-27 -146h76l-13 -67h-76l-97 -527h-74l64 347h-383l-64 -347h-74l97 527h-76l13 67h76l27 146h74l-27 -146h383l27 146h74zM227 414h383l21 113h-383z" />
    <glyph glyph-name="hbar" unicode="&#x127;" horiz-adv-x="610" 
d="M173 604h-62l12 63h62l14 73h70l-14 -73h206l-12 -63h-206l-23 -127h2q34 40 82.5 62t101.5 22q92 0 146 -50t54 -141q0 -29 -7 -69l-56 -301h-70l56 301q5 30 5 54q0 66 -37 104.5t-103 38.5q-68 0 -127 -47q-60 -49 -78 -145l-57 -306h-70z" />
    <glyph glyph-name="Itilde" unicode="&#x128;" horiz-adv-x="226" 
d="M287 740l-137 -740h-74l137 740h74zM430 852q-60 -39 -105 -39q-32 0 -74.5 20.5t-63.5 20.5q-35 0 -72 -30l-26 50q52 42 112 42q32 0 72.5 -20.5t61.5 -20.5q9 0 19.5 3t15 5t18.5 10t15 8z" />
    <glyph glyph-name="itilde" unicode="&#x129;" horiz-adv-x="200" 
d="M236 547l-101 -547h-70l101 547h70zM381 660q-60 -39 -105 -39q-32 0 -74.5 20.5t-63.5 20.5q-34 0 -72 -30l-26 50q52 42 112 42q32 0 72.5 -20.5t61.5 -20.5q9 0 19.5 3t15 5t18.5 10t15 8z" />
    <glyph glyph-name="Imacron" unicode="&#x12a;" horiz-adv-x="226" 
d="M287 740l-137 -740h-74l137 740h74zM434 898l-12 -67h-338l12 67h338z" />
    <glyph glyph-name="imacron" unicode="&#x12b;" horiz-adv-x="200" 
d="M236 547l-101 -547h-70l101 547h70zM385 706l-12 -67h-338l12 67h338z" />
    <glyph glyph-name="Ibreve" unicode="&#x12c;" horiz-adv-x="226" 
d="M287 740l-137 -740h-74l137 740h74zM444 906q-57 -103 -194 -103t-155 103h65q25 -46 100 -46q77 0 119 46h65z" />
    <glyph glyph-name="ibreve" unicode="&#x12d;" horiz-adv-x="200" 
d="M236 547l-101 -547h-70l101 547h70zM395 714q-57 -103 -194 -103t-155 103h65q25 -46 100 -46q77 0 119 46h65z" />
    <glyph glyph-name="Iogonek" unicode="&#x12e;" horiz-adv-x="226" 
d="M148 -138l-8 -44q-26 -9 -52 -9q-38 0 -64 19t-26 55q0 38 25 65t68 52h-15l137 740h74l-137 -740h-7q-26 -17 -41 -28.5t-34 -34.5t-19 -44q0 -19 15 -30t35 -11q22 0 49 10z" />
    <glyph glyph-name="iogonek" unicode="&#x12f;" horiz-adv-x="200" 
d="M135 -138l-8 -44q-26 -9 -52 -9q-38 0 -64 19t-26 55q0 38 25 65t68 52h-13l101 547h70l-101 -547h-5q-26 -17 -41 -28.5t-34 -34.5t-19 -44q0 -19 15 -30t35 -11q22 0 49 10zM272 740l-23 -126h-70l23 126h70z" />
    <glyph glyph-name="Idotaccent" unicode="&#x130;" horiz-adv-x="226" 
d="M287 740l-137 -740h-74l137 740h74zM328 947l-24 -126h-74l24 126h74z" />
    <glyph glyph-name="dotlessi" unicode="&#x131;" horiz-adv-x="200" 
d="M236 547l-101 -547h-70l101 547h70z" />
    <glyph glyph-name="IJ" unicode="&#x132;" horiz-adv-x="708" 
d="M287 740l-137 -740h-74l137 740h74zM765 740l-93 -505q-18 -97 -46 -141q-31 -51 -83 -79t-112 -28q-73 0 -120.5 42.5t-47.5 114.5q0 12 2 32h73q-1 -6 -1 -18q0 -48 29.5 -76t77.5 -28q39 0 67 14.5t44.5 42t25.5 55t16 66.5l94 508h74z" />
    <glyph glyph-name="ij" unicode="&#x133;" horiz-adv-x="403" 
d="M272 740l-23 -126h-70l23 126h70zM236 547l-101 -547h-70l101 547h70zM474 740l-23 -126h-70l23 126h70zM438 547l-94 -509q-13 -69 -31.5 -111t-62.5 -75q-56 -43 -130 -44l13 69q67 2 97 44t44 117l94 509h70z" />
    <glyph glyph-name="Jcircumflex" unicode="&#x134;" horiz-adv-x="482" 
d="M539 740l-93 -505q-18 -97 -46 -141q-31 -51 -83 -79t-112 -28q-73 0 -120.5 42.5t-47.5 114.5q0 12 2 32h73q-1 -6 -1 -18q0 -48 29.5 -76t77.5 -28q39 0 67 14.5t44.5 42t25.5 55t16 66.5l94 508h74zM648 782h-89l-72 73l-102 -73h-91l169 125h66z" />
    <glyph glyph-name="jcircumflex" unicode="&#x135;" horiz-adv-x="203" 
d="M238 547l-94 -509q-13 -69 -31.5 -111t-62.5 -75q-56 -43 -130 -44l13 69q67 2 97 44t44 117l94 509h70zM384 619h-89l-72 73l-102 -73h-91l169 125h66z" />
    <glyph glyph-name="Kcommaaccent" unicode="&#x136;" horiz-adv-x="591" 
d="M728 740l-360 -361l223 -379h-93l-188 321l-117 -118l-38 -203h-74l137 740h74l-79 -425h2l418 425h95zM341 -53l-108 -169h-74l108 169h74z" />
    <glyph glyph-name="kcommaaccent" unicode="&#x137;" horiz-adv-x="502" 
d="M588 547l-267 -276l177 -271h-90l-140 216l-109 -112l-19 -104h-70l137 740h70l-98 -527h2l317 334h90zM297 -53l-108 -169h-74l108 169h74z" />
    <glyph glyph-name="kgreenlandic" unicode="&#x138;" horiz-adv-x="506" 
d="M498 0h-90l-160 228l-79 -71l-29 -157h-70l101 547h70l-55 -296h2l325 296h90l-299 -268z" />
    <glyph glyph-name="Lacute" unicode="&#x139;" horiz-adv-x="462" 
d="M474 67l-12 -67h-380l137 740h74l-125 -673h306zM430 878l-218 -107l-23 58l220 109z" />
    <glyph glyph-name="lacute" unicode="&#x13a;" horiz-adv-x="200" 
d="M272 740l-137 -740h-70l137 740h70zM415 888l-218 -107l-23 58l220 109z" />
    <glyph glyph-name="Lcommaaccent" unicode="&#x13b;" horiz-adv-x="462" 
d="M474 67l-12 -67h-380l137 740h74l-125 -673h306zM307 -53l-108 -169h-74l108 169h74z" />
    <glyph glyph-name="lcommaaccent" unicode="&#x13c;" horiz-adv-x="200" 
d="M272 740l-137 -740h-70l137 740h70zM139 -53l-108 -169h-74l108 169h74z" />
    <glyph glyph-name="Lcaron" unicode="&#x13d;" horiz-adv-x="462" 
d="M474 67l-12 -67h-380l137 740h74l-125 -673h306zM554 740l-108 -169h-74l108 169h74z" />
    <glyph glyph-name="lcaron" unicode="&#x13e;" horiz-adv-x="299" 
d="M272 740l-137 -740h-70l137 740h70zM462 740l-108 -169h-74l108 169h74z" />
    <glyph glyph-name="Ldot" unicode="&#x13f;" horiz-adv-x="491" 
d="M474 67l-12 -67h-380l137 740h74l-125 -673h306zM471 439l-24 -126h-74l24 126h74z" />
    <glyph glyph-name="ldot" unicode="&#x140;" horiz-adv-x="274" 
d="M272 740l-137 -740h-70l137 740h70zM353 415l-24 -126h-74l24 126h74z" />
    <glyph glyph-name="Lslash" unicode="&#x141;" horiz-adv-x="517" 
d="M529 67l-12 -67h-380l58 313l-88 -56l14 77l88 56l65 350h74l-55 -296l174 111l-14 -77l-174 -111l-56 -300h306z" />
    <glyph glyph-name="lslash" unicode="&#x142;" horiz-adv-x="300" 
d="M354 511l-13 -70l-86 -55l-72 -386h-70l62 335l-80 -52l14 71l79 51l62 335h70l-52 -284z" />
    <glyph glyph-name="Nacute" unicode="&#x143;" horiz-adv-x="740" 
d="M801 740l-137 -740h-74l-318 651h-2l-121 -651h-74l137 740h100l299 -614h2l114 614h74zM693 888l-218 -107l-23 58l220 109z" />
    <glyph glyph-name="nacute" unicode="&#x144;" horiz-adv-x="610" 
d="M609 370q0 -29 -7 -69l-56 -301h-70l56 301q5 30 5 54q0 66 -37 104.5t-103 38.5q-68 0 -127 -47q-60 -49 -78 -145l-57 -306h-70l101 547h70l-13 -70h2q34 40 82.5 62t101.5 22q92 0 146 -50t54 -141zM582 706l-218 -107l-23 58l220 109z" />
    <glyph glyph-name="Ncommaaccent" unicode="&#x145;" horiz-adv-x="740" 
d="M801 740l-137 -740h-74l-318 651h-2l-121 -651h-74l137 740h100l299 -614h2l114 614h74zM405 -53l-108 -169h-74l108 169h74z" />
    <glyph glyph-name="ncommaaccent" unicode="&#x146;" horiz-adv-x="610" 
d="M609 370q0 -29 -7 -69l-56 -301h-70l56 301q5 30 5 54q0 66 -37 104.5t-103 38.5q-68 0 -127 -47q-60 -49 -78 -145l-57 -306h-70l101 547h70l-13 -70h2q34 40 82.5 62t101.5 22q92 0 146 -50t54 -141zM345 -53l-108 -169h-74l108 169h74z" />
    <glyph glyph-name="Ncaron" unicode="&#x147;" horiz-adv-x="740" 
d="M801 740l-137 -740h-74l-318 651h-2l-121 -651h-74l137 740h100l299 -614h2l114 614h74zM720 926l-167 -125h-67l-121 125h92l72 -73l102 73h89z" />
    <glyph glyph-name="ncaron" unicode="&#x148;" horiz-adv-x="610" 
d="M609 370q0 -29 -7 -69l-56 -301h-70l56 301q5 30 5 54q0 66 -37 104.5t-103 38.5q-68 0 -127 -47q-60 -49 -78 -145l-57 -306h-70l101 547h70l-13 -70h2q34 40 82.5 62t101.5 22q92 0 146 -50t54 -141zM609 734l-167 -125h-67l-121 125h92l72 -73l102 73h89z" />
    <glyph glyph-name="napostrophe" unicode="&#x149;" horiz-adv-x="620" 
d="M619 370q0 -29 -7 -69l-56 -301h-70l56 301q5 30 5 54q0 66 -37 104.5t-103 38.5q-68 0 -127 -47q-60 -49 -78 -145l-57 -306h-70l101 547h70l-13 -70h2q34 40 82.5 62t101.5 22q92 0 146 -50t54 -141zM223 740l-124 -194h-74l124 194h74z" />
    <glyph glyph-name="Eng" unicode="&#x14a;" horiz-adv-x="740" 
d="M668 26q-11 -60 -30 -101t-62 -73q-58 -44 -133 -44l13 73q57 2 87.5 33.5t44.5 85.5l-317 651h-2l-120 -651h-74l137 740h100l298 -617h2l115 617h74z" />
    <glyph glyph-name="eng" unicode="&#x14b;" horiz-adv-x="610" 
d="M609 370q0 -29 -7 -69l-52 -275q-11 -60 -30 -101t-62 -73q-56 -43 -129 -44l13 69q66 2 96.5 44.5t45.5 121.5l48 257q5 24 5 55q0 66 -37 104.5t-103 38.5q-68 0 -127 -47q-60 -49 -78 -145l-57 -306h-70l101 547h70l-13 -70h2q34 40 82.5 62t101.5 22q92 0 146 -50
t54 -141z" />
    <glyph glyph-name="Omacron" unicode="&#x14c;" horiz-adv-x="869" 
d="M902 439q0 -117 -68 -222.5t-177 -167.5t-225 -62q-137 0 -232 89t-95 225q0 117 67.5 222.5t176.5 167.5t225 62q139 0 233.5 -88.5t94.5 -225.5zM825 426q0 113 -75 186.5t-189 73.5q-146 0 -263.5 -114.5t-117.5 -259.5q0 -111 76 -184.5t188 -73.5q147 0 264 113
t117 259zM775 898l-12 -67h-338l12 67h338z" />
    <glyph glyph-name="omacron" unicode="&#x14d;" horiz-adv-x="655" 
d="M670 324q0 -131 -106.5 -234t-238.5 -103q-102 0 -169.5 66.5t-67.5 168.5q0 131 105.5 235t237.5 104q102 0 170.5 -67.5t68.5 -169.5zM599 320q0 75 -52 126.5t-127 51.5q-103 0 -182.5 -82.5t-79.5 -185.5q0 -77 51 -128.5t128 -51.5q105 0 183.5 82.5t78.5 187.5z
M632 706l-12 -67h-338l12 67h338z" />
    <glyph glyph-name="Obreve" unicode="&#x14e;" horiz-adv-x="869" 
d="M902 439q0 -117 -68 -222.5t-177 -167.5t-225 -62q-137 0 -232 89t-95 225q0 117 67.5 222.5t176.5 167.5t225 62q139 0 233.5 -88.5t94.5 -225.5zM825 426q0 113 -75 186.5t-189 73.5q-146 0 -263.5 -114.5t-117.5 -259.5q0 -111 76 -184.5t188 -73.5q147 0 264 113
t117 259zM785 906q-57 -103 -194 -103t-155 103h65q25 -46 100 -46q77 0 119 46h65z" />
    <glyph glyph-name="obreve" unicode="&#x14f;" horiz-adv-x="655" 
d="M670 324q0 -131 -106.5 -234t-238.5 -103q-102 0 -169.5 66.5t-67.5 168.5q0 131 105.5 235t237.5 104q102 0 170.5 -67.5t68.5 -169.5zM599 320q0 75 -52 126.5t-127 51.5q-103 0 -182.5 -82.5t-79.5 -185.5q0 -77 51 -128.5t128 -51.5q105 0 183.5 82.5t78.5 187.5z
M642 714q-57 -103 -194 -103t-155 103h65q25 -46 100 -46q77 0 119 46h65z" />
    <glyph glyph-name="Ohungarumlaut" unicode="&#x150;" horiz-adv-x="869" 
d="M902 439q0 -117 -68 -222.5t-177 -167.5t-225 -62q-137 0 -232 89t-95 225q0 117 67.5 222.5t176.5 167.5t225 62q139 0 233.5 -88.5t94.5 -225.5zM825 426q0 113 -75 186.5t-189 73.5q-146 0 -263.5 -114.5t-117.5 -259.5q0 -111 76 -184.5t188 -73.5q147 0 264 113
t117 259zM827 932l-189 -135l-29 46l187 135zM652 932l-189 -135l-29 46l186 135z" />
    <glyph glyph-name="ohungarumlaut" unicode="&#x151;" horiz-adv-x="655" 
d="M670 324q0 -131 -106.5 -234t-238.5 -103q-102 0 -169.5 66.5t-67.5 168.5q0 131 105.5 235t237.5 104q102 0 170.5 -67.5t68.5 -169.5zM599 320q0 75 -52 126.5t-127 51.5q-103 0 -182.5 -82.5t-79.5 -185.5q0 -77 51 -128.5t128 -51.5q105 0 183.5 82.5t78.5 187.5z
M694 740l-189 -135l-29 46l187 135zM519 740l-189 -135l-29 46l186 135z" />
    <glyph glyph-name="OE" unicode="&#x152;" horiz-adv-x="1194" 
d="M1279 740l-12 -67h-317l-50 -267h306l-12 -67h-306l-51 -272h317l-12 -67h-391l28 151h-2q-54 -74 -149.5 -119t-188.5 -45q-142 0 -237 84.5t-95 224.5q0 119 65.5 225.5t173 169t226.5 62.5q56 0 113 -16.5t106.5 -54t67.5 -89.5h2l27 147h391zM826 428
q0 114 -74.5 186t-188.5 72q-151 0 -266 -112.5t-115 -263.5q0 -112 73.5 -184t185.5 -72q97 0 186 51t144 138t55 185z" />
    <glyph glyph-name="oe" unicode="&#x153;" horiz-adv-x="1137" 
d="M1160 319q0 -23 -5 -51q-1 -3 -3 -9.5t-2 -10.5h-497q-2 -16 -2 -24q0 -74 52 -124t126 -50q65 0 126.5 36t91.5 93h74q-43 -83 -127 -137.5t-175 -54.5q-78 0 -139 40t-86 111q-50 -68 -123.5 -109.5t-153.5 -41.5q-102 0 -169.5 66.5t-67.5 168.5q0 131 105.5 235
t237.5 104q77 0 137.5 -40.5t85.5 -111.5q49 68 123.5 110t154.5 42q104 0 170 -69t66 -173zM1092 317q1 79 -49 130t-129 51q-82 0 -150.5 -54t-96.5 -133h425v6zM591 317q0 77 -51 129t-128 52q-103 0 -182.5 -82.5t-79.5 -185.5q0 -77 51 -128.5t128 -51.5
q104 0 183 81.5t79 185.5z" />
    <glyph glyph-name="Racute" unicode="&#x154;" horiz-adv-x="607" 
d="M669 546q0 -107 -79 -185t-187 -85l158 -276h-93l-189 335q121 0 161 11q57 16 99 58.5t52 98.5q3 15 3 30q0 43 -16.5 72t-46 43t-61 19.5t-72.5 5.5h-129l-125 -673h-74l137 740h188q123 0 177 -28q97 -52 97 -166zM606 898l-218 -107l-23 58l220 109z" />
    <glyph glyph-name="racute" unicode="&#x155;" horiz-adv-x="301" 
d="M395 561l-14 -74q-74 -6 -124 -50.5t-63 -116.5l-59 -320h-70l101 547h70l-14 -79h2q29 48 69.5 68.5t101.5 24.5zM457 706l-218 -107l-23 58l220 109z" />
    <glyph glyph-name="Rcommaaccent" unicode="&#x156;" horiz-adv-x="607" 
d="M669 546q0 -107 -79 -185t-187 -85l158 -276h-93l-189 335q121 0 161 11q57 16 99 58.5t52 98.5q3 15 3 30q0 43 -16.5 72t-46 43t-61 19.5t-72.5 5.5h-129l-125 -673h-74l137 740h188q123 0 177 -28q97 -52 97 -166zM331 -53l-108 -169h-74l108 169h74z" />
    <glyph glyph-name="rcommaaccent" unicode="&#x157;" horiz-adv-x="301" 
d="M395 561l-14 -74q-74 -6 -124 -50.5t-63 -116.5l-59 -320h-70l101 547h70l-14 -79h2q29 48 69.5 68.5t101.5 24.5zM146 -53l-108 -169h-74l108 169h74z" />
    <glyph glyph-name="Rcaron" unicode="&#x158;" horiz-adv-x="607" 
d="M669 546q0 -107 -79 -185t-187 -85l158 -276h-93l-189 335q121 0 161 11q57 16 99 58.5t52 98.5q3 15 3 30q0 43 -16.5 72t-46 43t-61 19.5t-72.5 5.5h-129l-125 -673h-74l137 740h188q123 0 177 -28q97 -52 97 -166zM633 926l-167 -125h-67l-121 125h92l72 -73l102 73
h89z" />
    <glyph glyph-name="rcaron" unicode="&#x159;" horiz-adv-x="301" 
d="M395 561l-14 -74q-74 -6 -124 -50.5t-63 -116.5l-59 -320h-70l101 547h70l-14 -79h2q29 48 69.5 68.5t101.5 24.5zM494 734l-167 -125h-67l-121 125h92l72 -73l102 73h89z" />
    <glyph glyph-name="Sacute" unicode="&#x15a;" horiz-adv-x="498" 
d="M561 590q0 -14 -4 -38h-74q2 8 2 25q0 47 -31 78t-77 31q-63 0 -111.5 -45t-48.5 -108q0 -14 4.5 -26.5t10.5 -21.5t18.5 -18t20 -14t25 -11.5t24.5 -9t26 -8t23 -6.5q146 -44 146 -174q0 -103 -81.5 -180t-185.5 -77q-83 0 -137.5 46.5t-54.5 128.5q0 15 4 45h74
q-2 -20 -2 -29q0 -59 34.5 -91.5t93.5 -32.5q70 0 124.5 52.5t54.5 122.5q0 41 -22 68t-55 39t-72 26.5t-72 28t-55 45t-22 77.5q0 99 74.5 169.5t174.5 70.5q75 0 123 -44.5t48 -118.5zM542 898l-218 -107l-23 58l220 109z" />
    <glyph glyph-name="sacute" unicode="&#x15b;" horiz-adv-x="388" 
d="M424 441q0 -26 -3 -29h-70q1 5 1 16q0 31 -18 50.5t-49 19.5q-39 0 -69 -28.5t-30 -67.5q0 -27 21.5 -45t52.5 -29.5t62 -25t52.5 -42t21.5 -71.5q0 -19 -3 -35q-13 -77 -69 -122t-134 -45q-61 0 -100.5 36.5t-39.5 97.5q0 15 4 41h70q-3 -15 -3 -30q0 -39 21 -60.5
t59 -21.5q52 0 87 33t35 85q0 31 -21.5 51t-52.5 32t-62 25t-52.5 39.5t-21.5 65.5q0 74 56 127t131 53q54 0 89 -33.5t35 -86.5zM451 706l-218 -107l-23 58l220 109z" />
    <glyph glyph-name="Scircumflex" unicode="&#x15c;" horiz-adv-x="498" 
d="M561 590q0 -14 -4 -38h-74q2 8 2 25q0 47 -31 78t-77 31q-63 0 -111.5 -45t-48.5 -108q0 -14 4.5 -26.5t10.5 -21.5t18.5 -18t20 -14t25 -11.5t24.5 -9t26 -8t23 -6.5q146 -44 146 -174q0 -103 -81.5 -180t-185.5 -77q-83 0 -137.5 46.5t-54.5 128.5q0 15 4 45h74
q-2 -20 -2 -29q0 -59 34.5 -91.5t93.5 -32.5q70 0 124.5 52.5t54.5 122.5q0 41 -22 68t-55 39t-72 26.5t-72 28t-55 45t-22 77.5q0 99 74.5 169.5t174.5 70.5q75 0 123 -44.5t48 -118.5zM580 811h-89l-72 73l-102 -73h-91l169 125h66z" />
    <glyph glyph-name="scircumflex" unicode="&#x15d;" horiz-adv-x="388" 
d="M424 441q0 -26 -3 -29h-70q1 5 1 16q0 31 -18 50.5t-49 19.5q-39 0 -69 -28.5t-30 -67.5q0 -27 21.5 -45t52.5 -29.5t62 -25t52.5 -42t21.5 -71.5q0 -19 -3 -35q-13 -77 -69 -122t-134 -45q-61 0 -100.5 36.5t-39.5 97.5q0 15 4 41h70q-3 -15 -3 -30q0 -39 21 -60.5
t59 -21.5q52 0 87 33t35 85q0 31 -21.5 51t-52.5 32t-62 25t-52.5 39.5t-21.5 65.5q0 74 56 127t131 53q54 0 89 -33.5t35 -86.5zM479 619h-89l-72 73l-102 -73h-91l169 125h66z" />
    <glyph glyph-name="Scedilla" unicode="&#x15e;" horiz-adv-x="498" 
d="M308 -118q0 -45 -32.5 -74.5t-77.5 -29.5q-33 0 -51 20.5t-18 54.5v2l42 2q0 -18 10.5 -30t28.5 -12q25 0 40.5 19.5t15.5 44.5q0 35 -40 35q-24 0 -43 -19l-33 21l54 75q-67 11 -107.5 55.5t-40.5 115.5q0 15 4 45h74q-2 -20 -2 -29q0 -59 34.5 -91.5t93.5 -32.5
q70 0 124.5 52.5t54.5 122.5q0 41 -22 68t-55 39t-72 26.5t-72 28t-55 45t-22 77.5q0 99 74.5 169.5t174.5 70.5q75 0 123 -44.5t48 -118.5q0 -14 -4 -38h-74q2 8 2 25q0 47 -31 78t-77 31q-63 0 -111.5 -45t-48.5 -108q0 -14 4.5 -26.5t10.5 -21.5t18.5 -18t20 -14
t25 -11.5t24.5 -9t26 -8t23 -6.5q146 -44 146 -174q0 -103 -81.5 -180t-185.5 -77h-3l-29 -43q15 4 33 4q27 0 43 -19t16 -47z" />
    <glyph glyph-name="scedilla" unicode="&#x15f;" horiz-adv-x="388" 
d="M263 -118q0 -45 -32.5 -74.5t-77.5 -29.5q-33 0 -51 20.5t-18 54.5v2l42 2q0 -18 10.5 -30t28.5 -12q25 0 40.5 19.5t15.5 44.5q0 35 -40 35q-24 0 -43 -19l-33 21l53 74q-48 8 -78 43t-30 88q0 15 4 41h70q-3 -15 -3 -30q0 -39 21 -60.5t59 -21.5q52 0 87 33t35 85
q0 31 -21.5 51t-52.5 32t-62 25t-52.5 39.5t-21.5 65.5q0 74 56 127t131 53q54 0 89 -33.5t35 -86.5q0 -26 -3 -29h-70q1 5 1 16q0 31 -18 50.5t-49 19.5q-39 0 -69 -28.5t-30 -67.5q0 -27 21.5 -45t52.5 -29.5t62 -25t52.5 -42t21.5 -71.5q0 -19 -3 -35q-13 -74 -66 -119
t-127 -48l-29 -43q15 4 33 4q28 0 43.5 -19t15.5 -47z" />
    <glyph glyph-name="Scaron" unicode="&#x160;" horiz-adv-x="498" 
d="M561 590q0 -14 -4 -38h-74q2 8 2 25q0 47 -31 78t-77 31q-63 0 -111.5 -45t-48.5 -108q0 -14 4.5 -26.5t10.5 -21.5t18.5 -18t20 -14t25 -11.5t24.5 -9t26 -8t23 -6.5q146 -44 146 -174q0 -103 -81.5 -180t-185.5 -77q-83 0 -137.5 46.5t-54.5 128.5q0 15 4 45h74
q-2 -20 -2 -29q0 -59 34.5 -91.5t93.5 -32.5q70 0 124.5 52.5t54.5 122.5q0 41 -22 68t-55 39t-72 26.5t-72 28t-55 45t-22 77.5q0 99 74.5 169.5t174.5 70.5q75 0 123 -44.5t48 -118.5zM583 927l-167 -125h-67l-121 125h92l72 -73l102 73h89z" />
    <glyph glyph-name="scaron" unicode="&#x161;" horiz-adv-x="388" 
d="M424 441q0 -26 -3 -29h-70q1 5 1 16q0 31 -18 50.5t-49 19.5q-39 0 -69 -28.5t-30 -67.5q0 -27 21.5 -45t52.5 -29.5t62 -25t52.5 -42t21.5 -71.5q0 -19 -3 -35q-13 -77 -69 -122t-134 -45q-61 0 -100.5 36.5t-39.5 97.5q0 15 4 41h70q-3 -15 -3 -30q0 -39 21 -60.5
t59 -21.5q52 0 87 33t35 85q0 31 -21.5 51t-52.5 32t-62 25t-52.5 39.5t-21.5 65.5q0 74 56 127t131 53q54 0 89 -33.5t35 -86.5zM498 764l-167 -125h-67l-121 125h92l72 -73l102 73h89z" />
    <glyph glyph-name="Tcedilla" unicode="&#x162;" horiz-adv-x="426" 
d="M556 740l-12 -67h-169l-125 -673h-74l125 673h-170l12 67h413zM248 -53l-108 -169h-74l108 169h74z" />
    <glyph glyph-name="tcedilla" unicode="&#x163;" horiz-adv-x="339" 
d="M431 547l-11 -63h-131l-90 -484h-70l90 484h-115l11 63h115l36 193h70l-36 -193h131zM210 -53l-108 -169h-74l108 169h74z" />
    <glyph glyph-name="Tcaron" unicode="&#x164;" horiz-adv-x="426" 
d="M556 740l-12 -67h-169l-125 -673h-74l125 673h-170l12 67h413zM563 926l-167 -125h-67l-121 125h92l72 -73l102 73h89z" />
    <glyph glyph-name="tcaron" unicode="&#x165;" horiz-adv-x="374" 
d="M440 547l-11 -63h-131l-90 -484h-70l90 484h-115l11 63h115l36 193h70l-36 -193h131zM547 785l-108 -169h-74l108 169h74z" />
    <glyph glyph-name="Tbar" unicode="&#x166;" horiz-adv-x="426" 
d="M453 347h-139l-64 -347h-74l64 347h-140l12 67h140l48 259h-170l13 67h413l-13 -67h-169l-48 -259h139z" />
    <glyph glyph-name="tbar" unicode="&#x167;" horiz-adv-x="339" 
d="M358 259h-112l-47 -259h-70l47 259h-94l11 63h95l30 162h-115l12 63h115l36 193h70l-36 -193h131l-12 -63h-131l-30 -162h111z" />
    <glyph glyph-name="Utilde" unicode="&#x168;" horiz-adv-x="655" 
d="M716 740l-85 -461q-18 -93 -57 -154q-42 -65 -107 -101.5t-142 -36.5q-94 0 -150.5 54.5t-56.5 149.5q0 36 9 88l85 461h74l-85 -461q-8 -42 -8 -78q0 -67 38.5 -107t105.5 -40q103 0 170 91q33 45 50 134l85 461h74zM654 852q-60 -39 -105 -39q-32 0 -74.5 20.5
t-63.5 20.5q-35 0 -72 -30l-26 50q52 42 112 42q32 0 72.5 -20.5t61.5 -20.5q9 0 19.5 3t15 5t18.5 10t15 8z" />
    <glyph glyph-name="utilde" unicode="&#x169;" horiz-adv-x="608" 
d="M642 547l-101 -547h-66l16 85h-2q-32 -47 -83.5 -72.5t-109.5 -25.5q-91 0 -144 46.5t-53 135.5q0 36 8 76l56 302h70l-55 -301q-7 -39 -7 -67q0 -64 35.5 -96.5t100.5 -32.5q71 0 124 44q68 55 88 164l53 289h70zM595 660q-60 -39 -105 -39q-32 0 -74.5 20.5t-63.5 20.5
q-34 0 -72 -30l-26 50q52 42 112 42q32 0 72.5 -20.5t61.5 -20.5q9 0 19.5 3t15 5t18.5 10t15 8z" />
    <glyph glyph-name="Umacron" unicode="&#x16a;" horiz-adv-x="655" 
d="M716 740l-85 -461q-18 -93 -57 -154q-42 -65 -107 -101.5t-142 -36.5q-94 0 -150.5 54.5t-56.5 149.5q0 36 9 88l85 461h74l-85 -461q-8 -42 -8 -78q0 -67 38.5 -107t105.5 -40q103 0 170 91q33 45 50 134l85 461h74zM658 898l-12 -67h-338l12 67h338z" />
    <glyph glyph-name="umacron" unicode="&#x16b;" horiz-adv-x="608" 
d="M642 547l-101 -547h-66l16 85h-2q-32 -47 -83.5 -72.5t-109.5 -25.5q-91 0 -144 46.5t-53 135.5q0 36 8 76l56 302h70l-55 -301q-7 -39 -7 -67q0 -64 35.5 -96.5t100.5 -32.5q71 0 124 44q68 55 88 164l53 289h70zM589 706l-12 -67h-338l12 67h338z" />
    <glyph glyph-name="Ubreve" unicode="&#x16c;" horiz-adv-x="655" 
d="M716 740l-85 -461q-18 -93 -57 -154q-42 -65 -107 -101.5t-142 -36.5q-94 0 -150.5 54.5t-56.5 149.5q0 36 9 88l85 461h74l-85 -461q-8 -42 -8 -78q0 -67 38.5 -107t105.5 -40q103 0 170 91q33 45 50 134l85 461h74zM658 906q-57 -103 -194 -103t-155 103h65
q25 -46 100 -46q77 0 119 46h65z" />
    <glyph glyph-name="ubreve" unicode="&#x16d;" horiz-adv-x="608" 
d="M642 547l-101 -547h-66l16 85h-2q-32 -47 -83.5 -72.5t-109.5 -25.5q-91 0 -144 46.5t-53 135.5q0 36 8 76l56 302h70l-55 -301q-7 -39 -7 -67q0 -64 35.5 -96.5t100.5 -32.5q71 0 124 44q68 55 88 164l53 289h70zM599 714q-57 -103 -194 -103t-155 103h65
q25 -46 100 -46q77 0 119 46h65z" />
    <glyph glyph-name="Uring" unicode="&#x16e;" horiz-adv-x="655" 
d="M716 740l-85 -461q-18 -93 -57 -154q-42 -65 -107 -101.5t-142 -36.5q-94 0 -150.5 54.5t-56.5 149.5q0 36 9 88l85 461h74l-85 -461q-8 -42 -8 -78q0 -67 38.5 -107t105.5 -40q103 0 170 91q33 45 50 134l85 461h74zM598 885q0 -48 -38.5 -85.5t-86.5 -37.5
q-37 0 -61.5 23.5t-24.5 60.5q0 48 38.5 85.5t86.5 37.5q38 0 62 -23.5t24 -60.5zM545 875q0 19 -12 30.5t-31 11.5q-23 0 -42.5 -19t-19.5 -42q0 -18 12.5 -30t30.5 -12q24 0 43 18.5t19 42.5z" />
    <glyph glyph-name="uring" unicode="&#x16f;" horiz-adv-x="608" 
d="M642 547l-101 -547h-66l16 85h-2q-32 -47 -83.5 -72.5t-109.5 -25.5q-91 0 -144 46.5t-53 135.5q0 36 8 76l56 302h70l-55 -301q-7 -39 -7 -67q0 -64 35.5 -96.5t100.5 -32.5q71 0 124 44q68 55 88 164l53 289h70zM539 723q0 -48 -38.5 -85.5t-86.5 -37.5
q-37 0 -61.5 23.5t-24.5 60.5q0 48 38.5 85.5t86.5 37.5q38 0 62 -23.5t24 -60.5zM486 713q0 19 -12 30.5t-31 11.5q-23 0 -42.5 -19t-19.5 -42q0 -18 12.5 -30t30.5 -12q24 0 43 18.5t19 42.5z" />
    <glyph glyph-name="Uhungarumlaut" unicode="&#x170;" horiz-adv-x="655" 
d="M716 740l-85 -461q-18 -93 -57 -154q-42 -65 -107 -101.5t-142 -36.5q-94 0 -150.5 54.5t-56.5 149.5q0 36 9 88l85 461h74l-85 -461q-8 -42 -8 -78q0 -67 38.5 -107t105.5 -40q103 0 170 91q33 45 50 134l85 461h74zM730 932l-189 -135l-29 46l187 135zM555 932
l-189 -135l-29 46l186 135z" />
    <glyph glyph-name="uhungarumlaut" unicode="&#x171;" horiz-adv-x="608" 
d="M642 547l-101 -547h-66l16 85h-2q-32 -47 -83.5 -72.5t-109.5 -25.5q-91 0 -144 46.5t-53 135.5q0 36 8 76l56 302h70l-55 -301q-7 -39 -7 -67q0 -64 35.5 -96.5t100.5 -32.5q71 0 124 44q68 55 88 164l53 289h70zM671 740l-189 -135l-29 46l187 135zM496 740l-189 -135
l-29 46l186 135z" />
    <glyph glyph-name="Uogonek" unicode="&#x172;" horiz-adv-x="655" 
d="M402 -138l-8 -44q-26 -9 -52 -9q-38 0 -64 19t-26 55q0 59 72 104q-95 1 -150.5 55.5t-55.5 148.5q0 36 9 88l85 461h74l-85 -461q-8 -42 -8 -78q0 -67 38.5 -107t105.5 -40q103 0 170 91q33 45 50 134l85 461h74l-85 -461q-18 -93 -57 -154q-69 -106 -188 -131
q-83 -56 -83 -101q0 -19 15 -30t35 -11q22 0 49 10z" />
    <glyph glyph-name="uogonek" unicode="&#x173;" horiz-adv-x="608" 
d="M539 -138l-8 -44q-25 -9 -52 -9q-38 0 -64 19t-26 55q0 38 25 65t68 52h-7l16 85h-2q-32 -47 -83.5 -72.5t-109.5 -25.5q-91 0 -144 46.5t-53 135.5q0 36 8 76l56 302h70l-55 -301q-7 -39 -7 -67q0 -64 35.5 -96.5t100.5 -32.5q71 0 124 44q68 55 88 164l53 289h70
l-101 -547h-7q-26 -17 -41 -28.5t-34 -34.5t-19 -44q0 -19 15 -30t35 -11q22 0 49 10z" />
    <glyph glyph-name="Wcircumflex" unicode="&#x174;" horiz-adv-x="960" 
d="M1087 740l-349 -740h-94l-50 607h-2l-275 -607h-95l-74 740h76l62 -645h2l295 645h69l58 -644h2l300 644h75zM811 811h-89l-72 73l-102 -73h-91l169 125h66z" />
    <glyph glyph-name="wcircumflex" unicode="&#x175;" horiz-adv-x="831" 
d="M921 547l-310 -547h-79l-49 364h-2l-181 -364h-79l-107 547h73l87 -458h2l198 392h61l53 -392h2l259 458h72zM690 619h-89l-72 73l-102 -73h-91l169 125h66z" />
    <glyph glyph-name="Ycircumflex" unicode="&#x176;" horiz-adv-x="592" 
d="M729 740l-351 -493l-46 -247h-74l46 247l-166 493h82l134 -415l294 415h81zM607 811h-89l-72 73l-102 -73h-91l169 125h66z" />
    <glyph glyph-name="ycircumflex" unicode="&#x177;" horiz-adv-x="536" 
d="M624 547l-454 -739h-73l134 210l-115 529h74l94 -436l266 436h74zM553 619h-89l-72 73l-102 -73h-91l169 125h66z" />
    <glyph glyph-name="Ydieresis" unicode="&#x178;" horiz-adv-x="592" 
d="M729 740l-351 -493l-46 -247h-74l46 247l-166 493h82l134 -415l294 415h81zM579 928l-24 -126h-74l24 126h74zM431 928l-24 -126h-74l24 126h74z" />
    <glyph glyph-name="Zacute" unicode="&#x179;" horiz-adv-x="480" 
d="M596 740l-12 -67l-476 -606h374l-12 -67h-458l12 67l477 606h-353l12 67h436zM563 898l-218 -107l-23 58l220 109z" />
    <glyph glyph-name="zacute" unicode="&#x17a;" horiz-adv-x="425" 
d="M498 547l-11 -63l-378 -421h318l-12 -63h-405l11 61l382 423h-293l11 63h377zM489 706l-218 -107l-23 58l220 109z" />
    <glyph glyph-name="Zdotaccent" unicode="&#x17b;" horiz-adv-x="480" 
d="M596 740l-12 -67l-476 -606h374l-12 -67h-458l12 67l477 606h-353l12 67h436zM445 947l-24 -126h-74l24 126h74z" />
    <glyph glyph-name="zdotaccent" unicode="&#x17c;" horiz-adv-x="425" 
d="M498 547l-11 -63l-378 -421h318l-12 -63h-405l11 61l382 423h-293l11 63h377zM381 755l-24 -126h-74l24 126h74z" />
    <glyph glyph-name="Zcaron" unicode="&#x17d;" horiz-adv-x="480" 
d="M596 740l-12 -67l-476 -606h374l-12 -67h-458l12 67l477 606h-353l12 67h436zM584 927l-167 -125h-67l-121 125h92l72 -73l102 73h89z" />
    <glyph glyph-name="zcaron" unicode="&#x17e;" horiz-adv-x="425" 
d="M498 547l-11 -63l-378 -421h318l-12 -63h-405l11 61l382 423h-293l11 63h377zM527 764l-167 -125h-67l-121 125h92l72 -73l102 73h89z" />
    <glyph glyph-name="florin" unicode="&#x192;" horiz-adv-x="554" 
d="M669 816l-23 -67q-5 1 -15 1q-34 0 -60.5 -14t-45.5 -42t-29.5 -51t-23.5 -59h112l-24 -67h-112l-161 -431q-19 -52 -27 -71.5t-29.5 -54t-49.5 -57.5q-68 -56 -165 -56q-30 0 -55 7l25 64q24 -6 49 -6q34 0 61 11t43.5 25t33 42t24.5 47t22 56l160 424h-114l25 67h112
q47 134 113 183q69 51 134 51q6 0 20 -2z" />
    <glyph glyph-name="AEacute" unicode="&#x1fc;" horiz-adv-x="992" 
d="M1044 740l-12 -67h-317l-50 -266h306l-12 -67h-306l-51 -273h317l-12 -67h-391l46 250h-273l-220 -250h-89l652 740h412zM636 645h-2l-285 -328h226zM856 899l-218 -107l-23 58l220 109z" />
    <glyph glyph-name="aeacute" unicode="&#x1fd;" horiz-adv-x="1157" 
d="M1169 325q0 -13 -10 -78h-495q-1 -8 -1 -23q0 -75 51 -124.5t126 -49.5q65 0 126.5 36t91.5 92h70q-39 -82 -124 -136.5t-175 -54.5q-62 0 -116 29t-78 83h-2l-18 -99h-70l18 99h-2q-95 -112 -237 -112q-107 0 -175.5 66t-68.5 172q0 27 4 47q10 54 46 113
q50 81 129.5 128.5t171.5 47.5q68 0 120.5 -28t74.5 -87h2l18 101h70l-18 -101h2q37 51 103 83t131 32q101 0 168 -67.5t67 -168.5zM1100 318q2 79 -48 129.5t-129 50.5q-82 0 -150.5 -54t-97.5 -134h425v8zM602 317q0 81 -51 131t-132 50q-104 0 -186.5 -82t-82.5 -186
q0 -79 53 -129.5t132 -50.5q107 0 187 80t80 187zM860 706l-218 -107l-23 58l220 109z" />
    <glyph glyph-name="Oslashacute" unicode="&#x1fe;" horiz-adv-x="868" 
d="M929 779l-114 -123q86 -91 86 -219q0 -117 -68 -222t-176.5 -166.5t-224.5 -61.5q-106 0 -191 56l-117 -126l-48 40l116 126q-86 91 -86 220q0 117 68 222t176 166.5t224 61.5q105 0 193 -57l115 123zM826 428q0 97 -64 172l-470 -502q67 -44 153 -44q147 0 264 114
t117 260zM715 641q-70 45 -154 45q-95 0 -183.5 -52t-143 -138.5t-54.5 -182.5q0 -103 65 -174zM754 899l-218 -107l-23 58l220 109z" />
    <glyph glyph-name="oslashacute" unicode="&#x1ff;" horiz-adv-x="653" 
d="M703 573l-89 -94q55 -66 55 -156q0 -130 -107 -233t-238 -103q-83 0 -138 42l-88 -93l-47 38l90 95q-54 65 -54 153q0 131 106 235t237 104q79 0 136 -41l90 94zM598 321q0 61 -34 105l-328 -345q43 -31 100 -31q105 0 183.5 83t78.5 188zM518 468q-43 30 -99 30
q-103 0 -182.5 -82.5t-79.5 -185.5q0 -62 35 -107zM596 706l-218 -107l-23 58l220 109z" />
    <glyph glyph-name="Scommaaccent" unicode="&#x218;" horiz-adv-x="498" 
d="M561 590q0 -14 -4 -38h-74q2 8 2 25q0 47 -31 78t-77 31q-63 0 -111.5 -45t-48.5 -108q0 -14 4.5 -26.5t10.5 -21.5t18.5 -18t20 -14t25 -11.5t24.5 -9t26 -8t23 -6.5q146 -44 146 -174q0 -103 -81.5 -180t-185.5 -77q-83 0 -137.5 46.5t-54.5 128.5q0 15 4 45h74
q-2 -20 -2 -29q0 -59 34.5 -91.5t93.5 -32.5q70 0 124.5 52.5t54.5 122.5q0 41 -22 68t-55 39t-72 26.5t-72 28t-55 45t-22 77.5q0 99 74.5 169.5t174.5 70.5q75 0 123 -44.5t48 -118.5zM298 -53l-108 -169h-74l108 169h74z" />
    <glyph glyph-name="scommaaccent" unicode="&#x219;" horiz-adv-x="388" 
d="M424 441q0 -26 -3 -29h-70q1 5 1 16q0 31 -18 50.5t-49 19.5q-39 0 -69 -28.5t-30 -67.5q0 -27 21.5 -45t52.5 -29.5t62 -25t52.5 -42t21.5 -71.5q0 -19 -3 -35q-13 -77 -69 -122t-134 -45q-61 0 -100.5 36.5t-39.5 97.5q0 15 4 41h70q-3 -15 -3 -30q0 -39 21 -60.5
t59 -21.5q52 0 87 33t35 85q0 31 -21.5 51t-52.5 32t-62 25t-52.5 39.5t-21.5 65.5q0 74 56 127t131 53q54 0 89 -33.5t35 -86.5zM246 -53l-108 -169h-74l108 169h74z" />
    <glyph glyph-name="Tcommaaccent" unicode="&#x21a;" horiz-adv-x="426" 
d="M556 740l-12 -67h-169l-125 -673h-74l125 673h-170l12 67h413zM253 -53l-108 -169h-74l108 169h74z" />
    <glyph glyph-name="tcommaaccent" unicode="&#x21b;" horiz-adv-x="339" 
d="M431 547l-11 -63h-131l-90 -484h-70l90 484h-115l11 63h115l36 193h70l-36 -193h131zM209 -53l-108 -169h-74l108 169h74z" />
    <glyph glyph-name="circumflex" unicode="&#x2c6;" horiz-adv-x="502" 
d="M546 619h-89l-72 73l-102 -73h-91l169 125h66z" />
    <glyph glyph-name="caron" unicode="&#x2c7;" horiz-adv-x="502" 
d="M565 734l-167 -125h-67l-121 125h92l72 -73l102 73h89z" />
    <glyph glyph-name="uni02C9" unicode="&#x2c9;" horiz-adv-x="485" 
d="M547 706l-12 -67h-338l12 67h338z" />
    <glyph glyph-name="breve" unicode="&#x2d8;" horiz-adv-x="453" 
d="M541 714q-57 -103 -194 -103t-155 103h65q25 -46 100 -46q77 0 119 46h65z" />
    <glyph glyph-name="dotaccent" unicode="&#x2d9;" horiz-adv-x="222" 
d="M290 755l-24 -126h-74l24 126h74z" />
    <glyph glyph-name="ring" unicode="&#x2da;" horiz-adv-x="332" 
d="M401 723q0 -48 -38.5 -85.5t-86.5 -37.5q-37 0 -61.5 23.5t-24.5 60.5q0 48 38.5 85.5t86.5 37.5q38 0 62 -23.5t24 -60.5zM348 713q0 19 -12 30.5t-31 11.5q-23 0 -42.5 -19t-19.5 -42q0 -18 12.5 -30t30.5 -12q24 0 43 18.5t19 42.5z" />
    <glyph glyph-name="ogonek" unicode="&#x2db;" horiz-adv-x="302" 
d="M202 -138l-8 -44q-26 -9 -52 -9q-38 0 -64 19t-26 55q0 38 25 65t68 52h52q-26 -17 -41 -28.5t-34 -34.5t-19 -44q0 -19 15 -30t35 -11q22 0 49 10z" />
    <glyph glyph-name="tilde" unicode="&#x2dc;" horiz-adv-x="439" 
d="M520 660q-60 -39 -105 -39q-32 0 -74.5 20.5t-63.5 20.5q-35 0 -72 -30l-26 50q52 42 112 42q32 0 72.5 -20.5t61.5 -20.5q9 0 19.5 3t15 5t18.5 10t15 8z" />
    <glyph glyph-name="hungarumlaut" unicode="&#x2dd;" horiz-adv-x="552" 
d="M623 740l-189 -135l-29 46l187 135zM448 740l-189 -135l-29 46l186 135z" />
    <glyph glyph-name="uni03A9" unicode="&#x3a9;" horiz-adv-x="667" 
d="M611 0h-212l11 62q159 128 193 313q8 46 8 82q0 87 -41 138.5t-119 51.5q-95 0 -165.5 -76t-92.5 -196q-8 -43 -8 -87q0 -130 86 -226l-11 -62h-212l11 62h142q-92 97 -92 237q0 46 8 87q26 140 123.5 233t223.5 93q109 0 168.5 -64t59.5 -174q0 -41 -9 -86
q-20 -107 -76.5 -189.5t-126.5 -136.5h142z" />
    <glyph glyph-name="uni03BC" unicode="&#x3bc;" horiz-adv-x="608" 
d="M646 547l-101 -547h-66l16 85h-2q-32 -47 -83.5 -72.5t-109.5 -25.5q-114 0 -154 69l-46 -248h-70l137 739h70l-55 -301q-7 -39 -7 -67q0 -129 136 -129q71 0 124 44q68 55 88 164l53 289h70z" />
    <glyph glyph-name="pi" unicode="&#x3c0;" horiz-adv-x="583" 
d="M544 59l5 -52q-26 -14 -66 -14q-48 0 -71 25t-23 68q0 11 4 37l59 318h-159l-56 -306q-15 -79 -38 -135h-76q24 52 40 139l56 302q-48 0 -97 -20q-9 41 -12 52q58 27 140 27h388l-11 -59h-101l-57 -310q-3 -15 -3 -28q0 -51 47 -51q13 0 31 7z" />
    <glyph glyph-name="Wgrave" unicode="&#x1e80;" horiz-adv-x="960" 
d="M1087 740l-349 -740h-94l-50 607h-2l-275 -607h-95l-74 740h76l62 -645h2l295 645h69l58 -644h2l300 644h75zM723 849l-43 -58l-178 107l43 60z" />
    <glyph glyph-name="wgrave" unicode="&#x1e81;" horiz-adv-x="831" 
d="M921 547l-310 -547h-79l-49 364h-2l-181 -364h-79l-107 547h73l87 -458h2l198 392h61l53 -392h2l259 458h72zM625 657l-43 -58l-178 107l43 60z" />
    <glyph glyph-name="Wacute" unicode="&#x1e82;" horiz-adv-x="960" 
d="M1087 740l-349 -740h-94l-50 607h-2l-275 -607h-95l-74 740h76l62 -645h2l295 645h69l58 -644h2l300 644h75zM789 898l-218 -107l-23 58l220 109z" />
    <glyph glyph-name="wacute" unicode="&#x1e83;" horiz-adv-x="831" 
d="M921 547l-310 -547h-79l-49 364h-2l-181 -364h-79l-107 547h73l87 -458h2l198 392h61l53 -392h2l259 458h72zM698 706l-218 -107l-23 58l220 109z" />
    <glyph glyph-name="Wdieresis" unicode="&#x1e84;" horiz-adv-x="960" 
d="M1087 740l-349 -740h-94l-50 607h-2l-275 -607h-95l-74 740h76l62 -645h2l295 645h69l58 -644h2l300 644h75zM769 947l-24 -126h-74l24 126h74zM621 947l-24 -126h-74l24 126h74z" />
    <glyph glyph-name="wdieresis" unicode="&#x1e85;" horiz-adv-x="831" 
d="M921 547l-310 -547h-79l-49 364h-2l-181 -364h-79l-107 547h73l87 -458h2l198 392h61l53 -392h2l259 458h72zM668 755l-24 -126h-74l24 126h74zM520 755l-24 -126h-74l24 126h74z" />
    <glyph glyph-name="Ygrave" unicode="&#x1ef2;" horiz-adv-x="592" 
d="M729 740l-351 -493l-46 -247h-74l46 247l-166 493h82l134 -415l294 415h81zM536 849l-43 -58l-178 107l43 60z" />
    <glyph glyph-name="ygrave" unicode="&#x1ef3;" horiz-adv-x="536" 
d="M624 547l-454 -739h-73l134 210l-115 529h74l94 -436l266 436h74zM469 657l-43 -58l-178 107l43 60z" />
    <glyph glyph-name="endash" unicode="&#x2013;" horiz-adv-x="500" 
d="M523 315l-12 -67h-430l12 67h430z" />
    <glyph glyph-name="emdash" unicode="&#x2014;" horiz-adv-x="1000" 
d="M1023 315l-12 -67h-930l12 67h930z" />
    <glyph glyph-name="quoteleft" unicode="&#x2018;" horiz-adv-x="351" 
d="M358 546h-74l-52 194h74z" />
    <glyph glyph-name="quoteright" unicode="&#x2019;" horiz-adv-x="351" 
d="M393 740l-124 -194h-74l124 194h74z" />
    <glyph glyph-name="quotesinglbase" unicode="&#x201a;" horiz-adv-x="354" 
d="M274 126l-124 -194h-74l124 194h74z" />
    <glyph glyph-name="quotedblleft" unicode="&#x201c;" horiz-adv-x="502" 
d="M507 546h-74l-51 194h73zM360 546h-74l-52 194h74z" />
    <glyph glyph-name="quotedblright" unicode="&#x201d;" horiz-adv-x="484" 
d="M542 740l-124 -194h-74l124 194h74zM394 740l-123 -194h-74l124 194h73z" />
    <glyph glyph-name="quotedblbase" unicode="&#x201e;" horiz-adv-x="502" 
d="M422 126l-124 -194h-74l124 194h74zM274 126l-124 -194h-74l124 194h74z" />
    <glyph glyph-name="dagger" unicode="&#x2020;" horiz-adv-x="553" 
d="M593 539l-13 -67h-180l-112 -605h-74l112 605h-180l13 67h180l37 201h74l-37 -201h180z" />
    <glyph glyph-name="daggerdbl" unicode="&#x2021;" horiz-adv-x="553" 
d="M593 539l-13 -67h-180l-62 -337h180l-12 -67h-180l-38 -201h-74l38 201h-180l12 67h180l62 337h-180l13 67h180l37 201h74l-37 -201h180z" />
    <glyph glyph-name="bullet" unicode="&#x2022;" horiz-adv-x="606" 
d="M528 406q0 -71 -56.5 -127.5t-127.5 -56.5q-55 0 -91 36t-36 91q0 72 57 127.5t129 55.5q54 0 89.5 -36t35.5 -90z" />
    <glyph glyph-name="ellipsis" unicode="&#x2026;" horiz-adv-x="1000" 
d="M893 126l-23 -126h-74l23 126h74zM560 126l-23 -126h-74l23 126h74zM227 126l-23 -126h-74l23 126h74z" />
    <glyph glyph-name="perthousand" unicode="&#x2030;" horiz-adv-x="1174" 
d="M1182 198q0 -83 -67 -147t-150 -64q-65 0 -108 41t-43 106q0 83 67 147t150 64q65 0 108 -41t43 -106zM496 604q0 -83 -67 -147t-150 -64q-64 0 -107.5 41.5t-43.5 105.5q0 83 67 147t150 64q64 0 107.5 -41.5t43.5 -105.5zM771 740l-561 -740h-68l561 740h68zM791 198
q0 -83 -67 -147t-150 -64q-65 0 -108 41t-43 106q0 83 67 147t150 64q65 0 108 -41t43 -106zM1121 189q0 44 -28 72t-72 28q-58 0 -102 -44.5t-44 -101.5q0 -44 28 -72t72 -28q58 0 102 44.5t44 101.5zM435 596q0 43 -28 71t-72 28q-58 0 -102 -44.5t-44 -102.5
q0 -43 28 -71t72 -28q58 0 102 44.5t44 102.5zM730 189q0 44 -28 72t-72 28q-58 0 -102 -44.5t-44 -101.5q0 -44 28 -72t72 -28q58 0 102 44.5t44 101.5z" />
    <glyph glyph-name="guilsinglleft" unicode="&#x2039;" horiz-adv-x="251" 
d="M295 450l-125 -168l63 -168l-65 -33l-76 201l150 199z" />
    <glyph glyph-name="guilsinglright" unicode="&#x203a;" horiz-adv-x="251" 
d="M263 282l-151 -201l-52 33l125 168l-63 168l64 31z" />
    <glyph glyph-name="fraction" unicode="&#x2044;" horiz-adv-x="166" 
d="M417 740l-470 -740h-60l470 740h60z" />
    <glyph glyph-name="Euro" unicode="&#x20ac;" horiz-adv-x="554" 
d="M570 169q-27 -84 -84 -131q-63 -51 -161 -51q-110 0 -155 72q-33 53 -33 135q0 30 5 78h-89l37 63h61l13 70h-86l36 63h65q37 128 99 198q78 87 191 87q94 0 138 -55q34 -41 34 -107q0 -14 -1 -21h-70v6q0 48 -23 75q-32 35 -91 35q-79 0 -135 -66q-43 -53 -69 -152h312
l-36 -63h-290l-13 -70h262l-37 -63h-234q-4 -33 -4 -67q0 -59 20 -96q28 -55 108 -55q66 0 109 37q31 26 51 78h70z" />
    <glyph glyph-name="litre" unicode="&#x2113;" horiz-adv-x="461" 
d="M387 51q-68 -64 -134 -64q-49 0 -71 30q-20 25 -20 70q0 20 5 48l21 116q-44 -42 -68 -64q-9 12 -25 36q16 15 33.5 32t39.5 37t34 32l43 234q15 84 54 127t93 43q40 0 58.5 -23.5t18.5 -57.5q0 -9 -2 -23q-22 -117 -159 -266q-6 -6 -19.5 -20t-17.5 -18l-35 -186
q-3 -18 -3 -33q0 -57 46 -57q35 0 89 48q3 -7 9.5 -20.5t9.5 -20.5zM412 617q2 12 2 18q0 36 -28 36q-50 0 -71 -111l-30 -161q11 10 21 23q89 105 106 195z" />
    <glyph glyph-name="trademark" unicode="&#x2122;" horiz-adv-x="892" 
d="M953 740l-82 -444h-55l69 372h-2l-232 -372h-46l-93 371h-2l-69 -371h-55l82 444h78l97 -365l231 365h79zM411 740l-9 -47h-105l-73 -397h-55l73 397h-105l9 47h265z" />
    <glyph glyph-name="Omega" unicode="&#x2126;" horiz-adv-x="667" 
d="M611 0h-212l11 62q159 128 193 313q8 46 8 82q0 87 -41 138.5t-119 51.5q-95 0 -165.5 -76t-92.5 -196q-8 -43 -8 -87q0 -130 86 -226l-11 -62h-212l11 62h142q-92 97 -92 237q0 46 8 87q26 140 123.5 233t223.5 93q109 0 168.5 -64t59.5 -174q0 -41 -9 -86
q-20 -107 -76.5 -189.5t-126.5 -136.5h142z" />
    <glyph glyph-name="estimated" unicode="&#x212e;" horiz-adv-x="635" 
d="M638 277h-428l-35 -190q50 -62 140 -62q129 0 227 126q6 -4 17.5 -12.5t13.5 -9.5q-61 -70 -122.5 -105.5t-142.5 -35.5q-122 0 -181 83t-36 206q23 124 112 207t213 83q125 0 183 -82t39 -208zM522 314l28 153q-53 64 -142 64q-90 0 -163 -63l-28 -154h305z" />
    <glyph glyph-name="onethird" unicode="&#x2153;" horiz-adv-x="665" 
d="M200 296h-60l73 390h-75l10 54h135zM598 740l-470 -740h-60l470 740h60zM659 163q0 -69 -55 -120t-123 -51q-60 0 -93 33.5t-33 89.5q0 15 3 33h60q-2 -18 -2 -25q0 -35 20 -56t55 -21q42 0 74 30.5t32 73.5q0 73 -112 73l10 54h24q34 0 60.5 18.5t26.5 53.5
q0 23 -15.5 35t-37.5 12q-29 0 -48 -22.5t-25 -52.5h-60q12 56 51 92.5t94 36.5q46 0 73.5 -26t27.5 -67q0 -64 -59 -104q52 -36 52 -90z" />
    <glyph glyph-name="twothirds" unicode="&#x2154;" horiz-adv-x="806" 
d="M446 634q0 -36 -18 -68t-37.5 -50.5t-55.5 -47.5l-151 -118h210l-10 -54h-298l9 49l186 147q3 2 16.5 12.5t18 14.5t16.5 14t17 16t13.5 16.5t12.5 18.5t7 19t3 21q0 30 -21 49.5t-52 19.5q-88 0 -108 -107h-60l1 5q13 70 61.5 113t117.5 43q53 0 87.5 -32t34.5 -81z
M748 740l-470 -740h-60l470 740h60zM810 164q0 -69 -55 -120t-123 -51q-60 0 -93 33.5t-33 89.5q0 15 3 33h60q-2 -18 -2 -25q0 -35 20 -56t55 -21q42 0 74 30.5t32 73.5q0 73 -112 73l10 54h24q34 0 60.5 18.5t26.5 53.5q0 23 -15.5 35t-37.5 12q-29 0 -48 -22.5t-25 -52.5
h-60q12 56 51 92.5t94 36.5q46 0 73.5 -26t27.5 -67q0 -64 -59 -104q52 -36 52 -90z" />
    <glyph glyph-name="oneeighth" unicode="&#x215b;" horiz-adv-x="666" 
d="M203 296h-60l73 390h-75l10 54h135zM601 740l-470 -740h-60l470 740h60zM668 155q0 -65 -53.5 -113.5t-122.5 -48.5q-55 0 -89.5 33t-34.5 83q0 44 26.5 81.5t68.5 56.5q-30 28 -30 69q0 54 43.5 94.5t100.5 40.5q45 0 73.5 -27t28.5 -68q0 -64 -64 -109q53 -29 53 -92z
M607 150q0 31 -19.5 49.5t-53.5 18.5q-43 0 -74.5 -30.5t-31.5 -72.5q0 -29 20 -48.5t54 -19.5q44 0 74.5 30.5t30.5 72.5zM621 348q0 22 -14.5 36t-39.5 14q-32 0 -55 -22.5t-23 -53.5q0 -23 14.5 -37.5t39.5 -14.5q32 0 55 23t23 55z" />
    <glyph glyph-name="threeeighths" unicode="&#x215c;" horiz-adv-x="815" 
d="M407 460q0 -69 -55 -120t-123 -51q-60 0 -93 33.5t-33 89.5q0 15 3 33h60q-2 -18 -2 -25q0 -35 20 -56t55 -21q42 0 74 30.5t32 73.5q0 73 -112 73l10 54h24q34 0 60.5 18.5t26.5 53.5q0 23 -15.5 35t-37.5 12q-29 0 -48 -22.5t-25 -52.5h-60q12 56 51 92.5t94 36.5
q46 0 73.5 -26t27.5 -67q0 -64 -59 -104q52 -36 52 -90zM751 740l-470 -740h-60l470 740h60zM817 155q0 -65 -53.5 -113.5t-122.5 -48.5q-55 0 -89.5 33t-34.5 83q0 44 26.5 81.5t68.5 56.5q-30 28 -30 69q0 54 43.5 94.5t100.5 40.5q45 0 73.5 -27t28.5 -68q0 -64 -64 -109
q53 -29 53 -92zM756 150q0 31 -19.5 49.5t-53.5 18.5q-43 0 -74.5 -30.5t-31.5 -72.5q0 -29 20 -48.5t54 -19.5q44 0 74.5 30.5t30.5 72.5zM770 348q0 22 -14.5 36t-39.5 14q-32 0 -55 -22.5t-23 -53.5q0 -23 14.5 -37.5t39.5 -14.5q32 0 55 23t23 55z" />
    <glyph glyph-name="fiveeighths" unicode="&#x215d;" horiz-adv-x="827" 
d="M426 479q0 -77 -57 -133.5t-132 -56.5q-55 0 -92.5 36t-37.5 96v14h60q0 -42 21.5 -67t59.5 -25q49 0 83 37t34 86q0 36 -21 59t-58 23q-54 0 -96 -43q-28 8 -44 12l82 223h214l-10 -54h-169l-39 -106q34 21 79 21q57 0 90 -34.5t33 -87.5zM763 740l-470 -740h-60
l470 740h60zM829 155q0 -65 -53.5 -113.5t-122.5 -48.5q-55 0 -89.5 33t-34.5 83q0 44 26.5 81.5t68.5 56.5q-30 28 -30 69q0 54 43.5 94.5t100.5 40.5q45 0 73.5 -27t28.5 -68q0 -64 -64 -109q53 -29 53 -92zM768 150q0 31 -19.5 49.5t-53.5 18.5q-43 0 -74.5 -30.5
t-31.5 -72.5q0 -29 20 -48.5t54 -19.5q44 0 74.5 30.5t30.5 72.5zM782 348q0 22 -14.5 36t-39.5 14q-32 0 -55 -22.5t-23 -53.5q0 -23 14.5 -37.5t39.5 -14.5q32 0 55 23t23 55z" />
    <glyph glyph-name="seveneighths" unicode="&#x215e;" horiz-adv-x="689" 
d="M402 688l-250 -392h-63l252 390h-209l10 54h270zM625 740l-470 -740h-60l470 740h60zM692 155q0 -65 -53.5 -113.5t-122.5 -48.5q-55 0 -89.5 33t-34.5 83q0 44 26.5 81.5t68.5 56.5q-30 28 -30 69q0 54 43.5 94.5t100.5 40.5q45 0 73.5 -27t28.5 -68q0 -64 -64 -109
q53 -29 53 -92zM631 150q0 31 -19.5 49.5t-53.5 18.5q-43 0 -74.5 -30.5t-31.5 -72.5q0 -29 20 -48.5t54 -19.5q44 0 74.5 30.5t30.5 72.5zM645 348q0 22 -14.5 36t-39.5 14q-32 0 -55 -22.5t-23 -53.5q0 -23 14.5 -37.5t39.5 -14.5q32 0 55 23t23 55z" />
    <glyph glyph-name="partialdiff" unicode="&#x2202;" horiz-adv-x="534" 
d="M586 494q-17 -93 -61 -196q-24 -58 -56 -109.5t-72.5 -97.5t-91 -73.5t-102.5 -27.5q-63 0 -99.5 37t-36.5 100q0 24 4 44q26 140 120 234t194 94q44 0 72 -19.5t37 -48.5h2q13 40 19 73q6 30 6 55q0 109 -104 109q-44 0 -90 -24q-3 17 -9 53q54 30 119 30q74 0 115 -41
t41 -121q0 -35 -7 -71zM473 359q-5 38 -28.5 60.5t-65.5 22.5q-74 0 -144 -82t-90 -192q-3 -18 -3 -34q0 -40 19.5 -62t53.5 -22q69 0 137.5 83.5t120.5 225.5z" />
    <glyph glyph-name="Delta" unicode="&#x2206;" horiz-adv-x="555" 
d="M551 0h-531l7 38q174 335 343 662h93q15 -110 47.5 -330.5t47.5 -331.5zM475 63q-24 168 -70 504l-4 56h-3q-4 -11 -24 -55q-15 -30 -129 -252.5t-129 -252.5h359z" />
    <glyph glyph-name="product" unicode="&#x220f;" horiz-adv-x="664" 
d="M541 -230h-75l160 865h-354l-160 -865h-75l172 930h504z" />
    <glyph glyph-name="summation" unicode="&#x2211;" horiz-adv-x="586" 
d="M502 -230h-520l6 34q254 290 382 435q-167 348 -202 421l7 40h475l-11 -62h-382q63 -133 191 -397q-120 -137 -360 -409h425z" />
    <glyph glyph-name="minus" unicode="&#x2212;" horiz-adv-x="606" 
d="M608 287l-12 -68h-504l12 68h504z" />
    <glyph glyph-name="uni2215" unicode="&#x2215;" horiz-adv-x="166" 
d="M417 740l-470 -740h-60l470 740h60z" />
    <glyph glyph-name="uni2219" unicode="&#x2219;" horiz-adv-x="277" 
d="M235 316l-24 -126h-74l24 126h74z" />
    <glyph glyph-name="radical" unicode="&#x221a;" horiz-adv-x="456" 
d="M604 728q-266 -637 -309 -740h-64q-4 24 -27 149.5t-36 191.5q-18 -10 -56 -30l-18 45q65 34 127 68q20 -109 60 -325q44 107 132.5 320.5t132.5 320.5h58z" />
    <glyph glyph-name="infinity" unicode="&#x221e;" horiz-adv-x="718" 
d="M723 294q-12 -67 -62 -112t-115 -45q-52 0 -89 29t-56 74h-2q-86 -103 -178 -103q-58 0 -93 32.5t-35 87.5q0 17 3 33q13 69 63.5 112t115.5 43q101 0 143 -102h2q83 102 180 102q56 0 91 -32.5t35 -86.5q0 -16 -3 -32zM659 293q2 8 2 24q0 32 -18.5 52t-55.5 20
q-70 0 -147 -97q35 -99 109 -99q44 0 73 28.5t37 71.5zM381 292q-17 43 -46.5 70t-64.5 27q-45 0 -73.5 -28t-36.5 -71q-2 -14 -2 -21q0 -34 20.5 -55t54.5 -21q70 0 148 99z" />
    <glyph glyph-name="integral" unicode="&#x222b;" horiz-adv-x="460" 
d="M507 680q-16 9 -40 9q-76 0 -95 -97l-121 -654q-14 -74 -59 -117t-114 -43q-42 0 -62 10q5 9 13 28t13 29q19 -7 39 -7q78 0 95 95l121 655q14 74 60 117.5t116 43.5q42 0 60 -12q-18 -38 -26 -57z" />
    <glyph glyph-name="approxequal" unicode="&#x2248;" horiz-adv-x="606" 
d="M600 359q-37 -42 -68.5 -64t-72.5 -22q-40 0 -101.5 36t-102.5 36q-48 0 -98 -76l-26 50q59 86 141 86q42 0 111 -36t88 -36t40.5 15t31.5 26t30 35zM567 179q-26 -28 -42.5 -43.5t-43.5 -29t-55 -13.5q-40 0 -101.5 36t-102.5 36q-50 0 -98 -76l-27 50q61 86 141 86
q42 0 111.5 -36t88.5 -36q7 0 15 2.5t14.5 5t14.5 9t12.5 10t13 12.5t11.5 12.5t11 13t10 11.5z" />
    <glyph glyph-name="notequal" unicode="&#x2260;" horiz-adv-x="606" 
d="M609 506l-105 -118h122l-12 -68h-165l-119 -134h259l-13 -68h-301l-104 -118h-81l103 118h-121l13 68h163l118 134h-256l12 68h299l104 118h84z" />
    <glyph glyph-name="lessequal" unicode="&#x2264;" horiz-adv-x="606" 
d="M571 92l-466 230l12 62l550 230l-12 -68l-461 -193l389 -193zM550 -24h-504l13 68h504z" />
    <glyph glyph-name="greaterequal" unicode="&#x2265;" horiz-adv-x="606" 
d="M619 322l-550 -230l12 68l461 193l-389 193l12 68l466 -230zM550 -24h-504l13 68h504z" />
    <glyph glyph-name="lozenge" unicode="&#x25ca;" horiz-adv-x="512" 
d="M516 350q-41 -58 -123.5 -174.5t-123.5 -175.5h-40q-91 272 -118 349q166 234 247 351h40q53 -156 118 -350zM454 350q-60 180 -91 270q-35 -51 -102 -145.5t-88 -124.5l90 -270q32 45 95.5 135t95.5 135z" />
    <glyph glyph-name="A.alt01" unicode="&#xe000;" horiz-adv-x="690" 
d="M751 740l-137 -740h-74l46 249h-280l-219 -249h-90l653 740h101zM662 656h-2l-294 -340h233z" />
    <glyph glyph-name="Aacute.alt01" unicode="&#xe001;" horiz-adv-x="690" 
d="M751 740l-137 -740h-74l46 249h-280l-219 -249h-90l653 740h101zM662 656h-2l-294 -340h233zM866 888l-218 -107l-23 58l220 109z" />
    <glyph glyph-name="Agrave.alt01" unicode="&#xe002;" horiz-adv-x="690" 
d="M751 740l-137 -740h-74l46 249h-280l-219 -249h-90l653 740h101zM662 656h-2l-294 -340h233zM774 839l-43 -58l-178 107l43 60z" />
    <glyph glyph-name="Acircumflex.alt01" unicode="&#xe003;" horiz-adv-x="690" 
d="M751 740l-137 -740h-74l46 249h-280l-219 -249h-90l653 740h101zM662 656h-2l-294 -340h233zM721 927l150 -133h-83l-105 82l-134 -82h-83l201 133h54z" />
    <glyph glyph-name="Adieresis.alt01" unicode="&#xe004;" horiz-adv-x="690" 
d="M751 740l-137 -740h-74l46 249h-280l-219 -249h-90l653 740h101zM662 656h-2l-294 -340h233zM670 923l-24 -128h-72l24 128h72zM858 923l-24 -128h-72l24 128h72z" />
    <glyph glyph-name="Atilde.alt01" unicode="&#xe005;" horiz-adv-x="690" 
d="M751 740l-137 -740h-74l46 249h-280l-219 -249h-90l653 740h101zM662 656h-2l-294 -340h233zM841 894l22 -50q-50 -39 -108 -39q-29 0 -82.5 17t-81.5 17q-45 0 -81 -30l-23 51q49 39 107 39q30 0 83 -17t82 -17q47 0 82 29z" />
    <glyph glyph-name="Aring.alt01" unicode="&#xe006;" horiz-adv-x="690" 
d="M751 740l-137 -740h-74l46 249h-280l-219 -249h-90l653 740h101zM662 656h-2l-294 -340h233zM745 967q37 0 61 -23.5t24 -60.5q0 -48 -38 -84.5t-86 -36.5q-37 0 -61.5 23.5t-24.5 60.5q0 48 38.5 84.5t86.5 36.5zM735 923q-26 0 -47 -21t-21 -47q0 -20 14 -33t34 -13
q27 0 47.5 20t20.5 47q0 21 -13.5 34t-34.5 13z" />
    <glyph glyph-name="Amacron.alt01" unicode="&#xe007;" horiz-adv-x="690" 
d="M751 740l-137 -740h-74l46 249h-280l-219 -249h-90l653 740h101zM662 656h-2l-294 -340h233zM859 888l-12 -67h-338l12 67h338z" />
    <glyph glyph-name="Abreve.alt01" unicode="&#xe008;" horiz-adv-x="690" 
d="M751 740l-137 -740h-74l46 249h-280l-219 -249h-90l653 740h101zM662 656h-2l-294 -340h233zM853 906q-57 -103 -194 -103t-155 103h65q25 -46 100 -46q77 0 119 46h65z" />
    <glyph glyph-name="Aogonek.alt01" unicode="&#xe009;" horiz-adv-x="690" 
d="M611 -138l-8 -44q-25 -9 -52 -9q-38 0 -64 19t-26 55q0 38 25 65t68 52h-14l46 249h-280l-219 -249h-90l653 740h101l-137 -740h-8q-26 -17 -41 -28.5t-34 -34.5t-19 -44q0 -19 15 -30t35 -11q22 0 49 10zM662 656h-2l-294 -340h233z" />
    <glyph glyph-name="A.alt02" unicode="&#xe00a;" horiz-adv-x="690" 
d="M694 0h-91l-126 249h-281l-46 -249h-74l137 740h102zM443 316l-169 340h-2l-63 -340h234z" />
    <glyph glyph-name="Aacute.alt02" unicode="&#xe00b;" horiz-adv-x="690" 
d="M694 0h-91l-126 249h-281l-46 -249h-74l137 740h102zM443 316l-169 340h-2l-63 -340h234zM444 888l-218 -107l-23 58l220 109z" />
    <glyph glyph-name="Agrave.alt02" unicode="&#xe00c;" horiz-adv-x="690" 
d="M694 0h-91l-126 249h-281l-46 -249h-74l137 740h102zM443 316l-169 340h-2l-63 -340h234zM350 839l-43 -58l-178 107l43 60z" />
    <glyph glyph-name="Acircumflex.alt02" unicode="&#xe00d;" horiz-adv-x="690" 
d="M694 0h-91l-126 249h-281l-46 -249h-74l137 740h102zM443 316l-169 340h-2l-63 -340h234zM344 927l150 -133h-83l-105 82l-134 -82h-83l201 133h54z" />
    <glyph glyph-name="Adieresis.alt02" unicode="&#xe00e;" horiz-adv-x="690" 
d="M694 0h-91l-126 249h-281l-46 -249h-74l137 740h102zM443 316l-169 340h-2l-63 -340h234zM240 923l-24 -128h-72l24 128h72zM428 923l-24 -128h-72l24 128h72z" />
    <glyph glyph-name="Atilde.alt02" unicode="&#xe00f;" horiz-adv-x="690" 
d="M694 0h-91l-126 249h-281l-46 -249h-74l137 740h102zM443 316l-169 340h-2l-63 -340h234zM451 894l22 -50q-50 -39 -108 -39q-29 0 -82.5 17t-81.5 17q-45 0 -81 -30l-23 51q49 39 107 39q30 0 83 -17t82 -17q47 0 82 29z" />
    <glyph glyph-name="Aring.alt02" unicode="&#xe010;" horiz-adv-x="690" 
d="M694 0h-91l-126 249h-281l-46 -249h-74l137 740h102zM443 316l-169 340h-2l-63 -340h234zM304 967q37 0 61 -23.5t24 -60.5q0 -48 -38 -84.5t-86 -36.5q-37 0 -61.5 23.5t-24.5 60.5q0 48 38.5 84.5t86.5 36.5zM294 923q-26 0 -47 -21t-21 -47q0 -20 14 -33t34 -13
q27 0 47.5 20t20.5 47q0 21 -13.5 34t-34.5 13z" />
    <glyph glyph-name="Amacron.alt02" unicode="&#xe011;" horiz-adv-x="690" 
d="M694 0h-91l-126 249h-281l-46 -249h-74l137 740h102zM443 316l-169 340h-2l-63 -340h234zM469 888l-12 -67h-338l12 67h338z" />
    <glyph glyph-name="Abreve.alt02" unicode="&#xe012;" horiz-adv-x="690" 
d="M694 0h-91l-126 249h-281l-46 -249h-74l137 740h102zM443 316l-169 340h-2l-63 -340h234zM472 906q-57 -103 -194 -103t-155 103h65q25 -46 100 -46q77 0 119 46h65z" />
    <glyph glyph-name="Aogonek.alt02" unicode="&#xe013;" horiz-adv-x="690" 
d="M692 -138l-8 -44q-26 -9 -52 -9q-38 0 -64 19t-26 55q0 38 25 65t68 52h-32l-126 249h-281l-46 -249h-74l137 740h102l379 -740h-7q-26 -17 -41 -28.5t-34 -34.5t-19 -44q0 -19 15 -30t35 -11q22 0 49 10zM443 316l-169 340h-2l-63 -340h234z" />
    <glyph glyph-name="A.alt03" unicode="&#xe014;" horiz-adv-x="895" 
d="M956 740l-137 -740h-74l25 136h-2q-66 -72 -153 -110.5t-183 -38.5q-147 0 -237.5 88t-90.5 221q0 36 7 70q31 168 163 277.5t290 109.5q205 0 291 -149h2l25 136h74zM826 427q0 111 -73.5 185t-191.5 74q-132 0 -241 -90.5t-135 -229.5q-5 -24 -5 -56q0 -110 73 -183
t191 -73q132 0 242 91.5t134 223.5q6 30 6 58z" />
    <glyph glyph-name="Aacute.alt03" unicode="&#xe015;" horiz-adv-x="895" 
d="M956 740l-137 -740h-74l25 136h-2q-66 -72 -153 -110.5t-183 -38.5q-147 0 -237.5 88t-90.5 221q0 36 7 70q31 168 163 277.5t290 109.5q205 0 291 -149h2l25 136h74zM826 427q0 111 -73.5 185t-191.5 74q-132 0 -241 -90.5t-135 -229.5q-5 -24 -5 -56q0 -110 73 -183
t191 -73q132 0 242 91.5t134 223.5q6 30 6 58zM742 888l-218 -107l-23 58l220 109z" />
    <glyph glyph-name="Agrave.alt03" unicode="&#xe016;" horiz-adv-x="895" 
d="M956 740l-137 -740h-74l25 136h-2q-66 -72 -153 -110.5t-183 -38.5q-147 0 -237.5 88t-90.5 221q0 36 7 70q31 168 163 277.5t290 109.5q205 0 291 -149h2l25 136h74zM826 427q0 111 -73.5 185t-191.5 74q-132 0 -241 -90.5t-135 -229.5q-5 -24 -5 -56q0 -110 73 -183
t191 -73q132 0 242 91.5t134 223.5q6 30 6 58zM667 839l-43 -58l-178 107l43 60z" />
    <glyph glyph-name="Acircumflex.alt03" unicode="&#xe017;" horiz-adv-x="895" 
d="M956 740l-137 -740h-74l25 136h-2q-66 -72 -153 -110.5t-183 -38.5q-147 0 -237.5 88t-90.5 221q0 36 7 70q31 168 163 277.5t290 109.5q205 0 291 -149h2l25 136h74zM826 427q0 111 -73.5 185t-191.5 74q-132 0 -241 -90.5t-135 -229.5q-5 -24 -5 -56q0 -110 73 -183
t191 -73q132 0 242 91.5t134 223.5q6 30 6 58zM764 791h-89l-72 73l-102 -73h-91l169 125h66z" />
    <glyph glyph-name="Adieresis.alt03" unicode="&#xe018;" horiz-adv-x="895" 
d="M956 740l-137 -740h-74l25 136h-2q-66 -72 -153 -110.5t-183 -38.5q-147 0 -237.5 88t-90.5 221q0 36 7 70q31 168 163 277.5t290 109.5q205 0 291 -149h2l25 136h74zM826 427q0 111 -73.5 185t-191.5 74q-132 0 -241 -90.5t-135 -229.5q-5 -24 -5 -56q0 -110 73 -183
t191 -73q132 0 242 91.5t134 223.5q6 30 6 58zM533 923l-24 -128h-72l24 128h72zM721 923l-24 -128h-72l24 128h72z" />
    <glyph glyph-name="Atilde.alt03" unicode="&#xe019;" horiz-adv-x="895" 
d="M956 740l-137 -740h-74l25 136h-2q-66 -72 -153 -110.5t-183 -38.5q-147 0 -237.5 88t-90.5 221q0 36 7 70q31 168 163 277.5t290 109.5q205 0 291 -149h2l25 136h74zM826 427q0 111 -73.5 185t-191.5 74q-132 0 -241 -90.5t-135 -229.5q-5 -24 -5 -56q0 -110 73 -183
t191 -73q132 0 242 91.5t134 223.5q6 30 6 58zM765 894l22 -50q-50 -39 -108 -39q-29 0 -82.5 17t-81.5 17q-45 0 -81 -30l-23 51q49 39 107 39q30 0 83 -17t82 -17q47 0 82 29z" />
    <glyph glyph-name="Aring.alt03" unicode="&#xe01a;" horiz-adv-x="895" 
d="M956 740l-137 -740h-74l25 136h-2q-66 -72 -153 -110.5t-183 -38.5q-147 0 -237.5 88t-90.5 221q0 36 7 70q31 168 163 277.5t290 109.5q205 0 291 -149h2l25 136h74zM826 427q0 111 -73.5 185t-191.5 74q-132 0 -241 -90.5t-135 -229.5q-5 -24 -5 -56q0 -110 73 -183
t191 -73q132 0 242 91.5t134 223.5q6 30 6 58zM632 987q37 0 61 -23.5t24 -60.5q0 -48 -38 -84.5t-86 -36.5q-37 0 -61.5 23.5t-24.5 60.5q0 48 38.5 84.5t86.5 36.5zM622 943q-26 0 -47 -21t-21 -47q0 -20 14 -33t34 -13q27 0 47.5 20t20.5 47q0 21 -13.5 34t-34.5 13z" />
    <glyph glyph-name="Amacron.alt03" unicode="&#xe01b;" horiz-adv-x="895" 
d="M956 740l-137 -740h-74l25 136h-2q-66 -72 -153 -110.5t-183 -38.5q-147 0 -237.5 88t-90.5 221q0 36 7 70q31 168 163 277.5t290 109.5q205 0 291 -149h2l25 136h74zM826 427q0 111 -73.5 185t-191.5 74q-132 0 -241 -90.5t-135 -229.5q-5 -24 -5 -56q0 -110 73 -183
t191 -73q132 0 242 91.5t134 223.5q6 30 6 58zM759 888l-12 -67h-338l12 67h338z" />
    <glyph glyph-name="Abreve.alt03" unicode="&#xe01c;" horiz-adv-x="895" 
d="M956 740l-137 -740h-74l25 136h-2q-66 -72 -153 -110.5t-183 -38.5q-147 0 -237.5 88t-90.5 221q0 36 7 70q31 168 163 277.5t290 109.5q205 0 291 -149h2l25 136h74zM826 427q0 111 -73.5 185t-191.5 74q-132 0 -241 -90.5t-135 -229.5q-5 -24 -5 -56q0 -110 73 -183
t191 -73q132 0 242 91.5t134 223.5q6 30 6 58zM778 906q-57 -103 -194 -103t-155 103h65q25 -46 100 -46q77 0 119 46h65z" />
    <glyph glyph-name="Aogonek.alt03" unicode="&#xe01d;" horiz-adv-x="895" 
d="M814 -138l-8 -44q-26 -9 -52 -9q-38 0 -64 19t-26 55q0 38 25 65t68 52h-12l25 136h-2q-66 -72 -153 -110.5t-183 -38.5q-147 0 -237.5 88t-90.5 221q0 36 7 70q31 168 163 277.5t290 109.5q205 0 291 -149h2l25 136h74l-137 -740h-10q-26 -17 -41 -28.5t-34 -34.5
t-19 -44q0 -19 15 -30t35 -11q22 0 49 10zM826 427q0 111 -73.5 185t-191.5 74q-132 0 -241 -90.5t-135 -229.5q-5 -24 -5 -56q0 -110 73 -183t191 -73q132 0 242 91.5t134 223.5q6 30 6 58z" />
    <glyph glyph-name="C.alt01" unicode="&#xe01e;" horiz-adv-x="665" 
d="M744 713l-15 -80q-21 19 -74.5 36t-100.5 17q-134 0 -239 -91t-129 -224q-6 -33 -6 -63q0 -112 70.5 -183t185.5 -71q101 0 195 50l-14 -79q-81 -38 -194 -38q-147 0 -233 85t-86 220q0 37 8 80q20 109 87 197t163.5 136.5t203.5 48.5q53 0 106 -13t72 -28z" />
    <glyph glyph-name="Ccedilla.alt01" unicode="&#xe01f;" horiz-adv-x="665" 
d="M744 713l-15 -80q-21 19 -74.5 36t-100.5 17q-134 0 -239 -91t-129 -224q-6 -33 -6 -63q0 -112 70.5 -183t185.5 -71q101 0 195 50l-14 -79q-81 -38 -194 -38q-19 0 -28 1l-27 -46q18 7 33 7q29 0 46.5 -18.5t17.5 -47.5q0 -10 -1 -15q-7 -39 -37 -64.5t-66 -25.5
q-70 0 -74 71l43 5q1 -18 11.5 -28.5t26.5 -10.5q21 0 36 15t19 36q0 2 0.5 6t0.5 6q0 17 -10 26.5t-27 9.5q-29 0 -49 -22l-34 18l52 82q-117 19 -184.5 100.5t-67.5 199.5q0 37 8 80q20 109 87 197t163.5 136.5t203.5 48.5q53 0 106 -13t72 -28z" />
    <glyph glyph-name="Cacute.alt01" unicode="&#xe020;" horiz-adv-x="665" 
d="M744 713l-15 -80q-21 19 -74.5 36t-100.5 17q-134 0 -239 -91t-129 -224q-6 -33 -6 -63q0 -112 70.5 -183t185.5 -71q101 0 195 50l-14 -79q-81 -38 -194 -38q-147 0 -233 85t-86 220q0 37 8 80q20 109 87 197t163.5 136.5t203.5 48.5q53 0 106 -13t72 -28zM712 888
l-218 -107l-23 58l220 109z" />
    <glyph glyph-name="Ccircumflex.alt01" unicode="&#xe021;" horiz-adv-x="665" 
d="M744 713l-15 -80q-21 19 -74.5 36t-100.5 17q-134 0 -239 -91t-129 -224q-6 -33 -6 -63q0 -112 70.5 -183t185.5 -71q101 0 195 50l-14 -79q-81 -38 -194 -38q-147 0 -233 85t-86 220q0 37 8 80q20 109 87 197t163.5 136.5t203.5 48.5q53 0 106 -13t72 -28zM712 801h-89
l-72 73l-102 -73h-91l169 125h66z" />
    <glyph glyph-name="Cdotaccent.alt01" unicode="&#xe022;" horiz-adv-x="665" 
d="M744 713l-15 -80q-21 19 -74.5 36t-100.5 17q-134 0 -239 -91t-129 -224q-6 -33 -6 -63q0 -112 70.5 -183t185.5 -71q101 0 195 50l-14 -79q-81 -38 -194 -38q-147 0 -233 85t-86 220q0 37 8 80q20 109 87 197t163.5 136.5t203.5 48.5q53 0 106 -13t72 -28zM605 927
l-24 -126h-74l24 126h74z" />
    <glyph glyph-name="Ccaron.alt01" unicode="&#xe023;" horiz-adv-x="665" 
d="M744 713l-15 -80q-21 19 -74.5 36t-100.5 17q-134 0 -239 -91t-129 -224q-6 -33 -6 -63q0 -112 70.5 -183t185.5 -71q101 0 195 50l-14 -79q-81 -38 -194 -38q-147 0 -233 85t-86 220q0 37 8 80q20 109 87 197t163.5 136.5t203.5 48.5q53 0 106 -13t72 -28zM759 926
l-167 -125h-67l-121 125h92l72 -73l102 73h89z" />
    <glyph glyph-name="E.alt01" unicode="&#xe024;" horiz-adv-x="665" 
d="M744 713l-15 -80q-61 53 -174 53q-129 0 -227.5 -78.5t-133.5 -200.5h482l-12 -68h-483q-2 -22 -2 -34q0 -113 70 -182t187 -69q101 0 195 50l-14 -79q-81 -38 -194 -38q-150 0 -234.5 83.5t-84.5 219.5q0 37 8 82q29 159 156.5 270.5t294.5 111.5q57 0 109.5 -13
t71.5 -28z" />
    <glyph glyph-name="Eacute.alt01" unicode="&#xe025;" horiz-adv-x="665" 
d="M744 713l-15 -80q-61 53 -174 53q-129 0 -227.5 -78.5t-133.5 -200.5h482l-12 -68h-483q-2 -22 -2 -34q0 -113 70 -182t187 -69q101 0 195 50l-14 -79q-81 -38 -194 -38q-150 0 -234.5 83.5t-84.5 219.5q0 37 8 82q29 159 156.5 270.5t294.5 111.5q57 0 109.5 -13
t71.5 -28zM682 888l-218 -107l-23 58l220 109z" />
    <glyph glyph-name="Egrave.alt01" unicode="&#xe026;" horiz-adv-x="665" 
d="M744 713l-15 -80q-61 53 -174 53q-129 0 -227.5 -78.5t-133.5 -200.5h482l-12 -68h-483q-2 -22 -2 -34q0 -113 70 -182t187 -69q101 0 195 50l-14 -79q-81 -38 -194 -38q-150 0 -234.5 83.5t-84.5 219.5q0 37 8 82q29 159 156.5 270.5t294.5 111.5q57 0 109.5 -13
t71.5 -28zM625 839l-43 -58l-178 107l43 60z" />
    <glyph glyph-name="Ecircumflex.alt01" unicode="&#xe027;" horiz-adv-x="665" 
d="M744 713l-15 -80q-61 53 -174 53q-129 0 -227.5 -78.5t-133.5 -200.5h482l-12 -68h-483q-2 -22 -2 -34q0 -113 70 -182t187 -69q101 0 195 50l-14 -79q-81 -38 -194 -38q-150 0 -234.5 83.5t-84.5 219.5q0 37 8 82q29 159 156.5 270.5t294.5 111.5q57 0 109.5 -13
t71.5 -28zM707 801h-89l-72 73l-102 -73h-91l169 125h66z" />
    <glyph glyph-name="Edieresis.alt01" unicode="&#xe028;" horiz-adv-x="665" 
d="M744 713l-15 -80q-61 53 -174 53q-129 0 -227.5 -78.5t-133.5 -200.5h482l-12 -68h-483q-2 -22 -2 -34q0 -113 70 -182t187 -69q101 0 195 50l-14 -79q-81 -38 -194 -38q-150 0 -234.5 83.5t-84.5 219.5q0 37 8 82q29 159 156.5 270.5t294.5 111.5q57 0 109.5 -13
t71.5 -28zM522 933l-24 -128h-72l24 128h72zM710 933l-24 -128h-72l24 128h72z" />
    <glyph glyph-name="Emacron.alt01" unicode="&#xe029;" horiz-adv-x="665" 
d="M744 713l-15 -80q-61 53 -174 53q-129 0 -227.5 -78.5t-133.5 -200.5h482l-12 -68h-483q-2 -22 -2 -34q0 -113 70 -182t187 -69q101 0 195 50l-14 -79q-81 -38 -194 -38q-150 0 -234.5 83.5t-84.5 219.5q0 37 8 82q29 159 156.5 270.5t294.5 111.5q57 0 109.5 -13
t71.5 -28zM731 888l-12 -67h-338l12 67h338z" />
    <glyph glyph-name="Ebreve.alt01" unicode="&#xe02a;" horiz-adv-x="665" 
d="M744 713l-15 -80q-61 53 -174 53q-129 0 -227.5 -78.5t-133.5 -200.5h482l-12 -68h-483q-2 -22 -2 -34q0 -113 70 -182t187 -69q101 0 195 50l-14 -79q-81 -38 -194 -38q-150 0 -234.5 83.5t-84.5 219.5q0 37 8 82q29 159 156.5 270.5t294.5 111.5q57 0 109.5 -13
t71.5 -28zM746 906q-57 -103 -194 -103t-155 103h65q25 -46 100 -46q77 0 119 46h65z" />
    <glyph glyph-name="Edotaccent.alt01" unicode="&#xe02b;" horiz-adv-x="665" 
d="M744 713l-15 -80q-61 53 -174 53q-129 0 -227.5 -78.5t-133.5 -200.5h482l-12 -68h-483q-2 -22 -2 -34q0 -113 70 -182t187 -69q101 0 195 50l-14 -79q-81 -38 -194 -38q-150 0 -234.5 83.5t-84.5 219.5q0 37 8 82q29 159 156.5 270.5t294.5 111.5q57 0 109.5 -13
t71.5 -28zM611 927l-24 -126h-74l24 126h74z" />
    <glyph glyph-name="Eogonek.alt01" unicode="&#xe02c;" horiz-adv-x="665" 
d="M520 -138l-8 -44q-25 -9 -52 -9q-38 0 -64 19t-26 55q0 59 72 104h-19q-150 0 -234.5 83.5t-84.5 219.5q0 37 8 82q29 159 156.5 270.5t294.5 111.5q57 0 109.5 -13t71.5 -28l-15 -80q-61 53 -174 53q-129 0 -227.5 -78.5t-133.5 -200.5h482l-12 -68h-483q-2 -22 -2 -34
q0 -113 70 -182t187 -69q101 0 195 50l-14 -79q-46 -22 -114 -32q-82 -55 -82 -100q0 -19 15 -30t35 -11q22 0 49 10z" />
    <glyph glyph-name="Ecaron.alt01" unicode="&#xe02d;" horiz-adv-x="665" 
d="M744 713l-15 -80q-61 53 -174 53q-129 0 -227.5 -78.5t-133.5 -200.5h482l-12 -68h-483q-2 -22 -2 -34q0 -113 70 -182t187 -69q101 0 195 50l-14 -79q-81 -38 -194 -38q-150 0 -234.5 83.5t-84.5 219.5q0 37 8 82q29 159 156.5 270.5t294.5 111.5q57 0 109.5 -13
t71.5 -28zM743 926l-167 -125h-67l-121 125h92l72 -73l102 73h89z" />
    <glyph glyph-name="E.alt02" unicode="&#xe02e;" horiz-adv-x="855" 
d="M901 439q0 -36 -7 -70q-4 -22 -8 -34h-705q-1 -9 -1 -26q0 -107 71 -180.5t193 -73.5q95 0 176.5 46.5t137.5 122.5h80q-64 -105 -174.5 -171t-231.5 -66q-148 0 -237.5 89t-89.5 223q0 37 7 71q29 159 165 271t297 112q142 0 234.5 -89.5t92.5 -224.5zM826 426
q0 108 -74 184t-191 76q-127 0 -231 -85.5t-136 -198.5h631q0 4 0.5 12t0.5 12z" />
    <glyph glyph-name="Eacute.alt02" unicode="&#xe02f;" horiz-adv-x="855" 
d="M901 439q0 -36 -7 -70q-4 -22 -8 -34h-705q-1 -9 -1 -26q0 -107 71 -180.5t193 -73.5q95 0 176.5 46.5t137.5 122.5h80q-64 -105 -174.5 -171t-231.5 -66q-148 0 -237.5 89t-89.5 223q0 37 7 71q29 159 165 271t297 112q142 0 234.5 -89.5t92.5 -224.5zM826 426
q0 108 -74 184t-191 76q-127 0 -231 -85.5t-136 -198.5h631q0 4 0.5 12t0.5 12zM740 888l-218 -107l-23 58l220 109z" />
    <glyph glyph-name="Egrave.alt02" unicode="&#xe030;" horiz-adv-x="855" 
d="M901 439q0 -36 -7 -70q-4 -22 -8 -34h-705q-1 -9 -1 -26q0 -107 71 -180.5t193 -73.5q95 0 176.5 46.5t137.5 122.5h80q-64 -105 -174.5 -171t-231.5 -66q-148 0 -237.5 89t-89.5 223q0 37 7 71q29 159 165 271t297 112q142 0 234.5 -89.5t92.5 -224.5zM826 426
q0 108 -74 184t-191 76q-127 0 -231 -85.5t-136 -198.5h631q0 4 0.5 12t0.5 12zM669 839l-43 -58l-178 107l43 60z" />
    <glyph glyph-name="Ecircumflex.alt02" unicode="&#xe031;" horiz-adv-x="855" 
d="M901 439q0 -36 -7 -70q-4 -22 -8 -34h-705q-1 -9 -1 -26q0 -107 71 -180.5t193 -73.5q95 0 176.5 46.5t137.5 122.5h80q-64 -105 -174.5 -171t-231.5 -66q-148 0 -237.5 89t-89.5 223q0 37 7 71q29 159 165 271t297 112q142 0 234.5 -89.5t92.5 -224.5zM826 426
q0 108 -74 184t-191 76q-127 0 -231 -85.5t-136 -198.5h631q0 4 0.5 12t0.5 12zM759 801h-89l-72 73l-102 -73h-91l169 125h66z" />
    <glyph glyph-name="Edieresis.alt02" unicode="&#xe032;" horiz-adv-x="855" 
d="M901 439q0 -36 -7 -70q-4 -22 -8 -34h-705q-1 -9 -1 -26q0 -107 71 -180.5t193 -73.5q95 0 176.5 46.5t137.5 122.5h80q-64 -105 -174.5 -171t-231.5 -66q-148 0 -237.5 89t-89.5 223q0 37 7 71q29 159 165 271t297 112q142 0 234.5 -89.5t92.5 -224.5zM826 426
q0 108 -74 184t-191 76q-127 0 -231 -85.5t-136 -198.5h631q0 4 0.5 12t0.5 12zM535 923l-24 -128h-72l24 128h72zM723 923l-24 -128h-72l24 128h72z" />
    <glyph glyph-name="Emacron.alt02" unicode="&#xe033;" horiz-adv-x="855" 
d="M901 439q0 -36 -7 -70q-4 -22 -8 -34h-705q-1 -9 -1 -26q0 -107 71 -180.5t193 -73.5q95 0 176.5 46.5t137.5 122.5h80q-64 -105 -174.5 -171t-231.5 -66q-148 0 -237.5 89t-89.5 223q0 37 7 71q29 159 165 271t297 112q142 0 234.5 -89.5t92.5 -224.5zM826 426
q0 108 -74 184t-191 76q-127 0 -231 -85.5t-136 -198.5h631q0 4 0.5 12t0.5 12zM768 888l-12 -67h-338l12 67h338z" />
    <glyph glyph-name="Ebreve.alt02" unicode="&#xe034;" horiz-adv-x="855" 
d="M901 439q0 -36 -7 -70q-4 -22 -8 -34h-705q-1 -9 -1 -26q0 -107 71 -180.5t193 -73.5q95 0 176.5 46.5t137.5 122.5h80q-64 -105 -174.5 -171t-231.5 -66q-148 0 -237.5 89t-89.5 223q0 37 7 71q29 159 165 271t297 112q142 0 234.5 -89.5t92.5 -224.5zM826 426
q0 108 -74 184t-191 76q-127 0 -231 -85.5t-136 -198.5h631q0 4 0.5 12t0.5 12zM778 906q-57 -103 -194 -103t-155 103h65q25 -46 100 -46q77 0 119 46h65z" />
    <glyph glyph-name="Edotaccent.alt02" unicode="&#xe035;" horiz-adv-x="855" 
d="M901 439q0 -36 -7 -70q-4 -22 -8 -34h-705q-1 -9 -1 -26q0 -107 71 -180.5t193 -73.5q95 0 176.5 46.5t137.5 122.5h80q-64 -105 -174.5 -171t-231.5 -66q-148 0 -237.5 89t-89.5 223q0 37 7 71q29 159 165 271t297 112q142 0 234.5 -89.5t92.5 -224.5zM826 426
q0 108 -74 184t-191 76q-127 0 -231 -85.5t-136 -198.5h631q0 4 0.5 12t0.5 12zM642 927l-24 -126h-74l24 126h74z" />
    <glyph glyph-name="Eogonek.alt02" unicode="&#xe036;" horiz-adv-x="855" 
d="M532 -138l-8 -44q-25 -9 -52 -9q-38 0 -64 19t-26 55q0 56 72 105q-7 -1 -22 -1q-148 0 -237.5 89t-89.5 223q0 37 7 71q29 159 165 271t297 112q142 0 234.5 -89.5t92.5 -224.5q0 -36 -7 -70q-4 -22 -8 -34h-705q-1 -9 -1 -26q0 -107 71 -180.5t193 -73.5
q95 0 176.5 46.5t137.5 122.5h80q-52 -85 -136 -145.5t-180 -81.5q-89 -59 -89 -104q0 -19 15 -30t35 -11q22 0 49 10zM826 426q0 108 -74 184t-191 76q-127 0 -231 -85.5t-136 -198.5h631q0 4 0.5 12t0.5 12z" />
    <glyph glyph-name="Ecaron.alt02" unicode="&#xe037;" horiz-adv-x="855" 
d="M901 439q0 -36 -7 -70q-4 -22 -8 -34h-705q-1 -9 -1 -26q0 -107 71 -180.5t193 -73.5q95 0 176.5 46.5t137.5 122.5h80q-64 -105 -174.5 -171t-231.5 -66q-148 0 -237.5 89t-89.5 223q0 37 7 71q29 159 165 271t297 112q142 0 234.5 -89.5t92.5 -224.5zM826 426
q0 108 -74 184t-191 76q-127 0 -231 -85.5t-136 -198.5h631q0 4 0.5 12t0.5 12zM777 926l-167 -125h-67l-121 125h92l72 -73l102 73h89z" />
    <glyph glyph-name="K.alt01" unicode="&#xe038;" horiz-adv-x="586" 
d="M723 740l-360 -361l223 -379h-93l-188 321l-117 -118l-38 -203h-74l137 740h74l-79 -425h2l418 425h95z" />
    <glyph glyph-name="Kcommaaccent.alt01" unicode="&#xe039;" horiz-adv-x="586" 
d="M723 740l-360 -361l223 -379h-93l-188 321l-117 -118l-38 -203h-74l137 740h74l-79 -425h2l418 425h95zM329 -53l-108 -169h-74l108 169h74z" />
    <glyph glyph-name="K.alt02" unicode="&#xe03a;" horiz-adv-x="569" 
d="M699 740l-353 -363l223 -377h-92l-218 376l350 364h90zM287 740l-137 -740h-74l137 740h74z" />
    <glyph glyph-name="Kcommaaccent.alt02" unicode="&#xe03b;" horiz-adv-x="569" 
d="M699 740l-353 -363l223 -377h-92l-218 376l350 364h90zM287 740l-137 -740h-74l137 740h74zM330 -53l-108 -169h-74l108 169h74z" />
    <glyph glyph-name="M.alt01" unicode="&#xe03c;" horiz-adv-x="1228" 
d="M1289 740l-137 -740h-74l122 660h-2l-587 -660h-65l123 664h-2l-573 -664h-93l650 740h106l-112 -604h2l540 604h102z" />
    <glyph glyph-name="M.alt02" unicode="&#xe03d;" horiz-adv-x="1227" 
d="M1226 0h-93l-327 664h-2l-123 -664h-65l-343 660h-2l-122 -660h-74l137 740h102l316 -604h2l112 604h106z" />
    <glyph glyph-name="M.alt03" unicode="&#xe03e;" horiz-adv-x="1144" 
d="M1167 545q0 -41 -9 -86l-85 -459h-74l84 454q9 45 9 82q0 150 -153 150q-94 0 -158.5 -63t-84.5 -170l-84 -453h-74l84 454q9 44 9 81q0 151 -154 151q-94 0 -158.5 -63t-84.5 -170l-84 -453h-74l137 740h73l-18 -97h3q83 111 229 111q85 0 134 -39.5t58 -104.5h2
q88 144 260 144q110 0 161.5 -56.5t51.5 -152.5z" />
    <glyph glyph-name="N.alt01" unicode="&#xe03f;" horiz-adv-x="708" 
d="M731 542q0 -33 -8 -76l-86 -466h-74l84 454q7 35 7 71q0 161 -165 161q-95 0 -165.5 -63.5t-89.5 -169.5l-84 -453h-74l137 740h73l-18 -98h3q83 112 239 112q97 0 159 -53t62 -159z" />
    <glyph glyph-name="Ntilde.alt01" unicode="&#xe040;" horiz-adv-x="708" 
d="M731 542q0 -33 -8 -76l-86 -466h-74l84 454q7 35 7 71q0 161 -165 161q-95 0 -165.5 -63.5t-89.5 -169.5l-84 -453h-74l137 740h73l-18 -98h3q83 112 239 112q97 0 159 -53t62 -159zM673 891l23 -50q-47 -39 -109 -39q-29 0 -82 16.5t-81 16.5q-45 0 -82 -29l-21 51
q46 38 107 38q32 0 84 -16.5t80 -16.5q48 0 81 29z" />
    <glyph glyph-name="Nacute.alt01" unicode="&#xe041;" horiz-adv-x="708" 
d="M731 542q0 -33 -8 -76l-86 -466h-74l84 454q7 35 7 71q0 161 -165 161q-95 0 -165.5 -63.5t-89.5 -169.5l-84 -453h-74l137 740h73l-18 -98h3q83 112 239 112q97 0 159 -53t62 -159zM656 888l-218 -107l-23 58l220 109z" />
    <glyph glyph-name="Ncommaaccent.alt01" unicode="&#xe042;" horiz-adv-x="708" 
d="M731 542q0 -33 -8 -76l-86 -466h-74l84 454q7 35 7 71q0 161 -165 161q-95 0 -165.5 -63.5t-89.5 -169.5l-84 -453h-74l137 740h73l-18 -98h3q83 112 239 112q97 0 159 -53t62 -159zM413 -53l-108 -169h-74l108 169h74z" />
    <glyph glyph-name="Ncaron.alt01" unicode="&#xe043;" horiz-adv-x="708" 
d="M731 542q0 -33 -8 -76l-86 -466h-74l84 454q7 35 7 71q0 161 -165 161q-95 0 -165.5 -63.5t-89.5 -169.5l-84 -453h-74l137 740h73l-18 -98h3q83 112 239 112q97 0 159 -53t62 -159zM704 926l-167 -125h-67l-121 125h92l72 -73l102 73h89z" />
    <glyph glyph-name="U.alt01" unicode="&#xe044;" horiz-adv-x="708" 
d="M769 740l-137 -740h-73l18 97h-3q-86 -111 -241 -111q-110 0 -164 58.5t-54 156.5q0 35 8 80l85 459h74l-84 -454q-7 -35 -7 -71q0 -161 165 -161q95 0 165.5 63.5t89.5 169.5l84 453h74z" />
    <glyph glyph-name="Uacute.alt01" unicode="&#xe045;" horiz-adv-x="708" 
d="M769 740l-137 -740h-73l18 97h-3q-86 -111 -241 -111q-110 0 -164 58.5t-54 156.5q0 35 8 80l85 459h74l-84 -454q-7 -35 -7 -71q0 -161 165 -161q95 0 165.5 63.5t89.5 169.5l84 453h74zM668 888l-218 -107l-23 58l220 109z" />
    <glyph glyph-name="Ugrave.alt01" unicode="&#xe046;" horiz-adv-x="708" 
d="M769 740l-137 -740h-73l18 97h-3q-86 -111 -241 -111q-110 0 -164 58.5t-54 156.5q0 35 8 80l85 459h74l-84 -454q-7 -35 -7 -71q0 -161 165 -161q95 0 165.5 63.5t89.5 169.5l84 453h74zM562 839l-43 -58l-178 107l43 60z" />
    <glyph glyph-name="Ucircumflex.alt01" unicode="&#xe047;" horiz-adv-x="708" 
d="M769 740l-137 -740h-73l18 97h-3q-86 -111 -241 -111q-110 0 -164 58.5t-54 156.5q0 35 8 80l85 459h74l-84 -454q-7 -35 -7 -71q0 -161 165 -161q95 0 165.5 63.5t89.5 169.5l84 453h74zM670 801h-89l-72 73l-102 -73h-91l169 125h66z" />
    <glyph glyph-name="Udieresis.alt01" unicode="&#xe048;" horiz-adv-x="708" 
d="M769 740l-137 -740h-73l18 97h-3q-86 -111 -241 -111q-110 0 -164 58.5t-54 156.5q0 35 8 80l85 459h74l-84 -454q-7 -35 -7 -71q0 -161 165 -161q95 0 165.5 63.5t89.5 169.5l84 453h74zM460 923l-24 -128h-72l24 128h72zM648 923l-24 -128h-72l24 128h72z" />
    <glyph glyph-name="Utilde.alt01" unicode="&#xe049;" horiz-adv-x="708" 
d="M769 740l-137 -740h-73l18 97h-3q-86 -111 -241 -111q-110 0 -164 58.5t-54 156.5q0 35 8 80l85 459h74l-84 -454q-7 -35 -7 -71q0 -161 165 -161q95 0 165.5 63.5t89.5 169.5l84 453h74zM671 842q-60 -39 -105 -39q-32 0 -74.5 20.5t-63.5 20.5q-34 0 -72 -30l-26 50
q52 42 112 42q32 0 72.5 -20.5t61.5 -20.5q9 0 19.5 3t15 5t18.5 10t15 8z" />
    <glyph glyph-name="Umacron.alt01" unicode="&#xe04a;" horiz-adv-x="708" 
d="M769 740l-137 -740h-73l18 97h-3q-86 -111 -241 -111q-110 0 -164 58.5t-54 156.5q0 35 8 80l85 459h74l-84 -454q-7 -35 -7 -71q0 -161 165 -161q95 0 165.5 63.5t89.5 169.5l84 453h74zM675 888l-12 -67h-338l12 67h338z" />
    <glyph glyph-name="Ubreve.alt01" unicode="&#xe04b;" horiz-adv-x="708" 
d="M769 740l-137 -740h-73l18 97h-3q-86 -111 -241 -111q-110 0 -164 58.5t-54 156.5q0 35 8 80l85 459h74l-84 -454q-7 -35 -7 -71q0 -161 165 -161q95 0 165.5 63.5t89.5 169.5l84 453h74zM685 906q-57 -103 -194 -103t-155 103h65q25 -46 100 -46q77 0 119 46h65z" />
    <glyph glyph-name="Uhungarumlaut.alt01" unicode="&#xe04c;" horiz-adv-x="708" 
d="M769 740l-137 -740h-73l18 97h-3q-86 -111 -241 -111q-110 0 -164 58.5t-54 156.5q0 35 8 80l85 459h74l-84 -454q-7 -35 -7 -71q0 -161 165 -161q95 0 165.5 63.5t89.5 169.5l84 453h74zM737 922l-189 -135l-29 46l187 135zM562 922l-189 -135l-29 46l186 135z" />
    <glyph glyph-name="Uring.alt01" unicode="&#xe04d;" horiz-adv-x="708" 
d="M769 740l-137 -740h-73l18 97h-3q-86 -111 -241 -111q-110 0 -164 58.5t-54 156.5q0 35 8 80l85 459h74l-84 -454q-7 -35 -7 -71q0 -161 165 -161q95 0 165.5 63.5t89.5 169.5l84 453h74zM605 875q0 -48 -38.5 -85.5t-86.5 -37.5q-37 0 -61.5 23.5t-24.5 60.5
q0 48 38.5 85.5t86.5 37.5q38 0 62 -23.5t24 -60.5zM552 865q0 19 -12 30.5t-31 11.5q-23 0 -42.5 -19t-19.5 -42q0 -18 12.5 -30t30.5 -12q24 0 43 18.5t19 42.5z" />
    <glyph glyph-name="Uogonek.alt01" unicode="&#xe04e;" horiz-adv-x="708" 
d="M627 -138l-8 -44q-25 -9 -52 -9q-38 0 -64 19t-26 55q0 38 25 65t68 52h-11l18 97h-3q-86 -111 -241 -111q-110 0 -164 58.5t-54 156.5q0 35 8 80l85 459h74l-84 -454q-7 -35 -7 -71q0 -161 165 -161q95 0 165.5 63.5t89.5 169.5l84 453h74l-137 -740h-10
q-26 -17 -41 -28.5t-34 -34.5t-19 -44q0 -19 15 -30t35 -11q22 0 49 10z" />
    <glyph glyph-name="V.alt02" unicode="&#xe04f;" horiz-adv-x="653" 
d="M824 740l-655 -740h-93l137 740h74l-119 -642h2l562 642h92z" />
    <glyph glyph-name="V.alt01" unicode="&#xe050;" horiz-adv-x="653" 
d="M714 740l-137 -740h-93l-381 740h92l324 -642h2l119 642h74z" />
    <glyph glyph-name="W.alt02" unicode="&#xe051;" horiz-adv-x="1159" 
d="M1330 740l-653 -740h-95l113 609h-2l-524 -609h-93l137 740h74l-119 -644h2l552 644h71l-119 -644h2l562 644h92z" />
    <glyph glyph-name="Wcircumflex.alt02" unicode="&#xe052;" horiz-adv-x="1159" 
d="M1330 740l-653 -740h-95l113 609h-2l-524 -609h-93l137 740h74l-119 -644h2l552 644h71l-119 -644h2l562 644h92zM950 801h-89l-72 73l-102 -73h-91l169 125h66z" />
    <glyph glyph-name="Wgrave.alt02" unicode="&#xe053;" horiz-adv-x="1159" 
d="M1330 740l-653 -740h-95l113 609h-2l-524 -609h-93l137 740h74l-119 -644h2l552 644h71l-119 -644h2l562 644h92zM841 839l-43 -58l-178 107l43 60z" />
    <glyph glyph-name="Wacute.alt02" unicode="&#xe054;" horiz-adv-x="1159" 
d="M1330 740l-653 -740h-95l113 609h-2l-524 -609h-93l137 740h74l-119 -644h2l552 644h71l-119 -644h2l562 644h92zM927 888l-218 -107l-23 58l220 109z" />
    <glyph glyph-name="Wdieresis.alt02" unicode="&#xe055;" horiz-adv-x="1159" 
d="M1330 740l-653 -740h-95l113 609h-2l-524 -609h-93l137 740h74l-119 -644h2l552 644h71l-119 -644h2l562 644h92zM910 927l-24 -126h-74l24 126h74zM762 927l-24 -126h-74l24 126h74z" />
    <glyph glyph-name="W.alt01" unicode="&#xe056;" horiz-adv-x="1160" 
d="M1221 740l-137 -740h-94l-297 609h-2l-113 -609h-96l-379 740h92l325 -644h2l119 644h71l314 -644h2l119 644h74z" />
    <glyph glyph-name="Wcircumflex.alt01" unicode="&#xe057;" horiz-adv-x="1160" 
d="M1221 740l-137 -740h-94l-297 609h-2l-113 -609h-96l-379 740h92l325 -644h2l119 644h71l314 -644h2l119 644h74zM861 801h-89l-72 73l-102 -73h-91l169 125h66z" />
    <glyph glyph-name="Wgrave.alt01" unicode="&#xe058;" horiz-adv-x="1160" 
d="M1221 740l-137 -740h-94l-297 609h-2l-113 -609h-96l-379 740h92l325 -644h2l119 644h71l314 -644h2l119 644h74zM779 839l-43 -58l-178 107l43 60z" />
    <glyph glyph-name="Wacute.alt01" unicode="&#xe059;" horiz-adv-x="1160" 
d="M1221 740l-137 -740h-94l-297 609h-2l-113 -609h-96l-379 740h92l325 -644h2l119 644h71l314 -644h2l119 644h74zM853 888l-218 -107l-23 58l220 109z" />
    <glyph glyph-name="Wdieresis.alt01" unicode="&#xe05a;" horiz-adv-x="1160" 
d="M1221 740l-137 -740h-94l-297 609h-2l-113 -609h-96l-379 740h92l325 -644h2l119 644h71l314 -644h2l119 644h74zM840 927l-24 -126h-74l24 126h74zM692 927l-24 -126h-74l24 126h74z" />
    <glyph glyph-name="c.alt01" unicode="&#xe05b;" horiz-adv-x="526" 
d="M566 530l-14 -75q-55 43 -135 43q-93 0 -165 -65.5t-89 -159.5q-5 -25 -5 -44q0 -76 47 -127.5t130 -51.5q90 0 149 39l-13 -73q-54 -29 -150 -29q-109 0 -172 65.5t-63 164.5q0 27 6 56q22 118 116 203t220 85q88 0 138 -31z" />
    <glyph glyph-name="ccedilla.alt01" unicode="&#xe05c;" horiz-adv-x="526" 
d="M566 530l-14 -75q-55 43 -135 43q-93 0 -165 -65.5t-89 -159.5q-5 -25 -5 -44q0 -76 47 -127.5t130 -51.5q90 0 149 39l-13 -73q-56 -29 -144 -29h-6h-9l-27 -45q18 7 34 7q29 0 46.5 -18.5t17.5 -47.5q0 -3 -0.5 -8t-0.5 -7q-7 -39 -37 -64.5t-66 -25.5q-31 0 -52 17
t-23 54l43 5q1 -18 12 -28.5t27 -10.5q21 0 35.5 15t18.5 36q1 4 1 12q0 36 -37 36q-27 0 -49 -22l-34 18l51 81q-87 15 -136.5 77t-49.5 149q0 27 6 56q22 118 116 203t220 85q88 0 138 -31z" />
    <glyph glyph-name="cacute.alt01" unicode="&#xe05d;" horiz-adv-x="526" 
d="M566 530l-14 -75q-55 43 -135 43q-93 0 -165 -65.5t-89 -159.5q-5 -25 -5 -44q0 -76 47 -127.5t130 -51.5q90 0 149 39l-13 -73q-54 -29 -150 -29q-109 0 -172 65.5t-63 164.5q0 27 6 56q22 118 116 203t220 85q88 0 138 -31zM581 706l-218 -107l-23 58l220 109z" />
    <glyph glyph-name="ccircumflex.alt01" unicode="&#xe05e;" horiz-adv-x="526" 
d="M566 530l-14 -75q-55 43 -135 43q-93 0 -165 -65.5t-89 -159.5q-5 -25 -5 -44q0 -76 47 -127.5t130 -51.5q90 0 149 39l-13 -73q-54 -29 -150 -29q-109 0 -172 65.5t-63 164.5q0 27 6 56q22 118 116 203t220 85q88 0 138 -31zM594 619h-89l-72 73l-102 -73h-91l169 125
h66z" />
    <glyph glyph-name="cdotaccent.alt01" unicode="&#xe05f;" horiz-adv-x="526" 
d="M566 530l-14 -75q-55 43 -135 43q-93 0 -165 -65.5t-89 -159.5q-5 -25 -5 -44q0 -76 47 -127.5t130 -51.5q90 0 149 39l-13 -73q-54 -29 -150 -29q-109 0 -172 65.5t-63 164.5q0 27 6 56q22 118 116 203t220 85q88 0 138 -31zM474 755l-24 -126h-74l24 126h74z" />
    <glyph glyph-name="ccaron.alt01" unicode="&#xe060;" horiz-adv-x="526" 
d="M566 530l-14 -75q-55 43 -135 43q-93 0 -165 -65.5t-89 -159.5q-5 -25 -5 -44q0 -76 47 -127.5t130 -51.5q90 0 149 39l-13 -73q-54 -29 -150 -29q-109 0 -172 65.5t-63 164.5q0 27 6 56q22 118 116 203t220 85q88 0 138 -31zM602 734l-167 -125h-67l-121 125h92l72 -73
l102 73h89z" />
    <glyph glyph-name="e.alt01" unicode="&#xe061;" horiz-adv-x="595" 
d="M643 425l-439 -324q50 -51 126 -51q47 0 91.5 17.5t66 33.5t53.5 44l-16 -86q-87 -72 -208 -72q-101 0 -167.5 64t-66.5 166q0 27 6 56q22 121 122 204.5t213 83.5q88 0 143 -42.5t76 -93.5zM556 433q-15 24 -55 44.5t-89 20.5q-85 0 -159.5 -62.5t-92.5 -158.5
q-5 -33 -5 -53q0 -39 16 -76z" />
    <glyph glyph-name="eacute.alt01" unicode="&#xe062;" horiz-adv-x="595" 
d="M643 425l-439 -324q50 -51 126 -51q47 0 91.5 17.5t66 33.5t53.5 44l-16 -86q-87 -72 -208 -72q-101 0 -167.5 64t-66.5 166q0 27 6 56q22 121 122 204.5t213 83.5q88 0 143 -42.5t76 -93.5zM556 433q-15 24 -55 44.5t-89 20.5q-85 0 -159.5 -62.5t-92.5 -158.5
q-5 -33 -5 -53q0 -39 16 -76zM573 706l-218 -107l-23 58l220 109z" />
    <glyph glyph-name="egrave.alt01" unicode="&#xe063;" horiz-adv-x="595" 
d="M643 425l-439 -324q50 -51 126 -51q47 0 91.5 17.5t66 33.5t53.5 44l-16 -86q-87 -72 -208 -72q-101 0 -167.5 64t-66.5 166q0 27 6 56q22 121 122 204.5t213 83.5q88 0 143 -42.5t76 -93.5zM556 433q-15 24 -55 44.5t-89 20.5q-85 0 -159.5 -62.5t-92.5 -158.5
q-5 -33 -5 -53q0 -39 16 -76zM498 657l-43 -58l-178 107l43 60z" />
    <glyph glyph-name="ecircumflex.alt01" unicode="&#xe064;" horiz-adv-x="595" 
d="M643 425l-439 -324q50 -51 126 -51q47 0 91.5 17.5t66 33.5t53.5 44l-16 -86q-87 -72 -208 -72q-101 0 -167.5 64t-66.5 166q0 27 6 56q22 121 122 204.5t213 83.5q88 0 143 -42.5t76 -93.5zM556 433q-15 24 -55 44.5t-89 20.5q-85 0 -159.5 -62.5t-92.5 -158.5
q-5 -33 -5 -53q0 -39 16 -76zM577 619h-89l-72 73l-102 -73h-91l169 125h66z" />
    <glyph glyph-name="edieresis.alt01" unicode="&#xe065;" horiz-adv-x="595" 
d="M643 425l-439 -324q50 -51 126 -51q47 0 91.5 17.5t66 33.5t53.5 44l-16 -86q-87 -72 -208 -72q-101 0 -167.5 64t-66.5 166q0 27 6 56q22 121 122 204.5t213 83.5q88 0 143 -42.5t76 -93.5zM556 433q-15 24 -55 44.5t-89 20.5q-85 0 -159.5 -62.5t-92.5 -158.5
q-5 -33 -5 -53q0 -39 16 -76zM378 748l-24 -128h-73l24 128h73zM566 748l-24 -128h-72l24 128h72z" />
    <glyph glyph-name="emacron.alt01" unicode="&#xe066;" horiz-adv-x="595" 
d="M643 425l-439 -324q50 -51 126 -51q47 0 91.5 17.5t66 33.5t53.5 44l-16 -86q-87 -72 -208 -72q-101 0 -167.5 64t-66.5 166q0 27 6 56q22 121 122 204.5t213 83.5q88 0 143 -42.5t76 -93.5zM556 433q-15 24 -55 44.5t-89 20.5q-85 0 -159.5 -62.5t-92.5 -158.5
q-5 -33 -5 -53q0 -39 16 -76zM602 706l-12 -67h-338l12 67h338z" />
    <glyph glyph-name="ebreve.alt01" unicode="&#xe067;" horiz-adv-x="595" 
d="M643 425l-439 -324q50 -51 126 -51q47 0 91.5 17.5t66 33.5t53.5 44l-16 -86q-87 -72 -208 -72q-101 0 -167.5 64t-66.5 166q0 27 6 56q22 121 122 204.5t213 83.5q88 0 143 -42.5t76 -93.5zM556 433q-15 24 -55 44.5t-89 20.5q-85 0 -159.5 -62.5t-92.5 -158.5
q-5 -33 -5 -53q0 -39 16 -76zM601 714q-57 -103 -194 -103t-155 103h65q25 -46 100 -46q77 0 119 46h65z" />
    <glyph glyph-name="edotaccent.alt01" unicode="&#xe068;" horiz-adv-x="595" 
d="M643 425l-439 -324q50 -51 126 -51q47 0 91.5 17.5t66 33.5t53.5 44l-16 -86q-87 -72 -208 -72q-101 0 -167.5 64t-66.5 166q0 27 6 56q22 121 122 204.5t213 83.5q88 0 143 -42.5t76 -93.5zM556 433q-15 24 -55 44.5t-89 20.5q-85 0 -159.5 -62.5t-92.5 -158.5
q-5 -33 -5 -53q0 -39 16 -76zM479 755l-24 -126h-74l24 126h74z" />
    <glyph glyph-name="eogonek.alt01" unicode="&#xe069;" horiz-adv-x="595" 
d="M402 -138l-8 -44q-26 -9 -52 -9q-38 0 -64 19t-26 55q0 59 72 104h-7q-101 0 -167.5 64t-66.5 166q0 27 6 56q22 121 122 204.5t213 83.5q88 0 143 -42.5t76 -93.5l-439 -324q50 -51 126 -51q47 0 91.5 17.5t66 33.5t53.5 44l-16 -86q-56 -47 -137 -64q-85 -57 -85 -102
q0 -19 15 -30t35 -11q22 0 49 10zM556 433q-15 24 -55 44.5t-89 20.5q-85 0 -159.5 -62.5t-92.5 -158.5q-5 -33 -5 -53q0 -39 16 -76z" />
    <glyph glyph-name="ecaron.alt01" unicode="&#xe06a;" horiz-adv-x="595" 
d="M643 425l-439 -324q50 -51 126 -51q47 0 91.5 17.5t66 33.5t53.5 44l-16 -86q-87 -72 -208 -72q-101 0 -167.5 64t-66.5 166q0 27 6 56q22 121 122 204.5t213 83.5q88 0 143 -42.5t76 -93.5zM556 433q-15 24 -55 44.5t-89 20.5q-85 0 -159.5 -62.5t-92.5 -158.5
q-5 -33 -5 -53q0 -39 16 -76zM611 734l-167 -125h-67l-121 125h92l72 -73l102 73h89z" />
    <glyph glyph-name="f.alt01" unicode="&#xe06b;" horiz-adv-x="239" 
d="M454 753l-12 -65q-41 0 -71 -10.5t-46 -23.5t-27.5 -36.5t-14.5 -35.5t-8 -35l-101 -547h-70l90 484h-85l11 63h85q7 31 12.5 51t23.5 52.5t42 52t68.5 34.5t102.5 16z" />
    <glyph glyph-name="f.alt02" unicode="&#xe06c;" horiz-adv-x="275" 
d="M415 753l-12 -65q-41 0 -71 -10.5t-46 -23.5t-27.5 -36.5t-14.5 -35.5t-8 -35h140l-11 -63h-140l-90 -484h-70l101 547q5 30 11.5 51.5t24 52.5t42 51t69 35t102.5 16z" />
    <glyph glyph-name="k.alt01" unicode="&#xe06d;" horiz-adv-x="502" 
d="M588 547l-267 -276l177 -271h-90l-140 216l-109 -112l-19 -104h-70l137 740h70l-98 -527h2l317 334h90z" />
    <glyph glyph-name="kcommaaccent.alt01" unicode="&#xe06e;" horiz-adv-x="502" 
d="M588 547l-267 -276l177 -271h-90l-140 216l-109 -112l-19 -104h-70l137 740h70l-98 -527h2l317 334h90zM297 -53l-108 -169h-74l108 169h74z" />
    <glyph glyph-name="k.alt02" unicode="&#xe06f;" horiz-adv-x="486" 
d="M193 274l274 273h87l-277 -269l205 -278h-92zM277 740l-137 -740h-70l137 740h70z" />
    <glyph glyph-name="kcommaaccent.alt02" unicode="&#xe070;" horiz-adv-x="486" 
d="M193 274l274 273h87l-277 -269l205 -278h-92zM277 740l-137 -740h-70l137 740h70zM285 -53l-108 -169h-74l108 169h74z" />
    <glyph glyph-name="t.alt01" unicode="&#xe071;" horiz-adv-x="264" 
d="M336 740l-137 -740h-70l90 484h-115l11 63h115l36 193h70z" />
    <glyph glyph-name="tcaron.alt01" unicode="&#xe072;" horiz-adv-x="357" 
d="M336 740l-137 -740h-70l90 484h-115l11 63h115l36 193h70zM525 738l-108 -169h-74l108 169h74z" />
    <glyph glyph-name="tcedilla.alt01" unicode="&#xe073;" horiz-adv-x="264" 
d="M336 740l-137 -740h-70l90 484h-115l11 63h115l36 193h70zM210 -53l-108 -169h-74l108 169h74z" />
    <glyph glyph-name="tcommaaccent.alt01" unicode="&#xe074;" horiz-adv-x="264" 
d="M336 740l-137 -740h-70l90 484h-115l11 63h115l36 193h70zM213 -53l-108 -169h-74l108 169h74z" />
    <glyph glyph-name="t.alt02" unicode="&#xe075;" horiz-adv-x="275" 
d="M367 547l-11 -63h-131l-90 -484h-70l137 740h70l-36 -193h131z" />
    <glyph glyph-name="tcaron.alt02" unicode="&#xe076;" horiz-adv-x="357" 
d="M367 547l-11 -63h-131l-90 -484h-70l137 740h70l-36 -193h131zM476 785l-108 -169h-74l108 169h74z" />
    <glyph glyph-name="tcedilla.alt02" unicode="&#xe077;" horiz-adv-x="275" 
d="M367 547l-11 -63h-131l-90 -484h-70l137 740h70l-36 -193h131zM147 -53l-108 -169h-74l108 169h74z" />
    <glyph glyph-name="tcommaaccent.alt02" unicode="&#xe078;" horiz-adv-x="275" 
d="M367 547l-11 -63h-131l-90 -484h-70l137 740h70l-36 -193h131zM151 -53l-108 -169h-74l108 169h74z" />
    <glyph glyph-name="v.alt02" unicode="&#xe079;" horiz-adv-x="521" 
d="M644 547l-479 -547h-100l101 547h70l-86 -467h2l408 467h84z" />
    <glyph glyph-name="v.alt01" unicode="&#xe07a;" horiz-adv-x="521" 
d="M557 547l-101 -547h-100l-277 547h84l236 -467h2l86 467h70z" />
    <glyph glyph-name="w.alt02" unicode="&#xe07b;" horiz-adv-x="897" 
d="M1020 547l-482 -547h-88l80 429h-3l-375 -429h-87l101 547h70l-84 -455h2l397 455h70l-83 -450h2l397 450h83z" />
    <glyph glyph-name="wcircumflex.alt02" unicode="&#xe07c;" horiz-adv-x="897" 
d="M1020 547l-482 -547h-88l80 429h-3l-375 -429h-87l101 547h70l-84 -455h2l397 455h70l-83 -450h2l397 450h83zM783 619h-89l-72 73l-102 -73h-91l169 125h66z" />
    <glyph glyph-name="wgrave.alt02" unicode="&#xe07d;" horiz-adv-x="897" 
d="M1020 547l-482 -547h-88l80 429h-3l-375 -429h-87l101 547h70l-84 -455h2l397 455h70l-83 -450h2l397 450h83zM684 657l-43 -58l-178 107l43 60z" />
    <glyph glyph-name="wacute.alt02" unicode="&#xe07e;" horiz-adv-x="897" 
d="M1020 547l-482 -547h-88l80 429h-3l-375 -429h-87l101 547h70l-84 -455h2l397 455h70l-83 -450h2l397 450h83zM755 706l-218 -107l-23 58l220 109z" />
    <glyph glyph-name="wdieresis.alt02" unicode="&#xe07f;" horiz-adv-x="897" 
d="M1020 547l-482 -547h-88l80 429h-3l-375 -429h-87l101 547h70l-84 -455h2l397 455h70l-83 -450h2l397 450h83zM734 755l-24 -126h-74l24 126h74zM586 755l-24 -126h-74l24 126h74z" />
    <glyph glyph-name="w.alt01" unicode="&#xe080;" horiz-adv-x="897" 
d="M933 547l-101 -547h-87l-215 429h-3l-80 -429h-88l-280 547h83l231 -450h2l83 450h70l229 -455h2l84 455h70z" />
    <glyph glyph-name="wcircumflex.alt01" unicode="&#xe081;" horiz-adv-x="897" 
d="M933 547l-101 -547h-87l-215 429h-3l-80 -429h-88l-280 547h83l231 -450h2l83 450h70l229 -455h2l84 455h70zM703 619h-89l-72 73l-102 -73h-91l169 125h66z" />
    <glyph glyph-name="wgrave.alt01" unicode="&#xe082;" horiz-adv-x="897" 
d="M933 547l-101 -547h-87l-215 429h-3l-80 -429h-88l-280 547h83l231 -450h2l83 450h70l229 -455h2l84 455h70zM624 657l-43 -58l-178 107l43 60z" />
    <glyph glyph-name="wacute.alt01" unicode="&#xe083;" horiz-adv-x="897" 
d="M933 547l-101 -547h-87l-215 429h-3l-80 -429h-88l-280 547h83l231 -450h2l83 450h70l229 -455h2l84 455h70zM705 706l-218 -107l-23 58l220 109z" />
    <glyph glyph-name="wdieresis.alt01" unicode="&#xe084;" horiz-adv-x="897" 
d="M933 547l-101 -547h-87l-215 429h-3l-80 -429h-88l-280 547h83l231 -450h2l83 450h70l229 -455h2l84 455h70zM664 755l-24 -126h-74l24 126h74zM516 755l-24 -126h-74l24 126h74z" />
    <glyph glyph-name="y.alt01" unicode="&#xe085;" horiz-adv-x="529" 
d="M651 547l-652 -739h-84l144 162l107 577h70l-88 -475h4l415 475h84z" />
    <glyph glyph-name="yacute.alt01" unicode="&#xe086;" horiz-adv-x="529" 
d="M651 547l-652 -739h-84l144 162l107 577h70l-88 -475h4l415 475h84zM575 706l-218 -107l-23 58l220 109z" />
    <glyph glyph-name="ydieresis.alt01" unicode="&#xe087;" horiz-adv-x="529" 
d="M651 547l-652 -739h-84l144 162l107 577h70l-88 -475h4l415 475h84zM364 748l-24 -128h-72l24 128h72zM552 748l-24 -128h-72l24 128h72z" />
    <glyph glyph-name="ycircumflex.alt01" unicode="&#xe088;" horiz-adv-x="529" 
d="M651 547l-652 -739h-84l144 162l107 577h70l-88 -475h4l415 475h84zM589 619h-89l-72 73l-102 -73h-91l169 125h66z" />
    <glyph glyph-name="ygrave.alt01" unicode="&#xe089;" horiz-adv-x="529" 
d="M651 547l-652 -739h-84l144 162l107 577h70l-88 -475h4l415 475h84zM500 657l-43 -58l-178 107l43 60z" />
    <glyph glyph-name="C_A" unicode="&#xe08a;" horiz-adv-x="1037" 
d="M1098 740l-137 -740h-74l53 286h-254l-200 -227q155 16 276 162h82q-75 -107 -182 -171t-240 -64q-139 0 -228 89t-89 225q0 37 7 72q30 162 162.5 272t291.5 110q161 0 257 -102l-54 -57q-43 44 -93 67.5t-122 23.5q-130 0 -236.5 -91t-131.5 -224q-6 -32 -6 -61
q0 -100 59 -170t156 -83l602 683h101zM1009 656h-2l-263 -303h208z" />
    <glyph glyph-name="C_Aacute" unicode="&#xe08b;" horiz-adv-x="1037" 
d="M1098 740l-137 -740h-74l53 286h-254l-200 -227q155 16 276 162h82q-75 -107 -182 -171t-240 -64q-139 0 -228 89t-89 225q0 37 7 72q30 162 162.5 272t291.5 110q161 0 257 -102l-54 -57q-43 44 -93 67.5t-122 23.5q-130 0 -236.5 -91t-131.5 -224q-6 -32 -6 -61
q0 -100 59 -170t156 -83l602 683h101zM1009 656h-2l-263 -303h208zM1235 888l-218 -107l-23 58l220 109z" />
    <glyph glyph-name="C_Agrave" unicode="&#xe08c;" horiz-adv-x="1037" 
d="M1098 740l-137 -740h-74l53 286h-254l-200 -227q155 16 276 162h82q-75 -107 -182 -171t-240 -64q-139 0 -228 89t-89 225q0 37 7 72q30 162 162.5 272t291.5 110q161 0 257 -102l-54 -57q-43 44 -93 67.5t-122 23.5q-130 0 -236.5 -91t-131.5 -224q-6 -32 -6 -61
q0 -100 59 -170t156 -83l602 683h101zM1009 656h-2l-263 -303h208zM1133 839l-43 -58l-178 107l43 60z" />
    <glyph glyph-name="C_Acircumflex" unicode="&#xe08d;" horiz-adv-x="1037" 
d="M1098 740l-137 -740h-74l53 286h-254l-200 -227q155 16 276 162h82q-75 -107 -182 -171t-240 -64q-139 0 -228 89t-89 225q0 37 7 72q30 162 162.5 272t291.5 110q161 0 257 -102l-54 -57q-43 44 -93 67.5t-122 23.5q-130 0 -236.5 -91t-131.5 -224q-6 -32 -6 -61
q0 -100 59 -170t156 -83l602 683h101zM1009 656h-2l-263 -303h208zM1202 801h-89l-72 73l-102 -73h-91l169 125h66z" />
    <glyph glyph-name="C_Adieresis" unicode="&#xe08e;" horiz-adv-x="1037" 
d="M1098 740l-137 -740h-74l53 286h-254l-200 -227q155 16 276 162h82q-75 -107 -182 -171t-240 -64q-139 0 -228 89t-89 225q0 37 7 72q30 162 162.5 272t291.5 110q161 0 257 -102l-54 -57q-43 44 -93 67.5t-122 23.5q-130 0 -236.5 -91t-131.5 -224q-6 -32 -6 -61
q0 -100 59 -170t156 -83l602 683h101zM1009 656h-2l-263 -303h208zM1179 927l-24 -126h-74l24 126h74zM1031 927l-24 -126h-74l24 126h74z" />
    <glyph glyph-name="C_Atilde" unicode="&#xe08f;" horiz-adv-x="1037" 
d="M1098 740l-137 -740h-74l53 286h-254l-200 -227q155 16 276 162h82q-75 -107 -182 -171t-240 -64q-139 0 -228 89t-89 225q0 37 7 72q30 162 162.5 272t291.5 110q161 0 257 -102l-54 -57q-43 44 -93 67.5t-122 23.5q-130 0 -236.5 -91t-131.5 -224q-6 -32 -6 -61
q0 -100 59 -170t156 -83l602 683h101zM1009 656h-2l-263 -303h208zM1204 842q-60 -39 -105 -39q-32 0 -74.5 20.5t-63.5 20.5q-35 0 -72 -30l-26 50q52 42 112 42q32 0 72.5 -20.5t61.5 -20.5q9 0 19.5 3t15 5t18.5 10t15 8z" />
    <glyph glyph-name="C_Amacron" unicode="&#xe090;" horiz-adv-x="1037" 
d="M1098 740l-137 -740h-74l53 286h-254l-200 -227q155 16 276 162h82q-75 -107 -182 -171t-240 -64q-139 0 -228 89t-89 225q0 37 7 72q30 162 162.5 272t291.5 110q161 0 257 -102l-54 -57q-43 44 -93 67.5t-122 23.5q-130 0 -236.5 -91t-131.5 -224q-6 -32 -6 -61
q0 -100 59 -170t156 -83l602 683h101zM1009 656h-2l-263 -303h208zM1193 888l-12 -67h-338l12 67h338z" />
    <glyph glyph-name="C_Abreve" unicode="&#xe091;" horiz-adv-x="1037" 
d="M1098 740l-137 -740h-74l53 286h-254l-200 -227q155 16 276 162h82q-75 -107 -182 -171t-240 -64q-139 0 -228 89t-89 225q0 37 7 72q30 162 162.5 272t291.5 110q161 0 257 -102l-54 -57q-43 44 -93 67.5t-122 23.5q-130 0 -236.5 -91t-131.5 -224q-6 -32 -6 -61
q0 -100 59 -170t156 -83l602 683h101zM1009 656h-2l-263 -303h208zM1261 906q-57 -103 -194 -103t-155 103h65q25 -46 100 -46q77 0 119 46h65z" />
    <glyph glyph-name="C_Aogonek" unicode="&#xe092;" horiz-adv-x="1037" 
d="M958 -138l-8 -44q-26 -9 -52 -9q-38 0 -64 19t-26 55q0 38 25 65t68 52h-14l53 286h-254l-200 -227q155 16 276 162h82q-75 -107 -182 -171t-240 -64q-139 0 -228 89t-89 225q0 37 7 72q30 162 162.5 272t291.5 110q161 0 257 -102l-54 -57q-43 44 -93 67.5t-122 23.5
q-130 0 -236.5 -91t-131.5 -224q-6 -32 -6 -61q0 -100 59 -170t156 -83l602 683h101l-137 -740h-8q-26 -17 -41 -28.5t-34 -34.5t-19 -44q0 -19 15 -30t35 -11q22 0 49 10zM1009 656h-2l-263 -303h208z" />
    <glyph glyph-name="Ccedilla_A" unicode="&#xe093;" horiz-adv-x="1037" 
d="M473 -118q0 -45 -32.5 -74.5t-77.5 -29.5q-33 0 -51 20.5t-18 54.5v2l42 2q0 -18 10.5 -30t28.5 -12q25 0 40.5 19.5t15.5 44.5q0 35 -40 35q-24 0 -43 -19l-33 21l53 74q-118 17 -190.5 102.5t-72.5 207.5q0 37 7 72q30 162 162.5 272t291.5 110q161 0 257 -102l-54 -57
q-43 44 -93 67.5t-122 23.5q-130 0 -236.5 -91t-131.5 -224q-6 -32 -6 -61q0 -100 59 -170t156 -83l602 683h101l-137 -740h-74l53 286h-254l-200 -227q155 16 276 162h82q-75 -107 -182 -171t-240 -64h-13l-28 -42q15 4 33 4q28 0 43.5 -19t15.5 -47zM1009 656h-2
l-263 -303h208z" />
    <glyph glyph-name="Ccedilla_Aacute" unicode="&#xe094;" horiz-adv-x="1037" 
d="M473 -118q0 -45 -32.5 -74.5t-77.5 -29.5q-33 0 -51 20.5t-18 54.5v2l42 2q0 -18 10.5 -30t28.5 -12q25 0 40.5 19.5t15.5 44.5q0 35 -40 35q-24 0 -43 -19l-33 21l53 74q-118 17 -190.5 102.5t-72.5 207.5q0 37 7 72q30 162 162.5 272t291.5 110q161 0 257 -102l-54 -57
q-43 44 -93 67.5t-122 23.5q-130 0 -236.5 -91t-131.5 -224q-6 -32 -6 -61q0 -100 59 -170t156 -83l602 683h101l-137 -740h-74l53 286h-254l-200 -227q155 16 276 162h82q-75 -107 -182 -171t-240 -64h-13l-28 -42q15 4 33 4q28 0 43.5 -19t15.5 -47zM1009 656h-2
l-263 -303h208zM1222 888l-218 -107l-23 58l220 109z" />
    <glyph glyph-name="Cacute_A" unicode="&#xe095;" horiz-adv-x="1037" 
d="M1098 740l-137 -740h-74l53 286h-254l-200 -227q155 16 276 162h82q-75 -107 -182 -171t-240 -64q-139 0 -228 89t-89 225q0 37 7 72q30 162 162.5 272t291.5 110q161 0 257 -102l-54 -57q-43 44 -93 67.5t-122 23.5q-130 0 -236.5 -91t-131.5 -224q-6 -32 -6 -61
q0 -100 59 -170t156 -83l602 683h101zM1009 656h-2l-263 -303h208zM750 888l-218 -107l-23 58l220 109z" />
    <glyph glyph-name="Cacute_Aogonek" unicode="&#xe096;" horiz-adv-x="1037" 
d="M958 -138l-8 -44q-26 -9 -52 -9q-38 0 -64 19t-26 55q0 38 25 65t68 52h-14l53 286h-254l-200 -227q155 16 276 162h82q-75 -107 -182 -171t-240 -64q-139 0 -228 89t-89 225q0 37 7 72q30 162 162.5 272t291.5 110q161 0 257 -102l-54 -57q-43 44 -93 67.5t-122 23.5
q-130 0 -236.5 -91t-131.5 -224q-6 -32 -6 -61q0 -100 59 -170t156 -83l602 683h101l-137 -740h-8q-26 -17 -41 -28.5t-34 -34.5t-19 -44q0 -19 15 -30t35 -11q22 0 49 10zM1009 656h-2l-263 -303h208zM752 888l-218 -107l-23 58l220 109z" />
    <glyph glyph-name="Ccircumflex_A" unicode="&#xe097;" horiz-adv-x="1037" 
d="M1098 740l-137 -740h-74l53 286h-254l-200 -227q155 16 276 162h82q-75 -107 -182 -171t-240 -64q-139 0 -228 89t-89 225q0 37 7 72q30 162 162.5 272t291.5 110q161 0 257 -102l-54 -57q-43 44 -93 67.5t-122 23.5q-130 0 -236.5 -91t-131.5 -224q-6 -32 -6 -61
q0 -100 59 -170t156 -83l602 683h101zM1009 656h-2l-263 -303h208zM728 801h-89l-72 73l-102 -73h-91l169 125h66z" />
    <glyph glyph-name="Ccircumflex_Amacron" unicode="&#xe098;" horiz-adv-x="1037" 
d="M1098 740l-137 -740h-74l53 286h-254l-200 -227q155 16 276 162h82q-75 -107 -182 -171t-240 -64q-139 0 -228 89t-89 225q0 37 7 72q30 162 162.5 272t291.5 110q161 0 257 -102l-54 -57q-43 44 -93 67.5t-122 23.5q-130 0 -236.5 -91t-131.5 -224q-6 -32 -6 -61
q0 -100 59 -170t156 -83l602 683h101zM1009 656h-2l-263 -303h208zM723 801h-89l-72 73l-102 -73h-91l169 125h66zM1214 888l-12 -67h-338l12 67h338z" />
    <glyph glyph-name="Ccircumflex_Abreve" unicode="&#xe099;" horiz-adv-x="1037" 
d="M1098 740l-137 -740h-74l53 286h-254l-200 -227q155 16 276 162h82q-75 -107 -182 -171t-240 -64q-139 0 -228 89t-89 225q0 37 7 72q30 162 162.5 272t291.5 110q161 0 257 -102l-54 -57q-43 44 -93 67.5t-122 23.5q-130 0 -236.5 -91t-131.5 -224q-6 -32 -6 -61
q0 -100 59 -170t156 -83l602 683h101zM1009 656h-2l-263 -303h208zM739 801h-89l-72 73l-102 -73h-91l169 125h66zM1220 906q-57 -103 -194 -103t-155 103h65q25 -46 100 -46q77 0 119 46h65z" />
    <glyph glyph-name="Cdotaccent_A" unicode="&#xe09a;" horiz-adv-x="1037" 
d="M1098 740l-137 -740h-74l53 286h-254l-200 -227q155 16 276 162h82q-75 -107 -182 -171t-240 -64q-139 0 -228 89t-89 225q0 37 7 72q30 162 162.5 272t291.5 110q161 0 257 -102l-54 -57q-43 44 -93 67.5t-122 23.5q-130 0 -236.5 -91t-131.5 -224q-6 -32 -6 -61
q0 -100 59 -170t156 -83l602 683h101zM1009 656h-2l-263 -303h208zM626 926l-24 -126h-74l24 126h74z" />
    <glyph glyph-name="Cdotaccent_Agrave" unicode="&#xe09b;" horiz-adv-x="1037" 
d="M1098 740l-137 -740h-74l53 286h-254l-200 -227q155 16 276 162h82q-75 -107 -182 -171t-240 -64q-139 0 -228 89t-89 225q0 37 7 72q30 162 162.5 272t291.5 110q161 0 257 -102l-54 -57q-43 44 -93 67.5t-122 23.5q-130 0 -236.5 -91t-131.5 -224q-6 -32 -6 -61
q0 -100 59 -170t156 -83l602 683h101zM1009 656h-2l-263 -303h208zM633 927l-24 -126h-74l24 126h74zM1142 839l-43 -58l-178 107l43 60z" />
    <glyph glyph-name="Ccaron_A" unicode="&#xe09c;" horiz-adv-x="1037" 
d="M1098 740l-137 -740h-74l53 286h-254l-200 -227q155 16 276 162h82q-75 -107 -182 -171t-240 -64q-139 0 -228 89t-89 225q0 37 7 72q30 162 162.5 272t291.5 110q161 0 257 -102l-54 -57q-43 44 -93 67.5t-122 23.5q-130 0 -236.5 -91t-131.5 -224q-6 -32 -6 -61
q0 -100 59 -170t156 -83l602 683h101zM1009 656h-2l-263 -303h208zM768 926l-167 -125h-67l-121 125h92l72 -73l102 73h89z" />
    <glyph glyph-name="Ccaron_Aacute" unicode="&#xe09d;" horiz-adv-x="1037" 
d="M1098 740l-137 -740h-74l53 286h-254l-200 -227q155 16 276 162h82q-75 -107 -182 -171t-240 -64q-139 0 -228 89t-89 225q0 37 7 72q30 162 162.5 272t291.5 110q161 0 257 -102l-54 -57q-43 44 -93 67.5t-122 23.5q-130 0 -236.5 -91t-131.5 -224q-6 -32 -6 -61
q0 -100 59 -170t156 -83l602 683h101zM1009 656h-2l-263 -303h208zM746 926l-167 -125h-67l-121 125h92l72 -73l102 73h89zM1201 888l-218 -107l-23 58l220 109z" />
    <glyph glyph-name="Ccaron_Adieresis" unicode="&#xe09e;" horiz-adv-x="1037" 
d="M1098 740l-137 -740h-74l53 286h-254l-200 -227q155 16 276 162h82q-75 -107 -182 -171t-240 -64q-139 0 -228 89t-89 225q0 37 7 72q30 162 162.5 272t291.5 110q161 0 257 -102l-54 -57q-43 44 -93 67.5t-122 23.5q-130 0 -236.5 -91t-131.5 -224q-6 -32 -6 -61
q0 -100 59 -170t156 -83l602 683h101zM1009 656h-2l-263 -303h208zM762 926l-167 -125h-67l-121 125h92l72 -73l102 73h89zM1168 927l-24 -126h-74l24 126h74zM1020 927l-24 -126h-74l24 126h74z" />
    <glyph glyph-name="Ccaron_Amacron" unicode="&#xe09f;" horiz-adv-x="1037" 
d="M1098 740l-137 -740h-74l53 286h-254l-200 -227q155 16 276 162h82q-75 -107 -182 -171t-240 -64q-139 0 -228 89t-89 225q0 37 7 72q30 162 162.5 272t291.5 110q161 0 257 -102l-54 -57q-43 44 -93 67.5t-122 23.5q-130 0 -236.5 -91t-131.5 -224q-6 -32 -6 -61
q0 -100 59 -170t156 -83l602 683h101zM1009 656h-2l-263 -303h208zM760 926l-167 -125h-67l-121 125h92l72 -73l102 73h89zM1207 888l-12 -67h-338l12 67h338z" />
    <glyph glyph-name="Ccaron_Abreve" unicode="&#xe0a0;" horiz-adv-x="1037" 
d="M1098 740l-137 -740h-74l53 286h-254l-200 -227q155 16 276 162h82q-75 -107 -182 -171t-240 -64q-139 0 -228 89t-89 225q0 37 7 72q30 162 162.5 272t291.5 110q161 0 257 -102l-54 -57q-43 44 -93 67.5t-122 23.5q-130 0 -236.5 -91t-131.5 -224q-6 -32 -6 -61
q0 -100 59 -170t156 -83l602 683h101zM1009 656h-2l-263 -303h208zM752 926l-167 -125h-67l-121 125h92l72 -73l102 73h89zM1217 906q-57 -103 -194 -103t-155 103h65q25 -46 100 -46q77 0 119 46h65z" />
    <glyph glyph-name="C_O.alt01" unicode="&#xe0a1;" horiz-adv-x="801" 
d="M747 420q0 -26 -4 -49q-20 -107 -105 -180.5t-189 -73.5q-92 0 -149 57.5t-57 146.5q0 22 5 50q19 107 104.5 180.5t189.5 73.5q91 0 148 -58t57 -147zM871 550h-84q-28 60 -91 97.5t-144 37.5q-130 0 -236.5 -95t-129.5 -220q-6 -30 -6 -58q0 -111 72 -184.5t183 -73.5
q52 0 102 16t87.5 41t60 44.5t38.5 38.5h84q-71 -98 -175 -152.5t-209 -54.5q-139 0 -228.5 89.5t-89.5 224.5q0 37 7 71q30 160 163.5 270t289.5 110q115 0 197 -57t109 -145zM672 407q0 64 -40 105t-104 41q-76 0 -134 -52t-72 -130q-4 -17 -4 -39q0 -64 39 -104t104 -40
q74 0 134 52.5t74 129.5q3 19 3 37z" />
    <glyph glyph-name="C_O" unicode="&#xe0a2;" horiz-adv-x="1217" 
d="M1249 439q0 -33 -6 -69q-20 -106 -91 -195t-170 -138.5t-202 -49.5q-92 0 -170 43q-93 -43 -182 -43q-139 0 -231 87.5t-92 223.5q0 35 6 71q20 107 88.5 195.5t166.5 138t202 49.5q92 0 168 -42q92 43 186 43q140 0 233.5 -89t93.5 -225zM1174 426q0 111 -74.5 185.5
t-190.5 74.5q-56 0 -113 -20q61 -57 74 -116h-83q-24 47 -65 81q-72 -43 -123 -112.5t-66 -152.5q-5 -23 -5 -54q0 -126 95 -202q54 33 101 84h83q-51 -70 -121 -120q48 -20 106 -20q129 0 240.5 92t135.5 223q6 29 6 57zM658 666q-50 19 -103 19q-128 0 -237 -95.5
t-133 -221.5q-5 -30 -5 -54q0 -110 75.5 -185t183.5 -75q56 0 111 20q-97 91 -97 227q0 32 6 65q35 186 199 300z" />
    <glyph glyph-name="C_Oacute" unicode="&#xe0a3;" horiz-adv-x="1217" 
d="M1249 439q0 -33 -6 -69q-20 -106 -91 -195t-170 -138.5t-202 -49.5q-92 0 -170 43q-93 -43 -182 -43q-139 0 -231 87.5t-92 223.5q0 35 6 71q20 107 88.5 195.5t166.5 138t202 49.5q92 0 168 -42q92 43 186 43q140 0 233.5 -89t93.5 -225zM1174 426q0 111 -74.5 185.5
t-190.5 74.5q-56 0 -113 -20q61 -57 74 -116h-83q-24 47 -65 81q-72 -43 -123 -112.5t-66 -152.5q-5 -23 -5 -54q0 -126 95 -202q54 33 101 84h83q-51 -70 -121 -120q48 -20 106 -20q129 0 240.5 92t135.5 223q6 29 6 57zM658 666q-50 19 -103 19q-128 0 -237 -95.5
t-133 -221.5q-5 -30 -5 -54q0 -110 75.5 -185t183.5 -75q56 0 111 20q-97 91 -97 227q0 32 6 65q35 186 199 300zM1117 888l-218 -107l-23 58l220 109z" />
    <glyph glyph-name="C_Ograve" unicode="&#xe0a4;" horiz-adv-x="1217" 
d="M1249 439q0 -33 -6 -69q-20 -106 -91 -195t-170 -138.5t-202 -49.5q-92 0 -170 43q-93 -43 -182 -43q-139 0 -231 87.5t-92 223.5q0 35 6 71q20 107 88.5 195.5t166.5 138t202 49.5q92 0 168 -42q92 43 186 43q140 0 233.5 -89t93.5 -225zM1174 426q0 111 -74.5 185.5
t-190.5 74.5q-56 0 -113 -20q61 -57 74 -116h-83q-24 47 -65 81q-72 -43 -123 -112.5t-66 -152.5q-5 -23 -5 -54q0 -126 95 -202q54 33 101 84h83q-51 -70 -121 -120q48 -20 106 -20q129 0 240.5 92t135.5 223q6 29 6 57zM658 666q-50 19 -103 19q-128 0 -237 -95.5
t-133 -221.5q-5 -30 -5 -54q0 -110 75.5 -185t183.5 -75q56 0 111 20q-97 91 -97 227q0 32 6 65q35 186 199 300zM1060 839l-43 -58l-178 107l43 60z" />
    <glyph glyph-name="C_Ocircumflex" unicode="&#xe0a5;" horiz-adv-x="1217" 
d="M1249 439q0 -33 -6 -69q-20 -106 -91 -195t-170 -138.5t-202 -49.5q-92 0 -170 43q-93 -43 -182 -43q-139 0 -231 87.5t-92 223.5q0 35 6 71q20 107 88.5 195.5t166.5 138t202 49.5q92 0 168 -42q92 43 186 43q140 0 233.5 -89t93.5 -225zM1174 426q0 111 -74.5 185.5
t-190.5 74.5q-56 0 -113 -20q61 -57 74 -116h-83q-24 47 -65 81q-72 -43 -123 -112.5t-66 -152.5q-5 -23 -5 -54q0 -126 95 -202q54 33 101 84h83q-51 -70 -121 -120q48 -20 106 -20q129 0 240.5 92t135.5 223q6 29 6 57zM658 666q-50 19 -103 19q-128 0 -237 -95.5
t-133 -221.5q-5 -30 -5 -54q0 -110 75.5 -185t183.5 -75q56 0 111 20q-97 91 -97 227q0 32 6 65q35 186 199 300zM1134 801h-89l-72 73l-102 -73h-91l169 125h66z" />
    <glyph glyph-name="C_Odieresis" unicode="&#xe0a6;" horiz-adv-x="1217" 
d="M1249 439q0 -33 -6 -69q-20 -106 -91 -195t-170 -138.5t-202 -49.5q-92 0 -170 43q-93 -43 -182 -43q-139 0 -231 87.5t-92 223.5q0 35 6 71q20 107 88.5 195.5t166.5 138t202 49.5q92 0 168 -42q92 43 186 43q140 0 233.5 -89t93.5 -225zM1174 426q0 111 -74.5 185.5
t-190.5 74.5q-56 0 -113 -20q61 -57 74 -116h-83q-24 47 -65 81q-72 -43 -123 -112.5t-66 -152.5q-5 -23 -5 -54q0 -126 95 -202q54 33 101 84h83q-51 -70 -121 -120q48 -20 106 -20q129 0 240.5 92t135.5 223q6 29 6 57zM658 666q-50 19 -103 19q-128 0 -237 -95.5
t-133 -221.5q-5 -30 -5 -54q0 -110 75.5 -185t183.5 -75q56 0 111 20q-97 91 -97 227q0 32 6 65q35 186 199 300zM1086 927l-24 -126h-74l24 126h74zM938 927l-24 -126h-74l24 126h74z" />
    <glyph glyph-name="C_Obreve" unicode="&#xe0a7;" horiz-adv-x="1217" 
d="M1249 439q0 -33 -6 -69q-20 -106 -91 -195t-170 -138.5t-202 -49.5q-92 0 -170 43q-93 -43 -182 -43q-139 0 -231 87.5t-92 223.5q0 35 6 71q20 107 88.5 195.5t166.5 138t202 49.5q92 0 168 -42q92 43 186 43q140 0 233.5 -89t93.5 -225zM1174 426q0 111 -74.5 185.5
t-190.5 74.5q-56 0 -113 -20q61 -57 74 -116h-83q-24 47 -65 81q-72 -43 -123 -112.5t-66 -152.5q-5 -23 -5 -54q0 -126 95 -202q54 33 101 84h83q-51 -70 -121 -120q48 -20 106 -20q129 0 240.5 92t135.5 223q6 29 6 57zM658 666q-50 19 -103 19q-128 0 -237 -95.5
t-133 -221.5q-5 -30 -5 -54q0 -110 75.5 -185t183.5 -75q56 0 111 20q-97 91 -97 227q0 32 6 65q35 186 199 300zM1148 906q-57 -103 -194 -103t-155 103h65q25 -46 100 -46q77 0 119 46h65z" />
    <glyph glyph-name="C_Otilde" unicode="&#xe0a8;" horiz-adv-x="1217" 
d="M1249 439q0 -33 -6 -69q-20 -106 -91 -195t-170 -138.5t-202 -49.5q-92 0 -170 43q-93 -43 -182 -43q-139 0 -231 87.5t-92 223.5q0 35 6 71q20 107 88.5 195.5t166.5 138t202 49.5q92 0 168 -42q92 43 186 43q140 0 233.5 -89t93.5 -225zM1174 426q0 111 -74.5 185.5
t-190.5 74.5q-56 0 -113 -20q61 -57 74 -116h-83q-24 47 -65 81q-72 -43 -123 -112.5t-66 -152.5q-5 -23 -5 -54q0 -126 95 -202q54 33 101 84h83q-51 -70 -121 -120q48 -20 106 -20q129 0 240.5 92t135.5 223q6 29 6 57zM658 666q-50 19 -103 19q-128 0 -237 -95.5
t-133 -221.5q-5 -30 -5 -54q0 -110 75.5 -185t183.5 -75q56 0 111 20q-97 91 -97 227q0 32 6 65q35 186 199 300zM1133 842q-60 -39 -105 -39q-32 0 -74.5 20.5t-63.5 20.5q-34 0 -72 -30l-26 50q52 42 112 42q32 0 72.5 -20.5t61.5 -20.5q9 0 19.5 3t15 5t18.5 10t15 8z
" />
    <glyph glyph-name="C_Omacron" unicode="&#xe0a9;" horiz-adv-x="1217" 
d="M1249 439q0 -33 -6 -69q-20 -106 -91 -195t-170 -138.5t-202 -49.5q-92 0 -170 43q-93 -43 -182 -43q-139 0 -231 87.5t-92 223.5q0 35 6 71q20 107 88.5 195.5t166.5 138t202 49.5q92 0 168 -42q92 43 186 43q140 0 233.5 -89t93.5 -225zM1174 426q0 111 -74.5 185.5
t-190.5 74.5q-56 0 -113 -20q61 -57 74 -116h-83q-24 47 -65 81q-72 -43 -123 -112.5t-66 -152.5q-5 -23 -5 -54q0 -126 95 -202q54 33 101 84h83q-51 -70 -121 -120q48 -20 106 -20q129 0 240.5 92t135.5 223q6 29 6 57zM658 666q-50 19 -103 19q-128 0 -237 -95.5
t-133 -221.5q-5 -30 -5 -54q0 -110 75.5 -185t183.5 -75q56 0 111 20q-97 91 -97 227q0 32 6 65q35 186 199 300zM1138 888l-12 -67h-338l12 67h338z" />
    <glyph glyph-name="C_Ohungarumlaut" unicode="&#xe0aa;" horiz-adv-x="1217" 
d="M1249 439q0 -33 -6 -69q-20 -106 -91 -195t-170 -138.5t-202 -49.5q-92 0 -170 43q-93 -43 -182 -43q-139 0 -231 87.5t-92 223.5q0 35 6 71q20 107 88.5 195.5t166.5 138t202 49.5q92 0 168 -42q92 43 186 43q140 0 233.5 -89t93.5 -225zM1174 426q0 111 -74.5 185.5
t-190.5 74.5q-56 0 -113 -20q61 -57 74 -116h-83q-24 47 -65 81q-72 -43 -123 -112.5t-66 -152.5q-5 -23 -5 -54q0 -126 95 -202q54 33 101 84h83q-51 -70 -121 -120q48 -20 106 -20q129 0 240.5 92t135.5 223q6 29 6 57zM658 666q-50 19 -103 19q-128 0 -237 -95.5
t-133 -221.5q-5 -30 -5 -54q0 -110 75.5 -185t183.5 -75q56 0 111 20q-97 91 -97 227q0 32 6 65q35 186 199 300zM1235 922l-189 -135l-29 46l187 135zM1060 922l-189 -135l-29 46l186 135z" />
    <glyph glyph-name="Ccedilla_O" unicode="&#xe0ab;" horiz-adv-x="1217" 
d="M462 -118q0 -45 -32.5 -74.5t-77.5 -29.5q-33 0 -51 20.5t-18 54.5v2l42 2q0 -18 10.5 -30t28.5 -12q25 0 40.5 19.5t15.5 44.5q0 35 -40 35q-24 0 -43 -19l-33 21l56 78q-113 21 -184 103.5t-71 200.5q0 35 6 71q20 107 88.5 195.5t166.5 138t202 49.5q92 0 168 -42
q92 43 186 43q140 0 233.5 -89t93.5 -225q0 -33 -6 -69q-20 -106 -91 -195t-170 -138.5t-202 -49.5q-92 0 -170 43q-93 -43 -182 -43q-5 0 -14.5 0.5t-13.5 0.5l-30 -44q15 4 33 4q28 0 43.5 -19t15.5 -47zM1174 426q0 111 -74.5 185.5t-190.5 74.5q-56 0 -113 -20
q61 -57 74 -116h-83q-24 47 -65 81q-72 -43 -123 -112.5t-66 -152.5q-5 -23 -5 -54q0 -126 95 -202q54 33 101 84h83q-51 -70 -121 -120q48 -20 106 -20q129 0 240.5 92t135.5 223q6 29 6 57zM658 666q-50 19 -103 19q-128 0 -237 -95.5t-133 -221.5q-5 -30 -5 -54
q0 -110 75.5 -185t183.5 -75q56 0 111 20q-97 91 -97 227q0 32 6 65q35 186 199 300z" />
    <glyph glyph-name="Ccedilla_Oacute" unicode="&#xe0ac;" horiz-adv-x="1217" 
d="M462 -118q0 -45 -32.5 -74.5t-77.5 -29.5q-33 0 -51 20.5t-18 54.5v2l42 2q0 -18 10.5 -30t28.5 -12q25 0 40.5 19.5t15.5 44.5q0 35 -40 35q-24 0 -43 -19l-33 21l56 78q-113 21 -184 103.5t-71 200.5q0 35 6 71q20 107 88.5 195.5t166.5 138t202 49.5q92 0 168 -42
q92 43 186 43q140 0 233.5 -89t93.5 -225q0 -33 -6 -69q-20 -106 -91 -195t-170 -138.5t-202 -49.5q-92 0 -170 43q-93 -43 -182 -43q-5 0 -14.5 0.5t-13.5 0.5l-30 -44q15 4 33 4q28 0 43.5 -19t15.5 -47zM1174 426q0 111 -74.5 185.5t-190.5 74.5q-56 0 -113 -20
q61 -57 74 -116h-83q-24 47 -65 81q-72 -43 -123 -112.5t-66 -152.5q-5 -23 -5 -54q0 -126 95 -202q54 33 101 84h83q-51 -70 -121 -120q48 -20 106 -20q129 0 240.5 92t135.5 223q6 29 6 57zM658 666q-50 19 -103 19q-128 0 -237 -95.5t-133 -221.5q-5 -30 -5 -54
q0 -110 75.5 -185t183.5 -75q56 0 111 20q-97 91 -97 227q0 32 6 65q35 186 199 300zM1102 888l-218 -107l-23 58l220 109z" />
    <glyph glyph-name="Ccedilla_Ograve" unicode="&#xe0ad;" horiz-adv-x="1217" 
d="M462 -118q0 -45 -32.5 -74.5t-77.5 -29.5q-33 0 -51 20.5t-18 54.5v2l42 2q0 -18 10.5 -30t28.5 -12q25 0 40.5 19.5t15.5 44.5q0 35 -40 35q-24 0 -43 -19l-33 21l56 78q-113 21 -184 103.5t-71 200.5q0 35 6 71q20 107 88.5 195.5t166.5 138t202 49.5q92 0 168 -42
q92 43 186 43q140 0 233.5 -89t93.5 -225q0 -33 -6 -69q-20 -106 -91 -195t-170 -138.5t-202 -49.5q-92 0 -170 43q-93 -43 -182 -43q-5 0 -14.5 0.5t-13.5 0.5l-30 -44q15 4 33 4q28 0 43.5 -19t15.5 -47zM1174 426q0 111 -74.5 185.5t-190.5 74.5q-56 0 -113 -20
q61 -57 74 -116h-83q-24 47 -65 81q-72 -43 -123 -112.5t-66 -152.5q-5 -23 -5 -54q0 -126 95 -202q54 33 101 84h83q-51 -70 -121 -120q48 -20 106 -20q129 0 240.5 92t135.5 223q6 29 6 57zM658 666q-50 19 -103 19q-128 0 -237 -95.5t-133 -221.5q-5 -30 -5 -54
q0 -110 75.5 -185t183.5 -75q56 0 111 20q-97 91 -97 227q0 32 6 65q35 186 199 300zM1049 839l-43 -58l-178 107l43 60z" />
    <glyph glyph-name="Ccedilla_Ocircumflex" unicode="&#xe0ae;" horiz-adv-x="1217" 
d="M462 -118q0 -45 -32.5 -74.5t-77.5 -29.5q-33 0 -51 20.5t-18 54.5v2l42 2q0 -18 10.5 -30t28.5 -12q25 0 40.5 19.5t15.5 44.5q0 35 -40 35q-24 0 -43 -19l-33 21l56 78q-113 21 -184 103.5t-71 200.5q0 35 6 71q20 107 88.5 195.5t166.5 138t202 49.5q92 0 168 -42
q92 43 186 43q140 0 233.5 -89t93.5 -225q0 -33 -6 -69q-20 -106 -91 -195t-170 -138.5t-202 -49.5q-92 0 -170 43q-93 -43 -182 -43q-5 0 -14.5 0.5t-13.5 0.5l-30 -44q15 4 33 4q28 0 43.5 -19t15.5 -47zM1174 426q0 111 -74.5 185.5t-190.5 74.5q-56 0 -113 -20
q61 -57 74 -116h-83q-24 47 -65 81q-72 -43 -123 -112.5t-66 -152.5q-5 -23 -5 -54q0 -126 95 -202q54 33 101 84h83q-51 -70 -121 -120q48 -20 106 -20q129 0 240.5 92t135.5 223q6 29 6 57zM658 666q-50 19 -103 19q-128 0 -237 -95.5t-133 -221.5q-5 -30 -5 -54
q0 -110 75.5 -185t183.5 -75q56 0 111 20q-97 91 -97 227q0 32 6 65q35 186 199 300zM1132 801h-89l-72 73l-102 -73h-91l169 125h66z" />
    <glyph glyph-name="Ccedilla_Odieresis" unicode="&#xe0af;" horiz-adv-x="1217" 
d="M462 -118q0 -45 -32.5 -74.5t-77.5 -29.5q-33 0 -51 20.5t-18 54.5v2l42 2q0 -18 10.5 -30t28.5 -12q25 0 40.5 19.5t15.5 44.5q0 35 -40 35q-24 0 -43 -19l-33 21l56 78q-113 21 -184 103.5t-71 200.5q0 35 6 71q20 107 88.5 195.5t166.5 138t202 49.5q92 0 168 -42
q92 43 186 43q140 0 233.5 -89t93.5 -225q0 -33 -6 -69q-20 -106 -91 -195t-170 -138.5t-202 -49.5q-92 0 -170 43q-93 -43 -182 -43q-5 0 -14.5 0.5t-13.5 0.5l-30 -44q15 4 33 4q28 0 43.5 -19t15.5 -47zM1174 426q0 111 -74.5 185.5t-190.5 74.5q-56 0 -113 -20
q61 -57 74 -116h-83q-24 47 -65 81q-72 -43 -123 -112.5t-66 -152.5q-5 -23 -5 -54q0 -126 95 -202q54 33 101 84h83q-51 -70 -121 -120q48 -20 106 -20q129 0 240.5 92t135.5 223q6 29 6 57zM658 666q-50 19 -103 19q-128 0 -237 -95.5t-133 -221.5q-5 -30 -5 -54
q0 -110 75.5 -185t183.5 -75q56 0 111 20q-97 91 -97 227q0 32 6 65q35 186 199 300zM1079 927l-24 -126h-74l24 126h74zM931 927l-24 -126h-74l24 126h74z" />
    <glyph glyph-name="Cacute_O" unicode="&#xe0b0;" horiz-adv-x="1217" 
d="M1249 439q0 -33 -6 -69q-20 -106 -91 -195t-170 -138.5t-202 -49.5q-92 0 -170 43q-93 -43 -182 -43q-139 0 -231 87.5t-92 223.5q0 35 6 71q20 107 88.5 195.5t166.5 138t202 49.5q92 0 168 -42q92 43 186 43q140 0 233.5 -89t93.5 -225zM1174 426q0 111 -74.5 185.5
t-190.5 74.5q-56 0 -113 -20q61 -57 74 -116h-83q-24 47 -65 81q-72 -43 -123 -112.5t-66 -152.5q-5 -23 -5 -54q0 -126 95 -202q54 33 101 84h83q-51 -70 -121 -120q48 -20 106 -20q129 0 240.5 92t135.5 223q6 29 6 57zM658 666q-50 19 -103 19q-128 0 -237 -95.5
t-133 -221.5q-5 -30 -5 -54q0 -110 75.5 -185t183.5 -75q56 0 111 20q-97 91 -97 227q0 32 6 65q35 186 199 300zM742 888l-218 -107l-23 58l220 109z" />
    <glyph glyph-name="Cacute_Oacute" unicode="&#xe0b1;" horiz-adv-x="1217" 
d="M1249 439q0 -33 -6 -69q-20 -106 -91 -195t-170 -138.5t-202 -49.5q-92 0 -170 43q-93 -43 -182 -43q-139 0 -231 87.5t-92 223.5q0 35 6 71q20 107 88.5 195.5t166.5 138t202 49.5q92 0 168 -42q92 43 186 43q140 0 233.5 -89t93.5 -225zM1174 426q0 111 -74.5 185.5
t-190.5 74.5q-56 0 -113 -20q61 -57 74 -116h-83q-24 47 -65 81q-72 -43 -123 -112.5t-66 -152.5q-5 -23 -5 -54q0 -126 95 -202q54 33 101 84h83q-51 -70 -121 -120q48 -20 106 -20q129 0 240.5 92t135.5 223q6 29 6 57zM658 666q-50 19 -103 19q-128 0 -237 -95.5
t-133 -221.5q-5 -30 -5 -54q0 -110 75.5 -185t183.5 -75q56 0 111 20q-97 91 -97 227q0 32 6 65q35 186 199 300zM733 888l-218 -107l-23 58l220 109zM1112 888l-218 -107l-23 58l220 109z" />
    <glyph glyph-name="Ccircumflex_O" unicode="&#xe0b2;" horiz-adv-x="1217" 
d="M1249 439q0 -33 -6 -69q-20 -106 -91 -195t-170 -138.5t-202 -49.5q-92 0 -170 43q-93 -43 -182 -43q-139 0 -231 87.5t-92 223.5q0 35 6 71q20 107 88.5 195.5t166.5 138t202 49.5q92 0 168 -42q92 43 186 43q140 0 233.5 -89t93.5 -225zM1174 426q0 111 -74.5 185.5
t-190.5 74.5q-56 0 -113 -20q61 -57 74 -116h-83q-24 47 -65 81q-72 -43 -123 -112.5t-66 -152.5q-5 -23 -5 -54q0 -126 95 -202q54 33 101 84h83q-51 -70 -121 -120q48 -20 106 -20q129 0 240.5 92t135.5 223q6 29 6 57zM658 666q-50 19 -103 19q-128 0 -237 -95.5
t-133 -221.5q-5 -30 -5 -54q0 -110 75.5 -185t183.5 -75q56 0 111 20q-97 91 -97 227q0 32 6 65q35 186 199 300zM723 801h-89l-72 73l-102 -73h-91l169 125h66z" />
    <glyph glyph-name="Ccircumflex_Odieresis" unicode="&#xe0b3;" horiz-adv-x="1217" 
d="M1249 439q0 -33 -6 -69q-20 -106 -91 -195t-170 -138.5t-202 -49.5q-92 0 -170 43q-93 -43 -182 -43q-139 0 -231 87.5t-92 223.5q0 35 6 71q20 107 88.5 195.5t166.5 138t202 49.5q92 0 168 -42q92 43 186 43q140 0 233.5 -89t93.5 -225zM1174 426q0 111 -74.5 185.5
t-190.5 74.5q-56 0 -113 -20q61 -57 74 -116h-83q-24 47 -65 81q-72 -43 -123 -112.5t-66 -152.5q-5 -23 -5 -54q0 -126 95 -202q54 33 101 84h83q-51 -70 -121 -120q48 -20 106 -20q129 0 240.5 92t135.5 223q6 29 6 57zM658 666q-50 19 -103 19q-128 0 -237 -95.5
t-133 -221.5q-5 -30 -5 -54q0 -110 75.5 -185t183.5 -75q56 0 111 20q-97 91 -97 227q0 32 6 65q35 186 199 300zM736 801h-89l-72 73l-102 -73h-91l169 125h66zM1091 927l-24 -126h-74l24 126h74zM943 927l-24 -126h-74l24 126h74z" />
    <glyph glyph-name="Ccircumflex_Obreve" unicode="&#xe0b4;" horiz-adv-x="1217" 
d="M1249 439q0 -33 -6 -69q-20 -106 -91 -195t-170 -138.5t-202 -49.5q-92 0 -170 43q-93 -43 -182 -43q-139 0 -231 87.5t-92 223.5q0 35 6 71q20 107 88.5 195.5t166.5 138t202 49.5q92 0 168 -42q92 43 186 43q140 0 233.5 -89t93.5 -225zM1174 426q0 111 -74.5 185.5
t-190.5 74.5q-56 0 -113 -20q61 -57 74 -116h-83q-24 47 -65 81q-72 -43 -123 -112.5t-66 -152.5q-5 -23 -5 -54q0 -126 95 -202q54 33 101 84h83q-51 -70 -121 -120q48 -20 106 -20q129 0 240.5 92t135.5 223q6 29 6 57zM658 666q-50 19 -103 19q-128 0 -237 -95.5
t-133 -221.5q-5 -30 -5 -54q0 -110 75.5 -185t183.5 -75q56 0 111 20q-97 91 -97 227q0 32 6 65q35 186 199 300zM718 801h-89l-72 73l-102 -73h-91l169 125h66zM1145 906q-57 -103 -194 -103t-155 103h65q25 -46 100 -46q77 0 119 46h65z" />
    <glyph glyph-name="Ccircumflex_Omacron" unicode="&#xe0b5;" horiz-adv-x="1217" 
d="M1249 439q0 -33 -6 -69q-20 -106 -91 -195t-170 -138.5t-202 -49.5q-92 0 -170 43q-93 -43 -182 -43q-139 0 -231 87.5t-92 223.5q0 35 6 71q20 107 88.5 195.5t166.5 138t202 49.5q92 0 168 -42q92 43 186 43q140 0 233.5 -89t93.5 -225zM1174 426q0 111 -74.5 185.5
t-190.5 74.5q-56 0 -113 -20q61 -57 74 -116h-83q-24 47 -65 81q-72 -43 -123 -112.5t-66 -152.5q-5 -23 -5 -54q0 -126 95 -202q54 33 101 84h83q-51 -70 -121 -120q48 -20 106 -20q129 0 240.5 92t135.5 223q6 29 6 57zM658 666q-50 19 -103 19q-128 0 -237 -95.5
t-133 -221.5q-5 -30 -5 -54q0 -110 75.5 -185t183.5 -75q56 0 111 20q-97 91 -97 227q0 32 6 65q35 186 199 300zM732 801h-89l-72 73l-102 -73h-91l169 125h66zM1144 888l-12 -67h-338l12 67h338z" />
    <glyph glyph-name="Cdotaccent_O" unicode="&#xe0b6;" horiz-adv-x="1217" 
d="M1249 439q0 -33 -6 -69q-20 -106 -91 -195t-170 -138.5t-202 -49.5q-92 0 -170 43q-93 -43 -182 -43q-139 0 -231 87.5t-92 223.5q0 35 6 71q20 107 88.5 195.5t166.5 138t202 49.5q92 0 168 -42q92 43 186 43q140 0 233.5 -89t93.5 -225zM1174 426q0 111 -74.5 185.5
t-190.5 74.5q-56 0 -113 -20q61 -57 74 -116h-83q-24 47 -65 81q-72 -43 -123 -112.5t-66 -152.5q-5 -23 -5 -54q0 -126 95 -202q54 33 101 84h83q-51 -70 -121 -120q48 -20 106 -20q129 0 240.5 92t135.5 223q6 29 6 57zM658 666q-50 19 -103 19q-128 0 -237 -95.5
t-133 -221.5q-5 -30 -5 -54q0 -110 75.5 -185t183.5 -75q56 0 111 20q-97 91 -97 227q0 32 6 65q35 186 199 300zM612 927l-24 -126h-74l24 126h74z" />
    <glyph glyph-name="Ccaron_O" unicode="&#xe0b7;" horiz-adv-x="1217" 
d="M1249 439q0 -33 -6 -69q-20 -106 -91 -195t-170 -138.5t-202 -49.5q-92 0 -170 43q-93 -43 -182 -43q-139 0 -231 87.5t-92 223.5q0 35 6 71q20 107 88.5 195.5t166.5 138t202 49.5q92 0 168 -42q92 43 186 43q140 0 233.5 -89t93.5 -225zM1174 426q0 111 -74.5 185.5
t-190.5 74.5q-56 0 -113 -20q61 -57 74 -116h-83q-24 47 -65 81q-72 -43 -123 -112.5t-66 -152.5q-5 -23 -5 -54q0 -126 95 -202q54 33 101 84h83q-51 -70 -121 -120q48 -20 106 -20q129 0 240.5 92t135.5 223q6 29 6 57zM658 666q-50 19 -103 19q-128 0 -237 -95.5
t-133 -221.5q-5 -30 -5 -54q0 -110 75.5 -185t183.5 -75q56 0 111 20q-97 91 -97 227q0 32 6 65q35 186 199 300zM751 926l-167 -125h-67l-121 125h92l72 -73l102 73h89z" />
    <glyph glyph-name="Ccaron_Oacute" unicode="&#xe0b8;" horiz-adv-x="1217" 
d="M1249 439q0 -33 -6 -69q-20 -106 -91 -195t-170 -138.5t-202 -49.5q-92 0 -170 43q-93 -43 -182 -43q-139 0 -231 87.5t-92 223.5q0 35 6 71q20 107 88.5 195.5t166.5 138t202 49.5q92 0 168 -42q92 43 186 43q140 0 233.5 -89t93.5 -225zM1174 426q0 111 -74.5 185.5
t-190.5 74.5q-56 0 -113 -20q61 -57 74 -116h-83q-24 47 -65 81q-72 -43 -123 -112.5t-66 -152.5q-5 -23 -5 -54q0 -126 95 -202q54 33 101 84h83q-51 -70 -121 -120q48 -20 106 -20q129 0 240.5 92t135.5 223q6 29 6 57zM658 666q-50 19 -103 19q-128 0 -237 -95.5
t-133 -221.5q-5 -30 -5 -54q0 -110 75.5 -185t183.5 -75q56 0 111 20q-97 91 -97 227q0 32 6 65q35 186 199 300zM769 926l-167 -125h-67l-121 125h92l72 -73l102 73h89zM1105 888l-218 -107l-23 58l220 109z" />
    <glyph glyph-name="Ccaron_Ocircumflex" unicode="&#xe0b9;" horiz-adv-x="1217" 
d="M1249 439q0 -33 -6 -69q-20 -106 -91 -195t-170 -138.5t-202 -49.5q-92 0 -170 43q-93 -43 -182 -43q-139 0 -231 87.5t-92 223.5q0 35 6 71q20 107 88.5 195.5t166.5 138t202 49.5q92 0 168 -42q92 43 186 43q140 0 233.5 -89t93.5 -225zM1174 426q0 111 -74.5 185.5
t-190.5 74.5q-56 0 -113 -20q61 -57 74 -116h-83q-24 47 -65 81q-72 -43 -123 -112.5t-66 -152.5q-5 -23 -5 -54q0 -126 95 -202q54 33 101 84h83q-51 -70 -121 -120q48 -20 106 -20q129 0 240.5 92t135.5 223q6 29 6 57zM658 666q-50 19 -103 19q-128 0 -237 -95.5
t-133 -221.5q-5 -30 -5 -54q0 -110 75.5 -185t183.5 -75q56 0 111 20q-97 91 -97 227q0 32 6 65q35 186 199 300zM748 926l-167 -125h-67l-121 125h92l72 -73l102 73h89zM1132 801h-89l-72 73l-102 -73h-91l169 125h66z" />
    <glyph glyph-name="D_E" unicode="&#xe0ba;" horiz-adv-x="1153" 
d="M1229 740l-12 -67h-331l-50 -266h320l-12 -67h-320l-51 -273h331l-12 -67h-405l49 264h-2q-67 -133 -190 -203q-105 -61 -252 -61h-216l137 740h216q145 0 230 -61q99 -71 114 -206h2l49 267h405zM701 426q0 121 -86 190q-40 32 -93.5 44.5t-139.5 12.5h-107l-113 -606
h107h17q45 0 76.5 2.5t81.5 16.5t91 41q51 34 98 96t63 148q5 32 5 55z" />
    <glyph glyph-name="D_Eacute" unicode="&#xe0bb;" horiz-adv-x="1153" 
d="M1229 740l-12 -67h-331l-50 -266h320l-12 -67h-320l-51 -273h331l-12 -67h-405l49 264h-2q-67 -133 -190 -203q-105 -61 -252 -61h-216l137 740h216q145 0 230 -61q99 -71 114 -206h2l49 267h405zM701 426q0 121 -86 190q-40 32 -93.5 44.5t-139.5 12.5h-107l-113 -606
h107h17q45 0 76.5 2.5t81.5 16.5t91 41q51 34 98 96t63 148q5 32 5 55zM1195 888l-218 -107l-23 58l220 109z" />
    <glyph glyph-name="D_Egrave" unicode="&#xe0bc;" horiz-adv-x="1153" 
d="M1229 740l-12 -67h-331l-50 -266h320l-12 -67h-320l-51 -273h331l-12 -67h-405l49 264h-2q-67 -133 -190 -203q-105 -61 -252 -61h-216l137 740h216q145 0 230 -61q99 -71 114 -206h2l49 267h405zM701 426q0 121 -86 190q-40 32 -93.5 44.5t-139.5 12.5h-107l-113 -606
h107h17q45 0 76.5 2.5t81.5 16.5t91 41q51 34 98 96t63 148q5 32 5 55zM1103 839l-43 -58l-178 107l43 60z" />
    <glyph glyph-name="D_Ecircumflex" unicode="&#xe0bd;" horiz-adv-x="1153" 
d="M1229 740l-12 -67h-331l-50 -266h320l-12 -67h-320l-51 -273h331l-12 -67h-405l49 264h-2q-67 -133 -190 -203q-105 -61 -252 -61h-216l137 740h216q145 0 230 -61q99 -71 114 -206h2l49 267h405zM701 426q0 121 -86 190q-40 32 -93.5 44.5t-139.5 12.5h-107l-113 -606
h107h17q45 0 76.5 2.5t81.5 16.5t91 41q51 34 98 96t63 148q5 32 5 55zM1212 801h-89l-72 73l-102 -73h-91l169 125h66z" />
    <glyph glyph-name="D_Edieresis" unicode="&#xe0be;" horiz-adv-x="1153" 
d="M1229 740l-12 -67h-331l-50 -266h320l-12 -67h-320l-51 -273h331l-12 -67h-405l49 264h-2q-67 -133 -190 -203q-105 -61 -252 -61h-216l137 740h216q145 0 230 -61q99 -71 114 -206h2l49 267h405zM701 426q0 121 -86 190q-40 32 -93.5 44.5t-139.5 12.5h-107l-113 -606
h107h17q45 0 76.5 2.5t81.5 16.5t91 41q51 34 98 96t63 148q5 32 5 55zM1170 927l-24 -126h-74l24 126h74zM1022 927l-24 -126h-74l24 126h74z" />
    <glyph glyph-name="D_Emacron" unicode="&#xe0bf;" horiz-adv-x="1153" 
d="M1229 740l-12 -67h-331l-50 -266h320l-12 -67h-320l-51 -273h331l-12 -67h-405l49 264h-2q-67 -133 -190 -203q-105 -61 -252 -61h-216l137 740h216q145 0 230 -61q99 -71 114 -206h2l49 267h405zM701 426q0 121 -86 190q-40 32 -93.5 44.5t-139.5 12.5h-107l-113 -606
h107h17q45 0 76.5 2.5t81.5 16.5t91 41q51 34 98 96t63 148q5 32 5 55zM1233 888l-12 -67h-338l12 67h338z" />
    <glyph glyph-name="D_Ebreve" unicode="&#xe0c0;" horiz-adv-x="1153" 
d="M1229 740l-12 -67h-331l-50 -266h320l-12 -67h-320l-51 -273h331l-12 -67h-405l49 264h-2q-67 -133 -190 -203q-105 -61 -252 -61h-216l137 740h216q145 0 230 -61q99 -71 114 -206h2l49 267h405zM701 426q0 121 -86 190q-40 32 -93.5 44.5t-139.5 12.5h-107l-113 -606
h107h17q45 0 76.5 2.5t81.5 16.5t91 41q51 34 98 96t63 148q5 32 5 55zM1222 906q-57 -103 -194 -103t-155 103h65q25 -46 100 -46q77 0 119 46h65z" />
    <glyph glyph-name="D_Edotaccent" unicode="&#xe0c1;" horiz-adv-x="1153" 
d="M1229 740l-12 -67h-331l-50 -266h320l-12 -67h-320l-51 -273h331l-12 -67h-405l49 264h-2q-67 -133 -190 -203q-105 -61 -252 -61h-216l137 740h216q145 0 230 -61q99 -71 114 -206h2l49 267h405zM701 426q0 121 -86 190q-40 32 -93.5 44.5t-139.5 12.5h-107l-113 -606
h107h17q45 0 76.5 2.5t81.5 16.5t91 41q51 34 98 96t63 148q5 32 5 55zM1098 927l-24 -126h-74l24 126h74z" />
    <glyph glyph-name="D_Eogonek" unicode="&#xe0c2;" horiz-adv-x="1153" 
d="M1064 -138l-8 -44q-26 -9 -52 -9q-38 0 -64 19t-26 55q0 38 25 65t68 52h-320l49 264h-2q-67 -133 -190 -203q-105 -61 -252 -61h-216l137 740h216q145 0 230 -61q99 -71 114 -206h2l49 267h405l-12 -67h-331l-50 -266h320l-12 -67h-320l-51 -273h331l-12 -67h-33
q-26 -17 -41 -28.5t-34 -34.5t-19 -44q0 -19 15 -30t35 -11q22 0 49 10zM701 426q0 121 -86 190q-40 32 -93.5 44.5t-139.5 12.5h-107l-113 -606h124q45 0 76.5 2.5t81.5 16.5t91 41q51 34 98 96t63 148q5 32 5 55z" />
    <glyph glyph-name="D_Ecaron" unicode="&#xe0c3;" horiz-adv-x="1153" 
d="M1229 740l-12 -67h-331l-50 -266h320l-12 -67h-320l-51 -273h331l-12 -67h-405l49 264h-2q-67 -133 -190 -203q-105 -61 -252 -61h-216l137 740h216q145 0 230 -61q99 -71 114 -206h2l49 267h405zM701 426q0 121 -86 190q-40 32 -93.5 44.5t-139.5 12.5h-107l-113 -606
h107h17q45 0 76.5 2.5t81.5 16.5t91 41q51 34 98 96t63 148q5 32 5 55zM1237 926l-167 -125h-67l-121 125h92l72 -73l102 73h89z" />
    <glyph glyph-name="Dcaron_E" unicode="&#xe0c4;" horiz-adv-x="1153" 
d="M1229 740l-12 -67h-331l-50 -266h320l-12 -67h-320l-51 -273h331l-12 -67h-405l49 264h-2q-67 -133 -190 -203q-105 -61 -252 -61h-216l137 740h216q145 0 230 -61q99 -71 114 -206h2l49 267h405zM701 426q0 121 -86 190q-40 32 -93.5 44.5t-139.5 12.5h-107l-113 -606
h107h17q45 0 76.5 2.5t81.5 16.5t91 41q51 34 98 96t63 148q5 32 5 55zM653 926l-167 -125h-67l-121 125h92l72 -73l102 73h89z" />
    <glyph glyph-name="Dcaron_Eacute" unicode="&#xe0c5;" horiz-adv-x="1153" 
d="M1229 740l-12 -67h-331l-50 -266h320l-12 -67h-320l-51 -273h331l-12 -67h-405l49 264h-2q-67 -133 -190 -203q-105 -61 -252 -61h-216l137 740h216q145 0 230 -61q99 -71 114 -206h2l49 267h405zM701 426q0 121 -86 190q-40 32 -93.5 44.5t-139.5 12.5h-107l-113 -606
h107h17q45 0 76.5 2.5t81.5 16.5t91 41q51 34 98 96t63 148q5 32 5 55zM653 926l-167 -125h-67l-121 125h92l72 -73l102 73h89zM1186 888l-218 -107l-23 58l220 109z" />
    <glyph glyph-name="Dcaron_Ecaron" unicode="&#xe0c6;" horiz-adv-x="1153" 
d="M1229 740l-12 -67h-331l-50 -266h320l-12 -67h-320l-51 -273h331l-12 -67h-405l49 264h-2q-67 -133 -190 -203q-105 -61 -252 -61h-216l137 740h216q145 0 230 -61q99 -71 114 -206h2l49 267h405zM701 426q0 121 -86 190q-40 32 -93.5 44.5t-139.5 12.5h-107l-113 -606
h107h17q45 0 76.5 2.5t81.5 16.5t91 41q51 34 98 96t63 148q5 32 5 55zM651 926l-167 -125h-67l-121 125h92l72 -73l102 73h89zM1231 926l-167 -125h-67l-121 125h92l72 -73l102 73h89z" />
    <glyph glyph-name="Dcroat_E" unicode="&#xe0c7;" horiz-adv-x="1192" 
d="M1268 740l-12 -67h-331l-50 -266h320l-12 -67h-320l-51 -273h331l-12 -67h-405l49 264h-2q-67 -133 -190 -203q-105 -61 -252 -61h-216l64 347h-75l13 67h74l61 326h216q145 0 230 -61q99 -71 114 -206h2l49 267h405zM740 426q0 121 -86 190q-40 32 -93.5 44.5
t-139.5 12.5h-107l-49 -259h210l-13 -67h-209l-52 -280h124q45 0 76.5 2.5t81.5 16.5t91 41q51 34 98 96t63 148q5 32 5 55z" />
    <glyph glyph-name="D_I" unicode="&#xe0c8;" horiz-adv-x="837" 
d="M898 740l-137 -740h-74l49 264h-2q-67 -133 -190 -203q-105 -61 -252 -61h-216l137 740h216q145 0 230 -61q99 -71 114 -206h2l49 267h74zM701 426q0 121 -86 190q-40 32 -93.5 44.5t-139.5 12.5h-107l-113 -606h107h17q45 0 76.5 2.5t81.5 16.5t91 41q51 34 98 96
t63 148q5 32 5 55z" />
    <glyph glyph-name="D_Iacute" unicode="&#xe0c9;" horiz-adv-x="837" 
d="M898 740l-137 -740h-74l49 264h-2q-67 -133 -190 -203q-105 -61 -252 -61h-216l137 740h216q145 0 230 -61q99 -71 114 -206h2l49 267h74zM701 426q0 121 -86 190q-40 32 -93.5 44.5t-139.5 12.5h-107l-113 -606h107h17q45 0 76.5 2.5t81.5 16.5t91 41q51 34 98 96
t63 148q5 32 5 55zM1009 888l-218 -107l-23 58l220 109z" />
    <glyph glyph-name="D_Igrave" unicode="&#xe0ca;" horiz-adv-x="837" 
d="M898 740l-137 -740h-74l49 264h-2q-67 -133 -190 -203q-105 -61 -252 -61h-216l137 740h216q145 0 230 -61q99 -71 114 -206h2l49 267h74zM701 426q0 121 -86 190q-40 32 -93.5 44.5t-139.5 12.5h-107l-113 -606h107h17q45 0 76.5 2.5t81.5 16.5t91 41q51 34 98 96
t63 148q5 32 5 55zM952 839l-43 -58l-178 107l43 60z" />
    <glyph glyph-name="D_Icircumflex" unicode="&#xe0cb;" horiz-adv-x="837" 
d="M898 740l-137 -740h-74l49 264h-2q-67 -133 -190 -203q-105 -61 -252 -61h-216l137 740h216q145 0 230 -61q99 -71 114 -206h2l49 267h74zM701 426q0 121 -86 190q-40 32 -93.5 44.5t-139.5 12.5h-107l-113 -606h107h17q45 0 76.5 2.5t81.5 16.5t91 41q51 34 98 96
t63 148q5 32 5 55zM1040 801h-89l-72 73l-102 -73h-91l169 125h66z" />
    <glyph glyph-name="D_Idieresis" unicode="&#xe0cc;" horiz-adv-x="837" 
d="M898 740l-137 -740h-74l49 264h-2q-67 -133 -190 -203q-105 -61 -252 -61h-216l137 740h216q145 0 230 -61q99 -71 114 -206h2l49 267h74zM701 426q0 121 -86 190q-40 32 -93.5 44.5t-139.5 12.5h-107l-113 -606h107h17q45 0 76.5 2.5t81.5 16.5t91 41q51 34 98 96
t63 148q5 32 5 55zM998 927l-24 -126h-74l24 126h74zM850 927l-24 -126h-74l24 126h74z" />
    <glyph glyph-name="D_Itilde" unicode="&#xe0cd;" horiz-adv-x="837" 
d="M898 740l-137 -740h-74l49 264h-2q-67 -133 -190 -203q-105 -61 -252 -61h-216l137 740h216q145 0 230 -61q99 -71 114 -206h2l49 267h74zM701 426q0 121 -86 190q-40 32 -93.5 44.5t-139.5 12.5h-107l-113 -606h107h17q45 0 76.5 2.5t81.5 16.5t91 41q51 34 98 96
t63 148q5 32 5 55zM1037 842q-60 -39 -105 -39q-32 0 -74.5 20.5t-63.5 20.5q-34 0 -72 -30l-26 50q52 42 112 42q32 0 72.5 -20.5t61.5 -20.5q9 0 19.5 3t15 5t18.5 10t15 8z" />
    <glyph glyph-name="D_Imacron" unicode="&#xe0ce;" horiz-adv-x="837" 
d="M898 740l-137 -740h-74l49 264h-2q-67 -133 -190 -203q-105 -61 -252 -61h-216l137 740h216q145 0 230 -61q99 -71 114 -206h2l49 267h74zM701 426q0 121 -86 190q-40 32 -93.5 44.5t-139.5 12.5h-107l-113 -606h107h17q45 0 76.5 2.5t81.5 16.5t91 41q51 34 98 96
t63 148q5 32 5 55zM1041 888l-12 -67h-338l12 67h338z" />
    <glyph glyph-name="D_Ibreve" unicode="&#xe0cf;" horiz-adv-x="837" 
d="M898 740l-137 -740h-74l49 264h-2q-67 -133 -190 -203q-105 -61 -252 -61h-216l137 740h216q145 0 230 -61q99 -71 114 -206h2l49 267h74zM701 426q0 121 -86 190q-40 32 -93.5 44.5t-139.5 12.5h-107l-113 -606h107h17q45 0 76.5 2.5t81.5 16.5t91 41q51 34 98 96
t63 148q5 32 5 55zM1045 906q-57 -103 -194 -103t-155 103h65q25 -46 100 -46q77 0 119 46h65z" />
    <glyph glyph-name="D_Idotaccent" unicode="&#xe0d0;" horiz-adv-x="837" 
d="M898 740l-137 -740h-74l49 264h-2q-67 -133 -190 -203q-105 -61 -252 -61h-216l137 740h216q145 0 230 -61q99 -71 114 -206h2l49 267h74zM701 426q0 121 -86 190q-40 32 -93.5 44.5t-139.5 12.5h-107l-113 -606h107h17q45 0 76.5 2.5t81.5 16.5t91 41q51 34 98 96
t63 148q5 32 5 55zM932 927l-24 -126h-74l24 126h74z" />
    <glyph glyph-name="D_Iogonek" unicode="&#xe0d1;" horiz-adv-x="837" 
d="M758 -138l-8 -44q-25 -9 -52 -9q-38 0 -64 19t-26 55q0 38 25 65t68 52h-14l49 264h-2q-67 -133 -190 -203q-105 -61 -252 -61h-216l137 740h216q145 0 230 -61q99 -71 114 -206h2l49 267h74l-137 -740h-8q-26 -17 -41 -28.5t-34 -34.5t-19 -44q0 -19 15 -30t35 -11
q22 0 49 10zM701 426q0 121 -86 190q-40 32 -93.5 44.5t-139.5 12.5h-107l-113 -606h124q45 0 76.5 2.5t81.5 16.5t91 41q51 34 98 96t63 148q5 32 5 55z" />
    <glyph glyph-name="Dcaron_I" unicode="&#xe0d2;" horiz-adv-x="837" 
d="M898 740l-137 -740h-74l49 264h-2q-67 -133 -190 -203q-105 -61 -252 -61h-216l137 740h216q145 0 230 -61q99 -71 114 -206h2l49 267h74zM701 426q0 121 -86 190q-40 32 -93.5 44.5t-139.5 12.5h-107l-113 -606h107h17q45 0 76.5 2.5t81.5 16.5t91 41q51 34 98 96
t63 148q5 32 5 55zM646 926l-167 -125h-67l-121 125h92l72 -73l102 73h89z" />
    <glyph glyph-name="Dcaron_Iacute" unicode="&#xe0d3;" horiz-adv-x="837" 
d="M898 740l-137 -740h-74l49 264h-2q-67 -133 -190 -203q-105 -61 -252 -61h-216l137 740h216q145 0 230 -61q99 -71 114 -206h2l49 267h74zM701 426q0 121 -86 190q-40 32 -93.5 44.5t-139.5 12.5h-107l-113 -606h107h17q45 0 76.5 2.5t81.5 16.5t91 41q51 34 98 96
t63 148q5 32 5 55zM637 926l-167 -125h-67l-121 125h92l72 -73l102 73h89zM1026 888l-218 -107l-23 58l220 109z" />
    <glyph glyph-name="Dcroat_I" unicode="&#xe0d4;" horiz-adv-x="875" 
d="M936 740l-137 -740h-74l49 264h-2q-67 -133 -190 -203q-105 -61 -252 -61h-216l64 347h-74l13 67h73l61 326h216q145 0 230 -61q99 -71 114 -206h2l49 267h74zM739 426q0 121 -86 190q-40 32 -93.5 44.5t-139.5 12.5h-107l-49 -259h211l-13 -67h-210l-52 -280h124
q45 0 76.5 2.5t81.5 16.5t91 41q51 34 98 96t63 148q5 32 5 55z" />
    <glyph glyph-name="E_A" unicode="&#xe0d5;" horiz-adv-x="943" 
d="M1004 740l-137 -740h-74l46 249h-280l-160 -182h193l-12 -67h-504l137 740h384l-12 -67h-310l-50 -266h310l-12 -67h-310l-51 -273h147l593 673h102zM915 656h-2l-294 -340h233z" />
    <glyph glyph-name="Eacute_A" unicode="&#xe0d6;" horiz-adv-x="943" 
d="M1004 740l-137 -740h-74l46 249h-280l-160 -182h193l-12 -67h-504l137 740h384l-12 -67h-310l-50 -266h310l-12 -67h-310l-51 -273h147l593 673h102zM915 656h-2l-294 -340h233zM589 888l-218 -107l-23 58l220 109z" />
    <glyph glyph-name="Egrave_A" unicode="&#xe0d7;" horiz-adv-x="943" 
d="M1004 740l-137 -740h-74l46 249h-280l-160 -182h193l-12 -67h-504l137 740h384l-12 -67h-310l-50 -266h310l-12 -67h-310l-51 -273h147l593 673h102zM915 656h-2l-294 -340h233zM523 839l-43 -58l-178 107l43 60z" />
    <glyph glyph-name="Ecircumflex_A" unicode="&#xe0d8;" horiz-adv-x="943" 
d="M1004 740l-137 -740h-74l46 249h-280l-160 -182h193l-12 -67h-504l137 740h384l-12 -67h-310l-50 -266h310l-12 -67h-310l-51 -273h147l593 673h102zM915 656h-2l-294 -340h233zM608 801h-89l-72 73l-102 -73h-91l169 125h66z" />
    <glyph glyph-name="Edieresis_A" unicode="&#xe0d9;" horiz-adv-x="943" 
d="M1004 740l-137 -740h-74l46 249h-280l-160 -182h193l-12 -67h-504l137 740h384l-12 -67h-310l-50 -266h310l-12 -67h-310l-51 -273h147l593 673h102zM915 656h-2l-294 -340h233zM562 927l-24 -126h-74l24 126h74zM414 927l-24 -126h-74l24 126h74z" />
    <glyph glyph-name="Emacron_A" unicode="&#xe0da;" horiz-adv-x="943" 
d="M1004 740l-137 -740h-74l46 249h-280l-160 -182h193l-12 -67h-504l137 740h384l-12 -67h-310l-50 -266h310l-12 -67h-310l-51 -273h147l593 673h102zM915 656h-2l-294 -340h233zM612 888l-12 -67h-338l12 67h338z" />
    <glyph glyph-name="Ebreve_A" unicode="&#xe0db;" horiz-adv-x="943" 
d="M1004 740l-137 -740h-74l46 249h-280l-160 -182h193l-12 -67h-504l137 740h384l-12 -67h-310l-50 -266h310l-12 -67h-310l-51 -273h147l593 673h102zM915 656h-2l-294 -340h233zM631 906q-57 -103 -194 -103t-155 103h65q25 -46 100 -46q77 0 119 46h65z" />
    </font>
</defs>
</svg>
