<?xml version="1.0" standalone="no"?>
<!DOCTYPE svg PUBLIC "-//W3C//DTD SVG 1.1//EN" "http://www.w3.org/Graphics/SVG/1.1/DTD/svg11.dtd" >
<svg xmlns="http://www.w3.org/2000/svg" xmlns:xlink="http://www.w3.org/1999/xlink" version="1.1">
<metadata>
Created by FontForge 20161003 at Sun Feb 12 11:13:06 2017
 By www-data
Copyright (c) 1990, 2001 Adobe Systems Incorporated.  All Rights Reserved.
</metadata>
<defs>
<font id="ITCSymbolStdBookItalic" horiz-adv-x="630" >
  <font-face 
    font-family="ITCSymbolStdBookItalic"
    font-weight="400"
    font-style="italic"
    font-stretch="normal"
    units-per-em="1000"
    panose-1="2 14 4 3 3 5 6 9 4 4"
    ascent="730"
    descent="-270"
    x-height="530"
    cap-height="730"
    bbox="-121 -212 1160 986"
    underline-thickness="50"
    underline-position="-140"
    slope="-13"
    unicode-range="U+0020-FB02"
  />
<missing-glyph horiz-adv-x="600" 
d="M100 0v700h500v-700h-500zM350 395l170 255h-340zM380 350l170 -255v510zM180 50h340l-170 255zM150 605v-510l170 255z" />
    <glyph glyph-name="fi" unicode="fi" horiz-adv-x="556" 
d="M521 654q-38 0 -38 43q0 17 13.5 29t30.5 12q40 0 40 -38q0 -18 -13.5 -32t-32.5 -14zM365 85l81 366q4 16 4 23q0 13 -12 16t-49 3h-180l-99 -440q-2 -14 -2 -22q0 -18 15 -31h-101q30 19 44 85l93 408h-67l7 37h68l20 85q30 130 135 130q16 0 29 -2.5t18.5 -4.5t18 -9
t15.5 -9l-17 -71q-8 15 -12.5 23t-13 17.5t-19.5 14t-25 4.5q-60 0 -80 -94l-19 -84h296l-103 -477q-3 -10 -3 -22q0 -18 15 -31h-101q30 19 44 85z" />
    <glyph glyph-name="fl" unicode="fl" horiz-adv-x="556" 
d="M123 0h-101q30 19 44 85l93 408h-67l7 37h68l20 85q30 130 135 130q16 0 29 -2.5t18.5 -4.5t18 -9t15.5 -9l-17 -71q-8 15 -12.5 23t-13 17.5t-19.5 14t-25 4.5q-60 0 -80 -94l-19 -84h107l-7 -37h-108l-99 -440q-2 -14 -2 -22q0 -18 15 -31zM364 85l125 562q10 44 10 54
q0 15 -16 29h74l-143 -647q-10 -46 -10 -54q0 -15 16 -29h-100q30 19 44 85z" />
    <glyph glyph-name=".notdef" horiz-adv-x="600" 
d="M100 0v700h500v-700h-500zM350 395l170 255h-340zM380 350l170 -255v510zM180 50h340l-170 255zM150 605v-510l170 255z" />
    <glyph glyph-name=".null" horiz-adv-x="0" 
 />
    <glyph glyph-name="nonmarkingreturn" horiz-adv-x="333" 
 />
    <glyph glyph-name="space" unicode=" " horiz-adv-x="278" 
 />
    <glyph glyph-name="exclam" unicode="!" horiz-adv-x="315" 
d="M99 -15q-16 0 -26.5 12.5t-10.5 28.5q0 18 14 30t32 12q16 0 26.5 -11.5t10.5 -27.5q0 -18 -14 -31t-32 -13zM117 177l105 500q4 17 4 31q0 8 -12 22h92q-2 -2 -6 -5q-12 -9 -15 -19q-1 -2 -2 -8l-6 -21l-119 -500h-41z" />
    <glyph glyph-name="quotedbl" unicode="&#x22;" horiz-adv-x="352" 
d="M86 490l-22 240h80l-21 -240h-37zM216 490l-22 240h80l-21 -240h-37z" />
    <glyph glyph-name="numbersign" unicode="#" 
d="M59 0l78 217h-143l14 40h144l78 215h-143l14 40h144l79 218h41l-79 -218h206l79 218h43l-79 -218h146l-15 -40h-146l-78 -215h146l-14 -40h-147l-79 -217h-42l78 217h-205l-78 -217h-42zM193 257h206l78 215h-206z" />
    <glyph glyph-name="dollar" unicode="$" 
d="M226 -49l17 76q-30 0 -67 16.5t-62.5 33.5t-28.5 17q-5 0 -10 -2.5t-8 -5.5t-8.5 -8t-7.5 -7l35 156q0 -53 31 -92.5t67 -55t67 -15.5l65 295l-48 31q-60 37 -86.5 68.5t-26.5 78.5q0 50 24 88.5t62.5 59t77.5 30.5t77 10l14 59h29l-14 -60q23 0 78 -25t60 -25
q8 0 11.5 1.5t7.5 7t5 6.5l-31 -134q-5 56 -34.5 88.5t-104.5 44.5l-64 -289l55 -30q119 -65 119 -149q0 -90 -72 -141.5t-184 -51.5l-16 -76h-29zM292 434l36 -22l61 276q-75 0 -129.5 -34t-54.5 -104q0 -36 23 -63t64 -53zM342 346l-62 -282h26q70 0 120.5 44t50.5 101
q0 37 -19 58.5t-74 54.5z" />
    <glyph glyph-name="percent" unicode="%" horiz-adv-x="944" 
d="M218 459q0 -38 17.5 -66t52.5 -28q43 0 78 42.5t52 99.5t17 111q0 32 -19.5 56t-48.5 24q-40 0 -71 -28.5t-47 -70t-23.5 -78t-7.5 -62.5zM250 -5l473 740h32l-474 -740h-31zM558 126q0 -38 17.5 -66t52.5 -28q43 0 78 42.5t52 99.5t17 111q0 32 -19.5 56t-48.5 24
q-40 0 -71 -28.5t-47 -70t-23.5 -78t-7.5 -62.5zM294 328q-55 0 -88 38.5t-33 93.5q0 102 55 188.5t141 86.5q56 0 83.5 -35t27.5 -114q0 -92 -56 -175t-130 -83zM634 -5q-55 0 -88 38.5t-33 93.5q0 102 55 188.5t141 86.5q56 0 83.5 -35t27.5 -114q0 -92 -56 -175t-130 -83
z" />
    <glyph glyph-name="ampersand" unicode="&#x26;" horiz-adv-x="778" 
d="M774 0h-88q-51 32 -131 110q-26 -27 -42.5 -42.5t-50 -38t-75 -33.5t-92.5 -11q-100 0 -169.5 64.5t-69.5 163.5q0 61 23 108t61 73.5t74.5 41t77.5 20.5q-19 57 -19 110q0 68 54.5 123.5t148.5 55.5q41 0 74 -14.5t51.5 -28.5t26.5 -14q6 0 23 13l-27 -113
q-18 53 -51.5 86.5t-98.5 33.5q-67 0 -109 -46t-42 -104q0 -51 25 -110t64 -111.5t73 -90.5t66 -67q69 107 82 240h-143l7 37h280l-8 -37h-86q-8 -65 -34 -141.5t-67 -129.5q103 -102 192 -148zM106 213q0 -84 54 -137.5t135 -53.5q131 0 227 118q-85 82 -130.5 141
t-84.5 138q-36 -5 -68.5 -18t-64 -36t-50 -62t-18.5 -90z" />
    <glyph glyph-name="quotesingle" unicode="'" horiz-adv-x="278" 
d="M86 490l-22 240h80l-21 -240h-37z" />
    <glyph glyph-name="parenleft" unicode="(" horiz-adv-x="296" 
d="M195 -150l-6 -30l-22 11t-21.5 11.5t-17.5 12t-17 16t-13 20t-11 27.5t-5.5 35.5t-2.5 46.5q0 17 9.5 96t20.5 133l31 158q39 204 92.5 281t142.5 77l-6 -30q-24 -6 -34.5 -10t-34 -23.5t-38.5 -50.5t-35 -92t-37 -148l-31 -164q-7 -36 -16 -96t-14 -102.5t-5 -45.5
q0 -14 1 -26t1.5 -20.5t4.5 -17.5t4.5 -14t7 -12.5t7.5 -9.5t10 -9t10 -7.5t12.5 -8t12.5 -8.5z" />
    <glyph glyph-name="parenright" unicode=")" horiz-adv-x="296" 
d="M-51 -180l6 30q24 6 34.5 10t34 23.5t38.5 50.5t35 92t37 148l31 164q7 36 16 96t14 102.5t5 45.5q0 14 -1 26t-1.5 20.5t-4.5 17.5t-4.5 14t-7 12.5t-7.5 9.5t-10 9t-10 7.5t-12.5 8t-12.5 8.5l6 30l22 -11t21.5 -11.5t17.5 -12t17 -16t13 -20t11 -27.5t5.5 -35.5
t2.5 -46.5q0 -17 -9.5 -96t-20.5 -133l-31 -158q-39 -204 -92.5 -281t-142.5 -77z" />
    <glyph glyph-name="asterisk" unicode="*" 
d="M344 432v110l-98 -56q-16 -8 -19 -18q-14 17 -16 21.5t-6 24.5q10 -2 12 -2q3 0 16 8l92 52l-96 55l-12 6q-4 0 -7 -0.5t-5 -0.5q3 9 4 12.5t3 7.5l2.5 5t5 6.5t7.5 9.5q1 -5 3.5 -8t4 -4t5.5 -3.5t5 -2.5l99 -54v105q0 24 -7 30q16 4 25 4q12 0 26 -4q-7 -6 -7 -30v-105
l99 54q1 1 4 2t4.5 2t3.5 3t3.5 4.5t2.5 6.5q3 -4 6.5 -8t4.5 -6t2.5 -4t3 -5.5t2.5 -6.5t3 -11q-2 0 -5 0.5t-7 0.5l-12 -6l-96 -55l92 -52q13 -8 16 -8q2 0 12 2q-4 -20 -6 -24.5t-16 -21.5q-3 10 -19 18l-98 56v-110q0 -16 7 -30q-22 -5 -26 -5q-5 0 -25 5q7 14 7 30z
" />
    <glyph glyph-name="plus" unicode="+" horiz-adv-x="944" 
d="M511 247v-247h-43v247h-233v43h233v247h43v-247h231v-43h-231z" />
    <glyph glyph-name="comma" unicode="," horiz-adv-x="278" 
d="M23 -110l-12 23q40 22 54.5 35.5t31.5 45.5q-36 3 -36 31q0 20 12.5 32t29.5 12t27.5 -13t10.5 -32q0 -46 -40 -88t-78 -46z" />
    <glyph glyph-name="hyphen" unicode="-" horiz-adv-x="315" 
d="M51 231l16 78q3 -8 5 -11t7.5 -6t15.5 -3h134q13 0 21 2.5t10 4.5l10 10l-17 -75q-13 15 -29 15h-131q-21 0 -26 -2t-16 -13z" />
    <glyph glyph-name="period" unicode="." horiz-adv-x="278" 
d="M89 -15q-20 0 -31 11t-11 29q0 16 14 30t31 14q16 0 27.5 -11t11.5 -28t-13 -31t-29 -14z" />
    <glyph glyph-name="slash" unicode="/" horiz-adv-x="278" 
d="M-54 -15l394 754h37l-394 -754h-37z" />
    <glyph glyph-name="zero" unicode="0" 
d="M270 -15q-95 0 -152.5 74t-57.5 189q0 120 48 234.5t131.5 188.5t177.5 74q102 0 150.5 -70.5t48.5 -190.5q0 -116 -43 -229.5t-124.5 -191.5t-178.5 -78zM110 240q0 -93 44.5 -155.5t112.5 -62.5q79 0 149.5 75t110 184.5t39.5 217.5q0 92 -35.5 150.5t-110.5 58.5
q-80 0 -153.5 -76t-115 -184t-41.5 -208z" />
    <glyph glyph-name="one" unicode="1" 
d="M265 85l128 587q-51 -35 -104 -40l9 39q60 8 125 63h36l-147 -657q-9 -29 -9 -53q0 -12 12 -24h-94q30 19 44 85z" />
    <glyph glyph-name="two" unicode="2" 
d="M17 0l8 35q51 33 84.5 55t90 62.5t94 73t82 78t71.5 86t45.5 89t18.5 94.5q0 60 -34.5 97.5t-95.5 37.5q-43 0 -87.5 -22.5t-69.5 -44.5t-61 -59l23 123q13 -15 20 -15q8 0 22.5 8.5t31 19t49 19t72.5 8.5q77 0 128.5 -51t51.5 -121q0 -54 -21 -109.5t-50.5 -100
t-76.5 -91.5t-85 -78.5t-90 -67t-77 -51t-61 -36.5v-2h293q34 0 80 38l-16 -75h-440z" />
    <glyph glyph-name="three" unicode="3" 
d="M47 87l23 94q7 -26 17.5 -49t30 -50t53 -43.5t76.5 -16.5q104 0 173 68.5t69 163.5q0 66 -45 106t-119 40q-47 0 -122 -25l-21 35l356 281v2h-260q-44 0 -91 -38l16 75h414l-9 -43l-347 -260l2 -2q39 12 80 12q88 0 142 -50.5t54 -135.5q0 -112 -83.5 -189t-202.5 -77
q-44 0 -78.5 9t-59.5 27t-38 31t-30 35z" />
    <glyph glyph-name="four" unicode="4" 
d="M382 85l27 132h-351l6 33q44 69 154 199.5t190 215.5q4 5 16.5 17.5t17 18.5t4.5 11q0 6 -5 18h94q-274 -290 -409 -476h291l36 164l54 21l-40 -185h94l-8 -37h-94l-30 -140q-9 -33 -9 -53q0 -12 12 -24h-94q30 19 44 85z" />
    <glyph glyph-name="five" unicode="5" 
d="M51 78l20 85q9 -24 13 -33.5t19.5 -34.5t33 -37.5t49 -24t70.5 -11.5q107 0 174.5 68.5t67.5 166.5q0 46 -18 78.5t-47.5 47.5t-57 21t-56.5 6q-38 0 -77 -12t-57.5 -22t-53.5 -31l83 385h395l-14 -65q-15 28 -47 28h-291l-58 -274q84 28 140 28q89 0 149 -51t60 -144
q0 -103 -77 -185t-213 -82q-145 0 -207 93z" />
    <glyph glyph-name="six" unicode="6" 
d="M634 701l-29 -120q-10 26 -20 44.5t-28 39.5t-46 32t-64 11q-200 0 -302 -358l2 -2q31 51 75.5 81.5t125.5 30.5q99 0 159.5 -56.5t60.5 -144.5q0 -118 -82.5 -196t-188.5 -78q-92 0 -153 66t-61 191q0 118 45 232.5t130.5 192.5t188.5 78q46 0 77.5 -12t52 -26t34.5 -16
q10 0 23 10zM133 209q0 -77 44 -132t117 -55q56 0 101 24t70.5 61.5t39 77.5t13.5 78q0 70 -47.5 115t-124.5 45q-83 0 -148 -65.5t-65 -148.5z" />
    <glyph glyph-name="seven" unicode="7" 
d="M240 0h-78q165 364 378 693h-279q-55 0 -68 -5.5t-32 -30.5l15 73h435l-7 -37q-45 -50 -209.5 -343t-164.5 -328q0 -10 10 -22z" />
    <glyph glyph-name="eight" unicode="8" 
d="M275 -15q-103 0 -166.5 49.5t-63.5 137.5q0 48 15 87.5t38.5 64t54.5 41.5t60 24.5t58 9.5v2q-16 4 -26 7t-29.5 13.5t-31 23.5t-21 36.5t-9.5 53.5q0 90 74 150t187 60q93 0 139.5 -43t46.5 -108q0 -62 -32 -109.5t-72 -68.5t-80 -24v-2q19 -4 34 -9t36 -17.5t35 -28.5
t24 -44.5t10 -64.5q0 -103 -81.5 -172t-199.5 -69zM95 174q0 -78 53.5 -115t130.5 -37q100 0 163.5 61.5t63.5 138.5q0 78 -49.5 114.5t-129.5 36.5q-110 0 -171 -52.5t-61 -146.5zM204 534q0 -61 45 -91t107 -30q82 0 138.5 51.5t56.5 123.5q0 120 -145 120
q-89 0 -145.5 -49t-56.5 -125z" />
    <glyph glyph-name="nine" unicode="9" 
d="M44 68l19 89q3 -12 13 -31t29 -43.5t52 -42t72 -18.5q47 0 89.5 21t73 56t55.5 74t42 82t26.5 72.5t14.5 52.5l-2 2q-18 -32 -38 -53.5t-62.5 -40t-99.5 -18.5q-99 0 -159.5 56.5t-60.5 144.5q0 118 82.5 196t188.5 78q92 0 153 -66t61 -191q0 -118 -45 -232.5
t-130.5 -192.5t-188.5 -78q-109 0 -185 83zM543 521q0 77 -44 132t-117 55q-56 0 -101 -24t-70.5 -61.5t-39 -77.5t-13.5 -78q0 -70 47.5 -115t124.5 -45q83 0 148 65.5t65 148.5z" />
    <glyph glyph-name="colon" unicode=":" horiz-adv-x="278" 
d="M89 -15q-20 0 -31 11t-11 29q0 16 14 30t31 14q16 0 27.5 -11t11.5 -28t-13 -31t-29 -14zM160 320q-20 0 -31 11t-11 29q0 16 14 30t31 14q16 0 27.5 -11t11.5 -28t-13 -31t-29 -14z" />
    <glyph glyph-name="semicolon" unicode=";" horiz-adv-x="278" 
d="M23 -110l-12 23q40 22 54.5 35.5t31.5 45.5q-36 3 -36 31q0 20 12.5 32t29.5 12t27.5 -13t10.5 -32q0 -46 -40 -88t-78 -46zM167 320q-20 0 -31 11t-11 29q0 16 14 30t31 14q16 0 27.5 -11t11.5 -28t-13 -31t-29 -14z" />
    <glyph glyph-name="less" unicode="&#x3c;" horiz-adv-x="944" 
d="M743 27l-486 215v54l486 216v-77l-387 -166l387 -165v-77z" />
    <glyph glyph-name="equal" unicode="=" horiz-adv-x="944" 
d="M218 192v43h507v-43h-507zM218 302v43h507v-43h-507z" />
    <glyph glyph-name="greater" unicode="&#x3e;" horiz-adv-x="944" 
d="M257 27v77l387 165l-387 166v77l486 -216v-54z" />
    <glyph glyph-name="question" unicode="?" horiz-adv-x="500" 
d="M209 177h-46q14 74 49.5 125.5t75 78t77 50.5t62.5 61t25 91q0 55 -40 90t-101 35q-16 0 -30.5 -2t-25.5 -3.5t-24.5 -8t-20.5 -9t-20.5 -13t-17 -12.5t-17.5 -15.5t-15 -15t-16 -17.5l-16 -17l24 110q1 -1 2.5 -4t2.5 -4.5t3.5 -3t5.5 -1.5q5 0 26.5 13t59.5 26.5
t82 13.5q81 0 134.5 -47t53.5 -119q0 -46 -20 -84.5t-52 -66t-65.5 -50.5t-67 -48.5t-49.5 -48.5q-19 -28 -39 -104zM149 -15q-16 0 -26.5 12.5t-10.5 28.5q0 18 14 30t32 12q16 0 26.5 -11.5t10.5 -27.5q0 -18 -14 -31t-32 -13z" />
    <glyph glyph-name="at" unicode="@" horiz-adv-x="1000" 
d="M823 88l26 -23q-32 -36 -122 -80t-201 -44q-179 0 -295.5 92.5t-116.5 238.5q0 178 134 312t314 134q154 0 258 -91t104 -233q0 -131 -86.5 -225.5t-194.5 -94.5q-70 0 -73 71q-56 -65 -130 -65q-57 0 -94.5 37.5t-37.5 105.5q0 72 37 148t97.5 127.5t123.5 51.5
q29 0 50.5 -8t35.5 -23t19 -22t12 -21l22 54h86l-83 -207q-61 -149 -61 -170q0 -27 30 -27q65 0 132.5 76t67.5 192q0 125 -90.5 199t-220.5 74q-95 0 -184.5 -57t-144.5 -149t-55 -188q0 -125 95 -206t253 -81q171 0 289 99q2 1 2.5 2t1.5 1zM387 188q0 -67 70 -67
q10 0 19.5 2t18 6t15 8t13.5 11l11.5 11.5t10.5 13t8 12t7 12t6 9.5q38 61 61 136.5t23 104.5q0 25 -16.5 44.5t-45.5 19.5q-45 0 -93.5 -61.5t-78 -137t-29.5 -124.5z" />
    <glyph glyph-name="A" unicode="A" 
d="M9 66l363 612q11 18 11 29q0 5 -13 23h87l101 -672q3 -24 9.5 -34t21.5 -24h-107q23 18 23 34q0 7 -2 21l-34 211h-294l-120 -204q-16 -27 -16 -39q0 -5 1.5 -8.5t6.5 -8.5l6 -6h-103q35 24 59 66zM200 309h263l-54 351h-2z" />
    <glyph glyph-name="B" unicode="B" horiz-adv-x="648" 
d="M118 43h71q69 0 122 7.5t105.5 27t81 61.5t28.5 104q0 29 -8 50t-25 33.5t-33 20t-44.5 11t-46 4t-49.5 0.5h-130zM198 405h67q280 0 280 174q0 29 -9.5 49t-24.5 31.5t-40.5 18t-50 8t-60.5 1.5h-98zM74 85l121 562q10 46 10 54q0 15 -16 29h179q38 0 65.5 -2
t62.5 -10.5t56.5 -23.5t37 -43.5t15.5 -68.5q0 -51 -21.5 -91t-53.5 -61t-62 -32t-54 -11v-2q20 0 39.5 -2.5t44.5 -11.5t43.5 -23.5t31.5 -41.5t13 -63q0 -243 -403 -243h-153q17 11 26.5 28.5t17.5 56.5z" />
    <glyph glyph-name="C" unicode="C" horiz-adv-x="593" 
d="M534 148l-25 -113q-9 7 -19 7q-8 0 -29 -14t-58 -28.5t-84 -14.5q-108 0 -179 84t-71 212q0 116 50 223t137 174t187 67q45 0 77.5 -14.5t51.5 -29t32 -14.5q8 0 24 9l-27 -126q-44 132 -151 132q-83 0 -158 -61.5t-119 -157.5t-44 -197q0 -115 50.5 -186.5t140.5 -71.5
q34 0 63.5 9t57.5 29t43 33.5t41 39.5z" />
    <glyph glyph-name="D" unicode="D" horiz-adv-x="704" 
d="M119 43h61q191 0 315 115.5t124 294.5q0 60 -17 104t-43 68.5t-65 39t-73.5 18.5t-78.5 4h-85zM74 85l121 562q10 46 10 54q0 15 -16 29h170q161 0 240.5 -71.5t79.5 -203.5q0 -84 -30.5 -163.5t-88 -145.5t-151.5 -106t-211 -40h-168q17 11 26.5 28.5t17.5 56.5z" />
    <glyph glyph-name="E" unicode="E" horiz-adv-x="574" 
d="M74 85l121 562q10 46 10 54q0 15 -16 29h427l-18 -74q-10 17 -23.5 24t-44.5 7h-270l-61 -281h257q40 0 63 20l-19 -85q-6 13 -16.5 17.5t-36.5 4.5h-257l-69 -320h284q49 0 80 31l-18 -74h-437q17 11 26.5 28.5t17.5 56.5z" />
    <glyph glyph-name="F" unicode="F" horiz-adv-x="537" 
d="M74 85l121 562q10 46 10 54q0 15 -16 29h413l-18 -74q-10 17 -23.5 24t-44.5 7h-256l-61 -281h243q40 0 63 20l-19 -85q-6 13 -16.5 17.5t-36.5 4.5h-244l-60 -280q-10 -48 -10 -54q0 -15 16 -29h-105q17 11 26.5 28.5t17.5 56.5z" />
    <glyph glyph-name="G" unicode="G" horiz-adv-x="667" 
d="M596 243l-41 -186q-37 -28 -95.5 -50t-122.5 -22q-117 0 -191.5 81t-74.5 215q0 117 50 223.5t137.5 173.5t188.5 67q46 0 83 -13t55.5 -29t35 -29t25.5 -13q8 0 24 9l-27 -126q-65 158 -189 158q-84 0 -159.5 -62.5t-119.5 -160.5t-44 -202q0 -113 56 -181t153 -68
q75 0 164 52l37 165q10 44 10 54q0 15 -16 29h105q-17 -11 -26.5 -29.5t-17.5 -55.5z" />
    <glyph glyph-name="H" unicode="H" horiz-adv-x="704" 
d="M74 85l121 562q10 46 10 54q0 15 -16 29h105q-30 -19 -44 -85l-52 -240h366l53 242q10 46 10 54q0 15 -16 29h105q-30 -19 -44 -85l-121 -562q-10 -48 -10 -54q0 -15 16 -29h-105q17 11 26.5 28.5t17.5 56.5l59 277h-366l-60 -279q-10 -48 -10 -54q0 -15 16 -29h-105
q17 11 26.5 28.5t17.5 56.5z" />
    <glyph glyph-name="I" unicode="I" horiz-adv-x="278" 
d="M250 645l-121 -562q-10 -48 -10 -54q0 -15 16 -29h-105q17 11 26.5 28.5t17.5 56.5l121 562q10 46 10 54q0 15 -16 29h105q-30 -19 -44 -85z" />
    <glyph glyph-name="J" unicode="J" horiz-adv-x="444" 
d="M433 645l-85 -397q-30 -141 -77 -202t-143 -61q-102 0 -163 81l20 86q23 -61 41 -82q35 -42 101 -42q68 0 104 51.5t62 171.5l85 396q10 46 10 54q0 15 -16 29h105q-30 -19 -44 -85z" />
    <glyph glyph-name="K" unicode="K" horiz-adv-x="611" 
d="M74 85l121 562q10 46 10 54q0 15 -16 29h105q-30 -19 -44 -85l-57 -259l2 -2l358 301q16 11 16 23q0 9 -11 22h129q-39 -19 -103 -72l-240 -200l168 -388q3 -8 6.5 -14.5t6 -11.5t6.5 -10l6 -7.5t7 -7t6.5 -6t7.5 -7t8 -6.5h-85l-178 423l-123 -102l-51 -238
q-10 -48 -10 -54q0 -15 16 -29h-105q17 11 26.5 28.5t17.5 56.5z" />
    <glyph glyph-name="L" unicode="L" horiz-adv-x="500" 
d="M74 85l121 562q10 46 10 54q0 15 -16 29h105q-30 -19 -44 -85l-129 -602h259q49 0 80 31l-18 -74h-412q17 11 26.5 28.5t17.5 56.5z" />
    <glyph glyph-name="M" unicode="M" horiz-adv-x="926" 
d="M81 85l121 562q10 46 10 54q0 15 -16 29h102l123 -639l412 639h101q-30 -19 -44 -85l-121 -562q-10 -48 -10 -54q0 -15 16 -29h-105q30 19 44 85l132 596l-2 2l-436 -683h-26l-134 683h-2l-129 -600q-10 -48 -10 -54q0 -15 16 -29h-86q17 11 26.5 28.5t17.5 56.5z" />
    <glyph glyph-name="N" unicode="N" horiz-adv-x="759" 
d="M81 85l121 562q10 46 10 54q0 15 -16 29h80l285 -650h2l127 567q10 44 10 54q0 15 -16 29h86q-17 -11 -26.5 -29.5t-17.5 -55.5l-144 -645h-47l-290 660h-2l-126 -577q-10 -46 -10 -54q0 -15 16 -29h-86q17 11 26.5 28.5t17.5 56.5z" />
    <glyph glyph-name="O" unicode="O" horiz-adv-x="778" 
d="M349 -15q-124 0 -199.5 83t-75.5 215q0 64 15.5 128t49.5 124t81 107t116 75t150 28q122 0 192.5 -80.5t70.5 -210.5q0 -126 -48 -232.5t-140.5 -171.5t-211.5 -65zM134 277q0 -119 58.5 -184t162.5 -65q97 0 175.5 63.5t118.5 159.5t40 202q0 120 -55 184.5t-153 64.5
q-67 0 -125.5 -27.5t-98 -71.5t-68 -100.5t-42 -114t-13.5 -111.5z" />
    <glyph glyph-name="P" unicode="P" horiz-adv-x="593" 
d="M74 85l121 562q10 46 10 54q0 15 -16 29h192q240 0 240 -181q0 -39 -17 -78.5t-52.5 -76t-101 -59.5t-152.5 -23h-120l-49 -229q-10 -46 -10 -54q0 -15 16 -29h-105q17 11 26.5 28.5t17.5 56.5zM260 687l-73 -332h117q108 0 182.5 54.5t74.5 140.5q0 78 -49.5 107.5
t-135.5 29.5h-116z" />
    <glyph glyph-name="Q" unicode="Q" horiz-adv-x="778" 
d="M662 0h-215q-27 -8 -46 -10q-27 -5 -51 -5q-124 0 -199.5 83t-75.5 215q0 64 15.5 128t49.5 124t81 107t116 75t150 28q122 0 192.5 -80.5t70.5 -210.5q0 -136 -59 -247t-162 -162v-2h71q49 0 80 31zM135 277q0 -119 58.5 -184t162.5 -65q97 0 175.5 63.5t118.5 159.5
t40 202q0 120 -55 184.5t-153 64.5q-67 0 -125.5 -27.5t-98 -71.5t-68 -100.5t-42 -114t-13.5 -111.5z" />
    <glyph glyph-name="R" unicode="R" horiz-adv-x="648" 
d="M195 387h117q113 0 185 41.5t72 121.5q0 77 -52 107t-141 30h-116zM74 85l121 562q10 46 10 54q0 15 -16 29h192q54 0 93.5 -6.5t77 -24t57.5 -55.5t20 -95q0 -35 -13.5 -68t-41.5 -63.5t-79 -50.5t-119 -23l136 -274q20 -40 54 -70h-85l-164 344h-130l-58 -261
q-10 -48 -10 -54q0 -15 16 -29h-105q17 11 26.5 28.5t17.5 56.5z" />
    <glyph glyph-name="S" unicode="S" horiz-adv-x="556" 
d="M12 45l31 131q28 -51 81.5 -99.5t116.5 -48.5q80 0 134.5 48.5t54.5 109.5q0 40 -24.5 69t-79.5 63l-64 40q-78 48 -112 87t-34 98q0 84 68.5 143t170.5 59q47 0 80 -10.5t52 -21t31 -10.5q8 0 30 11l-26 -113q-49 101 -158 101q-80 0 -134 -43t-54 -105q0 -43 25.5 -74
t92.5 -71l63 -38q68 -41 100.5 -82t32.5 -94q0 -85 -70 -147.5t-160 -62.5q-61 0 -109.5 18t-76 36t-37.5 18q-7 0 -25 -12z" />
    <glyph glyph-name="T" unicode="T" horiz-adv-x="519" 
d="M192 85l132 602h-144q-33 0 -78 -29l18 72h491l-18 -74q-23 31 -78 31h-136l-132 -604q-10 -46 -10 -54q0 -15 16 -29h-105q30 19 44 85z" />
    <glyph glyph-name="U" unicode="U" horiz-adv-x="704" 
d="M111 270l84 377q10 44 10 54q0 15 -16 29h105q-30 -19 -44 -85l-84 -383q-19 -88 -19 -104q0 -59 47 -94.5t130 -35.5q112 0 162.5 65t84.5 219l75 335q10 44 10 54q0 15 -16 29h86q-17 -11 -26.5 -29.5t-17.5 -55.5l-74 -333q-15 -68 -27 -109.5t-34.5 -88t-51 -71.5
t-73.5 -41.5t-106 -16.5q-102 0 -163 46t-61 114q0 38 19 125z" />
    <glyph glyph-name="V" unicode="V" horiz-adv-x="556" 
d="M191 0l-72 667q-4 38 -27 63h97q-17 -13 -17 -33q0 -13 3 -38l64 -574h2l315 579q14 24 14 43q0 9 -12 23h99q-2 -1 -10 -7t-13.5 -11t-15 -17.5t-19.5 -30.5l-364 -664h-44z" />
    <glyph glyph-name="W" unicode="W" horiz-adv-x="907" 
d="M152 0l-35 639q-4 71 -23 91h96q-16 -20 -16 -35q0 -5 0.5 -14t1.5 -21.5t1 -19.5l27 -567h2l329 657h34l62 -658h2l255 573q18 40 18 62q0 9 -12 23h99q-28 -20 -43 -43q-13 -20 -28 -52l-285 -635h-55l-61 621h-2l-312 -621h-55z" />
    <glyph glyph-name="X" unicode="X" horiz-adv-x="556" 
d="M41 100l225 276l-109 292q-15 40 -44 62h112q-17 -14 -17 -27q0 -11 9 -34l94 -253l212 260q20 24 20 37q0 3 -12 17h103q-39 -26 -64 -55l-242 -293l126 -326q8 -23 37 -56h-113q21 23 21 30q0 5 -5 20l-109 291l-201 -244q-3 -4 -12 -15t-13.5 -17t-10.5 -14.5t-9 -15
t-3 -11.5q0 -6 11 -24h-104q33 20 98 100z" />
    <glyph glyph-name="Y" unicode="Y" horiz-adv-x="537" 
d="M193 85l38 175l-97 399q-12 50 -36 71h100q-17 -17 -17 -27q0 -15 8 -47l85 -356l251 374q16 23 16 38q0 6 -14 18h112q-35 -17 -64 -57l-289 -413l-38 -177q-10 -48 -10 -54q0 -15 16 -29h-105q30 19 44 85z" />
    <glyph glyph-name="Z" unicode="Z" horiz-adv-x="537" 
d="M-7 32l534 655h-298q-24 0 -37.5 -7t-30.5 -24l18 74h428l-7 -31l-538 -656h333q49 0 80 31l-18 -74h-470z" />
    <glyph glyph-name="bracketleft" unicode="[" horiz-adv-x="296" 
d="M14 -192l205 922h135l-9 -37h-83l-190 -848h78l-8 -37h-128z" />
    <glyph glyph-name="backslash" unicode="\" horiz-adv-x="278" 
d="M306 -15h-37l-244 754h37z" />
    <glyph glyph-name="bracketright" unicode="]" horiz-adv-x="296" 
d="M284 730l-205 -922h-135l9 37h83l190 848h-78l8 37h128z" />
    <glyph glyph-name="asciicircum" unicode="^" 
d="M113 331l213 399h61l207 -399h-64l-175 334l-178 -334h-64z" />
    <glyph glyph-name="underscore" unicode="_" horiz-adv-x="500" 
d="M-40 -115v50h500v-50h-500z" />
    <glyph glyph-name="grave" unicode="`" horiz-adv-x="370" 
d="M148 694l10 51l217 -97l-6 -25z" />
    <glyph glyph-name="a" unicode="a" horiz-adv-x="574" 
d="M472 0h-53q-14 29 -14 68q0 27 6 73l-2 2q-13 -26 -29 -49.5t-41 -50t-60 -42.5t-74 -16q-72 0 -116.5 51t-44.5 142q0 84 39 168.5t107 141.5t143 57q91 0 147 -72l12 57h50l-44 -202q-43 -200 -43 -242q0 -49 17 -86zM448 331l24 105q-21 28 -55.5 50t-74.5 22
q-97 0 -172.5 -105.5t-75.5 -233.5q0 -69 32 -108t87 -39q41 0 79 27t63 64.5t46.5 84.5t31.5 78.5t15 54.5z" />
    <glyph glyph-name="b" unicode="b" horiz-adv-x="574" 
d="M141 243l-48 -213q35 -8 72 -8q134 0 223.5 105t89.5 238q0 63 -33 103t-89 40q-46 0 -85.5 -28.5t-65 -73t-41 -85t-23.5 -78.5zM61 109l121 538q10 44 10 54q0 15 -16 29h74l-69 -304l2 -2q13 20 20.5 30t26 30.5t35.5 31.5t43.5 20t55.5 9q74 0 119 -51.5t45 -140.5
q0 -141 -106.5 -254.5t-252.5 -113.5q-80 0 -140 30q18 32 32 94z" />
    <glyph glyph-name="c" unicode="c" horiz-adv-x="481" 
d="M412 128l-15 -76q-30 -23 -42.5 -32t-49 -22t-78.5 -13q-73 0 -124.5 55t-51.5 144q0 85 38 167.5t107.5 138t150.5 55.5q31 0 53.5 -9t35 -18t20.5 -9q6 0 20 10l-24 -107q-7 21 -12 31.5t-17.5 29t-31.5 27t-44 8.5q-61 0 -118.5 -47t-92.5 -123.5t-35 -157.5
q0 -71 35 -114.5t94 -43.5q89 0 182 106z" />
    <glyph glyph-name="d" unicode="d" horiz-adv-x="574" 
d="M450 343l19 96q-51 69 -118 69q-100 0 -175.5 -107t-75.5 -231q0 -66 33 -107t80 -41q85 0 146.5 91.5t90.5 229.5zM478 480l39 167q10 44 10 54q0 15 -16 29h74l-106 -478q-22 -110 -22 -167q0 -35 24 -85h-60q-14 40 -14 71q0 18 7 65l-2 2q-9 -19 -22 -38t-38.5 -48.5
t-63.5 -48t-80 -18.5q-69 0 -113.5 51.5t-44.5 135.5q0 143 90 258t198 115q95 0 140 -65z" />
    <glyph glyph-name="e" unicode="e" horiz-adv-x="519" 
d="M427 126l-20 -84q-68 -57 -158 -57q-89 0 -143.5 59t-54.5 157q0 80 42 160t113 132t147 52q62 0 103 -32t41 -85q0 -89 -101.5 -151.5t-236.5 -62.5q-9 0 -27.5 1t-28.5 1q-2 -18 -2 -26q0 -76 41.5 -122t109.5 -46q15 0 29.5 3.5t26 7t25.5 12.5t22 14t21.5 17.5
t18 16.5t18 18t14.5 15zM109 251q62 0 118.5 9.5t107 29t81 54.5t31.5 82q0 37 -26.5 59.5t-67.5 22.5q-50 0 -98 -32.5t-78.5 -76.5t-49 -85t-18.5 -63z" />
    <glyph glyph-name="f" unicode="f" horiz-adv-x="278" 
d="M123 0h-101q30 19 44 85l93 408h-67l7 37h68l20 85q30 130 135 130q16 0 29 -2.5t18.5 -4.5t18 -9t15.5 -9l-17 -71q-8 15 -12.5 23t-13 17.5t-19.5 14t-25 4.5q-60 0 -80 -94l-19 -84h107l-7 -37h-108l-99 -440q-2 -14 -2 -22q0 -18 15 -31z" />
    <glyph glyph-name="g" unicode="g" horiz-adv-x="574" 
d="M3 -141l16 64q17 -25 29 -39.5t44 -30.5t73 -16q36 0 67.5 11.5t53 27t40 43t29 48.5t21 54.5t14 50.5t9 47.5t6.5 33.5l-2 2q-8 -26 -22.5 -52.5t-38 -54.5t-59.5 -45.5t-78 -17.5q-72 0 -114.5 53t-42.5 148q0 81 37 163.5t106 139t149 56.5q39 0 68.5 -11.5t41 -22
t28.5 -31.5l13 50h73q-32 -27 -41 -73l-60 -270q-3 -13 -9.5 -47.5t-11.5 -59.5t-16.5 -62.5t-24.5 -65t-35 -58t-48.5 -50t-65.5 -32t-85 -12.5q-43 0 -79.5 12t-46.5 19t-38 28zM98 169q0 -64 32.5 -105.5t82.5 -41.5q38 0 71.5 20t58.5 57.5t44.5 75t36 91t25 85
t18.5 75.5q2 9 3 13q-17 21 -28.5 32.5t-38 24t-58.5 12.5q-69 0 -127.5 -55.5t-89 -133t-30.5 -150.5z" />
    <glyph glyph-name="h" unicode="h" horiz-adv-x="537" 
d="M111 0h-101q30 19 44 85l126 562q10 44 10 54q0 15 -16 29h74l-73 -330l2 -2q2 3 7 9q24 30 39 47.5t42 42t58 36.5t65 12q37 0 66.5 -28.5t29.5 -78.5q0 -33 -13 -70l-68 -315q-3 -10 -3 -22q0 -18 15 -31h-101q30 19 44 85l69 310q7 26 7 47q0 29 -17 47.5t-44 18.5
q-50 0 -102 -48.5t-87.5 -114.5t-48.5 -129l-36 -163q-3 -11 -3 -22q0 -18 15 -31z" />
    <glyph glyph-name="i" unicode="i" horiz-adv-x="241" 
d="M116 0h-101q30 19 44 85l80 362q10 44 10 54q0 15 -16 29h74l-103 -477q-3 -11 -3 -22q0 -18 15 -31zM215 654q-38 0 -38 43q0 17 13.5 29t30.5 12q40 0 40 -38q0 -18 -13.5 -32t-32.5 -14z" />
    <glyph glyph-name="j" unicode="j" horiz-adv-x="241" 
d="M211 530l-128 -575q-7 -32 -14.5 -55t-20 -48t-33 -38.5t-46.5 -13.5q-5 0 -10 0.5t-8.5 1.5t-8 3t-6 3t-6 4.5t-5 4l-5.5 5.5l-5 4l10 37q16 -26 38 -26q16 0 28.5 11t21 34t12 35.5t9.5 39.5l109 490q10 44 10 54q0 15 -16 29h74zM219 654q-38 0 -38 43q0 17 13.5 29
t30.5 12q40 0 40 -38q0 -18 -13.5 -32t-32.5 -14z" />
    <glyph glyph-name="k" unicode="k" horiz-adv-x="500" 
d="M49 85l127 562q10 44 10 54q0 15 -16 29h74l-96 -432l2 -2l213 189q23 18 23 29q0 4 -9 16h111q-35 -20 -99 -80l-160 -137l2 -2q5 0 30 2t38 2q46 0 89.5 -36t43.5 -92q0 -21 -8 -59l-17 -74q-4 -14 -4 -22q0 -17 11 -32h-68l28 128q8 34 8 53q0 48 -37.5 72.5
t-94.5 24.5q-38 0 -110 -18l-46 -207q-3 -11 -3 -22q0 -18 15 -31h-101q30 19 44 85z" />
    <glyph glyph-name="l" unicode="l" horiz-adv-x="241" 
d="M62 85l125 562q10 44 10 54q0 15 -16 29h74l-143 -647q-10 -46 -10 -54q0 -15 16 -29h-100q30 19 44 85z" />
    <glyph glyph-name="m" unicode="m" horiz-adv-x="833" 
d="M114 0h-101q30 19 44 85l81 362q10 44 10 54q0 15 -16 29h74l-32 -132l2 -2q18 27 34 46t43.5 46t60.5 42t69 15q47 0 69.5 -29.5t22.5 -66.5q0 -15 -10 -60l2 -2q99 158 211 158q43 0 72 -25.5t29 -80.5q0 -23 -6 -44l-75 -342q-3 -11 -3 -22q0 -18 15 -31h-101
q30 19 44 85l70 311q6 32 6 49q0 31 -15.5 47t-41.5 16q-50 0 -96 -39.5t-75.5 -96t-47 -102.5t-23.5 -76l-30 -141q-3 -10 -3 -22q0 -18 15 -31h-101q30 19 44 85l65 287q10 55 10 69q0 67 -53 67q-65 0 -138.5 -81t-93.5 -174l-43 -200q-3 -11 -3 -22q0 -18 15 -31z" />
    <glyph glyph-name="n" unicode="n" horiz-adv-x="537" 
d="M114 0h-101q30 19 44 85l80 362q10 44 10 54q0 15 -16 29h74l-31 -132l2 -2q18 27 34 46t43.5 46t60.5 42t69 15q51 0 74.5 -28.5t23.5 -67.5q0 -11 -5.5 -36t-5.5 -26l-70 -334q-3 -10 -3 -22q0 -18 15 -31h-101q30 19 44 85l65 287q11 60 11 69q0 67 -54 67
q-65 0 -138.5 -81t-93.5 -174l-43 -200q-3 -11 -3 -22q0 -18 15 -31z" />
    <glyph glyph-name="o" unicode="o" horiz-adv-x="556" 
d="M225 -15q-80 0 -128.5 55t-48.5 144q0 55 19.5 116.5t54.5 117t92 91.5t125 36q82 0 127 -51t45 -140q0 -82 -34 -165.5t-101.5 -143.5t-150.5 -60zM98 176q0 -69 35 -111.5t93 -42.5q67 0 123 58.5t84 137t28 151.5q0 60 -34 99.5t-90 39.5q-57 0 -105.5 -37.5t-76 -92
t-42.5 -108.5t-15 -94z" />
    <glyph glyph-name="p" unicode="p" horiz-adv-x="556" 
d="M71 -200h-101q30 19 44 85l127 562q10 44 10 54q0 15 -16 29h74l-27 -111l2 -2q1 1 12 17t14 20t14 18.5t17.5 19.5t18.5 16t22 15.5t23.5 10.5t28 8.5t30.5 2.5q71 0 116.5 -52.5t45.5 -138.5q0 -148 -103 -258.5t-258 -110.5q-31 0 -75 7l-31 -139q-3 -11 -3 -22
q0 -18 15 -31zM149 263l-52 -238q13 0 31.5 -1.5t32.5 -1.5q94 0 168 51.5t110.5 127t36.5 157.5q0 65 -32.5 107.5t-82.5 42.5q-75 0 -133 -73.5t-79 -171.5z" />
    <glyph glyph-name="q" unicode="q" horiz-adv-x="574" 
d="M400 -200h-98q30 19 44 85l56 254l-2 2q-7 -18 -21 -41t-38 -50.5t-60.5 -46t-77.5 -18.5q-68 0 -110 51t-42 141q0 138 86 253t201 115q37 0 68 -12.5t45 -24.5t33 -32l26 57h50q-36 -66 -56 -165l-112 -497q-7 -33 -7 -41q0 -9 0.5 -14t4 -8.5l4 -4t6.5 -3.5zM454 370
l15 68q-51 70 -128 70q-61 0 -116.5 -47.5t-89.5 -125t-34 -159.5q0 -154 114 -154q52 0 96.5 42t73.5 107t44.5 112t24.5 87z" />
    <glyph glyph-name="r" unicode="r" horiz-adv-x="389" 
d="M119 0h-101q30 19 44 85l80 362q10 44 10 54q0 15 -16 29h74l-27 -120l2 -2q83 137 178 137q40 0 68 -28l-16 -65q-10 17 -15 24.5t-17.5 16.5t-27.5 9q-22 0 -49 -13t-57.5 -41t-58 -82t-43.5 -126l-40 -187q-3 -11 -3 -22q0 -18 15 -31z" />
    <glyph glyph-name="s" unicode="s" horiz-adv-x="481" 
d="M11 27l34 98q43 -56 70 -75q39 -28 85 -28q67 0 107.5 31.5t40.5 83.5q0 35 -21 58.5t-68 45.5l-58 28q-55 27 -84 55t-29 73q0 60 52 104t127 44q42 0 84.5 -15.5t45.5 -15.5q6 0 26 10l-26 -97q-24 43 -50.5 62t-81.5 19q-53 0 -90 -31.5t-37 -71.5q0 -27 17 -46
t57 -37l82 -40q104 -53 104 -135q0 -68 -54 -115t-131 -47q-41 0 -75.5 12t-57 24.5t-31.5 12.5q-15 0 -38 -7z" />
    <glyph glyph-name="t" unicode="t" horiz-adv-x="333" 
d="M267 73l-9 -61q-5 -2 -19.5 -9t-21.5 -9.5t-22 -5.5t-32 -3q-40 0 -66 21t-26 56q0 37 12 85l77 346h-58l7 37h58l31 132l54 24l-35 -156h156l-9 -37h-154l-81 -364q-8 -34 -8 -51q0 -56 48 -56q7 0 15 1.5t16 5.5t14.5 7t15.5 9.5t13 9t13 10t11 8.5z" />
    <glyph glyph-name="u" unicode="u" horiz-adv-x="537" 
d="M424 0h-50q-8 27 -8 61q0 28 12 90l-2 2q-7 -18 -22.5 -43t-41.5 -55t-66 -50t-84 -20q-46 0 -73.5 25t-27.5 70q0 40 11 77l63 290q10 44 10 54q0 15 -16 29h74l-87 -393q-5 -22 -5 -50q0 -65 62 -65q10 0 25 3t45.5 20.5t58 45.5t56 86.5t45.5 136.5l28 133
q10 44 10 54q0 15 -16 29h74l-70 -317q-13 -59 -13 -131q0 -51 8 -82z" />
    <glyph glyph-name="v" unicode="v" horiz-adv-x="481" 
d="M147 -15l-55 476q-6 52 -26 69h93q-19 -20 -19 -40q0 -15 2 -29l46 -405h2l241 413q10 17 10 34q0 11 -14 27h96q-31 -25 -57 -71l-276 -474h-43z" />
    <glyph glyph-name="w" unicode="w" horiz-adv-x="722" 
d="M89 -15l16 482q1 7 1 24q0 15 -18 39h90q-23 -28 -23 -68l-17 -395l2 -2l264 465h33l61 -465h2l148 349q25 61 25 86q0 14 -20 30h100q-30 -25 -66 -114l-181 -431h-42l-63 466h-2l-266 -466h-44z" />
    <glyph glyph-name="x" unicode="x" horiz-adv-x="500" 
d="M33 62l195 216l-90 207q-12 27 -34 45h99q-17 -23 -17 -32q0 -7 4 -15l78 -176l159 165q22 24 22 36q0 8 -8 22h95q-21 -15 -60 -57l-191 -200l92 -203q18 -42 44 -42q9 0 25 2l-30 -45q-31 0 -46.5 12t-44.5 69l-81 180l-180 -205q-14 -14 -14 -21q0 -6 8 -20h-89
q29 18 64 62z" />
    <glyph glyph-name="y" unicode="y" horiz-adv-x="537" 
d="M506 530l-108 -491q-17 -74 -41.5 -124t-55.5 -73.5t-60.5 -32.5t-67.5 -9q-79 0 -146 62l16 64q22 -32 57 -60.5t72 -28.5q22 0 41 5t46.5 22t50.5 59.5t37 106.5l27 124l-2 2q-12 -24 -27 -48t-41 -54.5t-62.5 -49.5t-76.5 -19q-43 0 -74 27t-31 69q0 31 14 89l60 277
q10 44 10 54q0 15 -16 29h74l-78 -356q-17 -79 -17 -81q0 -71 67 -71q10 0 23.5 2.5t43.5 19t57 45t59 89.5t54 143l27 126q10 44 10 54q0 15 -16 29h74z" />
    <glyph glyph-name="z" unicode="z" horiz-adv-x="444" 
d="M-5 25l382 468h-217q-27 0 -53 -17l13 54h328l-6 -28l-378 -465h219q37 0 77 27l-17 -64h-356z" />
    <glyph glyph-name="braceleft" unicode="{" 
d="M461 -187v-25q-80 3 -145.5 52t-65.5 118q0 36 12 96q16 80 16 94q0 44 -32 78t-78 49v24q47 15 78.5 47.5t31.5 79.5q0 14 -16 94q-12 60 -12 96q0 69 65.5 118t145.5 52v-25q-52 -12 -79.5 -50.5t-27.5 -85.5q0 -29 7 -85t7 -79q0 -39 -15.5 -70t-45.5 -52t-47 -30
t-47 -22q23 -10 36 -16.5t39 -23t41 -33.5t27 -44t12 -57q0 -23 -7 -79t-7 -85q0 -47 27.5 -85.5t79.5 -50.5z" />
    <glyph glyph-name="bar" unicode="|" horiz-adv-x="333" 
d="M142 -184v1017h49v-1017h-49z" />
    <glyph glyph-name="braceright" unicode="}" 
d="M168 -212v25q52 12 79.5 50.5t27.5 85.5q0 29 -7 85t-7 79q0 30 12 57t27 44t41 33.5t39 23t36 16.5q-30 13 -47 22t-47 30t-45.5 52t-15.5 70q0 23 7 79t7 85q0 47 -27.5 85.5t-79.5 50.5v25q80 -3 145.5 -52t65.5 -118q0 -36 -12 -96q-16 -80 -16 -94q0 -47 31.5 -79.5
t78.5 -47.5v-24q-46 -15 -78 -49t-32 -78q0 -14 16 -94q12 -60 12 -96q0 -69 -65.5 -118t-145.5 -52z" />
    <glyph glyph-name="asciitilde" unicode="~" horiz-adv-x="944" 
d="M312 160h-62q0 241 142 241q40 0 69.5 -21t46 -50.5t31 -59t33.5 -50.5t44 -21q20 0 34.5 13.5t21.5 30t10.5 46t4 46t0.5 44.5h62q0 -28 -1 -45.5t-4 -50.5t-12.5 -55t-24 -45t-40 -35t-58.5 -12q-40 0 -68.5 21t-44 51t-29 60t-32.5 51t-44 21q-19 0 -33 -8
t-22.5 -24.5t-13.5 -32t-7 -40t-2.5 -38.5t-0.5 -37z" />
    <glyph glyph-name="uni00A0" unicode="&#xa0;" horiz-adv-x="278" 
 />
    <glyph glyph-name="exclamdown" unicode="&#xa1;" horiz-adv-x="315" 
d="M210 462q-16 0 -26.5 11.5t-10.5 27.5q0 18 14 31t32 13q16 0 26.5 -12.5t10.5 -28.5q0 -18 -14 -30t-32 -12zM41 -147l119 500h41l-105 -500q-4 -17 -4 -31q0 -8 12 -22h-92q2 2 6 5q12 9 15 19q1 2 2 8q3 12 6 21z" />
    <glyph glyph-name="cent" unicode="&#xa2;" 
d="M271 28l14 66q-58 8 -105.5 59.5t-47.5 147.5q0 73 27.5 138.5t69.5 106.5t89 65t87 24l14 64h31l-14 -64q32 -3 54 -12.5t32.5 -16.5t15.5 -7q6 0 20 12l-27 -122q-8 55 -28.5 80.5t-75.5 28.5l-103 -469q44 4 72.5 16t44 25.5t53.5 54.5l-15 -68q-44 -39 -78 -51.5
t-85 -13.5l-14 -64h-31zM293 131l103 467q-27 0 -61 -17.5t-69.5 -52t-59.5 -98.5t-24 -144q0 -73 33 -110t78 -45z" />
    <glyph glyph-name="sterling" unicode="&#xa3;" 
d="M94 0l9 37q21 4 47 16t54.5 31.5t48 51.5t19.5 68q0 16 -1 32t-2 26t-4.5 26t-5 21.5t-6.5 24.5t-6 23h-135l8 37h114q-18 103 -18 127q0 49 25.5 99t83.5 87.5t135 37.5q49 0 85 -16.5t54.5 -32.5t24.5 -16t22 14l-25 -111q-3 41 -45.5 83t-115.5 42q-85 0 -139.5 -55
t-54.5 -140q0 -38 22 -119h234l-8 -37h-215q23 -94 23 -137q0 -39 -10 -68t-31.5 -50t-37 -31.5t-43.5 -25.5l-3 -1.5t-2.5 -1.5t-3 -1.5t-2.5 -1.5v-2h292q26 0 39 10t26 30l-16 -77h-436z" />
    <glyph glyph-name="currency" unicode="&#xa4;" 
d="M138 130l-30 30l67 67q-47 51 -47 136q0 79 48 138l-70 70l32 31l69 -68q64 46 137 46q72 0 136 -46l69 68l32 -31l-70 -70q48 -49 48 -138q0 -83 -47 -136l67 -67l-30 -30l-66 66q-63 -47 -139 -47q-80 0 -140 47zM344 539q-72 0 -123.5 -52t-51.5 -124t51.5 -122.5
t123.5 -50.5q71 0 122.5 51t51.5 122q0 72 -51 124t-123 52z" />
    <glyph glyph-name="yen" unicode="&#xa5;" 
d="M306 0h-105q3 2 7 5q17 12 21.5 22.5t15.5 60.5l27 126h-202l7 30h202l2 12l-26 103h-151l7 30h137l-65 268q-3 14 -5.5 23t-5.5 16t-4 10.5t-4.5 7.5t-5 5t-7 5t-7.5 6h109q-1 -1 -6.5 -5.5t-7.5 -6.5t-4.5 -6.5t-2.5 -8.5q0 -17 8 -49l84 -356l251 374q18 27 18 39
q0 9 -18 19h118q-5 -3 -13 -6.5t-11 -5t-7.5 -4t-7 -5l-5.5 -5.5t-6.5 -8t-7.5 -10t-10 -15l-195 -282h138l-7 -30h-153l-71 -101l-4 -14h201l-7 -30h-200l-27 -128q-11 -52 -11 -57q0 -12 17 -29z" />
    <glyph glyph-name="brokenbar" unicode="&#xa6;" horiz-adv-x="294" 
d="M127 358v372h60v-372h-60zM127 -199v371h60v-371h-60z" />
    <glyph glyph-name="section" unicode="&#xa7;" 
d="M145 -139v87q2 -2 11.5 -18t12.5 -20t14 -17.5t18 -18.5t21 -14t27.5 -12.5t33 -7t41.5 -3.5q73 0 119.5 38.5t46.5 97.5q0 41 -27.5 68t-106.5 53l-78 27q-96 32 -147 76.5t-51 113.5q0 39 14.5 68t40.5 46t45 24.5t45 14.5q-46 25 -63 47q-22 31 -22 74q0 67 54 113.5
t136 46.5q32 0 62.5 -8.5t48 -16.5t18.5 -8q15 0 27 14l1 -114q-1 1 -8.5 12.5t-9.5 13.5t-9.5 12.5t-11.5 13.5t-12.5 11t-15.5 11t-18 8.5t-21.5 7.5t-24 4t-28.5 2q-59 0 -98.5 -33t-39.5 -87q0 -42 27.5 -63t97.5 -46l70 -25q99 -36 133 -59q65 -47 66 -119
q0 -43 -17.5 -74.5t-45 -47.5t-51 -23t-47.5 -9v-2q21 -9 31 -14t29.5 -18.5t29.5 -27t18.5 -36.5t8.5 -50q0 -75 -61.5 -124.5t-157.5 -49.5q-19 0 -36.5 2t-31 5t-27.5 8t-22.5 8.5t-19.5 10.5t-15.5 10t-13.5 9.5t-10 7.5zM296 171l79 -27q159 17 159 127q0 23 -13.5 43
t-39.5 36t-45 25t-50 21l-112 43q-56 -6 -100 -34.5t-44 -87.5q0 -48 42 -82.5t124 -63.5z" />
    <glyph glyph-name="dieresis" unicode="&#xa8;" horiz-adv-x="370" 
d="M376 651q-16 0 -27.5 11t-11.5 27q0 18 13.5 31t29.5 13t27.5 -12t11.5 -29t-13 -29t-30 -12zM204 651q-16 0 -27.5 11t-11.5 27q0 18 13.5 31t29.5 13t27.5 -12t11.5 -29t-13 -29t-30 -12z" />
    <glyph glyph-name="copyright" unicode="&#xa9;" horiz-adv-x="500" 
d="M280 275q-98 0 -166.5 68.5t-68.5 166.5q0 97 69 166t166 69t166 -69t69 -166t-69 -166t-166 -69zM80 510q0 -82 59 -141t141 -59t141 59t59 141t-59 141t-141 59t-141 -59t-59 -141zM360 451l26 -32q-43 -39 -95 -39q-55 0 -95.5 38.5t-40.5 95.5q0 56 41 95t95 39
q52 0 95 -39l-26 -33q-34 31 -69 31t-64 -25.5t-29 -67.5q0 -43 28.5 -68t61.5 -25q39 0 72 30z" />
    <glyph glyph-name="ordfeminine" unicode="&#xaa;" 
d="M485 376h-43q-3 36 -3 43t1 22t1 23h-2q-16 -27 -29 -44.5t-43 -37t-64 -19.5q-50 0 -80.5 36t-30.5 97q0 90 59.5 169.5t137.5 79.5q23 0 43.5 -8t29.5 -14.5t25 -20.5l8 37h35l-30 -144q-24 -117 -24 -165q0 -18 9 -54zM469 621l10 46q-42 44 -85 44q-64 0 -111.5 -67
t-47.5 -149q0 -44 20.5 -71t54.5 -27t64 28t49.5 69.5t30 72.5t15.5 54z" />
    <glyph glyph-name="guillemotleft" unicode="&#xab;" horiz-adv-x="370" 
d="M240 92l-47 187l111 167h50l-111 -174l47 -180h-50zM116 92l-47 187l111 167h50l-111 -174l47 -180h-50z" />
    <glyph glyph-name="logicalnot" unicode="&#xac;" horiz-adv-x="944" 
d="M682 192v110h-464v43h507v-153h-43z" />
    <glyph glyph-name="uni00AD" unicode="&#xad;" horiz-adv-x="315" 
d="M51 231l16 78q3 -8 5 -11t7.5 -6t15.5 -3h134q13 0 21 2.5t10 4.5l10 10l-17 -75q-13 15 -29 15h-131q-21 0 -26 -2t-16 -13z" />
    <glyph glyph-name="registered" unicode="&#xae;" horiz-adv-x="500" 
d="M280 275q-97 0 -166 69t-69 166t69 166t166 69t166 -69t69 -166t-69 -166t-166 -69zM80 510q0 -82 59 -141t141 -59t141 59t59 141t-59 141t-141 59t-141 -59t-59 -141zM191 392v248h83q29 0 48.5 -4.5t36 -23t16.5 -52.5q0 -20 -9 -34t-14 -16.5t-20 -10.5l46 -107h-50
l-39 100h-53v-100h-45zM236 597v-65h54q38 0 38 32q0 33 -42 33h-50z" />
    <glyph glyph-name="macron" unicode="&#xaf;" horiz-adv-x="370" 
d="M142 673l9 40h268l-9 -40h-268z" />
    <glyph glyph-name="degree" unicode="&#xb0;" 
d="M364 456q-61 0 -103 37.5t-42 109.5q0 61 44 101.5t102 40.5q60 0 101.5 -41.5t41.5 -110.5q0 -56 -43 -96.5t-101 -40.5zM256 601q0 -52 32.5 -80t75.5 -28t75 30.5t32 71.5q0 48 -31.5 80.5t-75.5 32.5q-45 0 -76.5 -31t-31.5 -76z" />
    <glyph glyph-name="plusminus" unicode="&#xb1;" horiz-adv-x="944" 
d="M451 0v247h-233v43h233v247h43v-247h231v-43h-231v-247h-43zM218 -103v43h507v-43h-507z" />
    <glyph glyph-name="twosuperior" unicode="&#xb2;" horiz-adv-x="463" 
d="M91 290l6 26q41 25 72.5 46t77.5 56t75.5 65.5t51.5 69t22 72.5q0 37 -21 59t-61 22q-12 0 -24 -2.5t-20.5 -5t-20 -9.5t-16.5 -10t-16.5 -13t-14 -12.5l-14 -14l-12.5 -12.5l19 88q9 -11 17 -11q4 0 16 8t34.5 15.5t51.5 7.5q59 0 90.5 -33.5t31.5 -83.5q0 -43 -28 -89
t-68.5 -82t-81 -65.5t-68.5 -45.5t-29 -15v-2h168q19 0 30.5 3t15.5 6.5t11 12.5l-11 -51h-284z" />
    <glyph glyph-name="threesuperior" unicode="&#xb3;" horiz-adv-x="463" 
d="M97 347l16 73q6 -25 9 -35t15 -31t35 -30.5t57 -9.5q62 0 104 38t42 94q0 38 -28.5 60.5t-74.5 22.5q-26 0 -78 -14l-16 25l215 159v2h-173q-5 0 -9 -0.5t-7.5 -2.5t-5.5 -2.5t-5.5 -4.5t-4.5 -4.5t-5 -6t-5 -6.5l13 56h268l-6 -28l-201 -142v-2q6 0 18 1t19 1
q49 0 86 -30t37 -85q0 -66 -53 -113t-129 -47q-39 0 -69 12t-40 22t-24 28z" />
    <glyph glyph-name="acute" unicode="&#xb4;" horiz-adv-x="370" 
d="M182 623l6 29l234 93l-12 -49z" />
    <glyph glyph-name="mu" unicode="&#xb5;" horiz-adv-x="537" 
d="M87 16l-34 -164q-3 -14 -3 -26q0 -10 16 -26h-73l142 647q10 44 10 54q0 15 -16 29h74l-87 -393q-5 -22 -5 -50q0 -65 62 -65q10 0 25 3t45.5 20.5t58 45.5t56 86.5t45.5 136.5l28 133q10 44 10 54q0 15 -16 29h74l-70 -317q-13 -59 -13 -131q0 -51 8 -82h-50
q-8 27 -8 61q0 28 12 90l-2 2q-7 -18 -22.5 -43t-41.5 -55t-66 -50t-84 -20q-73 0 -73 31h-2z" />
    <glyph glyph-name="paragraph" unicode="&#xb6;" 
d="M357 -174v437q-36 4 -71 17.5t-70.5 38.5t-57.5 69.5t-22 101.5q0 62 26.5 110t71 75.5t95.5 41t106 13.5h115v-37h-58v-867h-37v867h-61v-867h-37z" />
    <glyph glyph-name="periodcentered" unicode="&#xb7;" 
d="M336 331q-19 0 -31.5 13t-12.5 31q0 19 13 33t31 14q19 0 33 -14t14 -33q0 -18 -14 -31t-33 -13z" />
    <glyph glyph-name="cedilla" unicode="&#xb8;" horiz-adv-x="370" 
d="M52 -177l5 20q28 -5 52 -5q31 0 51.5 14.5t20.5 34.5q0 41 -51 41q-7 0 -21 -2t-18 -2l32 78h34l-20 -49q27 3 28 3q25 0 42 -18t17 -42q0 -36 -29 -62.5t-86 -26.5q-30 0 -57 16z" />
    <glyph glyph-name="onesuperior" unicode="&#xb9;" horiz-adv-x="463" 
d="M274 290h-72q15 7 19 13t11 39l75 340q-20 -13 -64 -20l6 29q37 12 45.5 16t35.5 23h27l-87 -390l-6 -30q0 -10 10 -20z" />
    <glyph glyph-name="ordmasculine" unicode="&#xba;" 
d="M322 365q-56 0 -88.5 37.5t-32.5 98.5q0 90 55.5 167t142.5 77q58 0 87.5 -37.5t29.5 -93.5q0 -87 -55.5 -168t-138.5 -81zM241 501q0 -43 21.5 -72.5t61.5 -29.5q44 0 81 42t54 91t17 86q0 43 -21 68t-60 25q-46 0 -83 -40.5t-54 -87.5t-17 -82z" />
    <glyph glyph-name="guillemotright" unicode="&#xbb;" horiz-adv-x="370" 
d="M19 92l111 174l-47 180h50l47 -187l-111 -167h-50zM143 92l111 174l-47 180h50l47 -187l-111 -167h-50z" />
    <glyph glyph-name="onequarter" unicode="&#xbc;" horiz-adv-x="944" 
d="M686 36l20 92h-222l6 26q113 151 218 247q18 13 18 24q0 2 -10 12h78q-94 -92 -143.5 -146.5t-112.5 -133.5h175l21 96l41 15l-25 -111h60l-6 -29h-61l-21 -95v-14q0 -12 11 -19h-76q1 1 5.5 3t5.5 2.5l4 2t3.5 3t3 4t3 5.5t2 7t2.5 9zM214 290h-72q15 7 19 13t11 39
l75 340q-20 -13 -64 -20l6 29q37 12 45.5 16t35.5 23h27l-87 -390l-6 -30q0 -10 10 -20zM186 -5l473 740h32l-474 -740h-31z" />
    <glyph glyph-name="onehalf" unicode="&#xbd;" horiz-adv-x="944" 
d="M170 -5l473 740h32l-474 -740h-31zM222 290h-72q15 7 19 13t11 39l75 340q-20 -13 -64 -20l6 29q37 12 45.5 16t35.5 23h27l-87 -390l-6 -30q0 -10 10 -20zM451 0l6 26q41 25 72.5 46t77.5 56t75.5 65.5t51.5 69t22 72.5q0 37 -21 59t-61 22q-12 0 -24 -2.5t-20.5 -5
t-20 -9.5t-16.5 -10t-16.5 -13t-14 -12.5l-14 -14l-12.5 -12.5l19 88q9 -11 17 -11q4 0 16 8t34.5 15.5t51.5 7.5q59 0 90.5 -33.5t31.5 -83.5q0 -43 -28 -89t-68.5 -82t-81 -65.5t-68.5 -45.5t-29 -15v-2h168q19 0 30.5 3t15.5 6.5t11 12.5l-11 -51h-284z" />
    <glyph glyph-name="threequarters" unicode="&#xbe;" horiz-adv-x="944" 
d="M741 36l20 92h-222l6 26q113 151 218 247q18 13 18 24q0 2 -10 12h78q-94 -92 -143.5 -146.5t-112.5 -133.5h175l21 96l41 15l-25 -111h60l-6 -29h-61l-21 -95v-14q0 -12 11 -19h-76q1 1 5.5 3t5.5 2.5l4 2t3.5 3t3 4t3 5.5t2 7t2.5 9zM82 347l16 73q6 -25 9 -35t15 -31
t35 -30.5t57 -9.5q62 0 104 38t42 94q0 38 -28.5 60.5t-74.5 22.5q-26 0 -78 -14l-16 25l215 159v2h-173q-5 0 -9 -0.5t-7.5 -2.5t-5.5 -2.5t-5.5 -4.5t-4.5 -4.5t-5 -6t-5 -6.5l13 56h268l-6 -28l-201 -142v-2q6 0 18 1t19 1q49 0 86 -30t37 -85q0 -66 -53 -113t-129 -47
q-39 0 -69 12t-40 22t-24 28zM242 -5l473 740h32l-474 -740h-31z" />
    <glyph glyph-name="questiondown" unicode="&#xbf;" horiz-adv-x="500" 
d="M424 -50l-24 -110q-1 1 -2.5 4t-2.5 4.5t-3.5 3t-5.5 1.5q-5 0 -26.5 -13.5t-59.5 -26.5t-82 -13q-81 0 -134.5 47t-53.5 119q0 46 20 84.5t52 66t65.5 50.5t67 48.5t49.5 48.5q19 28 39 104h46q-14 -74 -49.5 -125.5t-75 -78t-77 -50.5t-62.5 -61t-25 -91q0 -55 40 -90
t101 -35q16 0 30.5 2t25.5 3.5t24.5 8t20.5 9t20.5 13t17 12.5t17.5 15.5t15 15t16 18.5zM372 462q-16 0 -26.5 11.5t-10.5 27.5q0 18 14 31t32 13q16 0 26.5 -12.5t10.5 -28.5q0 -18 -14 -30t-32 -12z" />
    <glyph glyph-name="Agrave" unicode="&#xc0;" 
d="M9 66l363 612q11 18 11 29q0 5 -13 23h87l101 -672q3 -24 9.5 -34t21.5 -24h-107q23 18 23 34q0 7 -2 21l-34 211h-294l-120 -204q-16 -27 -16 -39q0 -5 1.5 -8.5t6.5 -8.5l6 -6h-103q35 24 59 66zM200 309h263l-54 351h-2zM278 894l10 51l217 -97l-6 -25z" />
    <glyph glyph-name="Aacute" unicode="&#xc1;" 
d="M9 66l363 612q11 18 11 29q0 5 -13 23h87l101 -672q3 -24 9.5 -34t21.5 -24h-107q23 18 23 34q0 7 -2 21l-34 211h-294l-120 -204q-16 -27 -16 -39q0 -5 1.5 -8.5t6.5 -8.5l6 -6h-103q35 24 59 66zM200 309h263l-54 351h-2zM332 823l6 29l234 93l-12 -49z" />
    <glyph glyph-name="Acircumflex" unicode="&#xc2;" 
d="M9 66l363 612q11 18 11 29q0 5 -13 23h87l101 -672q3 -24 9.5 -34t21.5 -24h-107q23 18 23 34q0 7 -2 21l-34 211h-294l-120 -204q-16 -27 -16 -39q0 -5 1.5 -8.5t6.5 -8.5l6 -6h-103q35 24 59 66zM200 309h263l-54 351h-2zM263 830l7 32l177 77l150 -83l-6 -26l-146 57z
" />
    <glyph glyph-name="Atilde" unicode="&#xc3;" 
d="M9 66l363 612q11 18 11 29q0 5 -13 23h87l101 -672q3 -24 9.5 -34t21.5 -24h-107q23 18 23 34q0 7 -2 21l-34 211h-294l-120 -204q-16 -27 -16 -39q0 -5 1.5 -8.5t6.5 -8.5l6 -6h-103q35 24 59 66zM200 309h263l-54 351h-2zM276 855l-14 19q3 2 15.5 14t17 15.5t16 12.5
t19 12t19 6.5t22.5 3.5q27 0 63 -30q38 -30 59 -30q7 0 14.5 2.5t16.5 7.5t15 8.5t16.5 11.5t13.5 10l14 -22q-2 -2 -11.5 -10.5t-13.5 -11.5t-13.5 -10t-16.5 -10.5t-16.5 -8t-19 -6t-19.5 -1.5q-33 0 -67 30q-32 30 -51 30q-6 0 -13.5 -2.5t-13 -4.5t-14.5 -8t-12.5 -8.5
t-13.5 -10.5t-12 -9z" />
    <glyph glyph-name="Adieresis" unicode="&#xc4;" 
d="M9 66l363 612q11 18 11 29q0 5 -13 23h87l101 -672q3 -24 9.5 -34t21.5 -24h-107q23 18 23 34q0 7 -2 21l-34 211h-294l-120 -204q-16 -27 -16 -39q0 -5 1.5 -8.5t6.5 -8.5l6 -6h-103q35 24 59 66zM200 309h263l-54 351h-2zM526 851q-16 0 -27.5 11t-11.5 27
q0 18 13.5 31t29.5 13t27.5 -12t11.5 -29t-13 -29t-30 -12zM354 851q-16 0 -27.5 11t-11.5 27q0 18 13.5 31t29.5 13t27.5 -12t11.5 -29t-13 -29t-30 -12z" />
    <glyph glyph-name="Aring" unicode="&#xc5;" 
d="M9 66l363 612q11 18 11 29q0 5 -13 23h87l101 -672q3 -24 9.5 -34t21.5 -24h-107q23 18 23 34q0 7 -2 21l-34 211h-294l-120 -204q-16 -27 -16 -39q0 -5 1.5 -8.5t6.5 -8.5l6 -6h-103q35 24 59 66zM200 309h263l-54 351h-2zM434 796q-39 0 -66.5 28t-27.5 66
q0 40 27.5 68t66.5 28t67.5 -28t28.5 -68q0 -38 -28 -66t-68 -28zM372 890q0 -26 18 -44t44 -18t45 18.5t19 43.5q0 26 -19 45t-45 19t-44 -19t-18 -45z" />
    <glyph glyph-name="AE" unicode="&#xc6;" horiz-adv-x="944" 
d="M24 66l492 612q11 13 11 29q0 5 -13 23h472l-18 -74q-10 17 -23.5 24t-44.5 7h-270l-61 -281h257q40 0 63 20l-19 -85q-6 13 -16.5 17.5t-36.5 4.5h-257l-69 -320h284q49 0 80 31l-18 -74h-437q17 11 26.5 28.5t17.5 56.5l38 181h-249l-156 -194q-28 -37 -28 -49
q0 -5 1.5 -8.5t6.5 -8.5l6 -6h-113q49 34 74 66zM571 687l-303 -378h224l81 376z" />
    <glyph glyph-name="Ccedilla" unicode="&#xc7;" horiz-adv-x="593" 
d="M202 -76l33 78q-76 28 -121 103t-45 176q0 116 50 223t137 174t187 67q45 0 77.5 -14.5t51.5 -29t32 -14.5q8 0 24 9l-27 -126q-44 132 -151 132q-83 0 -158 -61.5t-119 -157.5t-44 -197q0 -115 50.5 -186.5t140.5 -71.5q34 0 63.5 9t57.5 29t43 33.5t41 39.5l9 9
l-25 -113q-9 7 -19 7q-8 0 -29 -14t-58 -28.5t-84 -14.5q-30 0 -55 7l-16 -39q27 3 28 3q25 0 42 -18t17 -42q0 -36 -29 -62.5t-86 -26.5q-30 0 -57 16l5 20q28 -5 52 -5q31 0 51.5 14.5t20.5 34.5q0 41 -51 41q-7 0 -21 -2t-18 -2z" />
    <glyph glyph-name="Egrave" unicode="&#xc8;" horiz-adv-x="574" 
d="M74 85l121 562q10 46 10 54q0 15 -16 29h427l-18 -74q-10 17 -23.5 24t-44.5 7h-270l-61 -281h257q40 0 63 20l-19 -85q-6 13 -16.5 17.5t-36.5 4.5h-257l-69 -320h284q49 0 80 31l-18 -74h-437q17 11 26.5 28.5t17.5 56.5zM250 894l10 51l217 -97l-6 -25z" />
    <glyph glyph-name="Eacute" unicode="&#xc9;" horiz-adv-x="574" 
d="M74 85l121 562q10 46 10 54q0 15 -16 29h427l-18 -74q-10 17 -23.5 24t-44.5 7h-270l-61 -281h257q40 0 63 20l-19 -85q-6 13 -16.5 17.5t-36.5 4.5h-257l-69 -320h284q49 0 80 31l-18 -74h-437q17 11 26.5 28.5t17.5 56.5zM304 823l6 29l234 93l-12 -49z" />
    <glyph glyph-name="Ecircumflex" unicode="&#xca;" horiz-adv-x="574" 
d="M74 85l121 562q10 46 10 54q0 15 -16 29h427l-18 -74q-10 17 -23.5 24t-44.5 7h-270l-61 -281h257q40 0 63 20l-19 -85q-6 13 -16.5 17.5t-36.5 4.5h-257l-69 -320h284q49 0 80 31l-18 -74h-437q17 11 26.5 28.5t17.5 56.5zM235 830l7 32l177 77l150 -83l-6 -26l-146 57z
" />
    <glyph glyph-name="Edieresis" unicode="&#xcb;" horiz-adv-x="574" 
d="M74 85l121 562q10 46 10 54q0 15 -16 29h427l-18 -74q-10 17 -23.5 24t-44.5 7h-270l-61 -281h257q40 0 63 20l-19 -85q-6 13 -16.5 17.5t-36.5 4.5h-257l-69 -320h284q49 0 80 31l-18 -74h-437q17 11 26.5 28.5t17.5 56.5zM498 851q-16 0 -27.5 11t-11.5 27
q0 18 13.5 31t29.5 13t27.5 -12t11.5 -29t-13 -29t-30 -12zM326 851q-16 0 -27.5 11t-11.5 27q0 18 13.5 31t29.5 13t27.5 -12t11.5 -29t-13 -29t-30 -12z" />
    <glyph glyph-name="Igrave" unicode="&#xcc;" horiz-adv-x="278" 
d="M250 645l-121 -562q-10 -48 -10 -54q0 -15 16 -29h-105q17 11 26.5 28.5t17.5 56.5l121 562q10 46 10 54q0 15 -16 29h105q-30 -19 -44 -85zM102 894l10 51l217 -97l-6 -25z" />
    <glyph glyph-name="Iacute" unicode="&#xcd;" horiz-adv-x="278" 
d="M250 645l-121 -562q-10 -48 -10 -54q0 -15 16 -29h-105q17 11 26.5 28.5t17.5 56.5l121 562q10 46 10 54q0 15 -16 29h105q-30 -19 -44 -85zM156 823l6 29l234 93l-12 -49z" />
    <glyph glyph-name="Icircumflex" unicode="&#xce;" horiz-adv-x="278" 
d="M250 645l-121 -562q-10 -48 -10 -54q0 -15 16 -29h-105q17 11 26.5 28.5t17.5 56.5l121 562q10 46 10 54q0 15 -16 29h105q-30 -19 -44 -85zM87 830l7 32l177 77l150 -83l-6 -26l-146 57z" />
    <glyph glyph-name="Idieresis" unicode="&#xcf;" horiz-adv-x="278" 
d="M250 645l-121 -562q-10 -48 -10 -54q0 -15 16 -29h-105q17 11 26.5 28.5t17.5 56.5l121 562q10 46 10 54q0 15 -16 29h105q-30 -19 -44 -85zM350 851q-16 0 -27.5 11t-11.5 27q0 18 13.5 31t29.5 13t27.5 -12t11.5 -29t-13 -29t-30 -12zM178 851q-16 0 -27.5 11t-11.5 27
q0 18 13.5 31t29.5 13t27.5 -12t11.5 -29t-13 -29t-30 -12z" />
    <glyph glyph-name="Eth" unicode="&#xd0;" horiz-adv-x="704" 
d="M185 355l-66 -312h61q191 0 315 115.5t124 294.5q0 60 -17 104t-43 68.5t-65 39t-73.5 18.5t-78.5 4h-85l-62 -289h183l-9 -43h-184zM141 398l54 249q10 46 10 54q0 15 -16 29h170q161 0 240.5 -71.5t79.5 -203.5q0 -84 -30.5 -163.5t-88 -145.5t-151.5 -106t-211 -40
h-168q18 10 27 27t17 58l58 270h-80l9 43h80z" />
    <glyph glyph-name="Ntilde" unicode="&#xd1;" horiz-adv-x="759" 
d="M81 85l121 562q10 46 10 54q0 15 -16 29h80l285 -650h2l127 567q10 44 10 54q0 15 -16 29h86q-17 -11 -26.5 -29.5t-17.5 -55.5l-144 -645h-47l-290 660h-2l-126 -577q-10 -46 -10 -54q0 -15 16 -29h-86q17 11 26.5 28.5t17.5 56.5zM341 855l-14 19q3 2 15.5 14t17 15.5
t16 12.5t19 12t19 6.5t22.5 3.5q27 0 63 -30q38 -30 59 -30q7 0 14.5 2.5t16.5 7.5t15 8.5t16.5 11.5t13.5 10l14 -22q-2 -2 -11.5 -10.5t-13.5 -11.5t-13.5 -10t-16.5 -10.5t-16.5 -8t-19 -6t-19.5 -1.5q-33 0 -67 30q-32 30 -51 30q-6 0 -13.5 -2.5t-13 -4.5t-14.5 -8
t-12.5 -8.5t-13.5 -10.5t-12 -9z" />
    <glyph glyph-name="Ograve" unicode="&#xd2;" horiz-adv-x="778" 
d="M349 -15q-124 0 -199.5 83t-75.5 215q0 64 15.5 128t49.5 124t81 107t116 75t150 28q122 0 192.5 -80.5t70.5 -210.5q0 -126 -48 -232.5t-140.5 -171.5t-211.5 -65zM134 277q0 -119 58.5 -184t162.5 -65q97 0 175.5 63.5t118.5 159.5t40 202q0 120 -55 184.5t-153 64.5
q-67 0 -125.5 -27.5t-98 -71.5t-68 -100.5t-42 -114t-13.5 -111.5zM352 894l10 51l217 -97l-6 -25z" />
    <glyph glyph-name="Oacute" unicode="&#xd3;" horiz-adv-x="778" 
d="M349 -15q-124 0 -199.5 83t-75.5 215q0 64 15.5 128t49.5 124t81 107t116 75t150 28q122 0 192.5 -80.5t70.5 -210.5q0 -126 -48 -232.5t-140.5 -171.5t-211.5 -65zM134 277q0 -119 58.5 -184t162.5 -65q97 0 175.5 63.5t118.5 159.5t40 202q0 120 -55 184.5t-153 64.5
q-67 0 -125.5 -27.5t-98 -71.5t-68 -100.5t-42 -114t-13.5 -111.5zM406 823l6 29l234 93l-12 -49z" />
    <glyph glyph-name="Ocircumflex" unicode="&#xd4;" horiz-adv-x="778" 
d="M349 -15q-124 0 -199.5 83t-75.5 215q0 64 15.5 128t49.5 124t81 107t116 75t150 28q122 0 192.5 -80.5t70.5 -210.5q0 -126 -48 -232.5t-140.5 -171.5t-211.5 -65zM134 277q0 -119 58.5 -184t162.5 -65q97 0 175.5 63.5t118.5 159.5t40 202q0 120 -55 184.5t-153 64.5
q-67 0 -125.5 -27.5t-98 -71.5t-68 -100.5t-42 -114t-13.5 -111.5zM337 830l7 32l177 77l150 -83l-6 -26l-146 57z" />
    <glyph glyph-name="Otilde" unicode="&#xd5;" horiz-adv-x="778" 
d="M349 -15q-124 0 -199.5 83t-75.5 215q0 64 15.5 128t49.5 124t81 107t116 75t150 28q122 0 192.5 -80.5t70.5 -210.5q0 -126 -48 -232.5t-140.5 -171.5t-211.5 -65zM134 277q0 -119 58.5 -184t162.5 -65q97 0 175.5 63.5t118.5 159.5t40 202q0 120 -55 184.5t-153 64.5
q-67 0 -125.5 -27.5t-98 -71.5t-68 -100.5t-42 -114t-13.5 -111.5zM350 855l-14 19q3 2 15.5 14t17 15.5t16 12.5t19 12t19 6.5t22.5 3.5q27 0 63 -30q38 -30 59 -30q7 0 14.5 2.5t16.5 7.5t15 8.5t16.5 11.5t13.5 10l14 -22q-2 -2 -11.5 -10.5t-13.5 -11.5t-13.5 -10
t-16.5 -10.5t-16.5 -8t-19 -6t-19.5 -1.5q-33 0 -67 30q-32 30 -51 30q-6 0 -13.5 -2.5t-13 -4.5t-14.5 -8t-12.5 -8.5t-13.5 -10.5t-12 -9z" />
    <glyph glyph-name="Odieresis" unicode="&#xd6;" horiz-adv-x="778" 
d="M349 -15q-124 0 -199.5 83t-75.5 215q0 64 15.5 128t49.5 124t81 107t116 75t150 28q122 0 192.5 -80.5t70.5 -210.5q0 -126 -48 -232.5t-140.5 -171.5t-211.5 -65zM134 277q0 -119 58.5 -184t162.5 -65q97 0 175.5 63.5t118.5 159.5t40 202q0 120 -55 184.5t-153 64.5
q-67 0 -125.5 -27.5t-98 -71.5t-68 -100.5t-42 -114t-13.5 -111.5zM600 851q-16 0 -27.5 11t-11.5 27q0 18 13.5 31t29.5 13t27.5 -12t11.5 -29t-13 -29t-30 -12zM428 851q-16 0 -27.5 11t-11.5 27q0 18 13.5 31t29.5 13t27.5 -12t11.5 -29t-13 -29t-30 -12z" />
    <glyph glyph-name="multiply" unicode="&#xd7;" horiz-adv-x="944" 
d="M290 98l169 173l-169 167l30 29l167 -168l172 168l28 -29l-168 -168l168 -172l-28 -29l-170 170l-169 -170z" />
    <glyph glyph-name="Oslash" unicode="&#xd8;" horiz-adv-x="778" 
d="M126 -41l54 80q-106 82 -106 244q0 64 15.5 128t49.5 124t81 107t116 75t150 28q75 0 146 -42l48 70l21 -14l-49 -71q97 -81 97 -234q0 -126 -48 -232.5t-140.5 -171.5t-211.5 -65q-78 0 -149 38l-53 -78zM207 79l398 585q-52 38 -124 38q-67 0 -125.5 -27.5t-98 -71.5
t-68 -100.5t-42 -114t-13.5 -111.5q0 -133 73 -198zM624 646l-398 -584q55 -34 129 -34q97 0 175.5 63.5t118.5 159.5t40 202q0 125 -65 193z" />
    <glyph glyph-name="Ugrave" unicode="&#xd9;" horiz-adv-x="704" 
d="M111 270l84 377q10 44 10 54q0 15 -16 29h105q-30 -19 -44 -85l-84 -383q-19 -88 -19 -104q0 -59 47 -94.5t130 -35.5q112 0 162.5 65t84.5 219l75 335q10 44 10 54q0 15 -16 29h86q-17 -11 -26.5 -29.5t-17.5 -55.5l-74 -333q-15 -68 -27 -109.5t-34.5 -88t-51 -71.5
t-73.5 -41.5t-106 -16.5q-102 0 -163 46t-61 114q0 38 19 125zM315 894l10 51l217 -97l-6 -25z" />
    <glyph glyph-name="Uacute" unicode="&#xda;" horiz-adv-x="704" 
d="M111 270l84 377q10 44 10 54q0 15 -16 29h105q-30 -19 -44 -85l-84 -383q-19 -88 -19 -104q0 -59 47 -94.5t130 -35.5q112 0 162.5 65t84.5 219l75 335q10 44 10 54q0 15 -16 29h86q-17 -11 -26.5 -29.5t-17.5 -55.5l-74 -333q-15 -68 -27 -109.5t-34.5 -88t-51 -71.5
t-73.5 -41.5t-106 -16.5q-102 0 -163 46t-61 114q0 38 19 125zM369 823l6 29l234 93l-12 -49z" />
    <glyph glyph-name="Ucircumflex" unicode="&#xdb;" horiz-adv-x="704" 
d="M111 270l84 377q10 44 10 54q0 15 -16 29h105q-30 -19 -44 -85l-84 -383q-19 -88 -19 -104q0 -59 47 -94.5t130 -35.5q112 0 162.5 65t84.5 219l75 335q10 44 10 54q0 15 -16 29h86q-17 -11 -26.5 -29.5t-17.5 -55.5l-74 -333q-15 -68 -27 -109.5t-34.5 -88t-51 -71.5
t-73.5 -41.5t-106 -16.5q-102 0 -163 46t-61 114q0 38 19 125zM300 830l7 32l177 77l150 -83l-6 -26l-146 57z" />
    <glyph glyph-name="Udieresis" unicode="&#xdc;" horiz-adv-x="704" 
d="M111 270l84 377q10 44 10 54q0 15 -16 29h105q-30 -19 -44 -85l-84 -383q-19 -88 -19 -104q0 -59 47 -94.5t130 -35.5q112 0 162.5 65t84.5 219l75 335q10 44 10 54q0 15 -16 29h86q-17 -11 -26.5 -29.5t-17.5 -55.5l-74 -333q-15 -68 -27 -109.5t-34.5 -88t-51 -71.5
t-73.5 -41.5t-106 -16.5q-102 0 -163 46t-61 114q0 38 19 125zM563 851q-16 0 -27.5 11t-11.5 27q0 18 13.5 31t29.5 13t27.5 -12t11.5 -29t-13 -29t-30 -12zM391 851q-16 0 -27.5 11t-11.5 27q0 18 13.5 31t29.5 13t27.5 -12t11.5 -29t-13 -29t-30 -12z" />
    <glyph glyph-name="Yacute" unicode="&#xdd;" horiz-adv-x="537" 
d="M193 85l38 175l-97 399q-12 50 -36 71h100q-17 -17 -17 -27q0 -15 8 -47l85 -356l251 374q16 23 16 38q0 6 -14 18h112q-35 -17 -64 -57l-289 -413l-38 -177q-10 -48 -10 -54q0 -15 16 -29h-105q30 19 44 85zM286 823l6 29l234 93l-12 -49z" />
    <glyph glyph-name="Thorn" unicode="&#xde;" horiz-adv-x="593" 
d="M161 235h116q108 0 182.5 54.5t74.5 140.5q0 78 -49.5 107.5t-135.5 29.5h-116zM152 192l-23 -109q-10 -48 -10 -54q0 -15 16 -29h-105q17 11 26.5 28.5t17.5 56.5l121 562q10 46 10 54q0 15 -16 29h105q-30 -19 -44 -85l-8 -35h112q116 0 178 -39.5t62 -141.5
q0 -39 -17 -78.5t-52.5 -76t-101 -59.5t-152.5 -23h-119z" />
    <glyph glyph-name="germandbls" unicode="&#xdf;" horiz-adv-x="574" 
d="M-65 -190l9 42q16 -9 25 -9q37 0 56 90l3 12l123 547q28 127 72 182.5t144 55.5q62 0 105.5 -33.5t43.5 -88.5q0 -59 -48.5 -96t-96.5 -42v-2q146 -26 146 -171q0 -123 -65 -217.5t-165 -94.5q-28 0 -61 17t-47 35l13 61q12 -27 41 -51.5t59 -24.5q74 0 124.5 85
t50.5 199q0 38 -11 65.5t-27 42t-42 22.5t-46.5 10t-49.5 2l8 37q24 1 49 6.5t53.5 18t46.5 37.5t18 60q0 38 -28 62t-74 24q-66 0 -102 -45t-61 -157l-123 -545q-6 -26 -9 -38t-12.5 -36.5t-19 -37t-26.5 -23.5t-38 -11q-18 0 -38 10z" />
    <glyph glyph-name="agrave" unicode="&#xe0;" horiz-adv-x="574" 
d="M472 0h-53q-14 29 -14 68q0 27 6 73l-2 2q-13 -26 -29 -49.5t-41 -50t-60 -42.5t-74 -16q-72 0 -116.5 51t-44.5 142q0 84 39 168.5t107 141.5t143 57q91 0 147 -72l12 57h50l-44 -202q-43 -200 -43 -242q0 -49 17 -86zM448 331l24 105q-21 28 -55.5 50t-74.5 22
q-97 0 -172.5 -105.5t-75.5 -233.5q0 -69 32 -108t87 -39q41 0 79 27t63 64.5t46.5 84.5t31.5 78.5t15 54.5zM250 694l10 51l217 -97l-6 -25z" />
    <glyph glyph-name="aacute" unicode="&#xe1;" horiz-adv-x="574" 
d="M472 0h-53q-14 29 -14 68q0 27 6 73l-2 2q-13 -26 -29 -49.5t-41 -50t-60 -42.5t-74 -16q-72 0 -116.5 51t-44.5 142q0 84 39 168.5t107 141.5t143 57q91 0 147 -72l12 57h50l-44 -202q-43 -200 -43 -242q0 -49 17 -86zM448 331l24 105q-21 28 -55.5 50t-74.5 22
q-97 0 -172.5 -105.5t-75.5 -233.5q0 -69 32 -108t87 -39q41 0 79 27t63 64.5t46.5 84.5t31.5 78.5t15 54.5zM284 623l6 29l234 93l-12 -49z" />
    <glyph glyph-name="acircumflex" unicode="&#xe2;" horiz-adv-x="574" 
d="M472 0h-53q-14 29 -14 68q0 27 6 73l-2 2q-13 -26 -29 -49.5t-41 -50t-60 -42.5t-74 -16q-72 0 -116.5 51t-44.5 142q0 84 39 168.5t107 141.5t143 57q91 0 147 -72l12 57h50l-44 -202q-43 -200 -43 -242q0 -49 17 -86zM448 331l24 105q-21 28 -55.5 50t-74.5 22
q-97 0 -172.5 -105.5t-75.5 -233.5q0 -69 32 -108t87 -39q41 0 79 27t63 64.5t46.5 84.5t31.5 78.5t15 54.5zM215 630l7 32l177 77l150 -83l-6 -26l-146 57z" />
    <glyph glyph-name="atilde" unicode="&#xe3;" horiz-adv-x="574" 
d="M472 0h-53q-14 29 -14 68q0 27 6 73l-2 2q-13 -26 -29 -49.5t-41 -50t-60 -42.5t-74 -16q-72 0 -116.5 51t-44.5 142q0 84 39 168.5t107 141.5t143 57q91 0 147 -72l12 57h50l-44 -202q-43 -200 -43 -242q0 -49 17 -86zM448 331l24 105q-21 28 -55.5 50t-74.5 22
q-97 0 -172.5 -105.5t-75.5 -233.5q0 -69 32 -108t87 -39q41 0 79 27t63 64.5t46.5 84.5t31.5 78.5t15 54.5zM218 655l-14 19q3 2 15.5 14t17 15.5t16 12.5t19 12t19 6.5t22.5 3.5q27 0 63 -30q38 -30 59 -30q7 0 14.5 2.5t16.5 7.5t15 8.5t16.5 11.5t13.5 10l14 -22
q-2 -2 -11.5 -10.5t-13.5 -11.5t-13.5 -10t-16.5 -10.5t-16.5 -8t-19 -6t-19.5 -1.5q-33 0 -67 30q-32 30 -51 30q-6 0 -13.5 -2.5t-13 -4.5t-14.5 -8t-12.5 -8.5t-13.5 -10.5t-12 -9z" />
    <glyph glyph-name="adieresis" unicode="&#xe4;" horiz-adv-x="574" 
d="M472 0h-53q-14 29 -14 68q0 27 6 73l-2 2q-13 -26 -29 -49.5t-41 -50t-60 -42.5t-74 -16q-72 0 -116.5 51t-44.5 142q0 84 39 168.5t107 141.5t143 57q91 0 147 -72l12 57h50l-44 -202q-43 -200 -43 -242q0 -49 17 -86zM448 331l24 105q-21 28 -55.5 50t-74.5 22
q-97 0 -172.5 -105.5t-75.5 -233.5q0 -69 32 -108t87 -39q41 0 79 27t63 64.5t46.5 84.5t31.5 78.5t15 54.5zM458 651q-16 0 -27.5 11t-11.5 27q0 18 13.5 31t29.5 13t27.5 -12t11.5 -29t-13 -29t-30 -12zM286 651q-16 0 -27.5 11t-11.5 27q0 18 13.5 31t29.5 13t27.5 -12
t11.5 -29t-13 -29t-30 -12z" />
    <glyph glyph-name="aring" unicode="&#xe5;" horiz-adv-x="574" 
d="M472 0h-53q-14 29 -14 68q0 27 6 73l-2 2q-13 -26 -29 -49.5t-41 -50t-60 -42.5t-74 -16q-72 0 -116.5 51t-44.5 142q0 84 39 168.5t107 141.5t143 57q91 0 147 -72l12 57h50l-44 -202q-43 -200 -43 -242q0 -49 17 -86zM448 331l24 105q-21 28 -55.5 50t-74.5 22
q-97 0 -172.5 -105.5t-75.5 -233.5q0 -69 32 -108t87 -39q41 0 79 27t63 64.5t46.5 84.5t31.5 78.5t15 54.5zM386 596q-39 0 -66.5 28t-27.5 66q0 40 27.5 68t66.5 28t67.5 -28t28.5 -68q0 -38 -28 -66t-68 -28zM324 690q0 -26 18 -44t44 -18t45 18.5t19 43.5q0 26 -19 45
t-45 19t-44 -19t-18 -45z" />
    <glyph glyph-name="ae" unicode="&#xe6;" horiz-adv-x="889" 
d="M713 508q-54 -8 -111 -61t-90 -110t-33 -86q62 0 118.5 9.5t107 29t81 54.5t31.5 82q0 82 -104 82zM798 120l-21 -78q-25 -18 -40 -27t-47.5 -19.5t-67.5 -10.5q-85 0 -137.5 44t-59.5 122h-2q-24 -61 -81.5 -113.5t-136.5 -52.5q-72 0 -116.5 51t-44.5 142
q0 84 39 168.5t107 141.5t143 57q91 0 147 -72l12 57h50l-18 -80l2 -2q30 39 81 68t106 29q154 0 154 -119q0 -88 -101.5 -150t-236.5 -62q-9 0 -27.5 1t-28.5 1q-2 -18 -2 -26q0 -76 41.5 -122t109.5 -46q17 0 36.5 6t33.5 12.5t33.5 20.5t28 20.5t26 22t18.5 16.5z
M448 331l24 105q-21 28 -55.5 50t-74.5 22q-97 0 -172.5 -105.5t-75.5 -233.5q0 -69 32 -108t87 -39q41 0 79 27.5t63 65t46.5 84.5t31.5 78t15 54z" />
    <glyph glyph-name="ccedilla" unicode="&#xe7;" horiz-adv-x="481" 
d="M146 -76l29 70q-55 17 -89.5 67.5t-34.5 122.5q0 85 38 167.5t107.5 138t150.5 55.5q31 0 53.5 -9t35 -18t20.5 -9q6 0 20 10l-24 -107q-7 21 -12 31.5t-17.5 29t-31.5 27t-44 8.5q-61 0 -118.5 -47t-92.5 -123.5t-35 -157.5q0 -71 35 -114.5t94 -43.5q89 0 182 106
l-15 -76q-30 -23 -42.5 -32t-49 -22t-78.5 -13q-14 0 -21 2l-14 -34q27 3 28 3q25 0 42 -18t17 -42q0 -36 -29 -62.5t-86 -26.5q-30 0 -57 16l5 20q28 -5 52 -5q31 0 51.5 14.5t20.5 34.5q0 41 -51 41q-7 0 -21 -2t-18 -2z" />
    <glyph glyph-name="egrave" unicode="&#xe8;" horiz-adv-x="519" 
d="M427 126l-20 -84q-68 -57 -158 -57q-89 0 -143.5 59t-54.5 157q0 80 42 160t113 132t147 52q62 0 103 -32t41 -85q0 -89 -101.5 -151.5t-236.5 -62.5q-9 0 -27.5 1t-28.5 1q-2 -18 -2 -26q0 -76 41.5 -122t109.5 -46q15 0 29.5 3.5t26 7t25.5 12.5t22 14t21.5 17.5
t18 16.5t18 18t14.5 15zM109 251q62 0 118.5 9.5t107 29t81 54.5t31.5 82q0 37 -26.5 59.5t-67.5 22.5q-50 0 -98 -32.5t-78.5 -76.5t-49 -85t-18.5 -63zM223 694l10 51l217 -97l-6 -25z" />
    <glyph glyph-name="eacute" unicode="&#xe9;" horiz-adv-x="519" 
d="M427 126l-20 -84q-68 -57 -158 -57q-89 0 -143.5 59t-54.5 157q0 80 42 160t113 132t147 52q62 0 103 -32t41 -85q0 -89 -101.5 -151.5t-236.5 -62.5q-9 0 -27.5 1t-28.5 1q-2 -18 -2 -26q0 -76 41.5 -122t109.5 -46q15 0 29.5 3.5t26 7t25.5 12.5t22 14t21.5 17.5
t18 16.5t18 18t14.5 15zM109 251q62 0 118.5 9.5t107 29t81 54.5t31.5 82q0 37 -26.5 59.5t-67.5 22.5q-50 0 -98 -32.5t-78.5 -76.5t-49 -85t-18.5 -63zM257 623l6 29l234 93l-12 -49z" />
    <glyph glyph-name="ecircumflex" unicode="&#xea;" horiz-adv-x="519" 
d="M427 126l-20 -84q-68 -57 -158 -57q-89 0 -143.5 59t-54.5 157q0 80 42 160t113 132t147 52q62 0 103 -32t41 -85q0 -89 -101.5 -151.5t-236.5 -62.5q-9 0 -27.5 1t-28.5 1q-2 -18 -2 -26q0 -76 41.5 -122t109.5 -46q15 0 29.5 3.5t26 7t25.5 12.5t22 14t21.5 17.5
t18 16.5t18 18t14.5 15zM109 251q62 0 118.5 9.5t107 29t81 54.5t31.5 82q0 37 -26.5 59.5t-67.5 22.5q-50 0 -98 -32.5t-78.5 -76.5t-49 -85t-18.5 -63zM188 630l7 32l177 77l150 -83l-6 -26l-146 57z" />
    <glyph glyph-name="edieresis" unicode="&#xeb;" horiz-adv-x="519" 
d="M427 126l-20 -84q-68 -57 -158 -57q-89 0 -143.5 59t-54.5 157q0 80 42 160t113 132t147 52q62 0 103 -32t41 -85q0 -89 -101.5 -151.5t-236.5 -62.5q-9 0 -27.5 1t-28.5 1q-2 -18 -2 -26q0 -76 41.5 -122t109.5 -46q15 0 29.5 3.5t26 7t25.5 12.5t22 14t21.5 17.5
t18 16.5t18 18t14.5 15zM109 251q62 0 118.5 9.5t107 29t81 54.5t31.5 82q0 37 -26.5 59.5t-67.5 22.5q-50 0 -98 -32.5t-78.5 -76.5t-49 -85t-18.5 -63zM431 651q-16 0 -27.5 11t-11.5 27q0 18 13.5 31t29.5 13t27.5 -12t11.5 -29t-13 -29t-30 -12zM259 651q-16 0 -27.5 11
t-11.5 27q0 18 13.5 31t29.5 13t27.5 -12t11.5 -29t-13 -29t-30 -12z" />
    <glyph glyph-name="igrave" unicode="&#xec;" horiz-adv-x="241" 
d="M116 0h-101q30 19 44 85l80 362q10 44 10 54q0 15 -16 29h74l-103 -477q-3 -11 -3 -22q0 -18 15 -31zM84 694l10 51l217 -97l-6 -25z" />
    <glyph glyph-name="iacute" unicode="&#xed;" horiz-adv-x="241" 
d="M116 0h-101q30 19 44 85l80 362q10 44 10 54q0 15 -16 29h74l-103 -477q-3 -11 -3 -22q0 -18 15 -31zM118 623l6 29l234 93l-12 -49z" />
    <glyph glyph-name="icircumflex" unicode="&#xee;" horiz-adv-x="241" 
d="M116 0h-101q30 19 44 85l80 362q10 44 10 54q0 15 -16 29h74l-103 -477q-3 -11 -3 -22q0 -18 15 -31zM49 630l7 32l177 77l150 -83l-6 -26l-146 57z" />
    <glyph glyph-name="idieresis" unicode="&#xef;" horiz-adv-x="241" 
d="M116 0h-101q30 19 44 85l80 362q10 44 10 54q0 15 -16 29h74l-103 -477q-3 -11 -3 -22q0 -18 15 -31zM291 651q-16 0 -27.5 11t-11.5 27q0 18 13.5 31t29.5 13t27.5 -12t11.5 -29t-13 -29t-30 -12zM119 651q-16 0 -27.5 11t-11.5 27q0 18 13.5 31t29.5 13t27.5 -12
t11.5 -29t-13 -29t-30 -12z" />
    <glyph glyph-name="eth" unicode="&#xf0;" horiz-adv-x="556" 
d="M89 176q0 -69 35 -111.5t93 -42.5q67 0 123 58t84.5 136.5t28.5 149.5q0 60 -36 101t-89 41q-57 0 -105.5 -37.5t-76 -92t-42.5 -108.5t-15 -94zM376 644l-135 -59l-30 24l139 61q-44 38 -98 58l46 17q54 -16 96 -55l114 50l31 -25l-118 -52q90 -102 90 -285
q0 -59 -20 -125.5t-56 -127t-94 -100.5t-125 -40q-80 0 -128.5 55t-48.5 144q0 55 19.5 116.5t54.5 117t92 91.5t125 36q82 0 127 -75l2 2q-26 110 -83 172z" />
    <glyph glyph-name="ntilde" unicode="&#xf1;" horiz-adv-x="537" 
d="M114 0h-101q30 19 44 85l80 362q10 44 10 54q0 15 -16 29h74l-31 -132l2 -2q18 27 34 46t43.5 46t60.5 42t69 15q51 0 74.5 -28.5t23.5 -67.5q0 -11 -5.5 -36t-5.5 -26l-70 -334q-3 -10 -3 -22q0 -18 15 -31h-101q30 19 44 85l65 287q11 60 11 69q0 67 -54 67
q-65 0 -138.5 -81t-93.5 -174l-43 -200q-3 -11 -3 -22q0 -18 15 -31zM200 655l-14 19q3 2 15.5 14t17 15.5t16 12.5t19 12t19 6.5t22.5 3.5q27 0 63 -30q38 -30 59 -30q7 0 14.5 2.5t16.5 7.5t15 8.5t16.5 11.5t13.5 10l14 -22q-2 -2 -11.5 -10.5t-13.5 -11.5t-13.5 -10
t-16.5 -10.5t-16.5 -8t-19 -6t-19.5 -1.5q-33 0 -67 30q-32 30 -51 30q-6 0 -13.5 -2.5t-13 -4.5t-14.5 -8t-12.5 -8.5t-13.5 -10.5t-12 -9z" />
    <glyph glyph-name="ograve" unicode="&#xf2;" horiz-adv-x="556" 
d="M225 -15q-80 0 -128.5 55t-48.5 144q0 55 19.5 116.5t54.5 117t92 91.5t125 36q82 0 127 -51t45 -140q0 -82 -34 -165.5t-101.5 -143.5t-150.5 -60zM98 176q0 -69 35 -111.5t93 -42.5q67 0 123 58.5t84 137t28 151.5q0 60 -34 99.5t-90 39.5q-57 0 -105.5 -37.5t-76 -92
t-42.5 -108.5t-15 -94zM241 694l10 51l217 -97l-6 -25z" />
    <glyph glyph-name="oacute" unicode="&#xf3;" horiz-adv-x="556" 
d="M225 -15q-80 0 -128.5 55t-48.5 144q0 55 19.5 116.5t54.5 117t92 91.5t125 36q82 0 127 -51t45 -140q0 -82 -34 -165.5t-101.5 -143.5t-150.5 -60zM98 176q0 -69 35 -111.5t93 -42.5q67 0 123 58.5t84 137t28 151.5q0 60 -34 99.5t-90 39.5q-57 0 -105.5 -37.5t-76 -92
t-42.5 -108.5t-15 -94zM275 623l6 29l234 93l-12 -49z" />
    <glyph glyph-name="ocircumflex" unicode="&#xf4;" horiz-adv-x="556" 
d="M225 -15q-80 0 -128.5 55t-48.5 144q0 55 19.5 116.5t54.5 117t92 91.5t125 36q82 0 127 -51t45 -140q0 -82 -34 -165.5t-101.5 -143.5t-150.5 -60zM98 176q0 -69 35 -111.5t93 -42.5q67 0 123 58.5t84 137t28 151.5q0 60 -34 99.5t-90 39.5q-57 0 -105.5 -37.5t-76 -92
t-42.5 -108.5t-15 -94zM206 630l7 32l177 77l150 -83l-6 -26l-146 57z" />
    <glyph glyph-name="otilde" unicode="&#xf5;" horiz-adv-x="556" 
d="M225 -15q-80 0 -128.5 55t-48.5 144q0 55 19.5 116.5t54.5 117t92 91.5t125 36q82 0 127 -51t45 -140q0 -82 -34 -165.5t-101.5 -143.5t-150.5 -60zM98 176q0 -69 35 -111.5t93 -42.5q67 0 123 58.5t84 137t28 151.5q0 60 -34 99.5t-90 39.5q-57 0 -105.5 -37.5t-76 -92
t-42.5 -108.5t-15 -94zM209 655l-14 19q3 2 15.5 14t17 15.5t16 12.5t19 12t19 6.5t22.5 3.5q27 0 63 -30q38 -30 59 -30q7 0 14.5 2.5t16.5 7.5t15 8.5t16.5 11.5t13.5 10l14 -22q-2 -2 -11.5 -10.5t-13.5 -11.5t-13.5 -10t-16.5 -10.5t-16.5 -8t-19 -6t-19.5 -1.5
q-33 0 -67 30q-32 30 -51 30q-6 0 -13.5 -2.5t-13 -4.5t-14.5 -8t-12.5 -8.5t-13.5 -10.5t-12 -9z" />
    <glyph glyph-name="odieresis" unicode="&#xf6;" horiz-adv-x="556" 
d="M225 -15q-80 0 -128.5 55t-48.5 144q0 55 19.5 116.5t54.5 117t92 91.5t125 36q82 0 127 -51t45 -140q0 -82 -34 -165.5t-101.5 -143.5t-150.5 -60zM98 176q0 -69 35 -111.5t93 -42.5q67 0 123 58.5t84 137t28 151.5q0 60 -34 99.5t-90 39.5q-57 0 -105.5 -37.5t-76 -92
t-42.5 -108.5t-15 -94zM449 651q-16 0 -27.5 11t-11.5 27q0 18 13.5 31t29.5 13t27.5 -12t11.5 -29t-13 -29t-30 -12zM277 651q-16 0 -27.5 11t-11.5 27q0 18 13.5 31t29.5 13t27.5 -12t11.5 -29t-13 -29t-30 -12z" />
    <glyph glyph-name="divide" unicode="&#xf7;" horiz-adv-x="944" 
d="M235 247v43h507v-43h-507zM487 69q-15 0 -25 10t-10 25t10 26t25 11t26 -11t11 -26t-11 -25t-26 -10zM487 396q-15 0 -25 10t-10 25t10 26t25 11t26 -11t11 -26t-11 -25t-26 -10z" />
    <glyph glyph-name="oslash" unicode="&#xf8;" horiz-adv-x="556" 
d="M49 -27l48 66q-49 51 -49 145q0 55 19.5 116.5t54.5 117t92 91.5t125 36q65 0 103 -32l48 65l21 -16l-50 -68q50 -53 50 -140q0 -82 -34 -165.5t-101.5 -143.5t-150.5 -60q-64 0 -109 34l-46 -63zM123 75l294 403q-32 30 -80 30q-57 0 -105.5 -37.5t-76 -92t-42.5 -108.5
t-15 -94q0 -59 25 -101zM435 458l-293 -403q32 -33 84 -33q67 0 123 58.5t84 137t28 151.5q0 55 -26 89z" />
    <glyph glyph-name="ugrave" unicode="&#xf9;" horiz-adv-x="537" 
d="M424 0h-50q-8 27 -8 61q0 28 12 90l-2 2q-7 -18 -22.5 -43t-41.5 -55t-66 -50t-84 -20q-46 0 -73.5 25t-27.5 70q0 40 11 77l63 290q10 44 10 54q0 15 -16 29h74l-87 -393q-5 -22 -5 -50q0 -65 62 -65q10 0 25 3t45.5 20.5t58 45.5t56 86.5t45.5 136.5l28 133
q10 44 10 54q0 15 -16 29h74l-70 -317q-13 -59 -13 -131q0 -51 8 -82zM232 694l10 51l217 -97l-6 -25z" />
    <glyph glyph-name="uacute" unicode="&#xfa;" horiz-adv-x="537" 
d="M424 0h-50q-8 27 -8 61q0 28 12 90l-2 2q-7 -18 -22.5 -43t-41.5 -55t-66 -50t-84 -20q-46 0 -73.5 25t-27.5 70q0 40 11 77l63 290q10 44 10 54q0 15 -16 29h74l-87 -393q-5 -22 -5 -50q0 -65 62 -65q10 0 25 3t45.5 20.5t58 45.5t56 86.5t45.5 136.5l28 133
q10 44 10 54q0 15 -16 29h74l-70 -317q-13 -59 -13 -131q0 -51 8 -82zM266 623l6 29l234 93l-12 -49z" />
    <glyph glyph-name="ucircumflex" unicode="&#xfb;" horiz-adv-x="537" 
d="M424 0h-50q-8 27 -8 61q0 28 12 90l-2 2q-7 -18 -22.5 -43t-41.5 -55t-66 -50t-84 -20q-46 0 -73.5 25t-27.5 70q0 40 11 77l63 290q10 44 10 54q0 15 -16 29h74l-87 -393q-5 -22 -5 -50q0 -65 62 -65q10 0 25 3t45.5 20.5t58 45.5t56 86.5t45.5 136.5l28 133
q10 44 10 54q0 15 -16 29h74l-70 -317q-13 -59 -13 -131q0 -51 8 -82zM197 630l7 32l177 77l150 -83l-6 -26l-146 57z" />
    <glyph glyph-name="udieresis" unicode="&#xfc;" horiz-adv-x="537" 
d="M424 0h-50q-8 27 -8 61q0 28 12 90l-2 2q-7 -18 -22.5 -43t-41.5 -55t-66 -50t-84 -20q-46 0 -73.5 25t-27.5 70q0 40 11 77l63 290q10 44 10 54q0 15 -16 29h74l-87 -393q-5 -22 -5 -50q0 -65 62 -65q10 0 25 3t45.5 20.5t58 45.5t56 86.5t45.5 136.5l28 133
q10 44 10 54q0 15 -16 29h74l-70 -317q-13 -59 -13 -131q0 -51 8 -82zM440 651q-16 0 -27.5 11t-11.5 27q0 18 13.5 31t29.5 13t27.5 -12t11.5 -29t-13 -29t-30 -12zM268 651q-16 0 -27.5 11t-11.5 27q0 18 13.5 31t29.5 13t27.5 -12t11.5 -29t-13 -29t-30 -12z" />
    <glyph glyph-name="yacute" unicode="&#xfd;" horiz-adv-x="537" 
d="M506 530l-108 -491q-17 -74 -41.5 -124t-55.5 -73.5t-60.5 -32.5t-67.5 -9q-79 0 -146 62l16 64q22 -32 57 -60.5t72 -28.5q22 0 41 5t46.5 22t50.5 59.5t37 106.5l27 124l-2 2q-12 -24 -27 -48t-41 -54.5t-62.5 -49.5t-76.5 -19q-43 0 -74 27t-31 69q0 31 14 89l60 277
q10 44 10 54q0 15 -16 29h74l-78 -356q-17 -79 -17 -81q0 -71 67 -71q10 0 23.5 2.5t43.5 19t57 45t59 89.5t54 143l27 126q10 44 10 54q0 15 -16 29h74zM266 623l6 29l234 93l-12 -49z" />
    <glyph glyph-name="thorn" unicode="&#xfe;" horiz-adv-x="556" 
d="M149 263l-52 -238q13 0 31.5 -1.5t32.5 -1.5q94 0 168 51.5t110.5 127t36.5 157.5q0 65 -32.5 107.5t-82.5 42.5q-75 0 -133 -73.5t-79 -171.5zM15 -115l164 762q10 44 10 54q0 15 -16 29h74l-65 -311l2 -2q1 1 12 17t14 20t14 18.5t17.5 19.5t18.5 16t22 15.5t23.5 10.5
t28 8.5t30.5 2.5q71 0 116.5 -52.5t45.5 -138.5q0 -148 -103 -258.5t-258 -110.5q-31 0 -75 7l-25 -109q-10 -46 -10 -54q0 -15 16 -29h-100q30 19 44 85z" />
    <glyph glyph-name="ydieresis" unicode="&#xff;" horiz-adv-x="537" 
d="M506 530l-108 -491q-17 -74 -41.5 -124t-55.5 -73.5t-60.5 -32.5t-67.5 -9q-79 0 -146 62l16 64q22 -32 57 -60.5t72 -28.5q22 0 41 5t46.5 22t50.5 59.5t37 106.5l27 124l-2 2q-12 -24 -27 -48t-41 -54.5t-62.5 -49.5t-76.5 -19q-43 0 -74 27t-31 69q0 31 14 89l60 277
q10 44 10 54q0 15 -16 29h74l-78 -356q-17 -79 -17 -81q0 -71 67 -71q10 0 23.5 2.5t43.5 19t57 45t59 89.5t54 143l27 126q10 44 10 54q0 15 -16 29h74zM440 651q-16 0 -27.5 11t-11.5 27q0 18 13.5 31t29.5 13t27.5 -12t11.5 -29t-13 -29t-30 -12zM268 651q-16 0 -27.5 11
t-11.5 27q0 18 13.5 31t29.5 13t27.5 -12t11.5 -29t-13 -29t-30 -12z" />
    <glyph glyph-name="dotlessi" unicode="&#x131;" horiz-adv-x="241" 
d="M116 0h-101q30 19 44 85l80 362q10 44 10 54q0 15 -16 29h74l-103 -477q-3 -11 -3 -22q0 -18 15 -31z" />
    <glyph glyph-name="Lslash" unicode="&#x141;" horiz-adv-x="500" 
d="M200 411l140 102l21 -28l-172 -125l-68 -317h259q49 0 80 31l-18 -74h-412q17 11 26.5 28.5t17.5 56.5l49 227l-81 -55l-21 28l113 78l61 284q10 46 10 54q0 15 -16 29h105q-30 -19 -44 -85z" />
    <glyph glyph-name="lslash" unicode="&#x142;" horiz-adv-x="241" 
d="M120 348l-71 -43l-18 29l99 61l57 252q10 44 10 54q0 15 -16 29h74l-67 -301l71 41l18 -29l-99 -59l-66 -299q-10 -46 -10 -54q0 -15 16 -29h-100q30 19 44 85z" />
    <glyph glyph-name="OE" unicode="&#x152;" horiz-adv-x="1019" 
d="M501 0l11 36l-2 2q-66 -53 -167 -53q-134 0 -201.5 81t-67.5 217q0 64 15.5 128t49.5 124t81 107t116 75t150 28q95 0 164 -59l10 44h404l-18 -74q-10 17 -23.5 24t-44.5 7h-270l-61 -281h257q40 0 63 20l-19 -85q-6 13 -16.5 17.5t-36.5 4.5h-257l-69 -320h284
q49 0 80 31l-18 -74h-414zM523 97l116 535q-58 70 -158 70q-67 0 -125.5 -27.5t-98 -71.5t-68 -100.5t-42 -114t-13.5 -111.5q0 -118 57.5 -183.5t156.5 -65.5q49 0 98.5 18.5t76.5 50.5z" />
    <glyph glyph-name="oe" unicode="&#x153;" horiz-adv-x="907" 
d="M818 120l-21 -78q-25 -18 -40 -27t-47.5 -19.5t-67.5 -10.5q-82 0 -133 39.5t-59 107.5q-3 -4 -20 -26.5t-26 -33.5t-30.5 -30.5t-40 -29.5t-47.5 -18.5t-61 -8.5q-80 0 -128.5 55t-48.5 144q0 55 19.5 116.5t54.5 117t92 91.5t125 36q75 0 117 -40t51 -105
q39 59 99.5 102t126.5 43q154 0 154 -119q0 -88 -101.5 -150t-236.5 -62q-9 0 -27.5 1t-28.5 1q-2 -18 -2 -26q0 -76 41.5 -122t109.5 -46q17 0 36.5 6t33.5 12.5t33.5 20.5t28 20.5t26 22t18.5 16.5zM98 176q0 -69 35 -111.5t93 -42.5q67 0 123 58.5t84 137t28 151.5
q0 60 -34 99.5t-90 39.5q-57 0 -105.5 -37.5t-76 -92t-42.5 -108.5t-15 -94zM733 508q-54 -8 -111 -61t-90 -110t-33 -86q62 0 118.5 9.5t107 29t81 54.5t31.5 82q0 82 -104 82z" />
    <glyph glyph-name="Scaron" unicode="&#x160;" horiz-adv-x="556" 
d="M12 45l31 131q28 -51 81.5 -99.5t116.5 -48.5q80 0 134.5 48.5t54.5 109.5q0 40 -24.5 69t-79.5 63l-64 40q-78 48 -112 87t-34 98q0 84 68.5 143t170.5 59q47 0 80 -10.5t52 -21t31 -10.5q8 0 30 11l-26 -113q-49 101 -158 101q-80 0 -134 -43t-54 -105q0 -43 25.5 -74
t92.5 -71l63 -38q68 -41 100.5 -82t32.5 -94q0 -85 -70 -147.5t-160 -62.5q-61 0 -109.5 18t-76 36t-37.5 18q-7 0 -25 -12zM376 829l-150 83l6 26l146 -57l182 57l-7 -32z" />
    <glyph glyph-name="scaron" unicode="&#x161;" horiz-adv-x="481" 
d="M11 27l34 98q43 -56 70 -75q39 -28 85 -28q67 0 107.5 31.5t40.5 83.5q0 35 -21 58.5t-68 45.5l-58 28q-55 27 -84 55t-29 73q0 60 52 104t127 44q42 0 84.5 -15.5t45.5 -15.5q6 0 26 10l-26 -97q-24 43 -50.5 62t-81.5 19q-53 0 -90 -31.5t-37 -71.5q0 -27 17 -46
t57 -37l82 -40q104 -53 104 -135q0 -68 -54 -115t-131 -47q-41 0 -75.5 12t-57 24.5t-31.5 12.5q-15 0 -38 -7zM319 629l-150 83l6 26l146 -57l182 57l-7 -32z" />
    <glyph glyph-name="Ydieresis" unicode="&#x178;" horiz-adv-x="537" 
d="M193 85l38 175l-97 399q-12 50 -36 71h100q-17 -17 -17 -27q0 -15 8 -47l85 -356l251 374q16 23 16 38q0 6 -14 18h112q-35 -17 -64 -57l-289 -413l-38 -177q-10 -48 -10 -54q0 -15 16 -29h-105q30 19 44 85zM480 851q-16 0 -27.5 11t-11.5 27q0 18 13.5 31t29.5 13
t27.5 -12t11.5 -29t-13 -29t-30 -12zM308 851q-16 0 -27.5 11t-11.5 27q0 18 13.5 31t29.5 13t27.5 -12t11.5 -29t-13 -29t-30 -12z" />
    <glyph glyph-name="Zcaron" unicode="&#x17d;" horiz-adv-x="537" 
d="M-7 32l534 655h-298q-24 0 -37.5 -7t-30.5 -24l18 74h428l-7 -31l-538 -656h333q49 0 80 31l-18 -74h-470zM367 829l-150 83l6 26l146 -57l182 57l-7 -32z" />
    <glyph glyph-name="zcaron" unicode="&#x17e;" horiz-adv-x="444" 
d="M-5 25l382 468h-217q-27 0 -53 -17l13 54h328l-6 -28l-378 -465h219q37 0 77 27l-17 -64h-356zM300 629l-150 83l6 26l146 -57l182 57l-7 -32z" />
    <glyph glyph-name="florin" unicode="&#x192;" 
d="M37 -167l16 49q0 -1 4 -9t4.5 -9.5t4 -8t6 -8t7 -5t9 -4.5t10.5 -1q20 0 34 22t37 89l183 545h-78l12 37h78l32 95q25 74 54 97t68 23q17 0 39.5 -10.5t27.5 -10.5q2 0 4 1t4.5 2.5t4.5 2.5l-20 -80q-12 38 -28 49q-14 9 -33 9q-27 0 -41.5 -20t-29.5 -64l-32 -94h109
l-12 -37h-109l-183 -546q-27 -80 -49 -109q-29 -38 -68 -38q-25 0 -37.5 7.5t-27.5 25.5z" />
    <glyph glyph-name="circumflex" unicode="&#x2c6;" horiz-adv-x="370" 
d="M113 630l7 32l177 77l150 -83l-6 -26l-146 57z" />
    <glyph glyph-name="caron" unicode="&#x2c7;" horiz-adv-x="370" 
d="M263 629l-150 83l6 26l146 -57l182 57l-7 -32z" />
    <glyph glyph-name="uni02C9" unicode="&#x2c9;" horiz-adv-x="370" 
d="M142 673l9 40h268l-9 -40h-268z" />
    <glyph glyph-name="breve" unicode="&#x2d8;" horiz-adv-x="370" 
d="M409 745h29q-14 -46 -52 -84t-101 -38q-44 0 -74.5 26t-30.5 66q0 21 2 30h29q0 -36 19 -60.5t59 -24.5q30 0 56 16t36.5 29.5t27.5 39.5z" />
    <glyph glyph-name="dotaccent" unicode="&#x2d9;" horiz-adv-x="370" 
d="M276 652q-15 0 -25.5 11t-10.5 27q0 19 12.5 32.5t33.5 13.5q17 0 27.5 -11t10.5 -27q0 -20 -14.5 -33t-33.5 -13z" />
    <glyph glyph-name="ring" unicode="&#x2da;" horiz-adv-x="370" 
d="M284 596q-39 0 -66.5 28t-27.5 66q0 40 27.5 68t66.5 28t67.5 -28t28.5 -68q0 -38 -28 -66t-68 -28zM222 690q0 -26 18 -44t44 -18t45 18.5t19 43.5q0 26 -19 45t-45 19t-44 -19t-18 -45z" />
    <glyph glyph-name="ogonek" unicode="&#x2db;" horiz-adv-x="370" 
d="M303 -60v-11q-2 -1 -14 -9.5t-16 -11t-15.5 -10t-18 -11t-17 -9t-18 -8t-16.5 -4.5t-16 -2q-22 0 -37.5 12.5t-15.5 35.5q0 32 23.5 61.5t43 42t50.5 29.5l7 -9q-74 -61 -74 -95q0 -14 11 -24t29 -10q12 0 26 4t21 7t25.5 11.5t21.5 10.5z" />
    <glyph glyph-name="tilde" unicode="&#x2dc;" horiz-adv-x="370" 
d="M116 655l-14 19q3 2 15.5 14t17 15.5t16 12.5t19 12t19 6.5t22.5 3.5q27 0 63 -30q38 -30 59 -30q7 0 14.5 2.5t16.5 7.5t15 8.5t16.5 11.5t13.5 10l14 -22q-2 -2 -11.5 -10.5t-13.5 -11.5t-13.5 -10t-16.5 -10.5t-16.5 -8t-19 -6t-19.5 -1.5q-33 0 -67 30q-32 30 -51 30
q-6 0 -13.5 -2.5t-13 -4.5t-14.5 -8t-12.5 -8.5t-13.5 -10.5t-12 -9z" />
    <glyph glyph-name="hungarumlaut" unicode="&#x2dd;" horiz-adv-x="370" 
d="M156 626v28l219 143v-55zM306 626v28l219 143v-55z" />
    <glyph glyph-name="uni03A9" unicode="&#x3a9;" horiz-adv-x="830" 
d="M191 37l1 2q-59 57 -84.5 145t-0.5 199q37 160 158.5 260.5t263.5 100.5q143 0 212.5 -105t35.5 -253q-26 -115 -96 -206t-150 -141v-2h181l-8 -37h-255l6 27q92 47 170 140t107 215q8 44 9 89t-14.5 88t-40.5 76t-68 53t-98 20q-131 0 -234 -95.5t-135 -232.5
q-27 -116 8.5 -212t103.5 -141l-6 -27h-254l9 37h179z" />
    <glyph glyph-name="uni03BC" unicode="&#x3bc;" horiz-adv-x="537" 
d="M87 16l-34 -164q-3 -14 -3 -26q0 -10 16 -26h-73l142 647q10 44 10 54q0 15 -16 29h74l-87 -393q-5 -22 -5 -50q0 -65 62 -65q10 0 25 3t45.5 20.5t58 45.5t56 86.5t45.5 136.5l28 133q10 44 10 54q0 15 -16 29h74l-70 -317q-13 -59 -13 -131q0 -51 8 -82h-50
q-8 27 -8 61q0 28 12 90l-2 2q-7 -18 -22.5 -43t-41.5 -55t-66 -50t-84 -20q-73 0 -73 31h-2z" />
    <glyph glyph-name="pi" unicode="&#x3c0;" horiz-adv-x="622" 
d="M646 503h-100l-80 -346q-25 -105 -19 -157h-43q-12 29 16 149l82 354h-241q-35 -122 -98 -280t-108 -223h-44q50 75 110 226t95 277q-99 0 -141 -16l-4 30q55 24 152 24h437z" />
    <glyph glyph-name="endash" unicode="&#x2013;" 
d="M51 231l16 78q3 -8 5 -11t7.5 -6t15.5 -3h448q13 0 21 2.5t10 4.5l10 10l-17 -75q-13 15 -29 15h-445q-21 0 -26 -2t-16 -13z" />
    <glyph glyph-name="emdash" unicode="&#x2014;" horiz-adv-x="944" 
d="M51 231l16 78q3 -8 5 -11t7.5 -6t15.5 -3h762q13 0 21 2.5t10 4.5l10 10l-17 -75q-13 15 -29 15h-759q-21 0 -26 -2t-16 -13z" />
    <glyph glyph-name="quoteleft" unicode="&#x2018;" horiz-adv-x="222" 
d="M261 745l12 -23q-40 -22 -54.5 -35.5t-31.5 -45.5q36 -3 36 -31q0 -20 -12.5 -32t-29.5 -12t-27.5 13t-10.5 32q0 46 40 88t78 46z" />
    <glyph glyph-name="quoteright" unicode="&#x2019;" horiz-adv-x="222" 
d="M133 566l-12 23q40 22 54.5 35.5t31.5 45.5q-36 3 -36 31q0 20 12.5 32t29.5 12t27.5 -13t10.5 -32q0 -46 -40 -88t-78 -46z" />
    <glyph glyph-name="quotesinglbase" unicode="&#x201a;" horiz-adv-x="278" 
d="M23 -110l-12 23q40 22 54.5 35.5t31.5 45.5q-36 3 -36 31q0 20 12.5 32t29.5 12t27.5 -13t10.5 -32q0 -46 -40 -88t-78 -46z" />
    <glyph glyph-name="quotedblleft" unicode="&#x201c;" horiz-adv-x="352" 
d="M259 745l12 -23q-40 -22 -54.5 -35.5t-31.5 -45.5q36 -3 36 -31q0 -20 -12.5 -32t-29.5 -12t-27.5 13t-10.5 32q0 46 40 88t78 46zM389 745l12 -23q-40 -22 -54.5 -35.5t-31.5 -45.5q36 -3 36 -31q0 -20 -12.5 -32t-29.5 -12t-27.5 13t-10.5 32q0 46 40 88t78 46z" />
    <glyph glyph-name="quotedblright" unicode="&#x201d;" horiz-adv-x="352" 
d="M263 566l-12 23q40 22 54.5 35.5t31.5 45.5q-36 3 -36 31q0 20 12.5 32t29.5 12t27.5 -13t10.5 -32q0 -46 -40 -88t-78 -46zM133 566l-12 23q40 22 54.5 35.5t31.5 45.5q-36 3 -36 31q0 20 12.5 32t29.5 12t27.5 -13t10.5 -32q0 -46 -40 -88t-78 -46z" />
    <glyph glyph-name="quotedblbase" unicode="&#x201e;" horiz-adv-x="352" 
d="M113 -110l-12 23q40 22 54.5 35.5t31.5 45.5q-36 3 -36 31q0 20 12.5 32t29.5 12t27.5 -13t10.5 -32q0 -46 -40 -88t-78 -46zM-17 -110l-12 23q40 22 54.5 35.5t31.5 45.5q-36 3 -36 31q0 20 12.5 32t29.5 12t27.5 -13t10.5 -32q0 -46 -40 -88t-78 -46z" />
    <glyph glyph-name="dagger" unicode="&#x2020;" 
d="M320 33v464h-103q-8 0 -13 -0.5t-8.5 -2.5t-5 -3.5t-4 -5t-3.5 -5.5v78q1 -1 3 -5t3 -4.5t3.5 -3t5.5 -3.5t8 -1.5t12 -0.5h102v160q0 7 -1.5 12.5t-3 7.5t-6 5t-5.5 5h87q-1 -2 -5.5 -5t-6 -5t-3 -7.5t-1.5 -12.5v-160h102q7 0 12 0.5t8 1.5t5.5 3.5t3.5 3t3 4.5t3 5
v-78q-1 2 -3.5 5.5t-4 5t-5 3.5t-8.5 2.5t-13 0.5h-103v-464q0 -19 23 -33h-101q23 14 23 33z" />
    <glyph glyph-name="daggerdbl" unicode="&#x2021;" 
d="M320 33v175h-103q-8 0 -13 -0.5t-8.5 -2.5t-5 -3.5t-4 -5t-3.5 -5.5v78q1 -1 3 -5t3 -4.5t3.5 -3t5.5 -3.5t8 -1.5t12 -0.5h102v239h-103q-8 0 -13 -0.5t-8.5 -2.5t-5 -3.5t-4 -5t-3.5 -5.5v78q1 -1 3 -5t3 -4.5t3.5 -3t5.5 -3.5t8 -1.5t12 -0.5h102v167q0 7 -1.5 12.5
t-3 7.5t-6 5t-5.5 5h87q-1 -2 -5.5 -5t-6 -5t-3 -7.5t-1.5 -12.5v-167h102q7 0 12 0.5t8 1.5t5.5 3.5t3.5 3t3 4.5t3 5v-78q-1 2 -3.5 5.5t-4 5t-5 3.5t-8.5 2.5t-13 0.5h-103v-239h102q7 0 12 0.5t8 1.5t5.5 3.5t3.5 3t3 4.5t3 5v-78q-1 2 -3.5 5.5t-4 5t-5 3.5t-8.5 2.5
t-13 0.5h-103v-175q0 -19 23 -33h-101q23 14 23 33z" />
    <glyph glyph-name="bullet" unicode="&#x2022;" horiz-adv-x="500" 
d="M280 180q-75 0 -128 53t-53 127q0 75 53 128.5t128 53.5q74 0 127.5 -53.5t53.5 -128.5q0 -74 -53.5 -127t-127.5 -53z" />
    <glyph glyph-name="ellipsis" unicode="&#x2026;" horiz-adv-x="944" 
d="M119 0q-15 0 -25.5 10.5t-10.5 25.5q0 13 11 22.5t25 9.5q13 0 22.5 -9.5t9.5 -22.5q0 -14 -9.5 -25t-22.5 -11zM434 0q-15 0 -25.5 10.5t-10.5 25.5q0 13 11 22.5t25 9.5q13 0 22.5 -9.5t9.5 -22.5q0 -14 -9.5 -25t-22.5 -11zM749 0q-15 0 -25.5 10.5t-10.5 25.5
q0 13 11 22.5t25 9.5q13 0 22.5 -9.5t9.5 -22.5q0 -14 -9.5 -25t-22.5 -11z" />
    <glyph glyph-name="perthousand" unicode="&#x2030;" horiz-adv-x="1259" 
d="M188 459q0 -38 17.5 -66t52.5 -28q43 0 78 42.5t52 99.5t17 111q0 32 -19.5 56t-48.5 24q-40 0 -71 -28.5t-47 -70t-23.5 -78t-7.5 -62.5zM220 -5l473 740h32l-474 -740h-31zM528 126q0 -38 17.5 -66t52.5 -28q43 0 78 42.5t52 99.5t17 111q0 32 -19.5 56t-48.5 24
q-40 0 -71 -28.5t-47 -70t-23.5 -78t-7.5 -62.5zM264 328q-55 0 -88 38.5t-33 93.5q0 102 55 188.5t141 86.5q56 0 83.5 -35t27.5 -114q0 -92 -56 -175t-130 -83zM604 -5q-55 0 -88 38.5t-33 93.5q0 102 55 188.5t141 86.5q56 0 83.5 -35t27.5 -114q0 -92 -56 -175t-130 -83
zM974 -5q-55 0 -88 38.5t-33 93.5q0 102 55 188.5t141 86.5q56 0 83.5 -35t27.5 -114q0 -92 -56 -175t-130 -83zM898 126q0 -38 17.5 -66t52.5 -28q43 0 78 42.5t52 99.5t17 111q0 32 -19.5 56t-48.5 24q-40 0 -71 -28.5t-47 -70t-23.5 -78t-7.5 -62.5z" />
    <glyph glyph-name="guilsinglleft" unicode="&#x2039;" horiz-adv-x="241" 
d="M106 92l-47 187l111 167h50l-111 -174l47 -180h-50z" />
    <glyph glyph-name="guilsinglright" unicode="&#x203a;" horiz-adv-x="241" 
d="M23 92l111 174l-47 180h50l47 -187l-111 -167h-50z" />
    <glyph glyph-name="fraction" unicode="&#x2044;" horiz-adv-x="248" 
d="M-121 -15l483 760h32l-484 -760h-31z" />
    <glyph glyph-name="Euro" unicode="&#x20ac;" 
d="M461 334l-7 -30h-262q-2 -28 -2 -37q0 -110 41 -174.5t132 -64.5q106 0 211 120l-25 -113q-9 7 -19 7q-7 0 -29.5 -14t-60.5 -28.5t-82 -14.5q-108 0 -163 77.5t-55 202.5q0 13 2 39h-93l7 30h89q6 50 21 100h-94l7 30h97q38 113 123 197t195 84q39 0 68.5 -14.5t48 -29
t30.5 -14.5q9 0 25 9l-27 -126q-15 54 -51 93t-95 39q-91 0 -161.5 -70.5t-104.5 -167.5h263l-7 -30h-266q-14 -49 -21 -100h265z" />
    <glyph glyph-name="afii61289" unicode="&#x2113;" horiz-adv-x="523" 
d="M437 138l23 -19q-101 -128 -225 -128q-86 0 -116 59t-11 146q2 10 3 14q-15 -9 -45 -29.5t-37 -25.5l-11 30q13 9 34.5 23.5t38.5 26.5t31 23l70 305q16 69 42 119.5t55.5 76t57 36.5t55.5 11q62 0 84 -46t6 -116q-41 -179 -333 -403l-6 -26q-22 -96 7.5 -143t88.5 -47
q53 0 103.5 34t84.5 79zM235 571l-65 -282q122 101 193.5 183t90.5 166q31 133 -64 133q-42 0 -87 -49t-68 -151z" />
    <glyph glyph-name="trademark" unicode="&#x2122;" horiz-adv-x="611" 
d="M143 440v248h-73v42h190v-42h-74v-248h-43zM293 440v290h78l60 -228h2l59 228h80v-290h-43v262h-2l-68 -262h-53l-68 262h-2v-262h-43z" />
    <glyph glyph-name="Omega" unicode="&#x2126;" horiz-adv-x="830" 
d="M191 37l1 2q-59 57 -84.5 145t-0.5 199q37 160 158.5 260.5t263.5 100.5q143 0 212.5 -105t35.5 -253q-26 -115 -96 -206t-150 -141v-2h181l-8 -37h-255l6 27q92 47 170 140t107 215q8 44 9 89t-14.5 88t-40.5 76t-68 53t-98 20q-131 0 -234 -95.5t-135 -232.5
q-27 -116 8.5 -212t103.5 -141l-6 -27h-254l9 37h179z" />
    <glyph glyph-name="estimated" unicode="&#x212e;" horiz-adv-x="1027" 
d="M991 354h-684q-6 0 -6 -4v-207q0 -11 9 -24q110 -112 259 -112q80 0 150.5 33.5t121.5 92.5h61q-58 -68 -146 -107.5t-188 -39.5q-175 0 -298.5 111t-123.5 268t123.5 268.5t298.5 111.5t299 -111t124 -269v-11zM835 381v208q0 15 -10 25q-110 108 -256 108
q-148 0 -257 -111q-11 -11 -11 -26v-204q0 -6 6 -6h524q4 0 4 6z" />
    <glyph glyph-name="partialdiff" unicode="&#x2202;" horiz-adv-x="595" 
d="M220 727l-14 29q87 59 189 59q109 0 164 -103.5t11 -292.5q-27 -115 -77.5 -210t-129.5 -157.5t-170 -62.5q-51 0 -87 21t-51.5 55t-19.5 77t8 87q27 116 113.5 188.5t181.5 72.5q75 0 120 -40.5t55 -79.5h2q2 6 14 57q37 160 -8 256t-137 96q-85 0 -164 -52zM204 25h1
q88 0 166.5 83.5t121.5 206.5q-6 50 -48.5 94.5t-111.5 44.5q-78 0 -151 -64.5t-94 -156.5q-21 -90 10.5 -149t105.5 -59z" />
    <glyph glyph-name="Delta" unicode="&#x2206;" horiz-adv-x="727" 
d="M-22 0l9 40l466 715h49l136 -715l-9 -40h-651zM29 36h560l-86 462q-3 25 -18.5 101.5t-18.5 103.5h-5q-11 -21 -59.5 -95.5t-57.5 -89.5z" />
    <glyph glyph-name="product" unicode="&#x220f;" horiz-adv-x="881" 
d="M852 692h-132v-793h-43v793h-366v-793h-42v793h-132v39h715v-39z" />
    <glyph glyph-name="summation" unicode="&#x2211;" horiz-adv-x="727" 
d="M700 -101h-568v31l324 383l-308 388v30h536v-39h-470v-3l295 -372l-314 -373v-3h505v-42z" />
    <glyph glyph-name="minus" unicode="&#x2212;" horiz-adv-x="944" 
d="M218 247v43h507v-43h-507z" />
    <glyph glyph-name="uni2215" unicode="&#x2215;" horiz-adv-x="248" 
d="M-121 -15l483 760h32l-484 -760h-31z" />
    <glyph glyph-name="uni2219" unicode="&#x2219;" 
d="M336 331q-19 0 -31.5 13t-12.5 31q0 19 13 33t31 14q19 0 33 -14t14 -33q0 -18 -14 -31t-33 -13z" />
    <glyph glyph-name="radical" unicode="&#x221a;" horiz-adv-x="732" 
d="M730 864l-248 -1026h-47l-188 503l-84 -31l-13 31l127 48l162 -436q13 -42 17 -63h1q2 10 7.5 32.5t6.5 27.5l221 914h38z" />
    <glyph glyph-name="infinity" unicode="&#x221e;" horiz-adv-x="904" 
d="M846 305v-1q0 -72 -48.5 -118.5t-114.5 -46.5q-35 0 -70.5 19.5t-60.5 42.5t-75 74q-32 -35 -47.5 -50.5t-45 -40t-58.5 -35t-62 -10.5q-65 0 -112 47.5t-47 114.5q0 70 47.5 117.5t119.5 47.5q39 0 80 -23.5t65 -47t64 -68.5q35 38 49.5 53.5t44.5 40.5t58 35t60 10
q70 0 111.5 -45t41.5 -116zM270 174h2q27 0 56.5 15.5t44 27.5t47.5 45.5t37 37.5q-62 72 -92 95q-51 38 -103 38q-54 0 -86 -40t-31 -94q0 -53 34.5 -89t90.5 -36zM688 433h-1q-28 0 -58 -16t-48.5 -32.5t-46 -45t-34.5 -35.5l56 -56t42.5 -37.5t47 -29.5t42.5 -7
q54 0 87 38.5t33 88.5q0 62 -34 97t-86 35z" />
    <glyph glyph-name="integral" unicode="&#x222b;" horiz-adv-x="477" 
d="M465 870l-13 -31q-15 13 -42 13q-38 0 -57 -23q-44 -45 -44 -195q0 -80 7.5 -271t7.5 -271q0 -145 -52 -212q-32 -41 -88 -41q-39 0 -65 19l12 33q27 -15 54 -15q33 0 53 25q44 51 44 193q0 80 -7.5 273t-7.5 271q0 84 12.5 134t42.5 79q36 36 86 36q34 0 57 -17z" />
    <glyph glyph-name="approxequal" unicode="&#x2248;" horiz-adv-x="684" 
d="M603 444l23 -19q-53 -98 -139 -98q-7 0 -14 0.5t-12.5 1.5t-13 3t-12 3t-13.5 5t-12 5.5t-13.5 7t-13.5 7l-16 8t-16 8.5q-72 37 -111 37q-37 0 -63.5 -21.5t-52.5 -61.5l-24 18q54 98 148 98q19 0 39.5 -6t33 -11.5t32 -16.5t25.5 -14q5 -3 18.5 -9.5t19 -9.5t16.5 -7.5
t18.5 -6.5t18.5 -3.5t22 -1.5q35 0 61 20t51 64zM603 266l23 -19q-53 -97 -139 -97q-7 0 -14 0.5t-12.5 1.5t-13 3t-12 3t-13.5 5t-12 5.5t-13.5 7t-13.5 7l-16 8t-16 8.5q-68 37 -110 37q-38 0 -64 -22t-53 -62l-24 19q54 99 148 99q20 0 40 -5.5t33 -12t31.5 -17
t25.5 -13.5q4 -2 18 -9.5t19 -10t17 -7.5t19.5 -6.5t18.5 -3.5t22 -2q35 0 60.5 19.5t50.5 63.5z" />
    <glyph glyph-name="notequal" unicode="&#x2260;" horiz-adv-x="707" 
d="M512 536l-56 -118h193v-34h-209l-82 -172h291v-34h-307l-64 -136l-29 15l58 121h-182v34h198l82 172h-280v34h295l63 133z" />
    <glyph glyph-name="lessequal" unicode="&#x2264;" horiz-adv-x="725" 
d="M662 89l-513 249v35l513 249v-43l-471 -221v-2l471 -224v-43zM665 7h-524v35h524v-35z" />
    <glyph glyph-name="greaterequal" unicode="&#x2265;" horiz-adv-x="725" 
d="M149 622l514 -249v-35l-514 -249v43l471 222v3l-471 222v43zM665 7h-523v35h523v-35z" />
    <glyph glyph-name="lozenge" unicode="&#x25ca;" horiz-adv-x="733" 
d="M669 365l-229 -415h-36l-229 415l229 416h37zM626 364l-183 330q-13 25 -21 48h-2q-14 -34 -22 -48l-180 -327l183 -331q18 -33 20 -47h4q5 19 20 47z" />
    </font>
</defs>
</svg>
