<?xml version="1.0" standalone="no"?>
<!DOCTYPE svg PUBLIC "-//W3C//DTD SVG 1.1//EN" "http://www.w3.org/Graphics/SVG/1.1/DTD/svg11.dtd" >
<svg xmlns="http://www.w3.org/2000/svg" xmlns:xlink="http://www.w3.org/1999/xlink" version="1.1">
<metadata>
Created by FontForge 20161003 at Sun Feb 12 10:34:23 2017
 By www-data
Copyright (c) 1990, 2001 Adobe Systems Incorporated.  All Rights Reserved.
</metadata>
<defs>
<font id="ITCSymbolStdBoldItalic" horiz-adv-x="667" >
  <font-face 
    font-family="ITCSymbolStdBoldItalic"
    font-weight="700"
    font-style="italic"
    font-stretch="normal"
    units-per-em="1000"
    panose-1="2 14 7 3 3 5 6 9 4 4"
    ascent="730"
    descent="-270"
    x-height="530"
    cap-height="730"
    bbox="-113 -234 1301 1014"
    underline-thickness="50"
    underline-position="-140"
    slope="-13"
    unicode-range="U+0020-FB02"
  />
<missing-glyph horiz-adv-x="600" 
d="M100 0v700h500v-700h-500zM350 395l170 255h-340zM380 350l170 -255v510zM180 50h340l-170 255zM150 605v-510l170 255z" />
    <glyph glyph-name="fi" unicode="fi" horiz-adv-x="611" 
d="M548 610q-34 0 -56 15.5t-22 43.5q0 33 27.5 54.5t63.5 21.5q31 0 55 -17t24 -44q0 -34 -26 -54t-66 -20zM48 84l78 356h-69l19 90h69q8 39 14.5 62t22 56t35.5 51t55 32t81 14q63 0 92 -28l-23 -106q-29 44 -58 44q-10 0 -19 -2.5t-16 -6t-13.5 -11t-10.5 -12.5
t-8.5 -15.5t-7 -16t-5.5 -17.5t-3.5 -15.5t-3 -15.5t-2.5 -13h316l-96 -446q-8 -36 -8 -52q0 -15 17 -32h-186q2 3 13 10.5t18.5 23t15.5 50.5l63 293q6 30 6 42q0 15 -12.5 18t-55.5 3h-110l-78 -356q-8 -34 -8 -52q0 -15 17 -32h-186q2 3 13 11t18.5 23.5t15.5 49.5z" />
    <glyph glyph-name="fl" unicode="fl" horiz-adv-x="611" 
d="M367 84l121 562q9 38 9 52q0 15 -17 32h157l-140 -646q-8 -36 -8 -52q0 -15 17 -32h-186q2 3 13 10.5t18.5 23t15.5 50.5zM48 84l78 356h-69l19 90h69q8 38 14 61.5t21.5 56.5t36 51.5t55.5 32t81 13.5q63 0 92 -28l-23 -106q-29 44 -58 44q-10 0 -19 -2.5t-16 -6
t-13.5 -11t-10.5 -12.5t-8.5 -15.5t-7 -16t-5.5 -17.5t-3.5 -15.5t-3 -15.5t-2.5 -13h110l-19 -90h-110l-78 -356q-8 -34 -8 -52q0 -15 17 -32h-186q2 3 13 11t18.5 23.5t15.5 49.5z" />
    <glyph glyph-name=".notdef" horiz-adv-x="600" 
d="M100 0v700h500v-700h-500zM350 395l170 255h-340zM380 350l170 -255v510zM180 50h340l-170 255zM150 605v-510l170 255z" />
    <glyph glyph-name=".null" horiz-adv-x="0" 
 />
    <glyph glyph-name="nonmarkingreturn" horiz-adv-x="333" 
 />
    <glyph glyph-name="space" unicode=" " horiz-adv-x="315" 
 />
    <glyph glyph-name="exclam" unicode="!" horiz-adv-x="333" 
d="M109 -15q-27 0 -46 21t-19 48q0 33 22.5 57t57.5 24q28 0 49 -20.5t21 -47.5q0 -39 -23 -60.5t-62 -21.5zM104 221l78 446q3 17 3 29q0 11 -13 34h195q-2 -2 -10.5 -11t-14.5 -21t-13 -35l-130 -442h-95z" />
    <glyph glyph-name="quotedbl" unicode="&#x22;" horiz-adv-x="444" 
d="M118 438l-27 292h150l-28 -292h-95zM318 438l-27 292h150l-28 -292h-95z" />
    <glyph glyph-name="numbersign" unicode="#" 
d="M60 0l74 202h-132l27 74h133l66 177h-133l27 74h134l77 203h79l-76 -203h167l76 203h78l-76 -203h133l-27 -74h-133l-66 -177h133l-27 -74h-133l-75 -202h-80l75 202h-167l-75 -202h-79zM308 453l-66 -177h167l66 177h-167z" />
    <glyph glyph-name="dollar" unicode="$" 
d="M240 -73l18 83q-39 2 -83.5 19t-75.5 33.5t-39 16.5q-12 0 -34 -24l44 196q29 -67 86.5 -106.5t123.5 -39.5l45 202q-7 3 -34.5 14.5t-37.5 16t-33.5 17t-33.5 20.5t-26.5 22.5t-23.5 28.5t-13 33t-6 40q0 50 22 89.5t54.5 62t75 37t78.5 19.5t70 5l13 56h43l-13 -58
q32 -5 69.5 -18.5t63 -24.5t30.5 -11q12 0 29 17l-40 -185q-27 58 -59 86.5t-114 45.5l-42 -190q4 -1 28 -10.5t30.5 -12t28 -12t29 -14.5t25 -16t24.5 -19.5t18.5 -22t16 -26.5t8.5 -30t4 -36q0 -53 -27.5 -97t-69.5 -70t-87 -40.5t-84 -14.5q-7 0 -20 0.5t-19 0.5l-18 -83
h-44zM357 445l40 177q-23 0 -50 -6.5t-53.5 -28.5t-26.5 -55q0 -11 2.5 -21t9.5 -18t11 -13t16.5 -11.5t16 -8.5t18.5 -8.5t16 -6.5zM366 291l-42 -186q94 13 121 51q14 19 14 45q0 13 -5 25t-10.5 19t-17.5 15.5t-18.5 11.5t-22 10t-19.5 9z" />
    <glyph glyph-name="percent" unicode="%" horiz-adv-x="1000" 
d="M223 467q0 -25 14 -43.5t36 -18.5q49 0 78.5 60.5t29.5 128.5q0 22 -13.5 39t-33.5 17q-29 0 -52 -21.5t-35 -53t-18 -59.5t-6 -49zM245 -5l507 740h58l-507 -740h-58zM662 142q0 -25 14 -43.5t36 -18.5q49 0 78.5 60.5t29.5 128.5q0 22 -13.5 39t-33.5 17
q-29 0 -52 -21.5t-35 -53t-18 -59.5t-6 -49zM272 320q-77 0 -115.5 44t-38.5 115q0 101 63 178.5t158 77.5q71 0 109 -41t38 -116q0 -99 -60 -178.5t-154 -79.5zM711 -5q-77 0 -115.5 44t-38.5 115q0 101 63 178.5t158 77.5q71 0 109 -41t38 -116q0 -99 -60 -178.5
t-154 -79.5z" />
    <glyph glyph-name="ampersand" unicode="&#x26;" horiz-adv-x="870" 
d="M840 0h-195q-12 6 -26 16.5t-36 28.5l-33 27q-44 -30 -65 -42.5t-73.5 -28.5t-112.5 -16q-116 0 -195.5 66t-79.5 169q0 52 16.5 93.5t39 66t58 44t61 28t60.5 17.5q-9 52 -9 69q0 92 65.5 149.5t165.5 57.5q47 0 83.5 -12.5t56.5 -25.5t25 -13q6 0 14.5 7.5t12.5 8.5
l-33 -154q-44 84 -134 84q-54 0 -86.5 -35.5t-32.5 -83.5q0 -17 3 -34t11 -35.5t14 -32.5t20 -34t21 -30.5t25.5 -32.5t24.5 -28.5t26.5 -29.5t23.5 -26q7 12 17 30.5t13.5 24t9.5 18t7.5 15.5t5.5 13t4 13t2.5 13.5t3 16.5t2.5 21h-97l18 90h289l-18 -90h-73
q-19 -84 -37.5 -126.5t-66.5 -117.5q69 -63 104.5 -90.5t99.5 -68.5zM154 227q0 -56 47 -96.5t111 -40.5q80 0 155 54q-33 34 -49.5 52.5t-30 32.5t-24.5 32t-16.5 26.5t-23.5 42t-30 53.5q-26 -8 -40.5 -14.5t-42 -24.5t-42 -47.5t-14.5 -69.5z" />
    <glyph glyph-name="quotesingle" unicode="'" horiz-adv-x="241" 
d="M132 438l-27 292h150l-28 -292h-95z" />
    <glyph glyph-name="parenleft" unicode="(" horiz-adv-x="333" 
d="M238 -95l-18 -85q-36 8 -60.5 19t-52.5 34t-42.5 65t-14.5 101q0 64 40 250.5t74 282.5q18 52 45.5 87.5t61.5 53.5t69 25t78 7l-19 -85q-22 0 -53 -18.5t-45 -40.5q-34 -50 -85 -279.5t-51 -296.5q0 -22 3.5 -39.5t6 -27t13.5 -20t13.5 -12.5t19 -11t17.5 -10z" />
    <glyph glyph-name="parenright" unicode=")" horiz-adv-x="333" 
d="M-70 -181l19 85q22 0 53 18.5t45 40.5q34 50 85 279.5t51 296.5q0 22 -3.5 39.5t-6 27t-13.5 20t-13.5 12.5t-19 11t-17.5 10l18 85q36 -8 60.5 -19t52.5 -34t42.5 -65t14.5 -101q0 -64 -40 -250.5t-74 -282.5q-18 -52 -45.5 -87.5t-61.5 -53.5t-69 -25t-78 -7z" />
    <glyph glyph-name="asterisk" unicode="*" 
d="M345 430l4 83l-79 -47q-9 -5 -13.5 -10t-6 -7.5t-2.5 -8.5t-2 -8q-40 44 -47 85q14 -4 20 -4q7 0 19 6l82 42l-82 43q-12 6 -19 6q-4 0 -10.5 -2t-9.5 -2q12 48 47 85q0 -1 0.5 -5t1 -5.5t2 -5t4 -6t6.5 -6t10 -6.5l79 -47l-4 83q0 17 -3.5 26.5t-6 11t-12.5 6.5
q34 8 53 8t53 -8q-10 -5 -12.5 -6.5t-6 -11t-3.5 -26.5l-4 -83l79 47q6 3 10 6.5t6.5 6t4 6t2 5t1 5.5t0.5 5q35 -37 47 -85q-3 0 -9.5 2t-10.5 2q-7 0 -19 -6l-82 -43l82 -42q12 -6 19 -6q6 0 20 4q-7 -41 -47 -85q-1 2 -1.5 6.5t-1.5 6.5t-3 5.5t-6.5 7.5t-11.5 8l-79 47
l4 -83q0 -17 3.5 -26.5t6 -11t12.5 -6.5q-27 -8 -53 -8q-27 0 -53 8q10 5 12.5 6.5t6 11t3.5 26.5z" />
    <glyph glyph-name="plus" unicode="+" horiz-adv-x="1000" 
d="M474 0v223h-207v90h207v224h90v-224h210v-90h-210v-223h-90z" />
    <glyph glyph-name="comma" unicode="," horiz-adv-x="315" 
d="M19 -165l-27 57q59 33 72.5 45t38.5 58q-45 3 -59 27q-9 16 -9 37q0 31 22.5 53.5t54.5 22.5q33 0 55 -27t22 -63q0 -43 -17 -80t-45.5 -62t-54 -40.5t-53.5 -27.5z" />
    <glyph glyph-name="hyphen" unicode="-" horiz-adv-x="333" 
d="M30 219l33 149q17 -27 38 -27h156q33 0 62 23l-33 -149q-2 2 -9 10.5t-14.5 12t-20.5 3.5h-159q-13 0 -23 -4t-18.5 -10t-11.5 -8z" />
    <glyph glyph-name="period" unicode="." horiz-adv-x="315" 
d="M118 -15q-27 0 -47 18t-20 44q0 35 24 61.5t58 26.5q28 0 48 -21t20 -49q0 -33 -25 -56.5t-58 -23.5z" />
    <glyph glyph-name="slash" unicode="/" horiz-adv-x="333" 
d="M-35 -15l384 745h67l-384 -745h-67z" />
    <glyph glyph-name="zero" unicode="0" 
d="M294 -15q-104 0 -169.5 78t-65.5 196q0 56 14.5 120.5t46 129.5t74 117.5t105.5 85.5t134 33q106 0 163 -77t57 -195q0 -115 -45 -226t-129.5 -186.5t-184.5 -75.5zM189 260q0 -175 108 -175q48 0 92 44.5t72.5 109.5t45 134t16.5 121q0 66 -26.5 108.5t-75.5 42.5
q-57 0 -113 -71t-87.5 -160t-31.5 -154z" />
    <glyph glyph-name="one" unicode="1" 
d="M237 84l109 505q-54 -28 -101 -29l21 98q82 20 123 43q22 13 42 29h85l-139 -646q-8 -34 -8 -52q0 -15 17 -32h-196q2 3 13 11t18.5 23.5t15.5 49.5z" />
    <glyph glyph-name="two" unicode="2" 
d="M9 0l21 95q73 35 149.5 86t145 111t112.5 126.5t44 122.5q0 43 -32 73.5t-77 30.5q-19 0 -38.5 -4t-34.5 -9t-33.5 -16t-29 -17.5t-28.5 -22.5t-24 -21.5t-23.5 -22.5t-20.5 -20l46 205q2 -1 7.5 -12t13.5 -11q11 0 34.5 13t65 25.5t95.5 12.5q96 0 157.5 -55t61.5 -140
q0 -67 -30.5 -131.5t-74.5 -112t-102.5 -91t-105.5 -69t-92 -44.5v-2h253q47 0 86 39l-31 -139h-515z" />
    <glyph glyph-name="three" unicode="3" 
d="M40 87l35 159q4 -8 13.5 -31.5t15.5 -36.5t20.5 -33.5t31 -31.5t44 -19.5t61.5 -8.5q73 0 128 45t55 113q0 47 -38 79t-88 32q-35 0 -87 -13l-31 80l284 207v2h-226q-27 0 -41.5 -5t-28.5 -18.5t-20 -17.5l33 141h466l-20 -97l-289 -210l2 -2q33 3 36 3q83 0 135.5 -48.5
t52.5 -133.5q0 -113 -86 -185t-226 -72q-20 0 -39 2t-33.5 4.5t-30 8t-26 9.5t-23.5 12.5t-19.5 12.5t-18 14t-15 13t-14.5 13.5t-13 12.5z" />
    <glyph glyph-name="four" unicode="4" 
d="M369 84l21 101h-350l18 85q67 101 151 208.5t131 164.5t47 62q0 6 -1.5 10t-5.5 8.5t-5 6.5h211q-274 -322 -367 -445h195l28 120l151 49l-39 -169h78l-22 -100h-80l-21 -101q-8 -34 -8 -52q0 -15 17 -32h-197q2 3 13.5 10.5t19 23.5t15.5 50z" />
    <glyph glyph-name="five" unicode="5" 
d="M38 77l33 150q7 -10 22 -34.5t27 -39.5t31 -32.5t46 -26.5t61 -9q80 0 137.5 49.5t57.5 118.5q0 68 -47.5 100t-126.5 32q-66 0 -162 -46l86 391h460l-30 -140q-13 28 -30 34t-78 6h-206l-39 -176q53 16 123 16q76 0 133 -58t57 -144q0 -124 -91 -203.5t-231 -79.5
q-138 0 -233 92z" />
    <glyph glyph-name="six" unicode="6" 
d="M687 706l-39 -177q-18 44 -59 80t-105 36q-48 0 -89.5 -19.5t-67.5 -47.5t-48 -66.5t-32.5 -67t-18.5 -59.5l2 -2q46 46 77 61q44 22 104 22q90 0 149 -59t59 -156q0 -106 -81.5 -186t-199.5 -80q-129 0 -198.5 78.5t-69.5 230.5q0 76 30.5 155.5t82.5 145.5t130 108
t165 42q48 0 89 -13t65 -26t31 -13q6 0 14 6t10 7zM210 212q0 -53 34 -92t84 -39q55 0 103 48t48 110q0 55 -29 91t-90 36q-67 0 -108.5 -45t-41.5 -109z" />
    <glyph glyph-name="seven" unicode="7" 
d="M313 0h-182q32 81 58 139t65 126.5t55.5 96.5t81 127.5t90.5 140.5h-255q-29 0 -44.5 -8t-38.5 -31l30 139h505l-16 -76q-103 -154 -233 -370.5t-130 -261.5q0 -8 14 -22z" />
    <glyph glyph-name="eight" unicode="8" 
d="M301 -15q-123 0 -195.5 51.5t-72.5 146.5q0 42 15.5 77t40 58.5t54.5 40t58.5 24t53.5 7.5v2q-22 7 -36.5 14t-35 22.5t-31 41.5t-10.5 62q0 91 82.5 152t206.5 61q103 0 169.5 -43.5t66.5 -115.5q0 -96 -57.5 -144.5t-130.5 -53.5v-2q143 -40 143 -164
q0 -102 -89 -169.5t-232 -67.5zM173 198q0 -52 39 -82.5t105 -30.5q69 0 117 41t48 103q0 49 -37 78.5t-97 29.5q-70 0 -122.5 -35.5t-52.5 -103.5zM282 523q0 -39 29.5 -62.5t79.5 -23.5q52 0 94 35.5t42 93.5q0 38 -29 58.5t-79 20.5q-62 0 -99.5 -35.5t-37.5 -86.5z" />
    <glyph glyph-name="nine" unicode="9" 
d="M35 50l33 151q18 -44 59 -80t105 -36q48 0 89.5 19.5t67.5 47.5t48 66.5t32.5 67t18.5 59.5l-2 2q-46 -46 -77 -61q-44 -22 -104 -22q-90 0 -149 59t-59 156q0 106 81.5 186t199.5 80q129 0 198.5 -78.5t69.5 -230.5q0 -76 -30.5 -155.5t-82.5 -145.5t-130 -108t-165 -42
q-51 0 -94 11.5t-62.5 22.5t-46.5 31zM237 491q0 -55 29 -91t90 -36q67 0 108.5 45t41.5 109q0 53 -34 92t-84 39q-55 0 -103 -48t-48 -110z" />
    <glyph glyph-name="colon" unicode=":" horiz-adv-x="315" 
d="M108 -15q-27 0 -47 18t-20 44q0 35 24 61.5t58 26.5q28 0 48 -21t20 -49q0 -33 -25 -56.5t-58 -23.5zM174 294q-27 0 -47 18t-20 44q0 35 24 61.5t58 26.5q28 0 48 -21t20 -49q0 -33 -25 -56.5t-58 -23.5z" />
    <glyph glyph-name="semicolon" unicode=";" horiz-adv-x="315" 
d="M19 -165l-27 57q59 33 72.5 45t38.5 58q-45 3 -59 27q-9 16 -9 37q0 31 22.5 53.5t54.5 22.5q33 0 55 -27t22 -63q0 -43 -17 -80t-45.5 -62t-54 -40.5t-53.5 -27.5zM167 294q-27 0 -47 18t-20 44q0 35 24 61.5t58 26.5q28 0 48 -21t20 -49q0 -33 -25 -56.5t-58 -23.5z
" />
    <glyph glyph-name="less" unicode="&#x3c;" horiz-adv-x="1000" 
d="M743 27l-486 215v54l486 216v-77l-387 -166l387 -165v-77z" />
    <glyph glyph-name="equal" unicode="=" horiz-adv-x="1000" 
d="M267 133v90h507v-90h-507zM267 313v90h507v-90h-507z" />
    <glyph glyph-name="greater" unicode="&#x3e;" horiz-adv-x="1000" 
d="M257 27v77l387 165l-387 166v77l486 -216v-54z" />
    <glyph glyph-name="question" unicode="?" horiz-adv-x="500" 
d="M266 214h-115q16 74 46.5 124.5t61 74.5t59.5 42.5t47 42.5t18 61q0 38 -31 62t-72 24q-39 0 -74.5 -13.5t-55.5 -29.5t-42 -35.5t-29 -24.5l40 181q2 -2 5 -6t5.5 -6.5t6 -5t6.5 -2.5q13 0 34.5 10.5t55 21t76.5 10.5q96 0 155.5 -49t59.5 -127q0 -44 -13 -77.5
t-37.5 -57.5t-50 -42.5t-61.5 -44.5t-61 -51q-6 -6 -10.5 -13t-8.5 -17t-5.5 -16t-5 -19t-4.5 -17zM166 -15q-27 0 -46 21t-19 48q0 33 22.5 57t57.5 24q28 0 49 -20.5t21 -47.5q0 -39 -23 -60.5t-62 -21.5z" />
    <glyph glyph-name="at" unicode="@" horiz-adv-x="1000" 
d="M824 88l26 -23q-32 -36 -122 -80t-201 -44q-179 0 -295.5 92.5t-116.5 238.5q0 178 134 312t314 134q154 0 258 -91t104 -233q0 -131 -86.5 -225.5t-194.5 -94.5q-70 0 -73 71q-56 -65 -130 -65q-57 0 -94.5 37.5t-37.5 105.5q0 72 37 148t97.5 127.5t123.5 51.5
q29 0 50.5 -8t35.5 -23t19 -22t12 -21l22 54h86l-83 -207q-61 -149 -61 -170q0 -27 30 -27q65 0 132.5 76t67.5 192q0 125 -90.5 199t-220.5 74q-95 0 -184.5 -57t-144.5 -149t-55 -188q0 -125 95 -206t253 -81q171 0 289 99q2 1 2.5 2t1.5 1zM388 188q0 -67 70 -67
q10 0 19.5 2t18 6t15 8t13.5 11l11.5 11.5t10.5 13t8 12t7 12t6 9.5q38 61 61 136.5t23 104.5q0 25 -16.5 44.5t-45.5 19.5q-45 0 -93.5 -61.5t-78 -137t-29.5 -124.5z" />
    <glyph glyph-name="A" unicode="A" horiz-adv-x="722" 
d="M17 101l339 569q13 23 13 29t-3.5 11t-9.5 11.5t-8 8.5h191l99 -660q4 -28 11 -42t15 -20t9 -8h-208q0 1 13.5 12t13.5 28q0 19 -1 28l-23 143h-265l-80 -141q-18 -32 -18 -45q0 -6 6 -14.5t7 -10.5h-185q1 1 19.5 16t31 32t33.5 53zM255 301h202l-37 289h-2z" />
    <glyph glyph-name="B" unicode="B" horiz-adv-x="685" 
d="M198 105h110q31 0 61.5 6.5t60.5 21t48.5 43t18.5 66.5q0 24 -11 41t-25 25.5t-38.5 13t-38 5t-36.5 0.5h-102zM269 432h82q65 0 116 29.5t51 88.5q0 22 -8 36.5t-18.5 22t-33.5 11.5t-39 4.5t-49 0.5h-59zM44 84l123 562q8 45 8 52q0 15 -17 32h248q35 0 54 -0.5
t51 -3.5t50.5 -9t41.5 -17.5t35.5 -28t21 -42t8.5 -58.5q0 -46 -18 -82.5t-47.5 -58t-60.5 -33t-63 -14.5v-2q23 -1 43.5 -4.5t44 -13.5t40.5 -25.5t28.5 -41t11.5 -59.5q0 -237 -383 -237h-267q2 3 13 11t18.5 23.5t15.5 49.5z" />
    <glyph glyph-name="C" unicode="C" horiz-adv-x="611" 
d="M566 196l-39 -179q-15 15 -22 15q-11 0 -30.5 -12t-55 -23.5t-83.5 -11.5q-120 0 -198 86.5t-78 220.5q0 82 30 163.5t81 145.5t126.5 104t159.5 40q38 0 76 -12.5t64 -25t35 -12.5q5 0 14 8t13 8l-43 -195q-3 5 -11 24.5t-17 33.5t-23.5 31t-39 26t-55.5 9
q-71 0 -132 -54.5t-94.5 -136.5t-33.5 -165q0 -81 40 -137.5t116 -56.5q27 0 53 7t50.5 23t37.5 25t36 30z" />
    <glyph glyph-name="D" unicode="D" horiz-adv-x="741" 
d="M194 105h37q158 0 255.5 90.5t97.5 242.5q0 47 -12 81t-30.5 53.5t-48.5 31.5t-59 16t-69 5h-57zM39 84l123 562q8 45 8 52q0 15 -17 32h196q59 0 107 -5t102 -22.5t90.5 -47.5t61 -83.5t24.5 -126.5q0 -136 -70.5 -239t-184 -154.5t-248.5 -51.5h-239q2 3 13 11
t18.5 23.5t15.5 49.5z" />
    <glyph glyph-name="E" unicode="E" horiz-adv-x="593" 
d="M45 84l123 562q8 45 8 52q0 15 -17 32h490l-31 -140q-1 1 -5.5 8t-6 9t-7.5 6.5t-12 6.5t-16.5 3.5t-23.5 1.5h-234l-43 -196h189h17.5h15.5t12.5 0.5t13 2.5t12 5.5t15 9t16.5 13.5l-38 -167q-3 3 -11 13.5t-20.5 14t-42.5 3.5h-202l-49 -219h248q22 0 38 5t24 10.5
t24 19.5l-32 -140h-502q2 3 13 11t18.5 23.5t15.5 49.5z" />
    <glyph glyph-name="F" unicode="F" horiz-adv-x="556" 
d="M46 84l122 562q8 45 8 52q0 15 -17 32h475l-31 -140q-1 1 -5.5 8t-6 9t-7.5 6.5t-12 6.5t-16.5 3.5t-23.5 1.5h-219l-45 -206h173h17.5h15.5t12.5 0.5t13 2.5t12 5.5t15 9t16.5 13.5l-38 -167q-3 3 -11 13.5t-20.5 14t-42.5 3.5h-186l-50 -230q-7 -40 -7 -52
q0 -15 17 -32h-206q2 3 13 11t18.5 23.5t15.5 49.5z" />
    <glyph glyph-name="G" unicode="G" horiz-adv-x="722" 
d="M659 243l-42 -181q-37 -23 -55 -33.5t-75.5 -27t-120.5 -16.5q-139 0 -226 87t-87 228q0 114 55.5 216.5t153 165.5t210.5 63q66 0 117 -17t78.5 -34t37.5 -17q7 0 16 8t13 9l-48 -215q-1 2 -9 21.5t-14.5 33.5t-22.5 35.5t-34.5 35.5t-48 24.5t-64.5 10.5
q-82 0 -150 -52t-104 -130t-36 -160q0 -88 46 -148t134 -60q59 0 98 27l28 126q8 45 8 52q0 15 -17 32h206q-2 -3 -13 -11t-18.5 -23.5t-15.5 -49.5z" />
    <glyph glyph-name="H" unicode="H" horiz-adv-x="741" 
d="M46 84l123 562q8 45 8 52q0 15 -17 32h206q-2 -3 -13.5 -10.5t-19 -23.5t-14.5 -50l-47 -214h275l47 214q8 34 8 52q0 15 -17 32h206q-2 -3 -13 -11t-18.5 -23.5t-15.5 -49.5l-123 -562q-8 -45 -8 -52q0 -15 17 -32h-206q2 3 13.5 10.5t19 23.5t14.5 50l53 243h-275
l-53 -243q-8 -34 -8 -52q0 -15 17 -32h-206q2 3 13 11t18.5 23.5t15.5 49.5z" />
    <glyph glyph-name="I" unicode="I" horiz-adv-x="315" 
d="M46 84l123 562q8 45 8 52q0 15 -17 32h206q-2 -3 -13.5 -10.5t-19 -23.5t-14.5 -50l-123 -562q-8 -34 -8 -52q0 -15 17 -32h-206q2 3 13 11t18.5 23.5t15.5 49.5z" />
    <glyph glyph-name="J" unicode="J" horiz-adv-x="500" 
d="M-30 54l33 159q4 -7 11 -26.5t14.5 -33t21 -29t36.5 -23.5t55 -8q22 0 40.5 6t31.5 14t24.5 23.5t17.5 26t13 30.5t9.5 29t6.5 29t5 23l82 372q8 45 8 52q0 15 -17 32h206q-2 -3 -13.5 -10.5t-19 -23.5t-14.5 -50l-82 -374q-11 -49 -22 -84t-33 -76t-50 -66.5t-73.5 -43
t-103.5 -17.5q-37 0 -66.5 5.5t-53.5 18.5t-35 20.5t-32 24.5z" />
    <glyph glyph-name="K" unicode="K" horiz-adv-x="704" 
d="M49 84l123 562q8 45 8 52q0 15 -17 32h206q-2 -3 -13.5 -10.5t-19 -23.5t-14.5 -50l-49 -219l2 -2l283 243q26 17 26 38q0 11 -7 17t-7 7h227q-8 -7 -33 -23.5t-37 -27.5l-251 -224l144 -387q9 -24 18.5 -37t20 -21t12.5 -10h-181l-133 369l-118 -100l-40 -185
q-8 -34 -8 -52q0 -15 17 -32h-206q2 3 13 11t18.5 23.5t15.5 49.5z" />
    <glyph glyph-name="L" unicode="L" horiz-adv-x="537" 
d="M43 84l123 562q8 45 8 52q0 15 -17 32h206q-2 -3 -13.5 -10.5t-19 -23.5t-14.5 -50l-119 -541h215q17 0 32.5 5.5t24 11.5t21.5 16.5t17 13.5l-33 -152h-478q2 3 13 11t18.5 23.5t15.5 49.5z" />
    <glyph glyph-name="M" unicode="M" horiz-adv-x="1000" 
d="M259 573l-106 -489q-8 -34 -8 -52q0 -15 17 -32h-161q2 3 13 11t18.5 23.5t15.5 49.5l123 562q8 45 8 52q0 15 -17 32h207l114 -524l354 524h209q-2 -3 -13.5 -10.5t-19 -23.5t-14.5 -50l-123 -562q-8 -34 -8 -52q0 -15 17 -32h-206q2 3 13 11t18.5 23.5t15.5 49.5
l106 485l-2 2l-375 -571h-70l-124 573h-2z" />
    <glyph glyph-name="N" unicode="N" horiz-adv-x="778" 
d="M43 84l123 562q8 45 8 52q0 15 -17 32h190l230 -518h2l93 434q8 34 8 52q0 15 -17 32h161q-2 -3 -13 -11t-18.5 -23.5t-15.5 -49.5l-140 -646h-130l-251 574h-2l-106 -490q-8 -34 -8 -52q0 -15 17 -32h-161q2 3 13 11t18.5 23.5t15.5 49.5z" />
    <glyph glyph-name="O" unicode="O" horiz-adv-x="815" 
d="M379 -15q-152 0 -237 83t-85 230q0 55 15 114t49.5 119t83.5 107t124.5 77t165.5 30q140 0 224 -83.5t84 -217.5q0 -64 -15.5 -127t-49.5 -123.5t-82.5 -106.5t-120 -74t-156.5 -28zM207 274q0 -81 45.5 -132.5t127.5 -51.5q77 0 141.5 54t98 133.5t33.5 162.5
q0 95 -43.5 147.5t-122.5 52.5q-60 0 -109.5 -25.5t-80 -64.5t-52 -89.5t-30 -97t-8.5 -89.5z" />
    <glyph glyph-name="P" unicode="P" horiz-adv-x="648" 
d="M33 84l123 562q8 45 8 52q0 15 -17 32h249q45 0 82 -4t75 -17t63.5 -34.5t41.5 -58.5t16 -86q0 -74 -33 -127.5t-87.5 -80t-108.5 -37.5t-113 -11h-108l-41 -190q-8 -34 -8 -52q0 -15 17 -32h-206q2 3 13 11t18.5 23.5t15.5 49.5zM247 379h97q80 0 130 37t50 93
q0 64 -34.5 90t-108.5 26h-80z" />
    <glyph glyph-name="Q" unicode="Q" horiz-adv-x="815" 
d="M743 0h-262q-23 -8 -41 -10q-27 -5 -61 -5q-152 0 -237 83t-85 230q0 55 15 114t49.5 119t83.5 107t124.5 77t165.5 30q140 0 224 -83.5t84 -217.5q0 -96 -46.5 -196t-128.5 -151v-2h79q26 0 63 30zM207 274q0 -81 45.5 -132.5t127.5 -51.5q77 0 141.5 54t98 133.5
t33.5 162.5q0 95 -43.5 147.5t-122.5 52.5q-60 0 -109.5 -25.5t-80 -64.5t-52 -89.5t-30 -97t-8.5 -89.5z" />
    <glyph glyph-name="R" unicode="R" horiz-adv-x="704" 
d="M43 84l123 562q8 45 8 52q0 15 -17 32h249q51 0 88 -3.5t78 -15.5t67 -33t43 -58.5t17 -89.5q0 -49 -21.5 -91t-55 -68.5t-70 -42.5t-70.5 -20l106 -238q7 -16 14.5 -27.5t11.5 -16t13 -13t14 -13.5h-183l-115 294h-105l-45 -210q-8 -34 -8 -52q0 -15 17 -32h-206
q2 3 13 11t18.5 23.5t15.5 49.5zM261 399h98q87 0 138.5 32t51.5 88q0 60 -38 83t-120 23h-80z" />
    <glyph glyph-name="S" unicode="S" horiz-adv-x="611" 
d="M4 32l44 206q29 -56 49 -78q63 -70 182 -70q61 0 102.5 31t41.5 73q0 28 -24 51t-60 38t-78.5 35t-78.5 42t-60 60t-24 87q0 103 79 170.5t204 67.5q52 0 97 -14t74.5 -28t45.5 -14q6 0 17 9t16 9l-42 -189q-1 1 -8.5 13t-11.5 18.5t-15 19.5t-20.5 21t-25 18.5
t-31.5 16.5t-38 10.5t-46 4.5q-57 0 -101 -24.5t-44 -71.5q0 -37 33.5 -64.5t81 -48t95.5 -44.5t81.5 -67t33.5 -103q0 -105 -87.5 -168.5t-205.5 -63.5q-58 0 -101 10t-62 22.5t-39.5 22.5t-39.5 10q-8 0 -20 -8.5t-14 -9.5z" />
    <glyph glyph-name="T" unicode="T" horiz-adv-x="593" 
d="M183 84l117 541h-130q-9 0 -17 -1t-13.5 -2t-12 -4t-10 -4.5t-9.5 -6.5t-8 -6.5t-8.5 -7.5t-8.5 -8l31 145h574l-31 -145l-4.5 9t-5 9t-5 7t-8 6.5t-11.5 4t-17 3.5t-23 1h-133l-117 -541q-8 -34 -8 -52q0 -15 17 -32h-206q2 3 13 11t18.5 23.5t15.5 49.5z" />
    <glyph glyph-name="U" unicode="U" horiz-adv-x="722" 
d="M77 294l79 352q8 32 8 52q0 15 -17 32h206q-2 -2 -13.5 -11.5t-19 -25t-14.5 -47.5l-84 -374q-12 -52 -12 -80q0 -46 32.5 -74t96.5 -28q46 0 80 14.5t54.5 41.5t31.5 55t20 66l85 379q8 34 8 52q0 15 -17 32h171q-2 -2 -13 -10.5t-18.5 -24t-15.5 -49.5l-83 -371
q-11 -49 -22.5 -84t-35.5 -76.5t-55.5 -68t-82.5 -44t-117 -17.5q-129 0 -199 51t-70 147q0 35 17 111z" />
    <glyph glyph-name="V" unicode="V" 
d="M195 0l-71 652q-2 19 -6.5 32.5t-7 17.5t-13 14.5l-13.5 13.5h213q-30 -43 -26 -77l48 -482h2l255 484q14 30 14 45q0 8 -11 18.5t-12 11.5h203q-6 -6 -17.5 -15.5t-17.5 -15t-15.5 -17t-17.5 -27.5l-367 -655h-140z" />
    <glyph glyph-name="W" unicode="W" horiz-adv-x="981" 
d="M133 0l-11 654q-1 22 -4 35t-5.5 17.5t-10 11.5t-11.5 12h211q-2 -4 -11.5 -13.5t-14 -23t-4.5 -38.5v-484h2l286 559h95l48 -559h2l203 474q11 27 11 48q0 8 -8.5 20t-10.5 17h183q-4 -6 -16.5 -17.5t-25.5 -28t-24 -41.5l-283 -643h-150l-38 498h-2l-261 -498h-150z
" />
    <glyph glyph-name="X" unicode="X" 
d="M21 77l256 299l-115 284q-15 36 -53 70h224q-1 -2 -12 -14t-11 -21q0 -8 8 -30l68 -189l154 186q24 28 24 44q0 6 -7 14t-8 10h211q-6 -5 -21.5 -16t-31.5 -25.5t-36 -38.5l-229 -276l125 -306q4 -11 9 -20t8 -14.5t8.5 -11l8 -8t8.5 -7.5t8 -7h-228q3 3 12 8t13 10.5
t4 14.5q0 8 -10 36l-79 211l-174 -211q-21 -27 -21 -42q0 -5 3 -9.5t7 -9.5t6 -8h-216q5 3 15.5 10t15 10.5t14 11.5t19.5 18.5t23 26.5z" />
    <glyph glyph-name="Y" unicode="Y" horiz-adv-x="648" 
d="M214 84l33 154l-108 408q-3 13 -6 22.5t-7 17.5t-5.5 12t-6.5 10t-6 7t-8 7.5t-8 7.5h209q-1 -2 -6.5 -7.5t-8 -9t-5 -9.5t-2.5 -11q0 -8 4 -24l76 -315l193 291q30 45 30 58q0 7 -9 17l-9 10h197q-37 -23 -84 -89l-280 -403l-33 -154q-8 -34 -8 -52q0 -15 17 -32h-206
q2 3 13 11t18.5 23.5t15.5 49.5z" />
    <glyph glyph-name="Z" unicode="Z" horiz-adv-x="630" 
d="M-14 0l19 81l484 544h-236q-36 0 -54 -4.5t-36.5 -19.5t-19.5 -16l32 145h524l-19 -84l-482 -541h289q31 0 45 4t28.5 17t21.5 18l-33 -144h-563z" />
    <glyph glyph-name="bracketleft" unicode="[" horiz-adv-x="333" 
d="M-33 -200l206 930h208l-20 -90h-84l-167 -750h84l-20 -90h-207z" />
    <glyph glyph-name="backslash" unicode="\" horiz-adv-x="333" 
d="M248 -15l-174 745h62l174 -745h-62z" />
    <glyph glyph-name="bracketright" unicode="]" horiz-adv-x="333" 
d="M-47 -200l20 90h84l167 750h-84l20 90h207l-206 -930h-208z" />
    <glyph glyph-name="asciicircum" unicode="^" 
d="M113 331l213 399h61l207 -399h-64l-175 334l-178 -334h-64z" />
    <glyph glyph-name="underscore" unicode="_" horiz-adv-x="500" 
d="M-40 -115v50h500v-50h-500z" />
    <glyph glyph-name="grave" unicode="`" horiz-adv-x="350" 
d="M110 642l21 95l254 -90l-12 -58z" />
    <glyph glyph-name="a" unicode="a" horiz-adv-x="630" 
d="M548 0h-130q0 3 -5 27.5t-5 36.5q0 9 2 26t2 21l-2 2q-39 -59 -61 -80q-54 -48 -135 -48q-76 0 -124.5 55t-48.5 147q0 57 21.5 119t59 115.5t95.5 88.5t124 35q37 0 65.5 -11.5t40.5 -22.5t30 -31l13 50h125l-60 -268q-27 -125 -27 -181q0 -23 20 -81zM171 187
q0 -44 23.5 -78t63.5 -34q23 0 44 9t38 28.5t30.5 37.5t25.5 50t19.5 51t16.5 55t12 48.5t10 43.5q-14 19 -21 26.5t-28 19t-47 11.5q-76 0 -131.5 -84t-55.5 -184z" />
    <glyph glyph-name="b" unicode="b" horiz-adv-x="611" 
d="M181 181l-22 -96q3 -1 22 -5.5t29 -4.5q49 0 91 18t70.5 46.5t48.5 65t29.5 73t9.5 71.5q0 106 -86 106q-36 0 -68.5 -26t-56.5 -69t-40 -87.5t-27 -91.5zM305 730l-65 -283l2 -2q17 21 27 32.5t33 30.5t52 28t64 9q76 0 123.5 -51t47.5 -137q0 -52 -16 -104.5
t-48.5 -100.5t-77.5 -85.5t-108 -59.5t-135 -22q-28 0 -51 2.5t-44.5 9.5t-33.5 11.5t-36 16t-34 15.5q30 66 41 117l111 489q8 34 8 52q0 15 -17 32h157z" />
    <glyph glyph-name="c" unicode="c" horiz-adv-x="481" 
d="M433 150l-27 -117q-21 -14 -32.5 -21t-45.5 -17t-72 -10q-98 0 -158 64t-60 160q0 83 40.5 160t111 126.5t150.5 49.5q42 0 83.5 -15t48.5 -15q5 0 14 6.5t13 6.5l-36 -159q-6 17 -12 29t-16.5 26.5t-27.5 22.5t-39 8q-79 0 -139.5 -74t-60.5 -171q0 -59 30.5 -97
t86.5 -38q32 0 60 13.5t55 35.5t33 26z" />
    <glyph glyph-name="d" unicode="d" horiz-adv-x="611" 
d="M163 177q0 -45 23 -73.5t57 -28.5q21 0 40 7t33.5 16t28.5 27.5t23.5 32.5t20 39.5t16.5 40.5t13.5 44t10.5 41t9.5 40.5t7.5 33.5q-30 58 -87 58q-45 0 -83.5 -29t-62 -72t-37 -90t-13.5 -87zM540 0h-130q-11 48 -11 67q0 9 2 26t2 20l-2 2q-17 -28 -29 -44t-36.5 -39.5
t-57.5 -35t-74 -11.5q-74 0 -122.5 52.5t-48.5 139.5q0 60 22 124t60.5 118.5t97 90t123.5 35.5q16 0 30 -1.5t26 -6l20 -7.5t17.5 -9.5t13.5 -9.5t12 -11t10 -9l36 155q8 34 8 52q0 15 -17 32h157l-112 -502q-23 -102 -23 -149q0 -49 26 -79z" />
    <glyph glyph-name="e" unicode="e" horiz-adv-x="556" 
d="M497 162l-27 -116q-1 -1 -12 -7.5t-14 -8t-14.5 -8t-16.5 -8.5t-17 -7.5t-20 -7.5t-21.5 -5.5t-25 -5t-26 -2.5t-29.5 -1q-112 0 -176.5 58.5t-64.5 164.5q0 133 101 235t237 102q81 0 136.5 -36t55.5 -100q0 -55 -36 -97.5t-91.5 -65.5t-110 -34.5t-101.5 -11.5
q-11 0 -32 2.5t-29 2.5q0 -19 4.5 -38t16 -41.5t39 -36.5t66.5 -14q32 0 61.5 7t53.5 19t39.5 22t33 23.5t20.5 15.5zM172 272q18 -2 27 -2q96 0 165 39.5t69 91.5q0 54 -64 54q-77 0 -135.5 -66t-61.5 -117z" />
    <glyph glyph-name="f" unicode="f" horiz-adv-x="333" 
d="M48 84l78 356h-69l19 90h69q9 39 15.5 62t22.5 56t36.5 51t56 32t82.5 14q68 0 97 -28l-24 -113q-28 51 -62 51q-12 0 -22 -2.5t-18 -9t-14.5 -11.5t-12 -16l-8.5 -17t-7 -19t-5 -17.5l-4 -18t-3 -14.5h110l-19 -90h-110l-78 -356q-8 -34 -8 -52q0 -15 17 -32h-186
q2 3 13 11t18.5 23.5t15.5 49.5z" />
    <glyph glyph-name="g" unicode="g" horiz-adv-x="611" 
d="M-11 -137l30 138q2 -3 15 -25t22 -32.5t27 -27t42 -24t55 -7.5q50 0 87 17t58 47.5t32 55.5t21 58q2 7 3 11l-2 2q-69 -74 -173 -74q-76 0 -124 55.5t-48 140.5t37 164.5t106.5 131t152.5 51.5q14 0 26.5 -1t23.5 -4.5t19.5 -6t17 -8t13.5 -8.5t12.5 -10t10 -9t9.5 -9.5
t8 -8.5l13 50h150q-2 -3 -13.5 -14t-17.5 -23t-11 -37l-75 -338q-13 -57 -26.5 -98.5t-38.5 -86.5t-57.5 -73t-83.5 -46.5t-116 -18.5q-54 0 -94.5 10t-60 22t-43.5 30q-5 4 -7 6zM164 192q0 -41 24 -70.5t61 -29.5q23 0 44 9t38.5 28.5t31 37.5t26 49t20.5 49.5t17 53
t11.5 44.5l9.5 38q-39 54 -88 54q-83 0 -139 -83.5t-56 -179.5z" />
    <glyph glyph-name="h" unicode="h" horiz-adv-x="574" 
d="M35 84l123 562q9 38 9 52q0 15 -17 32h157l-65 -295l2 -2q1 1 12 14t13.5 15.5t13.5 14.5t16 15.5t16 13.5t18.5 13.5t19 10t21.5 9t23 4.5t26 2q58 0 87.5 -34t29.5 -77q0 -21 -11 -72l-61 -278q-7 -42 -7 -52q0 -15 17 -32h-186q2 3 13 10.5t18.5 23t15.5 50.5l61 282
q7 28 7 37q0 21 -12 36.5t-31 15.5q-48 0 -97 -65t-68 -151l-34 -155q-8 -36 -8 -52q0 -15 17 -32h-186q2 3 13 10.5t18.5 23t15.5 50.5z" />
    <glyph glyph-name="i" unicode="i" horiz-adv-x="278" 
d="M35 84l77 362q9 38 9 52q0 15 -17 32h157l-96 -446q-8 -36 -8 -52q0 -15 17 -32h-186q2 3 13 10.5t18.5 23t15.5 50.5zM218 610q-34 0 -56 15.5t-22 43.5q0 33 27.5 54.5t63.5 21.5q31 0 55 -17t24 -44q0 -34 -26 -54t-66 -20z" />
    <glyph glyph-name="j" unicode="j" horiz-adv-x="278" 
d="M-113 -175l21 96q2 -2 9.5 -12.5t15 -14.5t20.5 -4q21 0 35 16t19.5 33t11.5 47l101 460q9 38 9 52q0 15 -17 32h157l-121 -545q-41 -190 -172 -190q-52 0 -89 30zM218 610q-34 0 -56 15.5t-22 43.5q0 33 27.5 54.5t63.5 21.5q31 0 55 -17t24 -44q0 -34 -26 -54t-66 -20z
" />
    <glyph glyph-name="k" unicode="k" horiz-adv-x="556" 
d="M23 84l121 562q9 38 9 52q0 15 -17 32h157l-92 -418l2 -2l166 162q28 28 28 38q0 8 -5 13.5t-5 6.5h191q-53 -32 -88 -66l-167 -156l2 -2q14 2 24 2q58 0 97 -33t39 -87q0 -25 -13 -84.5t-13 -70.5q0 -16 19 -33h-159l27 118q9 45 9 61q0 74 -103 74q-25 0 -65 -9
l-34 -160q-8 -36 -8 -52q0 -15 17 -32h-186q2 3 13 10.5t18.5 23t15.5 50.5z" />
    <glyph glyph-name="l" unicode="l" horiz-adv-x="278" 
d="M38 84l121 562q9 38 9 52q0 15 -17 32h157l-140 -646q-8 -36 -8 -52q0 -15 17 -32h-186q2 3 13 10.5t18.5 23t15.5 50.5z" />
    <glyph glyph-name="m" unicode="m" horiz-adv-x="870" 
d="M35 84l77 362q9 38 9 52q0 15 -17 32h155l-21 -97l2 -2q22 28 33 39.5t36 33.5t53 31.5t62 9.5q28 0 48 -9t30 -20.5t15.5 -30t6.5 -31t1 -29.5h2q74 120 190 120q60 0 87.5 -33.5t27.5 -77.5q0 -23 -12 -89l-56 -261q-8 -38 -8 -52q0 -15 17 -32h-186q4 4 11 9t11.5 9.5
t11.5 21t13 44.5l55 257q13 62 13 70q0 44 -44 44q-53 0 -95.5 -58t-58.5 -135l-38 -178q-8 -38 -8 -52q0 -15 17 -32h-186q2 3 13 11t18.5 23.5t15.5 49.5l55 258q9 43 9 63q0 50 -40 50q-56 0 -99.5 -62.5t-58.5 -132.5l-37 -176q-8 -36 -8 -52q0 -15 17 -32h-186
q2 3 13 10.5t18.5 23t15.5 50.5z" />
    <glyph glyph-name="n" unicode="n" horiz-adv-x="574" 
d="M37 84l77 362q9 38 9 52q0 15 -17 32h155l-21 -97l2 -2q22 28 33 39.5t36 33.5t53 31.5t62 9.5q57 0 83.5 -33.5t26.5 -77.5q0 -31 -14 -89l-54 -261q-8 -38 -8 -52q0 -15 17 -32h-186q2 3 13 11t18.5 23.5t15.5 49.5l54 258q14 66 14 69q0 44 -43 44q-56 0 -100.5 -62.5
t-58.5 -132.5l-37 -176q-8 -36 -8 -52q0 -15 17 -32h-186q2 3 13 10.5t18.5 23t15.5 50.5z" />
    <glyph glyph-name="o" unicode="o" horiz-adv-x="593" 
d="M243 -15q-97 0 -154 58.5t-57 146.5q0 46 11 93.5t36.5 95t62 84t92.5 59.5t124 23q99 0 152.5 -53.5t53.5 -149.5q0 -91 -38 -171.5t-113 -133t-170 -52.5zM162 190q0 -50 23.5 -82.5t71.5 -32.5q43 0 78.5 30.5t56 75.5t31.5 90t11 80q0 41 -24 72.5t-63 31.5
q-44 0 -81 -30t-58.5 -73t-33.5 -86.5t-12 -75.5z" />
    <glyph glyph-name="p" unicode="p" horiz-adv-x="611" 
d="M-14 -116l123 562q9 38 9 52q0 15 -17 32h156l-21 -94l2 -2q22 28 32 39.5t34 32.5t51 30t60 9q76 0 124 -53.5t48 -137.5t-45 -167.5t-133.5 -142.5t-196.5 -59q-25 0 -73 8l-23 -109q-8 -36 -8 -52q0 -15 17 -32h-186q2 3 13 10.5t18.5 23t15.5 50.5zM191 228l-32 -147
q7 0 22.5 -3t24.5 -3q64 0 115 29t79 72.5t42.5 88.5t14.5 84q0 43 -23.5 74.5t-61.5 31.5q-60 0 -111.5 -72t-69.5 -155z" />
    <glyph glyph-name="q" unicode="q" horiz-adv-x="611" 
d="M163 180q0 -41 22.5 -73t60.5 -32q127 0 196 312l3 12l-5 7q-6 7 -7.5 8.5t-7.5 8t-8.5 8.5t-9 7t-11 7t-11.5 5t-14 4t-15 1q-83 0 -138 -84.5t-55 -190.5zM331 -116l46 205l-2 2q-20 -45 -65 -75.5t-109 -30.5q-75 0 -121.5 54.5t-46.5 147.5q0 89 39.5 171.5
t109 134.5t149.5 52q35 0 61 -6.5t46 -22.5t26 -22.5t22 -26.5l33 63h105q-38 -92 -63 -201l-100 -445q-8 -34 -8 -52q0 -15 17 -32h-186q2 3 13 11t18.5 23.5t15.5 49.5z" />
    <glyph glyph-name="r" unicode="r" horiz-adv-x="426" 
d="M35 84l77 362q9 38 9 52q0 15 -17 32h155l-20 -96l2 -2q31 52 69.5 82.5t96.5 30.5q44 0 72 -31l-28 -125l-8 16t-11 19.5t-17 14t-28 6.5q-64 0 -119.5 -71t-77.5 -172l-25 -118q-8 -36 -8 -52q0 -15 17 -32h-186q2 3 13 10.5t18.5 23t15.5 50.5z" />
    <glyph glyph-name="s" unicode="s" horiz-adv-x="500" 
d="M-3 17l38 166q19 -44 63.5 -76t118.5 -32q44 0 74.5 20t30.5 49q0 28 -26.5 48t-64 33.5t-75 29.5t-64 46t-26.5 72q0 71 61.5 121.5t157.5 50.5q52 0 110.5 -19.5t73.5 -19.5q5 0 12 6.5t11 6.5l-37 -161q-13 21 -21.5 31t-28.5 29t-49 28t-67 9q-35 0 -64 -15.5
t-29 -43.5q0 -25 26.5 -43t64 -32t75 -31t64 -48t26.5 -75q0 -74 -64.5 -128t-162.5 -54q-55 0 -96.5 13t-65 26t-35.5 13q-6 0 -16.5 -9t-14.5 -11z" />
    <glyph glyph-name="t" unicode="t" horiz-adv-x="389" 
d="M63 193l58 247h-66l20 90h67l30 126l137 28l-36 -154h158l-21 -90h-158l-58 -252q-10 -48 -10 -55q0 -16 2 -26.5t11.5 -21t28.5 -10.5q26 0 51 13.5t34.5 23t32.5 35.5l-32 -131q-71 -31 -122 -31q-60 0 -98 32t-38 93q0 41 9 83z" />
    <glyph glyph-name="u" unicode="u" horiz-adv-x="593" 
d="M495 0h-130q-11 38 -11 43q0 37 6 70l-2 2q-15 -23 -21 -31.5t-27 -32t-38.5 -34.5t-46 -21.5t-59.5 -10.5q-61 0 -95 30.5t-34 88.5q0 33 11 83l59 259q8 45 8 52q0 15 -17 32h157l-81 -359q-7 -30 -7 -53q0 -18 13 -30.5t30 -12.5q45 0 83.5 44.5t60 99t35.5 118.5
l24 109q9 38 9 52q0 15 -17 32h157l-65 -291q-23 -97 -23 -167q0 -35 21 -72z" />
    <glyph glyph-name="v" unicode="v" horiz-adv-x="519" 
d="M121 0l-53 477q-6 36 -23 53h178l-10 -10t-13 -20t-2 -28l29 -364h2l190 366q8 18 8 29q0 5 -3 9.5t-7 9.5t-6 8h158q-29 -21 -48 -56l-270 -474h-130z" />
    <glyph glyph-name="w" unicode="w" horiz-adv-x="741" 
d="M50 0l19 482q0 14 -3 22t-10 15t-9 11h177l-8 -8t-10 -10.5t-8 -15t-4 -24.5l-15 -313l2 -2l221 373h80l53 -376h2l125 310q7 19 7 36q0 5 -2.5 10t-8 10.5t-7.5 9.5h150q-3 -3 -12.5 -11.5t-17.5 -20t-16 -30.5l-202 -468h-115l-51 354h-2l-215 -354h-120z" />
    <glyph glyph-name="x" unicode="x" horiz-adv-x="556" 
d="M32 74l176 202l-76 187q-7 18 -14 30t-11 16t-10 9.5t-10 11.5h190q-1 -2 -10.5 -11t-9.5 -17q0 -10 11 -41l45 -112l102 113q24 28 24 47q0 5 -5 11.5t-6 9.5h176q-20 -14 -63 -62l-175 -194l58 -136q8 -19 14 -30t19.5 -22t30.5 -11q6 0 39 11l-62 -99q-22 -2 -33 -2
q-30 0 -53.5 13.5t-40.5 40t-28 50.5t-26 61.5t-24 57.5l-127 -153q-20 -22 -20 -33q0 -5 7 -14l6 -8h-182q52 34 88 74z" />
    <glyph glyph-name="y" unicode="y" horiz-adv-x="574" 
d="M1 -142l27 125q4 -5 18.5 -28.5t25 -34.5t35 -23t57.5 -12q39 0 69.5 15t47.5 35t30.5 52t19 54.5t11.5 53.5q1 7 2 11l-2 2q-2 -3 -6 -8q-23 -31 -38 -48t-48.5 -35.5t-72.5 -18.5q-60 0 -93.5 35.5t-33.5 91.5q0 32 11 80l52 241q8 34 8 52q0 15 -17 32h157l-70 -322
q-11 -48 -11 -66t13 -31t31 -13q56 0 99.5 63.5t61.5 143.5l31 141q8 34 8 52q0 15 -17 32h157l-101 -458q-14 -60 -31.5 -104t-49 -86.5t-82 -64.5t-118.5 -22q-48 0 -85.5 11t-51.5 20t-44 32z" />
    <glyph glyph-name="z" unicode="z" horiz-adv-x="463" 
d="M-32 0l16 73l341 367h-184q-12 0 -20.5 -1t-15.5 -5t-10 -6t-10.5 -9.5l-10.5 -10.5l26 122h405l-18 -76l-336 -364h191q25 0 41 6t28 16t18 12l-28 -124h-433z" />
    <glyph glyph-name="braceleft" unicode="{" 
d="M480 -209v-25q-80 3 -145.5 52t-65.5 118q0 36 12 96q16 80 16 94q0 44 -32 78t-78 49v24q47 15 78.5 47.5t31.5 79.5q0 14 -16 94q-12 60 -12 96q0 69 65.5 118t145.5 52v-25q-52 -12 -79.5 -50.5t-27.5 -85.5q0 -29 7 -85t7 -79q0 -39 -15.5 -70t-45.5 -52t-47 -30
t-47 -22q23 -10 36 -16.5t39 -23t41 -33.5t27 -44t12 -57q0 -23 -7 -79t-7 -85q0 -47 27.5 -85.5t79.5 -50.5z" />
    <glyph glyph-name="bar" unicode="|" horiz-adv-x="333" 
d="M157 -184v1017h49v-1017h-49z" />
    <glyph glyph-name="braceright" unicode="}" 
d="M187 -234v25q52 12 79.5 50.5t27.5 85.5q0 29 -7 85t-7 79q0 30 12 57t27 44t41 33.5t39 23t36 16.5q-30 13 -47 22t-47 30t-45.5 52t-15.5 70q0 23 7 79t7 85q0 47 -27.5 85.5t-79.5 50.5v25q80 -3 145.5 -52t65.5 -118q0 -36 -12 -96q-16 -80 -16 -94q0 -47 31.5 -79.5
t78.5 -47.5v-24q-46 -15 -78 -49t-32 -78q0 -14 16 -94q12 -60 12 -96q0 -69 -65.5 -118t-145.5 -52z" />
    <glyph glyph-name="asciitilde" unicode="~" horiz-adv-x="1000" 
d="M332 160h-62q0 241 142 241q40 0 69.5 -21t46 -50.5t31 -59.5t33.5 -51t44 -21q20 0 34.5 13.5t21.5 30t10.5 45.5t4 45.5t0.5 44.5h62q0 -24 -0.5 -38t-3 -42.5t-7.5 -47t-15.5 -42t-24.5 -37.5t-37 -24t-52 -10q-40 0 -68.5 21t-44 50.5t-29 59.5t-32.5 51t-44 21
q-19 0 -33 -8t-22.5 -24.5t-13.5 -31.5t-7 -40t-2.5 -38.5t-0.5 -36.5z" />
    <glyph glyph-name="uni00A0" unicode="&#xa0;" horiz-adv-x="315" 
 />
    <glyph glyph-name="exclamdown" unicode="&#xa1;" horiz-adv-x="333" 
d="M206 395q-28 0 -49 20.5t-21 47.5q0 39 23 60.5t62 21.5q27 0 46 -21t19 -48q0 -33 -22.5 -57t-57.5 -24zM1 -133l130 442h95l-78 -446q-3 -16 -3 -29q0 -11 13 -34h-195q2 2 10.5 11t14.5 21t13 35z" />
    <glyph glyph-name="cent" unicode="&#xa2;" 
d="M322 9l19 87q-31 0 -64 11.5t-65.5 35t-53.5 67.5t-21 102q0 143 93 234.5t230 91.5l18 76h44l-20 -85q15 -2 39.5 -13t30.5 -11q4 0 9 4t10.5 9.5l7.5 7.5l-39 -171q-2 5 -8.5 20t-10 21t-11.5 16.5t-19.5 16.5t-27.5 10l-78 -352q15 4 27 7.5t23.5 9.5t17.5 9t17.5 12
t15 11t17.5 14t17 15l-25 -115q-42 -29 -65 -38t-65 -16l-19 -87h-44zM361 190l78 350q-55 -2 -113.5 -67t-58.5 -159q0 -36 9.5 -61.5t27.5 -37.5t29.5 -17t27.5 -8z" />
    <glyph glyph-name="sterling" unicode="&#xa3;" 
d="M62 0l21 88q70 16 108 55t38 114q0 2 -9 77h-131l20 90h91q0 10 -2 32.5t-2 36.5q0 97 76.5 174.5t194.5 77.5q53 0 94 -13.5t62.5 -26.5t27.5 -13q7 0 13 3t12.5 8t8.5 6l-40 -180q-5 16 -13.5 31.5t-25.5 35.5t-46 32t-65 12q-76 0 -122.5 -48.5t-46.5 -126.5
q0 -7 2 -22t2 -19h227l-20 -90h-187q1 -9 5 -33.5t4 -37.5q0 -64 -27.5 -100t-78.5 -66v-2h245q29 0 48 10t31 23t17 15l-34 -143h-498z" />
    <glyph glyph-name="currency" unicode="&#xa4;" 
d="M148 130l-30 30l67 67q-47 51 -47 136q0 79 48 138l-70 70l32 31l69 -68q64 46 137 46q72 0 136 -46l69 68l32 -31l-70 -70q48 -49 48 -138q0 -83 -47 -136l67 -67l-30 -30l-66 66q-63 -47 -139 -47q-80 0 -140 47zM354 539q-72 0 -123.5 -52t-51.5 -124t51.5 -122.5
t123.5 -50.5q71 0 122.5 51t51.5 122q0 72 -51 124t-123 52z" />
    <glyph glyph-name="yen" unicode="&#xa5;" 
d="M219 84l18 75h-201l14 60h201l5 21l-25 94h-153l14 60h122l-66 250q-11 44 -18 55t-33 31h218q-26 -26 -26 -39q0 -8 4 -24l76 -313l192 289q3 4 9.5 13t10 14.5t7 14t3.5 16.5q0 6 -3 10.5t-10.5 11t-8.5 7.5h207q-33 -17 -43 -27t-47 -64l-171 -245h128l-14 -60h-157
l-67 -94l-4 -21h200l-14 -60h-200l-18 -75q-7 -40 -7 -52q0 -15 17 -32h-206l11 12q10 11 13 16.5t10 21t12 34.5z" />
    <glyph glyph-name="brokenbar" unicode="&#xa6;" horiz-adv-x="222" 
d="M107 358v372h60v-372h-60zM107 -200v371h60v-371h-60z" />
    <glyph glyph-name="section" unicode="&#xa7;" 
d="M121 -151v140q1 -2 16 -20t21.5 -24t24.5 -21t33 -21t40 -12t53 -6q72 0 106.5 29t34.5 65q0 34 -42.5 57.5t-103 40.5t-121 39t-103 65.5t-42.5 106.5q0 31 12.5 58t27 42t39 29t34.5 18t29 11q-71 46 -71 122q0 74 66 125.5t165 51.5q50 0 108 -16t60 -16q6 0 14 8
t10 9v-171q-80 96 -197 96q-37 0 -66.5 -21t-29.5 -56q0 -30 29.5 -51.5t73.5 -33t95 -28.5t95 -36.5t73.5 -58t29.5 -91.5q0 -32 -9.5 -57t-20.5 -39.5t-34 -29t-34 -19.5t-38 -15q44 -36 57 -54q24 -35 24 -84q0 -83 -71.5 -134.5t-192.5 -51.5q-94 0 -195 54zM515 249
q0 34 -49.5 62.5t-129 54t-88.5 29.5q-36 -6 -58 -29t-22 -53q0 -50 68 -78q52 -21 187 -66q1 0 11.5 2.5t13.5 3.5t13 4t14 5.5t12 7t11.5 10t8 12.5t6.5 16t2 19z" />
    <glyph glyph-name="dieresis" unicode="&#xa8;" horiz-adv-x="350" 
d="M167 601q-21 0 -36 14.5t-15 35.5q0 26 18.5 45.5t43.5 19.5q22 0 37.5 -15.5t15.5 -37.5q0 -24 -18.5 -43t-45.5 -19zM347 601q-21 0 -36 14.5t-15 35.5q0 26 18.5 45.5t43.5 19.5q22 0 37.5 -15.5t15.5 -37.5q0 -24 -18.5 -43t-45.5 -19z" />
    <glyph glyph-name="copyright" unicode="&#xa9;" horiz-adv-x="500" 
d="M295 275q-97 0 -166 68.5t-69 166.5q0 97 69 166t166 69t166 -69t69 -166t-69 -166t-166 -69zM95 510q0 -82 58.5 -141t141.5 -59t141.5 59t58.5 141t-58.5 141t-141.5 59t-141.5 -59t-58.5 -141zM375 451l26 -32q-43 -39 -95 -39q-55 0 -95.5 38.5t-40.5 95.5
q0 56 41 95t95 39q52 0 95 -39l-26 -33q-34 31 -69 31t-64 -25.5t-29 -67.5q0 -43 28.5 -68t61.5 -25q39 0 72 30z" />
    <glyph glyph-name="ordfeminine" unicode="&#xaa;" 
d="M545 369h-90q-6 19 -6 34q0 7 0.5 22t0.5 22h-2q-44 -93 -131 -93q-59 0 -90.5 40.5t-31.5 102.5q0 90 61 169t147 79q63 0 92 -47l8 35h85l-45 -213q-12 -55 -12 -98q0 -30 14 -53zM290 501q0 -82 57 -82q31 0 56.5 26.5t41.5 71.5t22.5 70.5t12.5 54.5q-30 38 -64 38
q-50 0 -88 -58t-38 -121z" />
    <glyph glyph-name="guillemotleft" unicode="&#xab;" horiz-adv-x="481" 
d="M99 109l-44 200l107 156h120l-117 -171l44 -185h-110zM299 109l-44 200l107 156h120l-117 -171l44 -185h-110z" />
    <glyph glyph-name="logicalnot" unicode="&#xac;" horiz-adv-x="1000" 
d="M664 133v180h-417v90h507v-270h-90z" />
    <glyph glyph-name="uni00AD" unicode="&#xad;" horiz-adv-x="333" 
d="M30 219l33 149q17 -27 38 -27h156q33 0 62 23l-33 -149q-2 2 -9 10.5t-14.5 12t-20.5 3.5h-159q-13 0 -23 -4t-18.5 -10t-11.5 -8z" />
    <glyph glyph-name="registered" unicode="&#xae;" horiz-adv-x="500" 
d="M295 275q-97 0 -166 69t-69 166t69 166t166 69t166 -69t69 -166t-69 -166t-166 -69zM95 510q0 -82 58.5 -141t141.5 -59t141.5 59t58.5 141t-58.5 141t-141.5 59t-141.5 -59t-58.5 -141zM206 392v248h83q29 0 48.5 -4.5t36 -23t16.5 -52.5q0 -20 -9 -34t-14 -16.5
t-20 -10.5l46 -107h-50l-39 100h-53v-100h-45zM251 597v-65h54q38 0 38 32q0 33 -42 33h-50z" />
    <glyph glyph-name="macron" unicode="&#xaf;" horiz-adv-x="350" 
d="M108 629l15 65h324l-15 -65h-324z" />
    <glyph glyph-name="degree" unicode="&#xb0;" 
d="M378 455q-61 0 -104 42.5t-43 103.5q0 59 43 101.5t104 42.5q60 0 101.5 -42.5t41.5 -101.5q0 -60 -41.5 -103t-101.5 -43zM286 601q0 -39 26.5 -65t65.5 -26q37 0 62.5 26.5t25.5 64.5q0 37 -25.5 63t-62.5 26q-38 0 -65 -26t-27 -63z" />
    <glyph glyph-name="plusminus" unicode="&#xb1;" horiz-adv-x="1000" 
d="M474 0v223h-207v90h207v224h90v-224h210v-90h-210v-223h-90zM267 -143v90h507v-90h-507z" />
    <glyph glyph-name="twosuperior" unicode="&#xb2;" horiz-adv-x="481" 
d="M80 290l13 59q46 25 78.5 44t73.5 47.5t66 53.5t43 56.5t18 61.5q0 26 -18.5 42t-52.5 16q-25 0 -49 -9.5t-37.5 -19.5t-32.5 -27t-25 -21l28 125q3 -3 6 -6.5t4.5 -5t4.5 -1.5q2 0 40 15t80 15q59 0 100.5 -32.5t41.5 -81.5q0 -47 -25 -92t-64 -78t-78.5 -56.5
t-76.5 -37.5v-2h146q33 0 64 20l-22 -85h-326z" />
    <glyph glyph-name="threesuperior" unicode="&#xb3;" horiz-adv-x="481" 
d="M91 347l22 100q12 -23 18 -32.5t21.5 -28.5t35 -27.5t44.5 -8.5q44 0 78.5 24t34.5 63q0 30 -20 48.5t-58 18.5q-2 0 -56 -9l-22 48l177 120v2h-139q-14 0 -24 -2.5t-13.5 -5t-11 -9.5t-10.5 -10l19 92h298l-13 -66l-173 -116l2 -2q10 3 31 3q42 0 73 -34t31 -77
q0 -67 -55 -110t-132 -43q-33 0 -60 5.5t-47.5 18t-28 18.5t-22.5 20z" />
    <glyph glyph-name="acute" unicode="&#xb4;" horiz-adv-x="350" 
d="M131 589l15 63l265 85l-22 -96z" />
    <glyph glyph-name="mu" unicode="&#xb5;" horiz-adv-x="593" 
d="M-29 -200l146 646q8 45 8 52q0 15 -17 32h157l-82 -359q-6 -34 -6 -53q0 -18 13 -30.5t30 -12.5q45 0 83.5 44.5t60 99t35.5 118.5l24 109q9 38 9 52q0 15 -17 32h157l-65 -291q-23 -97 -23 -167q0 -35 21 -72h-130q-11 38 -11 43q0 37 6 70l-2 2q-1 -1 -9.5 -13.5
t-11 -16.5t-12 -16.5t-15 -17.5t-16.5 -16t-19.5 -16.5t-21 -13t-24 -11t-26 -6.5t-29.5 -3q-5 0 -41 8l-24 -109q-8 -34 -8 -52q0 -15 17 -32h-157z" />
    <glyph glyph-name="paragraph" unicode="&#xb6;" 
d="M367 -174v437q-36 4 -71 17.5t-70.5 38.5t-57.5 69.5t-22 101.5q0 62 26.5 110t71 75.5t95.5 41t106 13.5h115v-37h-58v-867h-37v867h-61v-867h-37z" />
    <glyph glyph-name="periodcentered" unicode="&#xb7;" 
d="M346 310q-34 0 -59 23.5t-25 57.5q0 36 24.5 61.5t59.5 25.5t59.5 -25.5t24.5 -61.5q0 -34 -24.5 -57.5t-59.5 -23.5z" />
    <glyph glyph-name="cedilla" unicode="&#xb8;" horiz-adv-x="350" 
d="M67 -201l10 40q30 -5 34 -5q81 0 81 46q0 18 -13 28.5t-34 10.5q-8 0 -22 -2.5t-20 -2.5l36 90h60l-19 -52q16 2 26 2q28 0 49.5 -21t21.5 -46q0 -47 -39.5 -75t-91.5 -28q-32 0 -79 15z" />
    <glyph glyph-name="onesuperior" unicode="&#xb9;" horiz-adv-x="481" 
d="M203 338l67 304q-24 -15 -63 -15l13 62q45 5 104 41h56l-87 -392q0 -2 -2 -11t-2 -14q0 -4 12 -23h-126q2 2 8.5 8t11 14.5t8.5 25.5z" />
    <glyph glyph-name="ordmasculine" unicode="&#xba;" 
d="M369 360q-83 0 -119 42t-36 105q0 91 62.5 164.5t160.5 73.5q77 0 110.5 -42t33.5 -99q0 -38 -13.5 -79.5t-38 -79t-67 -61.5t-93.5 -24zM304 491q0 -29 19 -50t46 -21q39 0 68.5 37.5t41.5 79t12 72.5q0 36 -16 56t-44 20q-38 0 -68.5 -35.5t-44.5 -79t-14 -79.5z" />
    <glyph glyph-name="guillemotright" unicode="&#xbb;" horiz-adv-x="481" 
d="M214 109l117 171l-44 185h110l44 -200l-107 -156h-120zM14 109l117 171l-44 185h110l44 -200l-107 -156h-120z" />
    <glyph glyph-name="onequarter" unicode="&#xbc;" horiz-adv-x="1000" 
d="M169 -5l507 740h58l-507 -740h-58zM177 338l67 304q-24 -15 -63 -15l13 62q45 5 104 41h56l-87 -392q0 -2 -2 -11t-2 -14q0 -4 12 -23h-126q2 2 8.5 8t11 14.5t8.5 25.5zM708 48l14 64h-222l11 48q40 64 91.5 126.5t80 95.5t28.5 43q0 1 -1.5 3t-3.5 4.5t-3 4.5h138
q-109 -124 -224 -265h118l16 73l96 30l-22 -103h53l-14 -60h-52l-14 -64q-4 -16 -4 -25q0 -4 12 -23h-126q2 2 8.5 8t11 14.5t8.5 25.5z" />
    <glyph glyph-name="onehalf" unicode="&#xbd;" horiz-adv-x="1000" 
d="M498 0l13 59q46 25 78.5 44t73.5 47.5t66 53.5t43 56.5t18 61.5q0 26 -18.5 42t-52.5 16q-25 0 -49 -9.5t-37.5 -19.5t-32.5 -27t-25 -21l28 125q3 -3 6 -6.5t4.5 -5t4.5 -1.5q2 0 40 15t80 15q59 0 100.5 -32.5t41.5 -81.5q0 -47 -25 -92t-64 -78t-78.5 -56.5
t-76.5 -37.5v-2h146q33 0 64 20l-22 -85h-326zM179 -5l507 740h58l-507 -740h-58zM177 338l67 304q-24 -15 -63 -15l13 62q45 5 104 41h56l-87 -392q0 -2 -2 -11t-2 -14q0 -4 12 -23h-126q2 2 8.5 8t11 14.5t8.5 25.5z" />
    <glyph glyph-name="threequarters" unicode="&#xbe;" horiz-adv-x="1000" 
d="M249 -5l507 740h58l-507 -740h-58zM788 48l14 64h-222l11 48q40 64 91.5 126.5t80 95.5t28.5 43q0 1 -1.5 3t-3.5 4.5t-3 4.5h138q-109 -124 -224 -265h118l16 73l96 30l-22 -103h53l-14 -60h-52l-14 -64q-4 -16 -4 -25q0 -4 12 -23h-126q2 2 8.5 8t11 14.5t8.5 25.5z
M71 347l22 100q12 -23 18 -32.5t21.5 -28.5t35 -27.5t44.5 -8.5q44 0 78.5 24t34.5 63q0 30 -20 48.5t-58 18.5q-2 0 -56 -9l-22 48l177 120v2h-139q-14 0 -24 -2.5t-13.5 -5t-11 -9.5t-10.5 -10l19 92h298l-13 -66l-173 -116l2 -2q10 3 31 3q42 0 73 -34t31 -77
q0 -67 -55 -110t-132 -43q-33 0 -60 5.5t-47.5 18t-28 18.5t-22.5 20z" />
    <glyph glyph-name="questiondown" unicode="&#xbf;" horiz-adv-x="500" 
d="M452 -2l-40 -181q-2 2 -5 6t-5.5 6.5t-6 5t-6.5 2.5q-13 0 -34.5 -10.5t-55 -21t-76.5 -10.5q-96 0 -155.5 49t-59.5 127q0 44 13 77.5t37.5 57.5t50 42.5t61.5 44.5t61 51q6 6 10.5 13t8.5 17t5.5 16t5 19t4.5 17h115q-16 -74 -46.5 -124.5t-61 -74.5t-59.5 -42.5
t-47 -42.5t-18 -61q0 -38 31 -62t72 -24q39 0 74.5 13.5t55.5 29.5t42 35.5t29 24.5zM339 395q-27 0 -46 21t-19 48q0 33 22.5 57t57.5 24q28 0 49 -20.5t21 -47.5q0 -39 -23 -60.5t-62 -21.5z" />
    <glyph glyph-name="Agrave" unicode="&#xc0;" horiz-adv-x="722" 
d="M17 101l339 569q13 23 13 29t-3.5 11t-9.5 11.5t-8 8.5h191l99 -660q4 -28 11 -42t15 -20t9 -8h-208q0 1 13.5 12t13.5 28q0 19 -1 28l-23 143h-265l-80 -141q-18 -32 -18 -45q0 -6 6 -14.5t7 -10.5h-185q1 1 19.5 16t31 32t33.5 53zM255 301h202l-37 289h-2zM306 842
l21 95l254 -90l-12 -58z" />
    <glyph glyph-name="Aacute" unicode="&#xc1;" horiz-adv-x="722" 
d="M17 101l339 569q13 23 13 29t-3.5 11t-9.5 11.5t-8 8.5h191l99 -660q4 -28 11 -42t15 -20t9 -8h-208q0 1 13.5 12t13.5 28q0 19 -1 28l-23 143h-265l-80 -141q-18 -32 -18 -45q0 -6 6 -14.5t7 -10.5h-185q1 1 19.5 16t31 32t33.5 53zM255 301h202l-37 289h-2zM367 789
l15 63l265 85l-22 -96z" />
    <glyph glyph-name="Acircumflex" unicode="&#xc2;" horiz-adv-x="722" 
d="M17 101l339 569q13 23 13 29t-3.5 11t-9.5 11.5t-8 8.5h191l99 -660q4 -28 11 -42t15 -20t9 -8h-208q0 1 13.5 12t13.5 28q0 19 -1 28l-23 143h-265l-80 -141q-18 -32 -18 -45q0 -6 6 -14.5t7 -10.5h-185q1 1 19.5 16t31 32t33.5 53zM255 301h202l-37 289h-2zM281 789
l-14 52l214 91l172 -94l-20 -45l-168 49z" />
    <glyph glyph-name="Atilde" unicode="&#xc3;" horiz-adv-x="722" 
d="M17 101l339 569q13 23 13 29t-3.5 11t-9.5 11.5t-8 8.5h191l99 -660q4 -28 11 -42t15 -20t9 -8h-208q0 1 13.5 12t13.5 28q0 19 -1 28l-23 143h-265l-80 -141q-18 -32 -18 -45q0 -6 6 -14.5t7 -10.5h-185q1 1 19.5 16t31 32t33.5 53zM255 301h202l-37 289h-2zM296 813
l-39 46q72 72 129 72q27 0 75 -29q44 -30 65 -30q31 0 82 51l39 -44q-33 -39 -63 -60.5t-70 -21.5q-33 0 -73 30q-41 29 -68 29q-29 0 -77 -43z" />
    <glyph glyph-name="Adieresis" unicode="&#xc4;" horiz-adv-x="722" 
d="M17 101l339 569q13 23 13 29t-3.5 11t-9.5 11.5t-8 8.5h191l99 -660q4 -28 11 -42t15 -20t9 -8h-208q0 1 13.5 12t13.5 28q0 19 -1 28l-23 143h-265l-80 -141q-18 -32 -18 -45q0 -6 6 -14.5t7 -10.5h-185q1 1 19.5 16t31 32t33.5 53zM255 301h202l-37 289h-2zM543 801
q-21 0 -36 14.5t-15 35.5q0 26 18.5 45.5t43.5 19.5q22 0 37.5 -15.5t15.5 -37.5q0 -24 -18.5 -43t-45.5 -19zM363 801q-21 0 -36 14.5t-15 35.5q0 26 18.5 45.5t43.5 19.5q22 0 37.5 -15.5t15.5 -37.5q0 -24 -18.5 -43t-45.5 -19z" />
    <glyph glyph-name="Aring" unicode="&#xc5;" horiz-adv-x="722" 
d="M17 101l339 569q13 23 13 29t-3.5 11t-9.5 11.5t-8 8.5h191l99 -660q4 -28 11 -42t15 -20t9 -8h-208q0 1 13.5 12t13.5 28q0 19 -1 28l-23 143h-265l-80 -141q-18 -32 -18 -45q0 -6 6 -14.5t7 -10.5h-185q1 1 19.5 16t31 32t33.5 53zM255 301h202l-37 289h-2zM456 790
q-46 0 -80 32t-34 78t34 80t80 34q47 0 78.5 -33.5t31.5 -80.5q0 -45 -32 -77.5t-78 -32.5zM392 900q0 -26 18.5 -43t45.5 -17q26 0 43 17t17 43t-17 45t-43 19q-27 0 -45.5 -18.5t-18.5 -45.5z" />
    <glyph glyph-name="AE" unicode="&#xc6;" horiz-adv-x="1019" 
d="M33 95l445 567q19 27 19 35t-8.5 19.5t-9.5 13.5h593l-31 -140q-1 1 -5.5 8t-6 9t-7.5 6.5t-12 6.5t-16.5 3.5t-23.5 1.5h-234l-43 -196h189h17.5h15.5t12.5 0.5t13 2.5t12 5.5t15 9t16.5 13.5l-38 -167q-3 3 -11 13.5t-20.5 14t-42.5 3.5h-202l-49 -219h248q22 0 38 5
t24 10.5t24 19.5l-32 -140h-502q2 3 13 11t18.5 23.5t15.5 49.5l28 127h-239l-112 -145q-21 -25 -21 -42q0 -6 7.5 -14t8.5 -10h-206q4 3 16 11t20.5 15t25.5 25t37 44zM587 625h-8l-252 -324h188z" />
    <glyph glyph-name="Ccedilla" unicode="&#xc7;" horiz-adv-x="611" 
d="M233 -86l32 80q-93 25 -149 105.5t-56 192.5q0 82 30 163.5t81 145.5t126.5 104t159.5 40q38 0 76 -12.5t64 -25t35 -12.5q5 0 14 8t13 8l-43 -195q-3 5 -11 24.5t-17 33.5t-23.5 31t-39 26t-55.5 9q-71 0 -132 -54.5t-94.5 -136.5t-33.5 -165q0 -81 40 -137.5t116 -56.5
q27 0 53 7t50.5 23t37.5 25t36 30l23 21l-39 -179q-15 15 -22 15q-11 0 -30.5 -12t-55 -23.5t-83.5 -11.5q-9 0 -14 1l-12 -34q16 2 26 2q28 0 49.5 -21t21.5 -46q0 -47 -39.5 -75t-91.5 -28q-32 0 -79 15l10 40q30 -5 34 -5q81 0 81 46q0 18 -13 28.5t-34 10.5
q-8 0 -22 -2.5t-20 -2.5z" />
    <glyph glyph-name="Egrave" unicode="&#xc8;" horiz-adv-x="593" 
d="M45 84l123 562q8 45 8 52q0 15 -17 32h490l-31 -140q-1 1 -5.5 8t-6 9t-7.5 6.5t-12 6.5t-16.5 3.5t-23.5 1.5h-234l-43 -196h189h17.5h15.5t12.5 0.5t13 2.5t12 5.5t15 9t16.5 13.5l-38 -167q-3 3 -11 13.5t-20.5 14t-42.5 3.5h-202l-49 -219h248q22 0 38 5t24 10.5
t24 19.5l-32 -140h-502q2 3 13 11t18.5 23.5t15.5 49.5zM242 842l21 95l254 -90l-12 -58z" />
    <glyph glyph-name="Eacute" unicode="&#xc9;" horiz-adv-x="593" 
d="M45 84l123 562q8 45 8 52q0 15 -17 32h490l-31 -140q-1 1 -5.5 8t-6 9t-7.5 6.5t-12 6.5t-16.5 3.5t-23.5 1.5h-234l-43 -196h189h17.5h15.5t12.5 0.5t13 2.5t12 5.5t15 9t16.5 13.5l-38 -167q-3 3 -11 13.5t-20.5 14t-42.5 3.5h-202l-49 -219h248q22 0 38 5t24 10.5
t24 19.5l-32 -140h-502q2 3 13 11t18.5 23.5t15.5 49.5zM303 789l15 63l265 85l-22 -96z" />
    <glyph glyph-name="Ecircumflex" unicode="&#xca;" horiz-adv-x="593" 
d="M45 84l123 562q8 45 8 52q0 15 -17 32h490l-31 -140q-1 1 -5.5 8t-6 9t-7.5 6.5t-12 6.5t-16.5 3.5t-23.5 1.5h-234l-43 -196h189h17.5h15.5t12.5 0.5t13 2.5t12 5.5t15 9t16.5 13.5l-38 -167q-3 3 -11 13.5t-20.5 14t-42.5 3.5h-202l-49 -219h248q22 0 38 5t24 10.5
t24 19.5l-32 -140h-502q2 3 13 11t18.5 23.5t15.5 49.5zM252 789l-14 52l214 91l172 -94l-20 -45l-168 49z" />
    <glyph glyph-name="Edieresis" unicode="&#xcb;" horiz-adv-x="593" 
d="M45 84l123 562q8 45 8 52q0 15 -17 32h490l-31 -140q-1 1 -5.5 8t-6 9t-7.5 6.5t-12 6.5t-16.5 3.5t-23.5 1.5h-234l-43 -196h189h17.5h15.5t12.5 0.5t13 2.5t12 5.5t15 9t16.5 13.5l-38 -167q-3 3 -11 13.5t-20.5 14t-42.5 3.5h-202l-49 -219h248q22 0 38 5t24 10.5
t24 19.5l-32 -140h-502q2 3 13 11t18.5 23.5t15.5 49.5zM323 801q-21 0 -36 14.5t-15 35.5q0 26 18.5 45.5t43.5 19.5q22 0 37.5 -15.5t15.5 -37.5q0 -24 -18.5 -43t-45.5 -19zM503 801q-21 0 -36 14.5t-15 35.5q0 26 18.5 45.5t43.5 19.5q22 0 37.5 -15.5t15.5 -37.5
q0 -24 -18.5 -43t-45.5 -19z" />
    <glyph glyph-name="Igrave" unicode="&#xcc;" horiz-adv-x="315" 
d="M46 84l123 562q8 45 8 52q0 15 -17 32h206q-2 -3 -13.5 -10.5t-19 -23.5t-14.5 -50l-123 -562q-8 -34 -8 -52q0 -15 17 -32h-206q2 3 13 11t18.5 23.5t15.5 49.5zM102 842l21 95l254 -90l-12 -58z" />
    <glyph glyph-name="Iacute" unicode="&#xcd;" horiz-adv-x="315" 
d="M46 84l123 562q8 45 8 52q0 15 -17 32h206q-2 -3 -13.5 -10.5t-19 -23.5t-14.5 -50l-123 -562q-8 -34 -8 -52q0 -15 17 -32h-206q2 3 13 11t18.5 23.5t15.5 49.5zM164 789l15 63l265 85l-22 -96z" />
    <glyph glyph-name="Icircumflex" unicode="&#xce;" horiz-adv-x="315" 
d="M46 84l123 562q8 45 8 52q0 15 -17 32h206q-2 -3 -13.5 -10.5t-19 -23.5t-14.5 -50l-123 -562q-8 -34 -8 -52q0 -15 17 -32h-206q2 3 13 11t18.5 23.5t15.5 49.5zM113 789l-14 52l214 91l172 -94l-20 -45l-168 49z" />
    <glyph glyph-name="Idieresis" unicode="&#xcf;" horiz-adv-x="315" 
d="M46 84l123 562q8 45 8 52q0 15 -17 32h206q-2 -3 -13.5 -10.5t-19 -23.5t-14.5 -50l-123 -562q-8 -34 -8 -52q0 -15 17 -32h-206q2 3 13 11t18.5 23.5t15.5 49.5zM180 801q-21 0 -36 14.5t-15 35.5q0 26 18.5 45.5t43.5 19.5q22 0 37.5 -15.5t15.5 -37.5q0 -24 -18 -43
t-46 -19zM360 801q-21 0 -36 14.5t-15 35.5q0 26 18.5 45.5t43.5 19.5q22 0 37.5 -15.5t15.5 -37.5q0 -24 -18 -43t-46 -19z" />
    <glyph glyph-name="Eth" unicode="&#xd0;" horiz-adv-x="741" 
d="M39 84l51 235h-90l23 105h90l49 222q8 45 8 52q0 15 -17 32h196q59 0 107 -5t102 -22.5t90.5 -47.5t61 -83.5t24.5 -126.5q0 -136 -70.5 -239t-184 -154.5t-248.5 -51.5h-239q2 3 13 11t18.5 23.5t15.5 49.5zM194 105h37q158 0 255.5 90.5t97.5 242.5q0 47 -12 81
t-30.5 53.5t-48.5 31.5t-59 16t-69 5h-58l-44 -201h159l-23 -105h-159z" />
    <glyph glyph-name="Ntilde" unicode="&#xd1;" horiz-adv-x="778" 
d="M43 84l123 562q8 45 8 52q0 15 -17 32h190l230 -518h2l93 434q8 34 8 52q0 15 -17 32h161q-2 -3 -13 -11t-18.5 -23.5t-15.5 -49.5l-140 -646h-130l-251 574h-2l-106 -490q-8 -34 -8 -52q0 -15 17 -32h-161q2 3 13 11t18.5 23.5t15.5 49.5zM348 813l-39 46q72 72 129 72
q27 0 75 -29q44 -30 65 -30q31 0 82 51l39 -44q-33 -39 -63 -60.5t-70 -21.5q-33 0 -73 30q-41 29 -68 29q-29 0 -77 -43z" />
    <glyph glyph-name="Ograve" unicode="&#xd2;" horiz-adv-x="815" 
d="M379 -15q-152 0 -237 83t-85 230q0 55 15 114t49.5 119t83.5 107t124.5 77t165.5 30q140 0 224 -83.5t84 -217.5q0 -64 -15.5 -127t-49.5 -123.5t-82.5 -106.5t-120 -74t-156.5 -28zM207 274q0 -81 45.5 -132.5t127.5 -51.5q77 0 141.5 54t98 133.5t33.5 162.5
q0 95 -43.5 147.5t-122.5 52.5q-60 0 -109.5 -25.5t-80 -64.5t-52 -89.5t-30 -97t-8.5 -89.5zM353 842l21 95l254 -90l-12 -58z" />
    <glyph glyph-name="Oacute" unicode="&#xd3;" horiz-adv-x="815" 
d="M379 -15q-152 0 -237 83t-85 230q0 55 15 114t49.5 119t83.5 107t124.5 77t165.5 30q140 0 224 -83.5t84 -217.5q0 -64 -15.5 -127t-49.5 -123.5t-82.5 -106.5t-120 -74t-156.5 -28zM207 274q0 -81 45.5 -132.5t127.5 -51.5q77 0 141.5 54t98 133.5t33.5 162.5
q0 95 -43.5 147.5t-122.5 52.5q-60 0 -109.5 -25.5t-80 -64.5t-52 -89.5t-30 -97t-8.5 -89.5zM414 789l15 63l265 85l-22 -96z" />
    <glyph glyph-name="Ocircumflex" unicode="&#xd4;" horiz-adv-x="815" 
d="M379 -15q-152 0 -237 83t-85 230q0 55 15 114t49.5 119t83.5 107t124.5 77t165.5 30q140 0 224 -83.5t84 -217.5q0 -64 -15.5 -127t-49.5 -123.5t-82.5 -106.5t-120 -74t-156.5 -28zM207 274q0 -81 45.5 -132.5t127.5 -51.5q77 0 141.5 54t98 133.5t33.5 162.5
q0 95 -43.5 147.5t-122.5 52.5q-60 0 -109.5 -25.5t-80 -64.5t-52 -89.5t-30 -97t-8.5 -89.5zM363 789l-14 52l214 91l172 -94l-20 -45l-168 49z" />
    <glyph glyph-name="Otilde" unicode="&#xd5;" horiz-adv-x="815" 
d="M379 -15q-152 0 -237 83t-85 230q0 55 15 114t49.5 119t83.5 107t124.5 77t165.5 30q140 0 224 -83.5t84 -217.5q0 -64 -15.5 -127t-49.5 -123.5t-82.5 -106.5t-120 -74t-156.5 -28zM207 274q0 -81 45.5 -132.5t127.5 -51.5q77 0 141.5 54t98 133.5t33.5 162.5
q0 95 -43.5 147.5t-122.5 52.5q-60 0 -109.5 -25.5t-80 -64.5t-52 -89.5t-30 -97t-8.5 -89.5zM353 813l-39 46q72 72 129 72q27 0 75 -29q44 -30 65 -30q31 0 82 51l39 -44q-33 -39 -63 -60.5t-70 -21.5q-33 0 -73 30q-41 29 -68 29q-29 0 -77 -43z" />
    <glyph glyph-name="Odieresis" unicode="&#xd6;" horiz-adv-x="815" 
d="M379 -15q-152 0 -237 83t-85 230q0 55 15 114t49.5 119t83.5 107t124.5 77t165.5 30q140 0 224 -83.5t84 -217.5q0 -64 -15.5 -127t-49.5 -123.5t-82.5 -106.5t-120 -74t-156.5 -28zM207 274q0 -81 45.5 -132.5t127.5 -51.5q77 0 141.5 54t98 133.5t33.5 162.5
q0 95 -43.5 147.5t-122.5 52.5q-60 0 -109.5 -25.5t-80 -64.5t-52 -89.5t-30 -97t-8.5 -89.5zM424 801q-21 0 -36 14.5t-15 35.5q0 26 18.5 45.5t43.5 19.5q22 0 37.5 -15.5t15.5 -37.5q0 -24 -18 -43t-46 -19zM604 801q-21 0 -36 14.5t-15 35.5q0 26 18.5 45.5t43.5 19.5
q22 0 37.5 -15.5t15.5 -37.5q0 -24 -18 -43t-46 -19z" />
    <glyph glyph-name="multiply" unicode="&#xd7;" horiz-adv-x="1000" 
d="M355 41l-60 62l164 165l-164 164l59 60l165 -163l164 163l61 -59l-163 -165l163 -166l-60 -61l-165 164z" />
    <glyph glyph-name="Oslash" unicode="&#xd8;" horiz-adv-x="815" 
d="M83 -16l64 77q-90 84 -90 237q0 55 15 114t49.5 119t83.5 107t124.5 77t165.5 30q99 0 183 -51l61 73l37 -31l-61 -72q88 -83 88 -220q0 -64 -15.5 -127t-49.5 -123.5t-82.5 -106.5t-120 -74t-156.5 -28q-124 0 -192 48l-67 -79zM627 559l-363 -433q44 -36 116 -36
q77 0 141.5 54t98 133.5t33.5 162.5q0 59 -26 119zM233 164l365 435q-46 41 -111 41q-60 0 -109.5 -25.5t-80 -64.5t-52 -89.5t-30 -97t-8.5 -89.5q0 -73 26 -110z" />
    <glyph glyph-name="Ugrave" unicode="&#xd9;" horiz-adv-x="722" 
d="M77 294l79 352q8 32 8 52q0 15 -17 32h206q-2 -2 -13.5 -11.5t-19 -25t-14.5 -47.5l-84 -374q-12 -52 -12 -80q0 -46 32.5 -74t96.5 -28q46 0 80 14.5t54.5 41.5t31.5 55t20 66l85 379q8 34 8 52q0 15 -17 32h171q-2 -2 -13 -10.5t-18.5 -24t-15.5 -49.5l-83 -371
q-11 -49 -22.5 -84t-35.5 -76.5t-55.5 -68t-82.5 -44t-117 -17.5q-129 0 -199 51t-70 147q0 35 17 111zM306 842l21 95l254 -90l-12 -58z" />
    <glyph glyph-name="Uacute" unicode="&#xda;" horiz-adv-x="722" 
d="M77 294l79 352q8 32 8 52q0 15 -17 32h206q-2 -2 -13.5 -11.5t-19 -25t-14.5 -47.5l-84 -374q-12 -52 -12 -80q0 -46 32.5 -74t96.5 -28q46 0 80 14.5t54.5 41.5t31.5 55t20 66l85 379q8 34 8 52q0 15 -17 32h171q-2 -2 -13 -10.5t-18.5 -24t-15.5 -49.5l-83 -371
q-11 -49 -22.5 -84t-35.5 -76.5t-55.5 -68t-82.5 -44t-117 -17.5q-129 0 -199 51t-70 147q0 35 17 111zM367 789l15 63l265 85l-22 -96z" />
    <glyph glyph-name="Ucircumflex" unicode="&#xdb;" horiz-adv-x="722" 
d="M77 294l79 352q8 32 8 52q0 15 -17 32h206q-2 -2 -13.5 -11.5t-19 -25t-14.5 -47.5l-84 -374q-12 -52 -12 -80q0 -46 32.5 -74t96.5 -28q46 0 80 14.5t54.5 41.5t31.5 55t20 66l85 379q8 34 8 52q0 15 -17 32h171q-2 -2 -13 -10.5t-18.5 -24t-15.5 -49.5l-83 -371
q-11 -49 -22.5 -84t-35.5 -76.5t-55.5 -68t-82.5 -44t-117 -17.5q-129 0 -199 51t-70 147q0 35 17 111zM316 789l-14 52l214 91l172 -94l-20 -45l-168 49z" />
    <glyph glyph-name="Udieresis" unicode="&#xdc;" horiz-adv-x="722" 
d="M77 294l79 352q8 32 8 52q0 15 -17 32h206q-2 -2 -13.5 -11.5t-19 -25t-14.5 -47.5l-84 -374q-12 -52 -12 -80q0 -46 32.5 -74t96.5 -28q46 0 80 14.5t54.5 41.5t31.5 55t20 66l85 379q8 34 8 52q0 15 -17 32h171q-2 -2 -13 -10.5t-18.5 -24t-15.5 -49.5l-83 -371
q-11 -49 -22.5 -84t-35.5 -76.5t-55.5 -68t-82.5 -44t-117 -17.5q-129 0 -199 51t-70 147q0 35 17 111zM373 801q-21 0 -36 14.5t-15 35.5q0 26 18.5 45.5t43.5 19.5q22 0 37.5 -15.5t15.5 -37.5q0 -24 -18.5 -43t-45.5 -19zM553 801q-21 0 -36 14.5t-15 35.5
q0 26 18.5 45.5t43.5 19.5q22 0 37.5 -15.5t15.5 -37.5q0 -24 -18.5 -43t-45.5 -19z" />
    <glyph glyph-name="Yacute" unicode="&#xdd;" horiz-adv-x="648" 
d="M214 84l33 154l-108 408q-3 13 -6 22.5t-7 17.5t-5.5 12t-6.5 10t-6 7t-8 7.5t-8 7.5h209q-1 -2 -6.5 -7.5t-8 -9t-5 -9.5t-2.5 -11q0 -8 4 -24l76 -315l193 291q30 45 30 58q0 7 -9 17l-9 10h197q-37 -23 -84 -89l-280 -403l-33 -154q-8 -34 -8 -52q0 -15 17 -32h-206
q2 3 13 11t18.5 23.5t15.5 49.5zM330 789l15 63l265 85l-22 -96z" />
    <glyph glyph-name="Thorn" unicode="&#xde;" horiz-adv-x="648" 
d="M220 255h97q80 0 130 37t50 93q0 64 -34.5 90t-108.5 26h-80zM33 84l123 562q8 34 8 52q0 15 -17 32h206q-2 -3 -13 -11t-18.5 -23.5t-15.5 -49.5l-9 -40h87q43 -1 78 -5.5t71 -18t60 -35t39 -57.5t15 -84q0 -74 -33 -127.5t-87.5 -80t-108.5 -37.5t-113 -11h-108
l-14 -66q-8 -34 -8 -52q0 -15 17 -32h-206q2 3 13 11t18.5 23.5t15.5 49.5z" />
    <glyph glyph-name="germandbls" unicode="&#xdf;" horiz-adv-x="611" 
d="M-90 -173l17 82q2 -1 6.5 -5t9 -6.5t11.5 -2.5q26 0 38 22.5t23 75.5l114 525q8 37 15.5 62.5t27 59.5t45 54.5t70.5 35.5t103 15q85 0 135 -36.5t50 -96.5q0 -50 -31 -85.5t-68 -49.5t-74 -16v-2q34 -3 59 -11.5t50 -28t38.5 -58.5t13.5 -95q0 -46 -17 -95t-46.5 -90.5
t-76 -68.5t-99.5 -27q-26 0 -49 7t-33 13.5t-30 20.5l24 109q2 -3 7 -12t8 -13t8.5 -11t11 -10.5t14 -6t18.5 -2.5q52 0 91 66t39 145q0 42 -9 68t-28 37t-37 14t-48 3l20 90q2 0 6 1q15 2 24.5 4t27.5 9t28.5 16.5t19 26.5t8.5 39q0 25 -21.5 40.5t-48.5 15.5
q-26 0 -46 -11t-31 -23.5t-21 -37.5t-12.5 -37t-8.5 -38l-112 -519q-9 -38 -18 -65.5t-26 -59t-43 -48t-60 -16.5q-30 0 -46 5t-41 22z" />
    <glyph glyph-name="agrave" unicode="&#xe0;" horiz-adv-x="630" 
d="M548 0h-130q0 3 -5 27.5t-5 36.5q0 9 2 26t2 21l-2 2q-39 -59 -61 -80q-54 -48 -135 -48q-76 0 -124.5 55t-48.5 147q0 57 21.5 119t59 115.5t95.5 88.5t124 35q37 0 65.5 -11.5t40.5 -22.5t30 -31l13 50h125l-60 -268q-27 -125 -27 -181q0 -23 20 -81zM171 187
q0 -44 23.5 -78t63.5 -34q23 0 44 9t38 28.5t30.5 37.5t25.5 50t19.5 51t16.5 55t12 48.5t10 43.5q-14 19 -21 26.5t-28 19t-47 11.5q-76 0 -131.5 -84t-55.5 -184zM250 642l21 95l254 -90l-12 -58z" />
    <glyph glyph-name="aacute" unicode="&#xe1;" horiz-adv-x="630" 
d="M548 0h-130q0 3 -5 27.5t-5 36.5q0 9 2 26t2 21l-2 2q-39 -59 -61 -80q-54 -48 -135 -48q-76 0 -124.5 55t-48.5 147q0 57 21.5 119t59 115.5t95.5 88.5t124 35q37 0 65.5 -11.5t40.5 -22.5t30 -31l13 50h125l-60 -268q-27 -125 -27 -181q0 -23 20 -81zM171 187
q0 -44 23.5 -78t63.5 -34q23 0 44 9t38 28.5t30.5 37.5t25.5 50t19.5 51t16.5 55t12 48.5t10 43.5q-14 19 -21 26.5t-28 19t-47 11.5q-76 0 -131.5 -84t-55.5 -184zM291 589l15 63l265 85l-22 -96z" />
    <glyph glyph-name="acircumflex" unicode="&#xe2;" horiz-adv-x="630" 
d="M548 0h-130q0 3 -5 27.5t-5 36.5q0 9 2 26t2 21l-2 2q-39 -59 -61 -80q-54 -48 -135 -48q-76 0 -124.5 55t-48.5 147q0 57 21.5 119t59 115.5t95.5 88.5t124 35q37 0 65.5 -11.5t40.5 -22.5t30 -31l13 50h125l-60 -268q-27 -125 -27 -181q0 -23 20 -81zM171 187
q0 -44 23.5 -78t63.5 -34q23 0 44 9t38 28.5t30.5 37.5t25.5 50t19.5 51t16.5 55t12 48.5t10 43.5q-14 19 -21 26.5t-28 19t-47 11.5q-76 0 -131.5 -84t-55.5 -184zM200 589l-14 52l214 91l172 -94l-20 -45l-168 49z" />
    <glyph glyph-name="atilde" unicode="&#xe3;" horiz-adv-x="630" 
d="M548 0h-130q0 3 -5 27.5t-5 36.5q0 9 2 26t2 21l-2 2q-39 -59 -61 -80q-54 -48 -135 -48q-76 0 -124.5 55t-48.5 147q0 57 21.5 119t59 115.5t95.5 88.5t124 35q37 0 65.5 -11.5t40.5 -22.5t30 -31l13 50h125l-60 -268q-27 -125 -27 -181q0 -23 20 -81zM171 187
q0 -44 23.5 -78t63.5 -34q23 0 44 9t38 28.5t30.5 37.5t25.5 50t19.5 51t16.5 55t12 48.5t10 43.5q-14 19 -21 26.5t-28 19t-47 11.5q-76 0 -131.5 -84t-55.5 -184zM240 613l-39 46q72 72 129 72q27 0 75 -29q44 -30 65 -30q31 0 82 51l39 -44q-33 -39 -63 -60.5t-70 -21.5
q-33 0 -73 30q-41 29 -68 29q-29 0 -77 -43z" />
    <glyph glyph-name="adieresis" unicode="&#xe4;" horiz-adv-x="630" 
d="M548 0h-130q0 3 -5 27.5t-5 36.5q0 9 2 26t2 21l-2 2q-39 -59 -61 -80q-54 -48 -135 -48q-76 0 -124.5 55t-48.5 147q0 57 21.5 119t59 115.5t95.5 88.5t124 35q37 0 65.5 -11.5t40.5 -22.5t30 -31l13 50h125l-60 -268q-27 -125 -27 -181q0 -23 20 -81zM171 187
q0 -44 23.5 -78t63.5 -34q23 0 44 9t38 28.5t30.5 37.5t25.5 50t19.5 51t16.5 55t12 48.5t10 43.5q-14 19 -21 26.5t-28 19t-47 11.5q-76 0 -131.5 -84t-55.5 -184zM302 601q-21 0 -36 14.5t-15 35.5q0 26 18.5 45.5t43.5 19.5q22 0 37.5 -15.5t15.5 -37.5q0 -24 -18 -43
t-46 -19zM482 601q-21 0 -36 14.5t-15 35.5q0 26 18.5 45.5t43.5 19.5q22 0 37.5 -15.5t15.5 -37.5q0 -24 -18.5 -43t-45.5 -19z" />
    <glyph glyph-name="aring" unicode="&#xe5;" horiz-adv-x="630" 
d="M548 0h-130q0 3 -5 27.5t-5 36.5q0 9 2 26t2 21l-2 2q-39 -59 -61 -80q-54 -48 -135 -48q-76 0 -124.5 55t-48.5 147q0 57 21.5 119t59 115.5t95.5 88.5t124 35q37 0 65.5 -11.5t40.5 -22.5t30 -31l13 50h125l-60 -268q-27 -125 -27 -181q0 -23 20 -81zM171 187
q0 -44 23.5 -78t63.5 -34q23 0 44 9t38 28.5t30.5 37.5t25.5 50t19.5 51t16.5 55t12 48.5t10 43.5q-14 19 -21 26.5t-28 19t-47 11.5q-76 0 -131.5 -84t-55.5 -184zM426 590q-46 0 -80 32t-34 78t34 80t80 34q47 0 78.5 -33.5t31.5 -80.5q0 -45 -32 -77.5t-78 -32.5z
M362 700q0 -26 18.5 -43t45.5 -17q26 0 43 17t17 43t-17 45t-43 19q-27 0 -45.5 -18.5t-18.5 -45.5z" />
    <glyph glyph-name="ae" unicode="&#xe6;" horiz-adv-x="944" 
d="M885 176l-29 -130q-1 -1 -12 -7.5t-14 -8t-14.5 -8t-16.5 -8.5t-17 -7.5t-20 -7.5t-21.5 -5.5t-25 -5t-26 -2.5t-29.5 -1q-107 0 -154 39t-57 119h-2q-15 -26 -24.5 -40t-31.5 -40t-43.5 -40.5t-55.5 -26t-72 -11.5q-80 0 -130.5 58t-50.5 147q0 131 94 243t211 112
q40 0 69.5 -13.5t40 -25t27.5 -34.5l13 58h110l-26 -93l2 -2q47 56 94 83t83 27q81 0 136.5 -36t55.5 -100q0 -55 -36 -97.5t-91.5 -65.5t-110 -34.5t-101.5 -11.5q-11 0 -32 2.5t-29 2.5q0 -19 4.5 -38t16 -41.5t39 -36.5t66.5 -14q43 0 81.5 14t59 29.5t42.5 35t27 22.5z
M169 178q0 -41 25 -72t65 -31q26 0 49.5 14.5t41 33.5t34 52.5t26 58t21 64.5t15.5 56.5t11 48.5q-14 22 -38.5 37t-50.5 15q-56 0 -103.5 -48t-71.5 -111t-24 -118zM558 272q18 -2 27 -2q96 0 165 39.5t69 91.5q0 54 -64 54q-77 0 -135.5 -66t-61.5 -117z" />
    <glyph glyph-name="ccedilla" unicode="&#xe7;" horiz-adv-x="481" 
d="M168 -86l31 78q-74 18 -117.5 77.5t-43.5 139.5q0 83 40.5 160t111 126.5t150.5 49.5q42 0 83.5 -15t48.5 -15q5 0 14 6.5t13 6.5l-36 -159q-6 17 -12 29t-16.5 26.5t-27.5 22.5t-39 8q-79 0 -139.5 -74t-60.5 -171q0 -59 30.5 -97t86.5 -38q32 0 60 13.5t55 35.5t33 26
l-27 -117q-21 -14 -32.5 -21t-45 -17t-71.5 -10l-12 -33q16 2 26 2q28 0 49.5 -21t21.5 -46q0 -47 -39.5 -75t-91.5 -28q-32 0 -79 15l10 40q30 -5 34 -5q81 0 81 46q0 18 -13 28.5t-34 10.5q-8 0 -22 -2.5t-20 -2.5z" />
    <glyph glyph-name="egrave" unicode="&#xe8;" horiz-adv-x="556" 
d="M497 162l-27 -116q-1 -1 -12 -7.5t-14 -8t-14.5 -8t-16.5 -8.5t-17 -7.5t-20 -7.5t-21.5 -5.5t-25 -5t-26 -2.5t-29.5 -1q-112 0 -176.5 58.5t-64.5 164.5q0 133 101 235t237 102q81 0 136.5 -36t55.5 -100q0 -55 -36 -97.5t-91.5 -65.5t-110 -34.5t-101.5 -11.5
q-11 0 -32 2.5t-29 2.5q0 -19 4.5 -38t16 -41.5t39 -36.5t66.5 -14q32 0 61.5 7t53.5 19t39.5 22t33 23.5t20.5 15.5zM172 272q18 -2 27 -2q96 0 165 39.5t69 91.5q0 54 -64 54q-77 0 -135.5 -66t-61.5 -117zM213 642l21 95l254 -90l-12 -58z" />
    <glyph glyph-name="eacute" unicode="&#xe9;" horiz-adv-x="556" 
d="M497 162l-27 -116q-1 -1 -12 -7.5t-14 -8t-14.5 -8t-16.5 -8.5t-17 -7.5t-20 -7.5t-21.5 -5.5t-25 -5t-26 -2.5t-29.5 -1q-112 0 -176.5 58.5t-64.5 164.5q0 133 101 235t237 102q81 0 136.5 -36t55.5 -100q0 -55 -36 -97.5t-91.5 -65.5t-110 -34.5t-101.5 -11.5
q-11 0 -32 2.5t-29 2.5q0 -19 4.5 -38t16 -41.5t39 -36.5t66.5 -14q32 0 61.5 7t53.5 19t39.5 22t33 23.5t20.5 15.5zM172 272q18 -2 27 -2q96 0 165 39.5t69 91.5q0 54 -64 54q-77 0 -135.5 -66t-61.5 -117zM254 589l15 63l265 85l-22 -96z" />
    <glyph glyph-name="ecircumflex" unicode="&#xea;" horiz-adv-x="556" 
d="M497 162l-27 -116q-1 -1 -12 -7.5t-14 -8t-14.5 -8t-16.5 -8.5t-17 -7.5t-20 -7.5t-21.5 -5.5t-25 -5t-26 -2.5t-29.5 -1q-112 0 -176.5 58.5t-64.5 164.5q0 133 101 235t237 102q81 0 136.5 -36t55.5 -100q0 -55 -36 -97.5t-91.5 -65.5t-110 -34.5t-101.5 -11.5
q-11 0 -32 2.5t-29 2.5q0 -19 4.5 -38t16 -41.5t39 -36.5t66.5 -14q32 0 61.5 7t53.5 19t39.5 22t33 23.5t20.5 15.5zM172 272q18 -2 27 -2q96 0 165 39.5t69 91.5q0 54 -64 54q-77 0 -135.5 -66t-61.5 -117zM163 589l-14 52l214 91l172 -94l-20 -45l-168 49z" />
    <glyph glyph-name="edieresis" unicode="&#xeb;" horiz-adv-x="556" 
d="M497 162l-27 -116q-1 -1 -12 -7.5t-14 -8t-14.5 -8t-16.5 -8.5t-17 -7.5t-20 -7.5t-21.5 -5.5t-25 -5t-26 -2.5t-29.5 -1q-112 0 -176.5 58.5t-64.5 164.5q0 133 101 235t237 102q81 0 136.5 -36t55.5 -100q0 -55 -36 -97.5t-91.5 -65.5t-110 -34.5t-101.5 -11.5
q-11 0 -32 2.5t-29 2.5q0 -19 4.5 -38t16 -41.5t39 -36.5t66.5 -14q32 0 61.5 7t53.5 19t39.5 22t33 23.5t20.5 15.5zM172 272q18 -2 27 -2q96 0 165 39.5t69 91.5q0 54 -64 54q-77 0 -135.5 -66t-61.5 -117zM270 601q-21 0 -36 14.5t-15 35.5q0 26 18.5 45.5t43.5 19.5
q22 0 37.5 -15.5t15.5 -37.5q0 -24 -18 -43t-46 -19zM450 601q-21 0 -36 14.5t-15 35.5q0 26 18.5 45.5t43.5 19.5q22 0 37.5 -15.5t15.5 -37.5q0 -24 -18 -43t-46 -19z" />
    <glyph glyph-name="igrave" unicode="&#xec;" horiz-adv-x="278" 
d="M35 84l77 362q9 38 9 52q0 15 -17 32h157l-96 -446q-8 -36 -8 -52q0 -15 17 -32h-186q2 3 13 10.5t18.5 23t15.5 50.5zM64 642l21 95l254 -90l-12 -58z" />
    <glyph glyph-name="iacute" unicode="&#xed;" horiz-adv-x="278" 
d="M35 84l77 362q9 38 9 52q0 15 -17 32h157l-96 -446q-8 -36 -8 -52q0 -15 17 -32h-186q2 3 13 10.5t18.5 23t15.5 50.5zM100 589l15 63l265 85l-22 -96z" />
    <glyph glyph-name="icircumflex" unicode="&#xee;" horiz-adv-x="278" 
d="M35 84l77 362q9 38 9 52q0 15 -17 32h157l-96 -446q-8 -36 -8 -52q0 -15 17 -32h-186q2 3 13 10.5t18.5 23t15.5 50.5zM24 589l-14 52l214 91l172 -94l-20 -45l-168 49z" />
    <glyph glyph-name="idieresis" unicode="&#xef;" horiz-adv-x="278" 
d="M35 84l77 362q9 38 9 52q0 15 -17 32h157l-96 -446q-8 -36 -8 -52q0 -15 17 -32h-186q2 3 13 10.5t18.5 23t15.5 50.5zM131 601q-21 0 -36 14.5t-15 35.5q0 26 18.5 45.5t43.5 19.5q22 0 37.5 -15.5t15.5 -37.5q0 -24 -18.5 -43t-45.5 -19zM311 601q-21 0 -36 14.5
t-15 35.5q0 26 18.5 45.5t43.5 19.5q22 0 37.5 -15.5t15.5 -37.5q0 -24 -18.5 -43t-45.5 -19z" />
    <glyph glyph-name="eth" unicode="&#xf0;" horiz-adv-x="593" 
d="M165 181q0 -45 25 -75.5t70 -30.5q72 0 127.5 89t55.5 178q0 49 -31 73.5t-76 24.5q-72 0 -121.5 -82t-49.5 -177zM384 618l-151 -53l-43 43l149 52q-51 39 -101 56l80 29q58 -12 110 -55l139 48l43 -42l-139 -48q98 -112 98 -268q0 -64 -20 -130.5t-58.5 -127
t-105.5 -99t-150 -38.5q-79 0 -140.5 54.5t-61.5 147.5q0 86 37 164.5t106.5 128.5t152.5 50q38 0 72.5 -15t52.5 -42l2 2q-13 77 -72 143z" />
    <glyph glyph-name="ntilde" unicode="&#xf1;" horiz-adv-x="574" 
d="M37 84l77 362q9 38 9 52q0 15 -17 32h155l-21 -97l2 -2q22 28 33 39.5t36 33.5t53 31.5t62 9.5q57 0 83.5 -33.5t26.5 -77.5q0 -31 -14 -89l-54 -261q-8 -38 -8 -52q0 -15 17 -32h-186q2 3 13 11t18.5 23.5t15.5 49.5l54 258q14 66 14 69q0 44 -43 44q-56 0 -100.5 -62.5
t-58.5 -132.5l-37 -176q-8 -36 -8 -52q0 -15 17 -32h-186q2 3 13 10.5t18.5 23t15.5 50.5zM212 613l-39 46q72 72 129 72q27 0 75 -29q44 -30 65 -30q31 0 82 51l39 -44q-33 -39 -63 -60.5t-70 -21.5q-33 0 -73 30q-41 29 -68 29q-29 0 -77 -43z" />
    <glyph glyph-name="ograve" unicode="&#xf2;" horiz-adv-x="593" 
d="M243 -15q-97 0 -154 58.5t-57 146.5q0 46 11 93.5t36.5 95t62 84t92.5 59.5t124 23q99 0 152.5 -53.5t53.5 -149.5q0 -91 -38 -171.5t-113 -133t-170 -52.5zM162 190q0 -50 23.5 -82.5t71.5 -32.5q43 0 78.5 30.5t56 75.5t31.5 90t11 80q0 41 -24 72.5t-63 31.5
q-44 0 -81 -30t-58.5 -73t-33.5 -86.5t-12 -75.5zM232 642l21 95l254 -90l-12 -58z" />
    <glyph glyph-name="oacute" unicode="&#xf3;" horiz-adv-x="593" 
d="M243 -15q-97 0 -154 58.5t-57 146.5q0 46 11 93.5t36.5 95t62 84t92.5 59.5t124 23q99 0 152.5 -53.5t53.5 -149.5q0 -91 -38 -171.5t-113 -133t-170 -52.5zM162 190q0 -50 23.5 -82.5t71.5 -32.5q43 0 78.5 30.5t56 75.5t31.5 90t11 80q0 41 -24 72.5t-63 31.5
q-44 0 -81 -30t-58.5 -73t-33.5 -86.5t-12 -75.5zM258 589l15 63l265 85l-22 -96z" />
    <glyph glyph-name="ocircumflex" unicode="&#xf4;" horiz-adv-x="593" 
d="M243 -15q-97 0 -154 58.5t-57 146.5q0 46 11 93.5t36.5 95t62 84t92.5 59.5t124 23q99 0 152.5 -53.5t53.5 -149.5q0 -91 -38 -171.5t-113 -133t-170 -52.5zM162 190q0 -50 23.5 -82.5t71.5 -32.5q43 0 78.5 30.5t56 75.5t31.5 90t11 80q0 41 -24 72.5t-63 31.5
q-44 0 -81 -30t-58.5 -73t-33.5 -86.5t-12 -75.5zM182 589l-14 52l214 91l172 -94l-20 -45l-168 49z" />
    <glyph glyph-name="otilde" unicode="&#xf5;" horiz-adv-x="593" 
d="M243 -15q-97 0 -154 58.5t-57 146.5q0 46 11 93.5t36.5 95t62 84t92.5 59.5t124 23q99 0 152.5 -53.5t53.5 -149.5q0 -91 -38 -171.5t-113 -133t-170 -52.5zM162 190q0 -50 23.5 -82.5t71.5 -32.5q43 0 78.5 30.5t56 75.5t31.5 90t11 80q0 41 -24 72.5t-63 31.5
q-44 0 -81 -30t-58.5 -73t-33.5 -86.5t-12 -75.5zM222 613l-39 46q72 72 129 72q27 0 75 -29q44 -30 65 -30q31 0 82 51l39 -44q-33 -39 -63 -60.5t-70 -21.5q-33 0 -73 30q-41 29 -68 29q-29 0 -77 -43z" />
    <glyph glyph-name="odieresis" unicode="&#xf6;" horiz-adv-x="593" 
d="M243 -15q-97 0 -154 58.5t-57 146.5q0 46 11 93.5t36.5 95t62 84t92.5 59.5t124 23q99 0 152.5 -53.5t53.5 -149.5q0 -91 -38 -171.5t-113 -133t-170 -52.5zM162 190q0 -50 23.5 -82.5t71.5 -32.5q43 0 78.5 30.5t56 75.5t31.5 90t11 80q0 41 -24 72.5t-63 31.5
q-44 0 -81 -30t-58.5 -73t-33.5 -86.5t-12 -75.5zM289 601q-21 0 -36 14.5t-15 35.5q0 26 18.5 45.5t43.5 19.5q22 0 37.5 -15.5t15.5 -37.5q0 -24 -18.5 -43t-45.5 -19zM469 601q-21 0 -36 14.5t-15 35.5q0 26 18.5 45.5t43.5 19.5q22 0 37.5 -15.5t15.5 -37.5
q0 -24 -18.5 -43t-45.5 -19z" />
    <glyph glyph-name="divide" unicode="&#xf7;" horiz-adv-x="1000" 
d="M267 223v90h507v-90h-507zM520 403q-25 0 -43 18t-18 43t18 43t44 18q25 0 42.5 -18.5t17.5 -44.5q0 -25 -18 -42t-43 -17zM520 11q-25 0 -43 18t-18 43t18 43t44 18q25 0 42.5 -18.5t17.5 -44.5q0 -25 -18 -42t-43 -17z" />
    <glyph glyph-name="oslash" unicode="&#xf8;" horiz-adv-x="593" 
d="M66 -47l46 68q-80 56 -80 169q0 46 11 93.5t36.5 95t62 84t92.5 59.5t124 23q52 0 97 -19l48 71l29 -18l-47 -70q79 -49 79 -167q0 -91 -38 -171.5t-113 -133t-170 -52.5q-56 0 -101 20l-47 -70zM419 412l-219 -323q28 -14 57 -14q43 0 78.5 30.5t56 75.5t31.5 90t11 80
q0 42 -15 61zM177 116l218 322q-17 17 -48 17q-44 0 -81 -30t-58.5 -73t-33.5 -86.5t-12 -75.5q0 -41 15 -74z" />
    <glyph glyph-name="ugrave" unicode="&#xf9;" horiz-adv-x="593" 
d="M495 0h-130q-11 38 -11 43q0 37 6 70l-2 2q-15 -23 -21 -31.5t-27 -32t-38.5 -34.5t-46 -21.5t-59.5 -10.5q-61 0 -95 30.5t-34 88.5q0 33 11 83l59 259q8 45 8 52q0 15 -17 32h157l-81 -359q-7 -30 -7 -53q0 -18 13 -30.5t30 -12.5q45 0 83.5 44.5t60 99t35.5 118.5
l24 109q9 38 9 52q0 15 -17 32h157l-65 -291q-23 -97 -23 -167q0 -35 21 -72zM222 642l21 95l254 -90l-12 -58z" />
    <glyph glyph-name="uacute" unicode="&#xfa;" horiz-adv-x="593" 
d="M495 0h-130q-11 38 -11 43q0 37 6 70l-2 2q-15 -23 -21 -31.5t-27 -32t-38.5 -34.5t-46 -21.5t-59.5 -10.5q-61 0 -95 30.5t-34 88.5q0 33 11 83l59 259q8 45 8 52q0 15 -17 32h157l-81 -359q-7 -30 -7 -53q0 -18 13 -30.5t30 -12.5q45 0 83.5 44.5t60 99t35.5 118.5
l24 109q9 38 9 52q0 15 -17 32h157l-65 -291q-23 -97 -23 -167q0 -35 21 -72zM258 589l15 63l265 85l-22 -96z" />
    <glyph glyph-name="ucircumflex" unicode="&#xfb;" horiz-adv-x="593" 
d="M495 0h-130q-11 38 -11 43q0 37 6 70l-2 2q-15 -23 -21 -31.5t-27 -32t-38.5 -34.5t-46 -21.5t-59.5 -10.5q-61 0 -95 30.5t-34 88.5q0 33 11 83l59 259q8 45 8 52q0 15 -17 32h157l-81 -359q-7 -30 -7 -53q0 -18 13 -30.5t30 -12.5q45 0 83.5 44.5t60 99t35.5 118.5
l24 109q9 38 9 52q0 15 -17 32h157l-65 -291q-23 -97 -23 -167q0 -35 21 -72zM182 589l-14 52l214 91l172 -94l-20 -45l-168 49z" />
    <glyph glyph-name="udieresis" unicode="&#xfc;" horiz-adv-x="593" 
d="M495 0h-130q-11 38 -11 43q0 37 6 70l-2 2q-15 -23 -21 -31.5t-27 -32t-38.5 -34.5t-46 -21.5t-59.5 -10.5q-61 0 -95 30.5t-34 88.5q0 33 11 83l59 259q8 45 8 52q0 15 -17 32h157l-81 -359q-7 -30 -7 -53q0 -18 13 -30.5t30 -12.5q45 0 83.5 44.5t60 99t35.5 118.5
l24 109q9 38 9 52q0 15 -17 32h157l-65 -291q-23 -97 -23 -167q0 -35 21 -72zM265 601q-21 0 -36 14.5t-15 35.5q0 26 18.5 45.5t43.5 19.5q22 0 37.5 -15.5t15.5 -37.5q0 -24 -18.5 -43t-45.5 -19zM445 601q-21 0 -36 14.5t-15 35.5q0 26 18.5 45.5t43.5 19.5
q22 0 37.5 -15.5t15.5 -37.5q0 -24 -18.5 -43t-45.5 -19z" />
    <glyph glyph-name="yacute" unicode="&#xfd;" horiz-adv-x="574" 
d="M1 -142l27 125q4 -5 18.5 -28.5t25 -34.5t35 -23t57.5 -12q39 0 69.5 15t47.5 35t30.5 52t19 54.5t11.5 53.5q1 7 2 11l-2 2q-2 -3 -6 -8q-23 -31 -38 -48t-48.5 -35.5t-72.5 -18.5q-60 0 -93.5 35.5t-33.5 91.5q0 32 11 80l52 241q8 34 8 52q0 15 -17 32h157l-70 -322
q-11 -48 -11 -66t13 -31t31 -13q56 0 99.5 63.5t61.5 143.5l31 141q8 34 8 52q0 15 -17 32h157l-101 -458q-14 -60 -31.5 -104t-49 -86.5t-82 -64.5t-118.5 -22q-48 0 -85.5 11t-51.5 20t-44 32zM248 589l15 63l265 85l-22 -96z" />
    <glyph glyph-name="thorn" unicode="&#xfe;" horiz-adv-x="611" 
d="M-14 -116l168 762q9 38 9 52q0 15 -17 32h156l-66 -294l2 -2q22 28 32 39.5t34 32.5t51 30t60 9q76 0 124 -53.5t48 -137.5t-45 -167.5t-133.5 -142.5t-196.5 -59q-25 0 -73 8l-23 -109q-8 -36 -8 -52q0 -15 17 -32h-186q2 3 13 10.5t18.5 23t15.5 50.5zM191 228
l-32 -147q7 0 22.5 -3t24.5 -3q64 0 115 29t79 72.5t42.5 88.5t14.5 84q0 43 -23.5 74.5t-61.5 31.5q-60 0 -111.5 -72t-69.5 -155z" />
    <glyph glyph-name="ydieresis" unicode="&#xff;" horiz-adv-x="574" 
d="M1 -142l27 125q4 -5 18.5 -28.5t25 -34.5t35 -23t57.5 -12q39 0 69.5 15t47.5 35t30.5 52t19 54.5t11.5 53.5q1 7 2 11l-2 2q-2 -3 -6 -8q-23 -31 -38 -48t-48.5 -35.5t-72.5 -18.5q-60 0 -93.5 35.5t-33.5 91.5q0 32 11 80l52 241q8 34 8 52q0 15 -17 32h157l-70 -322
q-11 -48 -11 -66t13 -31t31 -13q56 0 99.5 63.5t61.5 143.5l31 141q8 34 8 52q0 15 -17 32h157l-101 -458q-14 -60 -31.5 -104t-49 -86.5t-82 -64.5t-118.5 -22q-48 0 -85.5 11t-51.5 20t-44 32zM274 601q-21 0 -36 14.5t-15 35.5q0 26 18.5 45.5t43.5 19.5q22 0 37.5 -15.5
t15.5 -37.5q0 -24 -18 -43t-46 -19zM454 601q-21 0 -36 14.5t-15 35.5q0 26 18.5 45.5t43.5 19.5q22 0 37.5 -15.5t15.5 -37.5q0 -24 -18 -43t-46 -19z" />
    <glyph glyph-name="dotlessi" unicode="&#x131;" horiz-adv-x="278" 
d="M35 84l77 362q9 38 9 52q0 15 -17 32h157l-96 -446q-8 -36 -8 -52q0 -15 17 -32h-186q2 3 13 10.5t18.5 23t15.5 50.5z" />
    <glyph glyph-name="Lslash" unicode="&#x141;" horiz-adv-x="574" 
d="M82 84l40 181l-81 -32l-38 91l145 59l58 263q8 45 8 52q0 15 -17 32h206q-2 -3 -13.5 -10.5t-19 -23.5t-14.5 -50l-43 -192l168 68l38 -93l-232 -97l-50 -227h215q17 0 32.5 5.5t24 11.5t21.5 16.5t17 13.5l-33 -152h-478q2 2 13 10.5t18 24t15 49.5z" />
    <glyph glyph-name="lslash" unicode="&#x142;" horiz-adv-x="351" 
d="M69 84l39 183l-76 -44l-43 75l143 81l57 267q10 42 10 52q0 15 -17 32h156l-57 -263l101 57l44 -75l-170 -97l-57 -268q-8 -36 -8 -52q0 -15 17 -32h-186q2 3 13 10.5t18.5 23t15.5 50.5z" />
    <glyph glyph-name="OE" unicode="&#x152;" horiz-adv-x="1056" 
d="M496 0l11 48l-2 2q-11 -19 -57 -42t-114 -23q-126 0 -203 82.5t-77 223.5q0 59 16.5 121t52 122t85 106.5t120.5 75.5t153 29q92 0 164 -69l12 54h452l-31 -140q-1 1 -5.5 8t-6 9t-7.5 6.5t-12 6.5t-16.5 3.5t-23.5 1.5h-234l-43 -196h189h17.5h15.5t12.5 0.5t13 2.5
t12 5.5t15 9t16.5 13.5l-38 -167q-3 3 -11 13.5t-20.5 14t-42.5 3.5h-202l-49 -219h248q22 0 38 5t24 10.5t24 19.5l-32 -140h-464zM527 141l96 436q-4 3 -17.5 15t-22 17.5t-24 14t-35 12.5t-43.5 4q-78 0 -143 -54.5t-99.5 -137t-34.5 -169.5q0 -88 47.5 -138.5
t126.5 -50.5q34 0 68.5 11t45.5 18t35 22z" />
    <glyph glyph-name="oe" unicode="&#x153;" horiz-adv-x="944" 
d="M889 176l-29 -130q-1 -1 -12 -7.5t-14 -8t-14.5 -8t-16.5 -8.5t-17 -7.5t-20 -7.5t-21.5 -5.5t-25 -5t-26 -2.5t-29.5 -1q-85 0 -139 33t-64 92q-18 -24 -26 -34t-30.5 -31.5t-43 -31.5t-54.5 -19t-73 -9q-87 0 -144.5 54.5t-57.5 141.5q0 147 92 255.5t230 108.5
q121 0 158 -83q4 -8 16 -44q54 67 110 97t123 30q81 0 136.5 -36t55.5 -100q0 -55 -36 -97.5t-91.5 -65.5t-110 -34.5t-101.5 -11.5q-11 0 -32 2.5t-29 2.5q0 -19 4.5 -38t16 -41.5t39 -36.5t66.5 -14q43 0 81.5 14t59 29.5t42.5 35t27 22.5zM162 190q0 -115 101 -115
q54 0 97 47.5t63 107t20 109.5q0 116 -96 116q-70 0 -127.5 -82t-57.5 -183zM562 272q18 -2 27 -2q96 0 165 39.5t69 91.5q0 54 -64 54q-77 0 -135.5 -66t-61.5 -117z" />
    <glyph glyph-name="Scaron" unicode="&#x160;" horiz-adv-x="611" 
d="M4 32l44 206q29 -56 49 -78q63 -70 182 -70q61 0 102.5 31t41.5 73q0 28 -24 51t-60 38t-78.5 35t-78.5 42t-60 60t-24 87q0 103 79 170.5t204 67.5q52 0 97 -14t74.5 -28t45.5 -14q6 0 17 9t16 9l-42 -189q-1 1 -8.5 13t-11.5 18.5t-15 19.5t-20.5 21t-25 18.5
t-31.5 16.5t-38 10.5t-46 4.5q-57 0 -101 -24.5t-44 -71.5q0 -37 33.5 -64.5t81 -48t95.5 -44.5t81.5 -67t33.5 -103q0 -105 -87.5 -168.5t-205.5 -63.5q-58 0 -101 10t-62 22.5t-39.5 22.5t-39.5 10q-8 0 -20 -8.5t-14 -9.5zM419 789l-172 94l20 45l168 -49l184 53l14 -52z
" />
    <glyph glyph-name="scaron" unicode="&#x161;" horiz-adv-x="500" 
d="M-3 17l38 166q19 -44 63.5 -76t118.5 -32q44 0 74.5 20t30.5 49q0 28 -26.5 48t-64 33.5t-75 29.5t-64 46t-26.5 72q0 71 61.5 121.5t157.5 50.5q52 0 110.5 -19.5t73.5 -19.5q5 0 12 6.5t11 6.5l-37 -161q-13 21 -21.5 31t-28.5 29t-49 28t-67 9q-35 0 -64 -15.5
t-29 -43.5q0 -25 26.5 -43t64 -32t75 -31t64 -48t26.5 -75q0 -74 -64.5 -128t-162.5 -54q-55 0 -96.5 13t-65 26t-35.5 13q-6 0 -16.5 -9t-14.5 -11zM313 589l-172 94l20 45l168 -49l184 53l14 -52z" />
    <glyph glyph-name="Ydieresis" unicode="&#x178;" horiz-adv-x="648" 
d="M214 84l33 154l-108 408q-3 13 -6 22.5t-7 17.5t-5.5 12t-6.5 10t-6 7t-8 7.5t-8 7.5h209q-1 -2 -6.5 -7.5t-8 -9t-5 -9.5t-2.5 -11q0 -8 4 -24l76 -315l193 291q30 45 30 58q0 7 -9 17l-9 10h197q-37 -23 -84 -89l-280 -403l-33 -154q-8 -34 -8 -52q0 -15 17 -32h-206
q2 3 13 11t18.5 23.5t15.5 49.5zM356 801q-21 0 -36 14.5t-15 35.5q0 26 18.5 45.5t43.5 19.5q22 0 37.5 -15.5t15.5 -37.5q0 -24 -18 -43t-46 -19zM536 801q-21 0 -36 14.5t-15 35.5q0 26 18.5 45.5t43.5 19.5q22 0 37.5 -15.5t15.5 -37.5q0 -24 -18 -43t-46 -19z" />
    <glyph glyph-name="Zcaron" unicode="&#x17d;" horiz-adv-x="630" 
d="M-14 0l19 81l484 544h-236q-36 0 -54 -4.5t-36.5 -19.5t-19.5 -16l32 145h524l-19 -84l-482 -541h289q31 0 45 4t28.5 17t21.5 18l-33 -144h-563zM428 789l-172 94l20 45l168 -49l184 53l14 -52z" />
    <glyph glyph-name="zcaron" unicode="&#x17e;" horiz-adv-x="463" 
d="M-32 0l16 73l341 367h-184q-12 0 -20.5 -1t-15.5 -5t-10 -6t-10.5 -9.5l-10.5 -10.5l26 122h405l-18 -76l-336 -364h191q25 0 41 6t28 16t18 12l-28 -124h-433zM295 589l-172 94l20 45l168 -49l184 53l14 -52z" />
    <glyph glyph-name="florin" unicode="&#x192;" 
d="M-7 -166l35 99q1 -2 6.5 -14t8.5 -15.5t11.5 -8.5t20.5 -5q8 0 15.5 4t14 12.5t11.5 16t10.5 21t8.5 21t8 22.5t7 19l152 434h-80l31 90h81q2 6 8.5 24.5t10 28t11 28t13.5 29t16 27t20 26t23.5 20.5t28.5 17.5t33.5 10.5t39.5 4q37 0 79 -17t50 -17q3 0 8 3.5t7 3.5
l-42 -132q-5 14 -9 23t-11 19.5t-18 16t-26 5.5q-18 0 -33 -6.5t-24.5 -15.5t-18 -24.5t-12 -25t-9 -26.5t-7.5 -22h113l-33 -90h-108l-154 -441q-10 -31 -17.5 -50t-25 -52t-36 -52t-48.5 -34.5t-65 -15.5q-27 0 -49 6.5t-31.5 13t-24.5 19.5z" />
    <glyph glyph-name="circumflex" unicode="&#x2c6;" horiz-adv-x="350" 
d="M60 589l-14 52l214 91l172 -94l-20 -45l-168 49z" />
    <glyph glyph-name="caron" unicode="&#x2c7;" horiz-adv-x="350" 
d="M238 589l-172 94l20 45l168 -49l184 53l14 -52z" />
    <glyph glyph-name="uni02C9" unicode="&#x2c9;" horiz-adv-x="350" 
d="M108 629l15 65h324l-15 -65h-324z" />
    <glyph glyph-name="breve" unicode="&#x2d8;" horiz-adv-x="350" 
d="M373 744h50q-4 -42 -55 -98.5t-125 -56.5q-53 0 -86.5 28.5t-33.5 75.5q0 21 10 51h50q0 -16 1.5 -26.5t7 -26t21.5 -24t41 -8.5q10 0 19 2t16.5 4t15.5 7t13.5 8.5t12.5 10.5l10.5 10.5t9.5 11.5t8 10.5t8 11t6 9.5z" />
    <glyph glyph-name="dotaccent" unicode="&#x2d9;" horiz-adv-x="350" 
d="M202 589q-36 0 -59 15t-23 43q0 33 27 55.5t63 22.5q32 0 56 -17.5t24 -45.5q0 -32 -26.5 -52.5t-61.5 -20.5z" />
    <glyph glyph-name="ring" unicode="&#x2da;" horiz-adv-x="350" 
d="M266 590q-46 0 -80 32t-34 78t34 80t80 34q47 0 78.5 -33.5t31.5 -80.5q0 -45 -32 -77.5t-78 -32.5zM202 700q0 -26 18.5 -43t45.5 -17q26 0 43 17t17 43t-17 45t-43 19q-27 0 -45.5 -18.5t-18.5 -45.5z" />
    <glyph glyph-name="ogonek" unicode="&#x2db;" horiz-adv-x="350" 
d="M328 -91v-23q-22 -21 -31 -28.5t-30.5 -22.5t-45.5 -20.5t-53 -5.5q-38 0 -58 19.5t-20 49.5q0 27 13 50.5t40.5 43t45.5 30t51 26.5l9 -15q-89 -55 -89 -106q0 -21 18 -32t41 -11q34 0 109 45z" />
    <glyph glyph-name="tilde" unicode="&#x2dc;" horiz-adv-x="350" 
d="M100 613l-39 46q72 72 129 72q27 0 75 -29q44 -30 65 -30q31 0 82 51l39 -44q-33 -39 -63 -60.5t-70 -21.5q-33 0 -73 30q-41 29 -68 29q-29 0 -77 -43z" />
    <glyph glyph-name="hungarumlaut" unicode="&#x2dd;" horiz-adv-x="350" 
d="M30 589l6 53l248 103l-10 -86zM300 589l6 53l248 103l-10 -86z" />
    <glyph glyph-name="uni03A9" unicode="&#x3a9;" horiz-adv-x="862" 
d="M185 88l1 3q-56 50 -82.5 128.5t-3.5 178.5q34 147 160.5 246.5t283.5 99.5q107 0 179 -50t96.5 -127.5t3.5 -165.5q-24 -102 -87.5 -182t-142.5 -128l-1 -3h175l-20 -88h-304l16 66q84 42 151 121t93 195q14 50 7 99t-26.5 87.5t-61.5 62.5t-98 24q-110 0 -198 -79.5
t-115 -198.5q-25 -108 6 -191t94 -120l-15 -66h-303l20 88h172z" />
    <glyph glyph-name="uni03BC" unicode="&#x3bc;" horiz-adv-x="593" 
d="M-29 -200l146 646q8 45 8 52q0 15 -17 32h157l-82 -359q-6 -34 -6 -53q0 -18 13 -30.5t30 -12.5q45 0 83.5 44.5t60 99t35.5 118.5l24 109q9 38 9 52q0 15 -17 32h157l-65 -291q-23 -97 -23 -167q0 -35 21 -72h-130q-11 38 -11 43q0 37 6 70l-2 2q-1 -1 -9.5 -13.5
t-11 -16.5t-12 -16.5t-15 -17.5t-16.5 -16t-19.5 -16.5t-21 -13t-24 -11t-26 -6.5t-29.5 -3q-5 0 -41 8l-24 -109q-8 -34 -8 -52q0 -15 17 -32h-157z" />
    <glyph glyph-name="pi" unicode="&#x3c0;" horiz-adv-x="690" 
d="M706 456h-91l-67 -291q-25 -111 -22 -165h-112q-13 31 16 155l70 301h-194q-30 -109 -85.5 -249.5t-99.5 -206.5h-113q48 81 103 217t82 239q-86 0 -131 -14l2 72q56 33 188 33h485z" />
    <glyph glyph-name="endash" unicode="&#x2013;" 
d="M30 219l33 149q17 -27 38 -27h494q33 0 62 23l-33 -149q-2 2 -9 10.5t-14.5 12t-20.5 3.5h-497q-13 0 -23 -4t-18.5 -10t-11.5 -8z" />
    <glyph glyph-name="emdash" unicode="&#x2014;" horiz-adv-x="1000" 
d="M30 219l33 149q17 -27 38 -27h826q33 0 62 23l-33 -149q-2 2 -9 10.5t-14.5 12t-20.5 3.5h-829q-13 0 -23 -4t-18.5 -10t-11.5 -8z" />
    <glyph glyph-name="quoteleft" unicode="&#x2018;" horiz-adv-x="241" 
d="M278 745l27 -57q-59 -33 -72.5 -45t-38.5 -58q45 -3 59 -27q9 -15 9 -37q0 -31 -22.5 -53.5t-54.5 -22.5q-33 0 -55 27t-22 63q0 43 17 80t45.5 62t54 40.5t53.5 27.5z" />
    <glyph glyph-name="quoteright" unicode="&#x2019;" horiz-adv-x="241" 
d="M117 445l-27 57q59 33 72.5 45t38.5 58q-45 3 -59 27q-9 15 -9 37q0 31 22.5 53.5t54.5 22.5q33 0 55 -27t22 -63q0 -43 -17 -80t-45.5 -62t-54 -40.5t-53.5 -27.5z" />
    <glyph glyph-name="quotesinglbase" unicode="&#x201a;" horiz-adv-x="241" 
d="M9 -165l-27 57q59 33 72.5 45t38.5 58q-45 3 -59 27q-9 15 -9 37q0 31 22.5 53.5t54.5 22.5q33 0 55 -27t22 -63q0 -43 -17 -80t-45.5 -62t-54 -40.5t-53.5 -27.5z" />
    <glyph glyph-name="quotedblleft" unicode="&#x201c;" horiz-adv-x="444" 
d="M469 745l27 -57q-59 -33 -72.5 -45t-38.5 -58q45 -3 59 -27q9 -15 9 -37q0 -31 -22.5 -53.5t-54.5 -22.5q-33 0 -55 27t-22 63q0 43 17 80t45.5 62t54 40.5t53.5 27.5zM279 745l27 -57q-59 -33 -72.5 -45t-38.5 -58q45 -3 59 -27q9 -15 9 -37q0 -31 -22.5 -53.5
t-54.5 -22.5q-33 0 -55 27t-22 63q0 43 17 80t45.5 62t54 40.5t53.5 27.5z" />
    <glyph glyph-name="quotedblright" unicode="&#x201d;" horiz-adv-x="444" 
d="M117 445l-27 57q59 33 72.5 45t38.5 58q-45 3 -59 27q-9 15 -9 37q0 31 22.5 53.5t54.5 22.5q33 0 55 -27t22 -63q0 -43 -17 -80t-45.5 -62t-54 -40.5t-53.5 -27.5zM307 445l-27 57q59 33 72.5 45t38.5 58q-45 3 -59 27q-9 15 -9 37q0 31 22.5 53.5t54.5 22.5
q33 0 55 -27t22 -63q0 -43 -17 -80t-45.5 -62t-54 -40.5t-53.5 -27.5z" />
    <glyph glyph-name="quotedblbase" unicode="&#x201e;" horiz-adv-x="444" 
d="M7 -165l-27 57q59 33 72.5 45t38.5 58q-45 3 -59 27q-9 15 -9 37q0 31 22.5 53.5t54.5 22.5q33 0 55 -27t22 -63q0 -43 -17 -80t-45.5 -62t-54 -40.5t-53.5 -27.5zM197 -165l-27 57q59 33 72.5 45t38.5 58q-45 3 -59 27q-9 15 -9 37q0 31 22.5 53.5t54.5 22.5
q33 0 55 -27t22 -63q0 -43 -17 -80t-45.5 -62t-54 -40.5t-53.5 -27.5z" />
    <glyph glyph-name="dagger" unicode="&#x2020;" 
d="M288 57v372h-81q-16 0 -26 -2t-13 -4t-8.5 -7.5t-8.5 -7.5v150q2 -1 9.5 -10t16.5 -11.5t30 -2.5h81v130q0 42 -24 66h178q-24 -24 -24 -66v-130h81q21 0 30 2.5t16.5 11.5t9.5 10v-150q-3 2 -8.5 7.5t-8.5 7.5t-13 4t-26 2h-81v-372q0 -15 2.5 -24.5t5 -13t10 -10
t9.5 -9.5h-184q3 3 8 7.5t7.5 7.5t5.5 8.5t4.5 13.5t1.5 20z" />
    <glyph glyph-name="daggerdbl" unicode="&#x2021;" 
d="M288 57v134h-81q-16 0 -26 -2t-13 -4t-8.5 -7.5t-8.5 -7.5v150q2 -1 9.5 -10t16.5 -11.5t30 -2.5h81v156h-81q-16 0 -26 -2t-13 -4t-8.5 -7.5t-8.5 -7.5v150q2 -1 9.5 -10t16.5 -11.5t30 -2.5h81v107q0 42 -24 66h178q-24 -24 -24 -66v-107h81q21 0 30 2.5t16.5 11.5
t9.5 10v-150q-3 2 -8.5 7.5t-8.5 7.5t-13 4t-26 2h-81v-156h81q21 0 30 2.5t16.5 11.5t9.5 10v-150q-3 2 -8.5 7.5t-8.5 7.5t-13 4t-26 2h-81v-134q0 -15 2.5 -24.5t5 -13t10 -10t9.5 -9.5h-184q3 3 8 7.5t7.5 7.5t5.5 8.5t4.5 13.5t1.5 20z" />
    <glyph glyph-name="bullet" unicode="&#x2022;" horiz-adv-x="500" 
d="M280 180q-75 0 -128 53t-53 127q0 75 53 128.5t128 53.5q74 0 127.5 -53.5t53.5 -128.5q0 -74 -53.5 -127t-127.5 -53z" />
    <glyph glyph-name="ellipsis" unicode="&#x2026;" horiz-adv-x="1000" 
d="M131 0q-29 0 -48.5 21t-19.5 49t20 49t48 21q29 0 50.5 -20.5t21.5 -49.5q0 -30 -21.5 -50t-50.5 -20zM811 0q-29 0 -48.5 21t-19.5 49t20 49t48 21q29 0 50.5 -20.5t21.5 -49.5q0 -30 -21.5 -50t-50.5 -20zM471 0q-29 0 -48.5 21t-19.5 49t20 49t48 21q29 0 50.5 -20.5
t21.5 -49.5q0 -30 -21.5 -50t-50.5 -20z" />
    <glyph glyph-name="perthousand" unicode="&#x2030;" horiz-adv-x="1333" 
d="M173 467q0 -25 14 -43.5t36 -18.5q49 0 78.5 60.5t29.5 128.5q0 22 -13.5 39t-33.5 17q-29 0 -52 -21.5t-35 -53t-18 -59.5t-6 -49zM195 -5l507 740h58l-507 -740h-58zM612 142q0 -25 14 -43.5t36 -18.5q49 0 78.5 60.5t29.5 128.5q0 22 -13.5 39t-33.5 17
q-29 0 -52 -21.5t-35 -53t-18 -59.5t-6 -49zM222 320q-77 0 -115.5 44t-38.5 115q0 101 63 178.5t158 77.5q71 0 109 -41t38 -116q0 -99 -60 -178.5t-154 -79.5zM661 -5q-77 0 -115.5 44t-38.5 115q0 101 63 178.5t158 77.5q71 0 109 -41t38 -116q0 -99 -60 -178.5
t-154 -79.5zM1087 -5q-77 0 -115.5 44t-38.5 115q0 101 63 178.5t158 77.5q71 0 109 -41t38 -116q0 -99 -60 -178.5t-154 -79.5zM1038 142q0 -25 14 -43.5t36 -18.5q49 0 78.5 60.5t29.5 128.5q0 22 -13.5 39t-33.5 17q-29 0 -52 -21.5t-35 -53t-18 -59.5t-6 -49z" />
    <glyph glyph-name="guilsinglleft" unicode="&#x2039;" horiz-adv-x="259" 
d="M89 109l-44 200l107 156h120l-117 -171l44 -185h-110z" />
    <glyph glyph-name="guilsinglright" unicode="&#x203a;" horiz-adv-x="259" 
d="M14 109l117 171l-44 185h110l44 -200l-107 -156h-120z" />
    <glyph glyph-name="fraction" unicode="&#x2044;" horiz-adv-x="185" 
d="M-88 -15l336 760h56l-336 -760h-56z" />
    <glyph glyph-name="Euro" unicode="&#x20ac;" 
d="M509 327l-14 -60h-220q1 -49 13 -87t47 -66.5t90 -28.5q92 0 198 111l-39 -179q-13 15 -21 15q-10 0 -30 -12t-53.5 -23.5t-77.5 -11.5q-109 0 -180.5 78.5t-77.5 203.5h-111l14 60h99q2 36 15 88h-91l14 60h97q48 118 140 194t206 76q49 0 105 -25t61 -25t26 16
l-44 -195q0 1 -6.5 17t-10.5 23.5t-12.5 23.5t-18.5 25t-23.5 19.5t-32 15.5t-39.5 5q-75 0 -129.5 -47t-88.5 -123h232l-14 -60h-239q-14 -48 -17 -88h233z" />
    <glyph glyph-name="afii61289" unicode="&#x2113;" horiz-adv-x="591" 
d="M495 184l40 -48q-117 -147 -271 -147q-90 0 -128 50.5t-30 129.5q2 8 2 11q-13 -7 -38 -23t-36 -23l-19 60q15 10 53.5 34.5t57.5 37.5l62 270q32 138 101.5 203t153.5 65q78 0 106.5 -51.5t10.5 -129.5q-21 -94 -104 -185.5t-227 -195.5l-6 -29q-14 -65 12.5 -99.5
t75.5 -34.5t98 31t86 74zM301 553l-48 -210q200 163 227 279q24 104 -51 104q-36 0 -71.5 -41t-56.5 -132z" />
    <glyph glyph-name="trademark" unicode="&#x2122;" horiz-adv-x="611" 
d="M147 440v248h-73v42h190v-42h-74v-248h-43zM297 440v290h78l60 -228h2l59 228h80v-290h-43v262h-2l-68 -262h-53l-68 262h-2v-262h-43z" />
    <glyph glyph-name="Omega" unicode="&#x2126;" horiz-adv-x="862" 
d="M185 88l1 3q-56 50 -82.5 128.5t-3.5 178.5q34 147 160.5 246.5t283.5 99.5q107 0 179 -50t96.5 -127.5t3.5 -165.5q-24 -102 -87.5 -182t-142.5 -128l-1 -3h175l-20 -88h-304l16 66q84 42 151 121t93 195q14 50 7 99t-26.5 87.5t-61.5 62.5t-98 24q-110 0 -198 -79.5
t-115 -198.5q-25 -108 6 -191t94 -120l-15 -66h-303l20 88h172z" />
    <glyph glyph-name="estimated" unicode="&#x212e;" horiz-adv-x="1027" 
d="M991 354h-684q-5 0 -5 -4v-207q0 -13 9 -24q109 -112 258 -112q80 0 150.5 33.5t121.5 92.5h61q-57 -68 -145.5 -107.5t-188.5 -39.5q-175 0 -298.5 111t-123.5 268t123.5 268.5t298.5 111.5t299 -111t124 -269v-11zM836 381v208q0 14 -11 25q-110 108 -256 108
q-148 0 -257 -111q-10 -10 -10 -26v-204q0 -6 5 -6h524q5 0 5 6z" />
    <glyph glyph-name="partialdiff" unicode="&#x2202;" horiz-adv-x="657" 
d="M214 681l-19 77q100 62 222 62q132 0 197 -107t22 -294q-42 -185 -156 -307.5t-263 -122.5q-58 0 -100 23.5t-60 59.5t-24.5 80t5.5 85q27 118 116.5 193t195.5 75q71 0 113.5 -35t55.5 -70h1q2 5 5.5 20.5t5.5 21.5q28 125 -14 207t-133 82q-90 0 -170 -50zM249 78h1
q72 0 137 68t98 161q-4 38 -39 75t-93 37q-67 0 -126 -53.5t-76 -128.5q-16 -68 11 -113.5t87 -45.5z" />
    <glyph glyph-name="Delta" unicode="&#x2206;" horiz-adv-x="773" 
d="M-28 0l16 67l445 684h136l126 -683l-16 -68h-707zM111 88h462l-71 367q-3 20 -15 92t-14 98h-5q-8 -15 -26.5 -45.5t-43 -69t-35.5 -57.5z" />
    <glyph glyph-name="product" unicode="&#x220f;" horiz-adv-x="940" 
d="M913 634h-129v-735h-111v735h-299v-735h-111v735h-129v97h779v-97z" />
    <glyph glyph-name="summation" unicode="&#x2211;" horiz-adv-x="764" 
d="M740 -101h-608v68l302 346l-288 344v74h575v-94h-417v-3l260 -307l-282 -326v-2h458v-100z" />
    <glyph glyph-name="minus" unicode="&#x2212;" horiz-adv-x="1000" 
d="M267 223v90h507v-90h-507z" />
    <glyph glyph-name="uni2215" unicode="&#x2215;" horiz-adv-x="185" 
d="M-88 -15l336 760h56l-336 -760h-56z" />
    <glyph glyph-name="uni2219" unicode="&#x2219;" 
d="M346 310q-34 0 -59 23.5t-25 57.5q0 36 24.5 61.5t59.5 25.5t59.5 -25.5t24.5 -61.5q0 -34 -24.5 -57.5t-59.5 -23.5z" />
    <glyph glyph-name="radical" unicode="&#x221a;" horiz-adv-x="786" 
d="M798 871l-265 -1026h-94l-184 474l-87 -33l-21 61l175 70l142 -380q4 -14 11 -40t10 -37h2q2 12 8.5 41t8.5 39l211 831h83z" />
    <glyph glyph-name="infinity" unicode="&#x221e;" horiz-adv-x="924" 
d="M869 303v-1q0 -82 -52.5 -133t-123.5 -51q-50 0 -98 31t-107 100q-53 -63 -100.5 -97t-109.5 -34q-70 0 -121 51.5t-51 128.5q0 80 51.5 131.5t129.5 51.5q58 0 106 -34t100 -96q60 67 88 88q57 42 120 42q74 0 121 -49.5t47 -128.5zM287 181h1q11 0 21.5 2t22 7.5
t19.5 9t20 13.5t17 14t18 17.5t16 16.5t16.5 18.5t14.5 16.5q-56 69 -81 90q-43 34 -91 34q-49 0 -78.5 -35t-29.5 -88q0 -48 32 -82t82 -34zM694 420h-1q-21 0 -41 -7.5t-39.5 -23.5t-31.5 -27t-31 -33t-24 -27q58 -67 94 -94t77 -27q47 0 76 36t29 81q0 55 -30 88.5
t-78 33.5z" />
    <glyph glyph-name="integral" unicode="&#x222b;" horiz-adv-x="530" 
d="M515 884l-15 -73q-18 11 -43 11q-38 0 -59 -26q-35 -40 -35 -181q0 -82 8 -253.5t8 -261.5q0 -138 -45 -209q-40 -66 -128 -66q-49 0 -83 19l16 75q36 -13 54 -13q33 0 53 23q37 45 37 173q0 91 -8.5 265.5t-8.5 258.5q0 88 15 142t50 87q44 44 118 44q40 0 66 -15z" />
    <glyph glyph-name="approxequal" unicode="&#x2248;" horiz-adv-x="699" 
d="M606 472l42 -40q-64 -107 -153 -107q-34 0 -61 10.5t-74 36.5q-68 36 -105 36q-36 0 -61.5 -20.5t-54.5 -60.5l-42 40q27 48 71 77.5t94 29.5q13 0 26.5 -2.5t23 -5t22.5 -8t19 -8.5t19 -10t16 -9t12 -7t11.5 -6.5t10 -5.5t10.5 -5.5t9.5 -4.5t10.5 -4t10 -3t10.5 -2.5
t10.5 -1t12 -0.5q60 0 111 81zM606 273l42 -41q-64 -106 -154 -106q-23 0 -46 6.5t-38.5 14t-49.5 25.5q-65 37 -105 37q-36 0 -61.5 -20.5t-54.5 -61.5l-42 41q27 48 71 77.5t93 29.5q13 0 27 -2.5t23 -4.5t23 -8.5t18 -8.5t20 -11l15 -8q4 -2 20.5 -11.5t22 -12t18.5 -8
t24 -7t23 -1.5q34 0 58.5 19t52.5 62z" />
    <glyph glyph-name="notequal" unicode="&#x2260;" horiz-adv-x="721" 
d="M539 549l-49 -106h174v-66h-202l-73 -159h275v-66h-303l-62 -133l-54 24l51 109h-168v66h197l73 159h-270v66h297l61 130z" />
    <glyph glyph-name="lessequal" unicode="&#x2264;" horiz-adv-x="743" 
d="M683 100l-527 248v71l526 247v-77l-455 -204v-2l456 -206v-77zM686 -10h-536v67h536v-67z" />
    <glyph glyph-name="greaterequal" unicode="&#x2265;" horiz-adv-x="742" 
d="M157 666l527 -248v-71l-527 -247v77l455 205v2l-455 205v77zM683 -10h-532v67h532v-67z" />
    <glyph glyph-name="lozenge" unicode="&#x25ca;" horiz-adv-x="786" 
d="M728 365l-236 -419h-89l-233 419l236 419h88zM628 362l-157 284q-12 24 -22 52h-2q-12 -32 -22 -52l-155 -279l157 -285q11 -21 21 -51h3q8 26 21 50z" />
    </font>
</defs>
</svg>
